%TF.GenerationSoftware,KiCad,Pcbnew,7.0.7*%
%TF.CreationDate,2023-09-03T02:21:54+05:00*%
%TF.ProjectId,MCUPCB,4d435550-4342-42e6-9b69-6361645f7063,rev?*%
%TF.SameCoordinates,Original*%
%TF.FileFunction,Paste,Top*%
%TF.FilePolarity,Positive*%
%FSLAX46Y46*%
G04 Gerber Fmt 4.6, Leading zero omitted, Abs format (unit mm)*
G04 Created by KiCad (PCBNEW 7.0.7) date 2023-09-03 02:21:54*
%MOMM*%
%LPD*%
G01*
G04 APERTURE LIST*
%ADD10R,0.900000X1.500000*%
%ADD11R,1.500000X0.900000*%
%ADD12R,1.050000X1.050000*%
G04 APERTURE END LIST*
D10*
%TO.C,U33*%
X123855000Y-215120000D03*
X125125000Y-215120000D03*
X126395000Y-215120000D03*
X127665000Y-215120000D03*
X128935000Y-215120000D03*
X130205000Y-215120000D03*
X131475000Y-215120000D03*
X132745000Y-215120000D03*
X134015000Y-215120000D03*
X135285000Y-215120000D03*
X136555000Y-215120000D03*
X137825000Y-215120000D03*
X139095000Y-215120000D03*
X140365000Y-215120000D03*
D11*
X141615000Y-212080000D03*
X141615000Y-210810000D03*
X141615000Y-209540000D03*
X141615000Y-208270000D03*
X141615000Y-207000000D03*
X141615000Y-205730000D03*
X141615000Y-204460000D03*
X141615000Y-203190000D03*
X141615000Y-201920000D03*
X141615000Y-200650000D03*
D10*
X140365000Y-197620000D03*
X139095000Y-197620000D03*
X137825000Y-197620000D03*
X136555000Y-197620000D03*
X135285000Y-197620000D03*
X134015000Y-197620000D03*
X132745000Y-197620000D03*
X131475000Y-197620000D03*
X130205000Y-197620000D03*
X128935000Y-197620000D03*
X127665000Y-197620000D03*
X126395000Y-197620000D03*
X125125000Y-197620000D03*
X123855000Y-197620000D03*
D12*
X129670000Y-208575000D03*
X132720000Y-205525000D03*
X132720000Y-207050000D03*
X131195000Y-205525000D03*
X131195000Y-208575000D03*
X132720000Y-208575000D03*
X129670000Y-205525000D03*
X129670000Y-207050000D03*
X131195000Y-207050000D03*
%TD*%
M02*
