%TF.GenerationSoftware,KiCad,Pcbnew,7.0.7*%
%TF.CreationDate,2023-09-03T02:21:55+05:00*%
%TF.ProjectId,MCUPCB,4d435550-4342-42e6-9b69-6361645f7063,rev?*%
%TF.SameCoordinates,Original*%
%TF.FileFunction,Other,User*%
%FSLAX46Y46*%
G04 Gerber Fmt 4.6, Leading zero omitted, Abs format (unit mm)*
G04 Created by KiCad (PCBNEW 7.0.7) date 2023-09-03 02:21:55*
%MOMM*%
%LPD*%
G01*
G04 APERTURE LIST*
%ADD10C,0.050000*%
G04 APERTURE END LIST*
D10*
%TO.C,U16*%
X502092500Y-152720000D02*
X502092500Y-142920000D01*
X502092500Y-142920000D02*
X507742500Y-142920000D01*
X507742500Y-142920000D02*
X507742500Y-152720000D01*
X507742500Y-152720000D02*
X502092500Y-152720000D01*
%TO.C,U9*%
X320535000Y-152720000D02*
X320535000Y-142920000D01*
X320535000Y-142920000D02*
X326185000Y-142920000D01*
X326185000Y-142920000D02*
X326185000Y-152720000D01*
X326185000Y-152720000D02*
X320535000Y-152720000D01*
%TO.C,U1*%
X109715000Y-152720000D02*
X109715000Y-142920000D01*
X109715000Y-142920000D02*
X115365000Y-142920000D01*
X115365000Y-142920000D02*
X115365000Y-152720000D01*
X115365000Y-152720000D02*
X109715000Y-152720000D01*
%TO.C,U3*%
X160515000Y-152720000D02*
X160515000Y-142920000D01*
X160515000Y-142920000D02*
X166165000Y-142920000D01*
X166165000Y-142920000D02*
X166165000Y-152720000D01*
X166165000Y-152720000D02*
X160515000Y-152720000D01*
%TO.C,U4*%
X185457500Y-152720000D02*
X185457500Y-142920000D01*
X185457500Y-142920000D02*
X191107500Y-142920000D01*
X191107500Y-142920000D02*
X191107500Y-152720000D01*
X191107500Y-152720000D02*
X185457500Y-152720000D01*
%TO.C,U5*%
X212615000Y-153280000D02*
X212615000Y-143480000D01*
X212615000Y-143480000D02*
X218265000Y-143480000D01*
X218265000Y-143480000D02*
X218265000Y-153280000D01*
X218265000Y-153280000D02*
X212615000Y-153280000D01*
%TO.C,U6*%
X237932500Y-152720000D02*
X237932500Y-142920000D01*
X237932500Y-142920000D02*
X243582500Y-142920000D01*
X243582500Y-142920000D02*
X243582500Y-152720000D01*
X243582500Y-152720000D02*
X237932500Y-152720000D01*
%TO.C,U2*%
X135115000Y-152720000D02*
X135115000Y-142920000D01*
X135115000Y-142920000D02*
X140765000Y-142920000D01*
X140765000Y-142920000D02*
X140765000Y-152720000D01*
X140765000Y-152720000D02*
X135115000Y-152720000D01*
%TO.C,U8*%
X292137500Y-152720000D02*
X292137500Y-142920000D01*
X292137500Y-142920000D02*
X297787500Y-142920000D01*
X297787500Y-142920000D02*
X297787500Y-152720000D01*
X297787500Y-152720000D02*
X292137500Y-152720000D01*
%TO.C,U7*%
X271527500Y-152720000D02*
X265877500Y-152720000D01*
X271527500Y-142920000D02*
X271527500Y-152720000D01*
X265877500Y-142920000D02*
X271527500Y-142920000D01*
X265877500Y-152720000D02*
X265877500Y-142920000D01*
%TO.C,U11*%
X373875000Y-152720000D02*
X373875000Y-142920000D01*
X373875000Y-142920000D02*
X379525000Y-142920000D01*
X379525000Y-142920000D02*
X379525000Y-152720000D01*
X379525000Y-152720000D02*
X373875000Y-152720000D01*
%TO.C,U12*%
X399275000Y-152720000D02*
X399275000Y-142920000D01*
X399275000Y-142920000D02*
X404925000Y-142920000D01*
X404925000Y-142920000D02*
X404925000Y-152720000D01*
X404925000Y-152720000D02*
X399275000Y-152720000D01*
%TO.C,U15*%
X476692500Y-152720000D02*
X476692500Y-142920000D01*
X476692500Y-142920000D02*
X482342500Y-142920000D01*
X482342500Y-142920000D02*
X482342500Y-152720000D01*
X482342500Y-152720000D02*
X476692500Y-152720000D01*
%TO.C,U14*%
X451292500Y-152720000D02*
X451292500Y-142920000D01*
X451292500Y-142920000D02*
X456942500Y-142920000D01*
X456942500Y-142920000D02*
X456942500Y-152720000D01*
X456942500Y-152720000D02*
X451292500Y-152720000D01*
%TO.C,U13*%
X431542500Y-152720000D02*
X425892500Y-152720000D01*
X431542500Y-142920000D02*
X431542500Y-152720000D01*
X425892500Y-142920000D02*
X431542500Y-142920000D01*
X425892500Y-152720000D02*
X425892500Y-142920000D01*
%TO.C,U10*%
X351585000Y-152720000D02*
X345935000Y-152720000D01*
X351585000Y-142920000D02*
X351585000Y-152720000D01*
X345935000Y-142920000D02*
X351585000Y-142920000D01*
X345935000Y-152720000D02*
X345935000Y-142920000D01*
%TO.C,U34*%
X295087500Y-190800000D02*
X295087500Y-181000000D01*
X295087500Y-181000000D02*
X331187500Y-181000000D01*
X331187500Y-181000000D02*
X331187500Y-190800000D01*
X331187500Y-190800000D02*
X295087500Y-190800000D01*
%TD*%
M02*
