%TF.GenerationSoftware,KiCad,Pcbnew,7.0.7*%
%TF.CreationDate,2023-09-03T02:21:54+05:00*%
%TF.ProjectId,MCUPCB,4d435550-4342-42e6-9b69-6361645f7063,rev?*%
%TF.SameCoordinates,Original*%
%TF.FileFunction,Legend,Bot*%
%TF.FilePolarity,Positive*%
%FSLAX46Y46*%
G04 Gerber Fmt 4.6, Leading zero omitted, Abs format (unit mm)*
G04 Created by KiCad (PCBNEW 7.0.7) date 2023-09-03 02:21:54*
%MOMM*%
%LPD*%
G01*
G04 APERTURE LIST*
%ADD10C,0.150000*%
%ADD11C,0.120000*%
G04 APERTURE END LIST*
D10*
X507977319Y-146571905D02*
X508786842Y-146571905D01*
X508786842Y-146571905D02*
X508882080Y-146619524D01*
X508882080Y-146619524D02*
X508929700Y-146667143D01*
X508929700Y-146667143D02*
X508977319Y-146762381D01*
X508977319Y-146762381D02*
X508977319Y-146952857D01*
X508977319Y-146952857D02*
X508929700Y-147048095D01*
X508929700Y-147048095D02*
X508882080Y-147095714D01*
X508882080Y-147095714D02*
X508786842Y-147143333D01*
X508786842Y-147143333D02*
X507977319Y-147143333D01*
X508977319Y-148143333D02*
X508977319Y-147571905D01*
X508977319Y-147857619D02*
X507977319Y-147857619D01*
X507977319Y-147857619D02*
X508120176Y-147762381D01*
X508120176Y-147762381D02*
X508215414Y-147667143D01*
X508215414Y-147667143D02*
X508263033Y-147571905D01*
X507977319Y-149000476D02*
X507977319Y-148810000D01*
X507977319Y-148810000D02*
X508024938Y-148714762D01*
X508024938Y-148714762D02*
X508072557Y-148667143D01*
X508072557Y-148667143D02*
X508215414Y-148571905D01*
X508215414Y-148571905D02*
X508405890Y-148524286D01*
X508405890Y-148524286D02*
X508786842Y-148524286D01*
X508786842Y-148524286D02*
X508882080Y-148571905D01*
X508882080Y-148571905D02*
X508929700Y-148619524D01*
X508929700Y-148619524D02*
X508977319Y-148714762D01*
X508977319Y-148714762D02*
X508977319Y-148905238D01*
X508977319Y-148905238D02*
X508929700Y-149000476D01*
X508929700Y-149000476D02*
X508882080Y-149048095D01*
X508882080Y-149048095D02*
X508786842Y-149095714D01*
X508786842Y-149095714D02*
X508548747Y-149095714D01*
X508548747Y-149095714D02*
X508453509Y-149048095D01*
X508453509Y-149048095D02*
X508405890Y-149000476D01*
X508405890Y-149000476D02*
X508358271Y-148905238D01*
X508358271Y-148905238D02*
X508358271Y-148714762D01*
X508358271Y-148714762D02*
X508405890Y-148619524D01*
X508405890Y-148619524D02*
X508453509Y-148571905D01*
X508453509Y-148571905D02*
X508548747Y-148524286D01*
X326419819Y-147048095D02*
X327229342Y-147048095D01*
X327229342Y-147048095D02*
X327324580Y-147095714D01*
X327324580Y-147095714D02*
X327372200Y-147143333D01*
X327372200Y-147143333D02*
X327419819Y-147238571D01*
X327419819Y-147238571D02*
X327419819Y-147429047D01*
X327419819Y-147429047D02*
X327372200Y-147524285D01*
X327372200Y-147524285D02*
X327324580Y-147571904D01*
X327324580Y-147571904D02*
X327229342Y-147619523D01*
X327229342Y-147619523D02*
X326419819Y-147619523D01*
X327419819Y-148143333D02*
X327419819Y-148333809D01*
X327419819Y-148333809D02*
X327372200Y-148429047D01*
X327372200Y-148429047D02*
X327324580Y-148476666D01*
X327324580Y-148476666D02*
X327181723Y-148571904D01*
X327181723Y-148571904D02*
X326991247Y-148619523D01*
X326991247Y-148619523D02*
X326610295Y-148619523D01*
X326610295Y-148619523D02*
X326515057Y-148571904D01*
X326515057Y-148571904D02*
X326467438Y-148524285D01*
X326467438Y-148524285D02*
X326419819Y-148429047D01*
X326419819Y-148429047D02*
X326419819Y-148238571D01*
X326419819Y-148238571D02*
X326467438Y-148143333D01*
X326467438Y-148143333D02*
X326515057Y-148095714D01*
X326515057Y-148095714D02*
X326610295Y-148048095D01*
X326610295Y-148048095D02*
X326848390Y-148048095D01*
X326848390Y-148048095D02*
X326943628Y-148095714D01*
X326943628Y-148095714D02*
X326991247Y-148143333D01*
X326991247Y-148143333D02*
X327038866Y-148238571D01*
X327038866Y-148238571D02*
X327038866Y-148429047D01*
X327038866Y-148429047D02*
X326991247Y-148524285D01*
X326991247Y-148524285D02*
X326943628Y-148571904D01*
X326943628Y-148571904D02*
X326848390Y-148619523D01*
X115599819Y-147048095D02*
X116409342Y-147048095D01*
X116409342Y-147048095D02*
X116504580Y-147095714D01*
X116504580Y-147095714D02*
X116552200Y-147143333D01*
X116552200Y-147143333D02*
X116599819Y-147238571D01*
X116599819Y-147238571D02*
X116599819Y-147429047D01*
X116599819Y-147429047D02*
X116552200Y-147524285D01*
X116552200Y-147524285D02*
X116504580Y-147571904D01*
X116504580Y-147571904D02*
X116409342Y-147619523D01*
X116409342Y-147619523D02*
X115599819Y-147619523D01*
X116599819Y-148619523D02*
X116599819Y-148048095D01*
X116599819Y-148333809D02*
X115599819Y-148333809D01*
X115599819Y-148333809D02*
X115742676Y-148238571D01*
X115742676Y-148238571D02*
X115837914Y-148143333D01*
X115837914Y-148143333D02*
X115885533Y-148048095D01*
X166399819Y-147048095D02*
X167209342Y-147048095D01*
X167209342Y-147048095D02*
X167304580Y-147095714D01*
X167304580Y-147095714D02*
X167352200Y-147143333D01*
X167352200Y-147143333D02*
X167399819Y-147238571D01*
X167399819Y-147238571D02*
X167399819Y-147429047D01*
X167399819Y-147429047D02*
X167352200Y-147524285D01*
X167352200Y-147524285D02*
X167304580Y-147571904D01*
X167304580Y-147571904D02*
X167209342Y-147619523D01*
X167209342Y-147619523D02*
X166399819Y-147619523D01*
X166399819Y-148000476D02*
X166399819Y-148619523D01*
X166399819Y-148619523D02*
X166780771Y-148286190D01*
X166780771Y-148286190D02*
X166780771Y-148429047D01*
X166780771Y-148429047D02*
X166828390Y-148524285D01*
X166828390Y-148524285D02*
X166876009Y-148571904D01*
X166876009Y-148571904D02*
X166971247Y-148619523D01*
X166971247Y-148619523D02*
X167209342Y-148619523D01*
X167209342Y-148619523D02*
X167304580Y-148571904D01*
X167304580Y-148571904D02*
X167352200Y-148524285D01*
X167352200Y-148524285D02*
X167399819Y-148429047D01*
X167399819Y-148429047D02*
X167399819Y-148143333D01*
X167399819Y-148143333D02*
X167352200Y-148048095D01*
X167352200Y-148048095D02*
X167304580Y-148000476D01*
X191342319Y-147048095D02*
X192151842Y-147048095D01*
X192151842Y-147048095D02*
X192247080Y-147095714D01*
X192247080Y-147095714D02*
X192294700Y-147143333D01*
X192294700Y-147143333D02*
X192342319Y-147238571D01*
X192342319Y-147238571D02*
X192342319Y-147429047D01*
X192342319Y-147429047D02*
X192294700Y-147524285D01*
X192294700Y-147524285D02*
X192247080Y-147571904D01*
X192247080Y-147571904D02*
X192151842Y-147619523D01*
X192151842Y-147619523D02*
X191342319Y-147619523D01*
X191675652Y-148524285D02*
X192342319Y-148524285D01*
X191294700Y-148286190D02*
X192008985Y-148048095D01*
X192008985Y-148048095D02*
X192008985Y-148667142D01*
X218499819Y-147608095D02*
X219309342Y-147608095D01*
X219309342Y-147608095D02*
X219404580Y-147655714D01*
X219404580Y-147655714D02*
X219452200Y-147703333D01*
X219452200Y-147703333D02*
X219499819Y-147798571D01*
X219499819Y-147798571D02*
X219499819Y-147989047D01*
X219499819Y-147989047D02*
X219452200Y-148084285D01*
X219452200Y-148084285D02*
X219404580Y-148131904D01*
X219404580Y-148131904D02*
X219309342Y-148179523D01*
X219309342Y-148179523D02*
X218499819Y-148179523D01*
X218499819Y-149131904D02*
X218499819Y-148655714D01*
X218499819Y-148655714D02*
X218976009Y-148608095D01*
X218976009Y-148608095D02*
X218928390Y-148655714D01*
X218928390Y-148655714D02*
X218880771Y-148750952D01*
X218880771Y-148750952D02*
X218880771Y-148989047D01*
X218880771Y-148989047D02*
X218928390Y-149084285D01*
X218928390Y-149084285D02*
X218976009Y-149131904D01*
X218976009Y-149131904D02*
X219071247Y-149179523D01*
X219071247Y-149179523D02*
X219309342Y-149179523D01*
X219309342Y-149179523D02*
X219404580Y-149131904D01*
X219404580Y-149131904D02*
X219452200Y-149084285D01*
X219452200Y-149084285D02*
X219499819Y-148989047D01*
X219499819Y-148989047D02*
X219499819Y-148750952D01*
X219499819Y-148750952D02*
X219452200Y-148655714D01*
X219452200Y-148655714D02*
X219404580Y-148608095D01*
X243817319Y-147048095D02*
X244626842Y-147048095D01*
X244626842Y-147048095D02*
X244722080Y-147095714D01*
X244722080Y-147095714D02*
X244769700Y-147143333D01*
X244769700Y-147143333D02*
X244817319Y-147238571D01*
X244817319Y-147238571D02*
X244817319Y-147429047D01*
X244817319Y-147429047D02*
X244769700Y-147524285D01*
X244769700Y-147524285D02*
X244722080Y-147571904D01*
X244722080Y-147571904D02*
X244626842Y-147619523D01*
X244626842Y-147619523D02*
X243817319Y-147619523D01*
X243817319Y-148524285D02*
X243817319Y-148333809D01*
X243817319Y-148333809D02*
X243864938Y-148238571D01*
X243864938Y-148238571D02*
X243912557Y-148190952D01*
X243912557Y-148190952D02*
X244055414Y-148095714D01*
X244055414Y-148095714D02*
X244245890Y-148048095D01*
X244245890Y-148048095D02*
X244626842Y-148048095D01*
X244626842Y-148048095D02*
X244722080Y-148095714D01*
X244722080Y-148095714D02*
X244769700Y-148143333D01*
X244769700Y-148143333D02*
X244817319Y-148238571D01*
X244817319Y-148238571D02*
X244817319Y-148429047D01*
X244817319Y-148429047D02*
X244769700Y-148524285D01*
X244769700Y-148524285D02*
X244722080Y-148571904D01*
X244722080Y-148571904D02*
X244626842Y-148619523D01*
X244626842Y-148619523D02*
X244388747Y-148619523D01*
X244388747Y-148619523D02*
X244293509Y-148571904D01*
X244293509Y-148571904D02*
X244245890Y-148524285D01*
X244245890Y-148524285D02*
X244198271Y-148429047D01*
X244198271Y-148429047D02*
X244198271Y-148238571D01*
X244198271Y-148238571D02*
X244245890Y-148143333D01*
X244245890Y-148143333D02*
X244293509Y-148095714D01*
X244293509Y-148095714D02*
X244388747Y-148048095D01*
X140999819Y-147048095D02*
X141809342Y-147048095D01*
X141809342Y-147048095D02*
X141904580Y-147095714D01*
X141904580Y-147095714D02*
X141952200Y-147143333D01*
X141952200Y-147143333D02*
X141999819Y-147238571D01*
X141999819Y-147238571D02*
X141999819Y-147429047D01*
X141999819Y-147429047D02*
X141952200Y-147524285D01*
X141952200Y-147524285D02*
X141904580Y-147571904D01*
X141904580Y-147571904D02*
X141809342Y-147619523D01*
X141809342Y-147619523D02*
X140999819Y-147619523D01*
X141095057Y-148048095D02*
X141047438Y-148095714D01*
X141047438Y-148095714D02*
X140999819Y-148190952D01*
X140999819Y-148190952D02*
X140999819Y-148429047D01*
X140999819Y-148429047D02*
X141047438Y-148524285D01*
X141047438Y-148524285D02*
X141095057Y-148571904D01*
X141095057Y-148571904D02*
X141190295Y-148619523D01*
X141190295Y-148619523D02*
X141285533Y-148619523D01*
X141285533Y-148619523D02*
X141428390Y-148571904D01*
X141428390Y-148571904D02*
X141999819Y-148000476D01*
X141999819Y-148000476D02*
X141999819Y-148619523D01*
X298022319Y-147048095D02*
X298831842Y-147048095D01*
X298831842Y-147048095D02*
X298927080Y-147095714D01*
X298927080Y-147095714D02*
X298974700Y-147143333D01*
X298974700Y-147143333D02*
X299022319Y-147238571D01*
X299022319Y-147238571D02*
X299022319Y-147429047D01*
X299022319Y-147429047D02*
X298974700Y-147524285D01*
X298974700Y-147524285D02*
X298927080Y-147571904D01*
X298927080Y-147571904D02*
X298831842Y-147619523D01*
X298831842Y-147619523D02*
X298022319Y-147619523D01*
X298450890Y-148238571D02*
X298403271Y-148143333D01*
X298403271Y-148143333D02*
X298355652Y-148095714D01*
X298355652Y-148095714D02*
X298260414Y-148048095D01*
X298260414Y-148048095D02*
X298212795Y-148048095D01*
X298212795Y-148048095D02*
X298117557Y-148095714D01*
X298117557Y-148095714D02*
X298069938Y-148143333D01*
X298069938Y-148143333D02*
X298022319Y-148238571D01*
X298022319Y-148238571D02*
X298022319Y-148429047D01*
X298022319Y-148429047D02*
X298069938Y-148524285D01*
X298069938Y-148524285D02*
X298117557Y-148571904D01*
X298117557Y-148571904D02*
X298212795Y-148619523D01*
X298212795Y-148619523D02*
X298260414Y-148619523D01*
X298260414Y-148619523D02*
X298355652Y-148571904D01*
X298355652Y-148571904D02*
X298403271Y-148524285D01*
X298403271Y-148524285D02*
X298450890Y-148429047D01*
X298450890Y-148429047D02*
X298450890Y-148238571D01*
X298450890Y-148238571D02*
X298498509Y-148143333D01*
X298498509Y-148143333D02*
X298546128Y-148095714D01*
X298546128Y-148095714D02*
X298641366Y-148048095D01*
X298641366Y-148048095D02*
X298831842Y-148048095D01*
X298831842Y-148048095D02*
X298927080Y-148095714D01*
X298927080Y-148095714D02*
X298974700Y-148143333D01*
X298974700Y-148143333D02*
X299022319Y-148238571D01*
X299022319Y-148238571D02*
X299022319Y-148429047D01*
X299022319Y-148429047D02*
X298974700Y-148524285D01*
X298974700Y-148524285D02*
X298927080Y-148571904D01*
X298927080Y-148571904D02*
X298831842Y-148619523D01*
X298831842Y-148619523D02*
X298641366Y-148619523D01*
X298641366Y-148619523D02*
X298546128Y-148571904D01*
X298546128Y-148571904D02*
X298498509Y-148524285D01*
X298498509Y-148524285D02*
X298450890Y-148429047D01*
X271762319Y-147048095D02*
X272571842Y-147048095D01*
X272571842Y-147048095D02*
X272667080Y-147095714D01*
X272667080Y-147095714D02*
X272714700Y-147143333D01*
X272714700Y-147143333D02*
X272762319Y-147238571D01*
X272762319Y-147238571D02*
X272762319Y-147429047D01*
X272762319Y-147429047D02*
X272714700Y-147524285D01*
X272714700Y-147524285D02*
X272667080Y-147571904D01*
X272667080Y-147571904D02*
X272571842Y-147619523D01*
X272571842Y-147619523D02*
X271762319Y-147619523D01*
X271762319Y-148000476D02*
X271762319Y-148667142D01*
X271762319Y-148667142D02*
X272762319Y-148238571D01*
X379759819Y-146571905D02*
X380569342Y-146571905D01*
X380569342Y-146571905D02*
X380664580Y-146619524D01*
X380664580Y-146619524D02*
X380712200Y-146667143D01*
X380712200Y-146667143D02*
X380759819Y-146762381D01*
X380759819Y-146762381D02*
X380759819Y-146952857D01*
X380759819Y-146952857D02*
X380712200Y-147048095D01*
X380712200Y-147048095D02*
X380664580Y-147095714D01*
X380664580Y-147095714D02*
X380569342Y-147143333D01*
X380569342Y-147143333D02*
X379759819Y-147143333D01*
X380759819Y-148143333D02*
X380759819Y-147571905D01*
X380759819Y-147857619D02*
X379759819Y-147857619D01*
X379759819Y-147857619D02*
X379902676Y-147762381D01*
X379902676Y-147762381D02*
X379997914Y-147667143D01*
X379997914Y-147667143D02*
X380045533Y-147571905D01*
X380759819Y-149095714D02*
X380759819Y-148524286D01*
X380759819Y-148810000D02*
X379759819Y-148810000D01*
X379759819Y-148810000D02*
X379902676Y-148714762D01*
X379902676Y-148714762D02*
X379997914Y-148619524D01*
X379997914Y-148619524D02*
X380045533Y-148524286D01*
X405159819Y-146571905D02*
X405969342Y-146571905D01*
X405969342Y-146571905D02*
X406064580Y-146619524D01*
X406064580Y-146619524D02*
X406112200Y-146667143D01*
X406112200Y-146667143D02*
X406159819Y-146762381D01*
X406159819Y-146762381D02*
X406159819Y-146952857D01*
X406159819Y-146952857D02*
X406112200Y-147048095D01*
X406112200Y-147048095D02*
X406064580Y-147095714D01*
X406064580Y-147095714D02*
X405969342Y-147143333D01*
X405969342Y-147143333D02*
X405159819Y-147143333D01*
X406159819Y-148143333D02*
X406159819Y-147571905D01*
X406159819Y-147857619D02*
X405159819Y-147857619D01*
X405159819Y-147857619D02*
X405302676Y-147762381D01*
X405302676Y-147762381D02*
X405397914Y-147667143D01*
X405397914Y-147667143D02*
X405445533Y-147571905D01*
X405255057Y-148524286D02*
X405207438Y-148571905D01*
X405207438Y-148571905D02*
X405159819Y-148667143D01*
X405159819Y-148667143D02*
X405159819Y-148905238D01*
X405159819Y-148905238D02*
X405207438Y-149000476D01*
X405207438Y-149000476D02*
X405255057Y-149048095D01*
X405255057Y-149048095D02*
X405350295Y-149095714D01*
X405350295Y-149095714D02*
X405445533Y-149095714D01*
X405445533Y-149095714D02*
X405588390Y-149048095D01*
X405588390Y-149048095D02*
X406159819Y-148476667D01*
X406159819Y-148476667D02*
X406159819Y-149095714D01*
X482577319Y-146571905D02*
X483386842Y-146571905D01*
X483386842Y-146571905D02*
X483482080Y-146619524D01*
X483482080Y-146619524D02*
X483529700Y-146667143D01*
X483529700Y-146667143D02*
X483577319Y-146762381D01*
X483577319Y-146762381D02*
X483577319Y-146952857D01*
X483577319Y-146952857D02*
X483529700Y-147048095D01*
X483529700Y-147048095D02*
X483482080Y-147095714D01*
X483482080Y-147095714D02*
X483386842Y-147143333D01*
X483386842Y-147143333D02*
X482577319Y-147143333D01*
X483577319Y-148143333D02*
X483577319Y-147571905D01*
X483577319Y-147857619D02*
X482577319Y-147857619D01*
X482577319Y-147857619D02*
X482720176Y-147762381D01*
X482720176Y-147762381D02*
X482815414Y-147667143D01*
X482815414Y-147667143D02*
X482863033Y-147571905D01*
X482577319Y-149048095D02*
X482577319Y-148571905D01*
X482577319Y-148571905D02*
X483053509Y-148524286D01*
X483053509Y-148524286D02*
X483005890Y-148571905D01*
X483005890Y-148571905D02*
X482958271Y-148667143D01*
X482958271Y-148667143D02*
X482958271Y-148905238D01*
X482958271Y-148905238D02*
X483005890Y-149000476D01*
X483005890Y-149000476D02*
X483053509Y-149048095D01*
X483053509Y-149048095D02*
X483148747Y-149095714D01*
X483148747Y-149095714D02*
X483386842Y-149095714D01*
X483386842Y-149095714D02*
X483482080Y-149048095D01*
X483482080Y-149048095D02*
X483529700Y-149000476D01*
X483529700Y-149000476D02*
X483577319Y-148905238D01*
X483577319Y-148905238D02*
X483577319Y-148667143D01*
X483577319Y-148667143D02*
X483529700Y-148571905D01*
X483529700Y-148571905D02*
X483482080Y-148524286D01*
X457177319Y-146571905D02*
X457986842Y-146571905D01*
X457986842Y-146571905D02*
X458082080Y-146619524D01*
X458082080Y-146619524D02*
X458129700Y-146667143D01*
X458129700Y-146667143D02*
X458177319Y-146762381D01*
X458177319Y-146762381D02*
X458177319Y-146952857D01*
X458177319Y-146952857D02*
X458129700Y-147048095D01*
X458129700Y-147048095D02*
X458082080Y-147095714D01*
X458082080Y-147095714D02*
X457986842Y-147143333D01*
X457986842Y-147143333D02*
X457177319Y-147143333D01*
X458177319Y-148143333D02*
X458177319Y-147571905D01*
X458177319Y-147857619D02*
X457177319Y-147857619D01*
X457177319Y-147857619D02*
X457320176Y-147762381D01*
X457320176Y-147762381D02*
X457415414Y-147667143D01*
X457415414Y-147667143D02*
X457463033Y-147571905D01*
X457510652Y-149000476D02*
X458177319Y-149000476D01*
X457129700Y-148762381D02*
X457843985Y-148524286D01*
X457843985Y-148524286D02*
X457843985Y-149143333D01*
X431777319Y-146571905D02*
X432586842Y-146571905D01*
X432586842Y-146571905D02*
X432682080Y-146619524D01*
X432682080Y-146619524D02*
X432729700Y-146667143D01*
X432729700Y-146667143D02*
X432777319Y-146762381D01*
X432777319Y-146762381D02*
X432777319Y-146952857D01*
X432777319Y-146952857D02*
X432729700Y-147048095D01*
X432729700Y-147048095D02*
X432682080Y-147095714D01*
X432682080Y-147095714D02*
X432586842Y-147143333D01*
X432586842Y-147143333D02*
X431777319Y-147143333D01*
X432777319Y-148143333D02*
X432777319Y-147571905D01*
X432777319Y-147857619D02*
X431777319Y-147857619D01*
X431777319Y-147857619D02*
X431920176Y-147762381D01*
X431920176Y-147762381D02*
X432015414Y-147667143D01*
X432015414Y-147667143D02*
X432063033Y-147571905D01*
X431777319Y-148476667D02*
X431777319Y-149095714D01*
X431777319Y-149095714D02*
X432158271Y-148762381D01*
X432158271Y-148762381D02*
X432158271Y-148905238D01*
X432158271Y-148905238D02*
X432205890Y-149000476D01*
X432205890Y-149000476D02*
X432253509Y-149048095D01*
X432253509Y-149048095D02*
X432348747Y-149095714D01*
X432348747Y-149095714D02*
X432586842Y-149095714D01*
X432586842Y-149095714D02*
X432682080Y-149048095D01*
X432682080Y-149048095D02*
X432729700Y-149000476D01*
X432729700Y-149000476D02*
X432777319Y-148905238D01*
X432777319Y-148905238D02*
X432777319Y-148619524D01*
X432777319Y-148619524D02*
X432729700Y-148524286D01*
X432729700Y-148524286D02*
X432682080Y-148476667D01*
X351819819Y-146571905D02*
X352629342Y-146571905D01*
X352629342Y-146571905D02*
X352724580Y-146619524D01*
X352724580Y-146619524D02*
X352772200Y-146667143D01*
X352772200Y-146667143D02*
X352819819Y-146762381D01*
X352819819Y-146762381D02*
X352819819Y-146952857D01*
X352819819Y-146952857D02*
X352772200Y-147048095D01*
X352772200Y-147048095D02*
X352724580Y-147095714D01*
X352724580Y-147095714D02*
X352629342Y-147143333D01*
X352629342Y-147143333D02*
X351819819Y-147143333D01*
X352819819Y-148143333D02*
X352819819Y-147571905D01*
X352819819Y-147857619D02*
X351819819Y-147857619D01*
X351819819Y-147857619D02*
X351962676Y-147762381D01*
X351962676Y-147762381D02*
X352057914Y-147667143D01*
X352057914Y-147667143D02*
X352105533Y-147571905D01*
X351819819Y-148762381D02*
X351819819Y-148857619D01*
X351819819Y-148857619D02*
X351867438Y-148952857D01*
X351867438Y-148952857D02*
X351915057Y-149000476D01*
X351915057Y-149000476D02*
X352010295Y-149048095D01*
X352010295Y-149048095D02*
X352200771Y-149095714D01*
X352200771Y-149095714D02*
X352438866Y-149095714D01*
X352438866Y-149095714D02*
X352629342Y-149048095D01*
X352629342Y-149048095D02*
X352724580Y-149000476D01*
X352724580Y-149000476D02*
X352772200Y-148952857D01*
X352772200Y-148952857D02*
X352819819Y-148857619D01*
X352819819Y-148857619D02*
X352819819Y-148762381D01*
X352819819Y-148762381D02*
X352772200Y-148667143D01*
X352772200Y-148667143D02*
X352724580Y-148619524D01*
X352724580Y-148619524D02*
X352629342Y-148571905D01*
X352629342Y-148571905D02*
X352438866Y-148524286D01*
X352438866Y-148524286D02*
X352200771Y-148524286D01*
X352200771Y-148524286D02*
X352010295Y-148571905D01*
X352010295Y-148571905D02*
X351915057Y-148619524D01*
X351915057Y-148619524D02*
X351867438Y-148667143D01*
X351867438Y-148667143D02*
X351819819Y-148762381D01*
X293762319Y-184671905D02*
X294571842Y-184671905D01*
X294571842Y-184671905D02*
X294667080Y-184719524D01*
X294667080Y-184719524D02*
X294714700Y-184767143D01*
X294714700Y-184767143D02*
X294762319Y-184862381D01*
X294762319Y-184862381D02*
X294762319Y-185052857D01*
X294762319Y-185052857D02*
X294714700Y-185148095D01*
X294714700Y-185148095D02*
X294667080Y-185195714D01*
X294667080Y-185195714D02*
X294571842Y-185243333D01*
X294571842Y-185243333D02*
X293762319Y-185243333D01*
X293762319Y-185624286D02*
X293762319Y-186243333D01*
X293762319Y-186243333D02*
X294143271Y-185910000D01*
X294143271Y-185910000D02*
X294143271Y-186052857D01*
X294143271Y-186052857D02*
X294190890Y-186148095D01*
X294190890Y-186148095D02*
X294238509Y-186195714D01*
X294238509Y-186195714D02*
X294333747Y-186243333D01*
X294333747Y-186243333D02*
X294571842Y-186243333D01*
X294571842Y-186243333D02*
X294667080Y-186195714D01*
X294667080Y-186195714D02*
X294714700Y-186148095D01*
X294714700Y-186148095D02*
X294762319Y-186052857D01*
X294762319Y-186052857D02*
X294762319Y-185767143D01*
X294762319Y-185767143D02*
X294714700Y-185671905D01*
X294714700Y-185671905D02*
X294667080Y-185624286D01*
X294095652Y-187100476D02*
X294762319Y-187100476D01*
X293714700Y-186862381D02*
X294428985Y-186624286D01*
X294428985Y-186624286D02*
X294428985Y-187243333D01*
D11*
%TO.C,U16*%
X507522500Y-146810000D02*
G75*
G03*
X507522500Y-148810000I0J-1000000D01*
G01*
X507522500Y-148810000D02*
X507522500Y-150460000D01*
X507522500Y-145160000D02*
X507522500Y-146810000D01*
X507522500Y-150460000D02*
X502322500Y-150460000D01*
X502322500Y-150460000D02*
X502322500Y-145160000D01*
X502322500Y-145160000D02*
X507522500Y-145160000D01*
%TO.C,U9*%
X325965000Y-146810000D02*
G75*
G03*
X325965000Y-148810000I0J-1000000D01*
G01*
X325965000Y-148810000D02*
X325965000Y-150460000D01*
X325965000Y-145160000D02*
X325965000Y-146810000D01*
X325965000Y-150460000D02*
X320765000Y-150460000D01*
X320765000Y-150460000D02*
X320765000Y-145160000D01*
X320765000Y-145160000D02*
X325965000Y-145160000D01*
%TO.C,U1*%
X115145000Y-146810000D02*
G75*
G03*
X115145000Y-148810000I0J-1000000D01*
G01*
X115145000Y-148810000D02*
X115145000Y-150460000D01*
X115145000Y-145160000D02*
X115145000Y-146810000D01*
X115145000Y-150460000D02*
X109945000Y-150460000D01*
X109945000Y-150460000D02*
X109945000Y-145160000D01*
X109945000Y-145160000D02*
X115145000Y-145160000D01*
%TO.C,U3*%
X165945000Y-146810000D02*
G75*
G03*
X165945000Y-148810000I0J-1000000D01*
G01*
X165945000Y-148810000D02*
X165945000Y-150460000D01*
X165945000Y-145160000D02*
X165945000Y-146810000D01*
X165945000Y-150460000D02*
X160745000Y-150460000D01*
X160745000Y-150460000D02*
X160745000Y-145160000D01*
X160745000Y-145160000D02*
X165945000Y-145160000D01*
%TO.C,U4*%
X190887500Y-146810000D02*
G75*
G03*
X190887500Y-148810000I0J-1000000D01*
G01*
X190887500Y-148810000D02*
X190887500Y-150460000D01*
X190887500Y-145160000D02*
X190887500Y-146810000D01*
X190887500Y-150460000D02*
X185687500Y-150460000D01*
X185687500Y-150460000D02*
X185687500Y-145160000D01*
X185687500Y-145160000D02*
X190887500Y-145160000D01*
%TO.C,U5*%
X218045000Y-147370000D02*
G75*
G03*
X218045000Y-149370000I0J-1000000D01*
G01*
X218045000Y-149370000D02*
X218045000Y-151020000D01*
X218045000Y-145720000D02*
X218045000Y-147370000D01*
X218045000Y-151020000D02*
X212845000Y-151020000D01*
X212845000Y-151020000D02*
X212845000Y-145720000D01*
X212845000Y-145720000D02*
X218045000Y-145720000D01*
%TO.C,U6*%
X243362500Y-146810000D02*
G75*
G03*
X243362500Y-148810000I0J-1000000D01*
G01*
X243362500Y-148810000D02*
X243362500Y-150460000D01*
X243362500Y-145160000D02*
X243362500Y-146810000D01*
X243362500Y-150460000D02*
X238162500Y-150460000D01*
X238162500Y-150460000D02*
X238162500Y-145160000D01*
X238162500Y-145160000D02*
X243362500Y-145160000D01*
%TO.C,U2*%
X140545000Y-146810000D02*
G75*
G03*
X140545000Y-148810000I0J-1000000D01*
G01*
X140545000Y-148810000D02*
X140545000Y-150460000D01*
X140545000Y-145160000D02*
X140545000Y-146810000D01*
X140545000Y-150460000D02*
X135345000Y-150460000D01*
X135345000Y-150460000D02*
X135345000Y-145160000D01*
X135345000Y-145160000D02*
X140545000Y-145160000D01*
%TO.C,U8*%
X297567500Y-146810000D02*
G75*
G03*
X297567500Y-148810000I0J-1000000D01*
G01*
X297567500Y-148810000D02*
X297567500Y-150460000D01*
X297567500Y-145160000D02*
X297567500Y-146810000D01*
X297567500Y-150460000D02*
X292367500Y-150460000D01*
X292367500Y-150460000D02*
X292367500Y-145160000D01*
X292367500Y-145160000D02*
X297567500Y-145160000D01*
%TO.C,U7*%
X266107500Y-145160000D02*
X271307500Y-145160000D01*
X266107500Y-150460000D02*
X266107500Y-145160000D01*
X271307500Y-150460000D02*
X266107500Y-150460000D01*
X271307500Y-145160000D02*
X271307500Y-146810000D01*
X271307500Y-148810000D02*
X271307500Y-150460000D01*
X271307500Y-146810000D02*
G75*
G03*
X271307500Y-148810000I0J-1000000D01*
G01*
%TO.C,U11*%
X379305000Y-146810000D02*
G75*
G03*
X379305000Y-148810000I0J-1000000D01*
G01*
X379305000Y-148810000D02*
X379305000Y-150460000D01*
X379305000Y-145160000D02*
X379305000Y-146810000D01*
X379305000Y-150460000D02*
X374105000Y-150460000D01*
X374105000Y-150460000D02*
X374105000Y-145160000D01*
X374105000Y-145160000D02*
X379305000Y-145160000D01*
%TO.C,U12*%
X404705000Y-146810000D02*
G75*
G03*
X404705000Y-148810000I0J-1000000D01*
G01*
X404705000Y-148810000D02*
X404705000Y-150460000D01*
X404705000Y-145160000D02*
X404705000Y-146810000D01*
X404705000Y-150460000D02*
X399505000Y-150460000D01*
X399505000Y-150460000D02*
X399505000Y-145160000D01*
X399505000Y-145160000D02*
X404705000Y-145160000D01*
%TO.C,U15*%
X482122500Y-146810000D02*
G75*
G03*
X482122500Y-148810000I0J-1000000D01*
G01*
X482122500Y-148810000D02*
X482122500Y-150460000D01*
X482122500Y-145160000D02*
X482122500Y-146810000D01*
X482122500Y-150460000D02*
X476922500Y-150460000D01*
X476922500Y-150460000D02*
X476922500Y-145160000D01*
X476922500Y-145160000D02*
X482122500Y-145160000D01*
%TO.C,U14*%
X456722500Y-146810000D02*
G75*
G03*
X456722500Y-148810000I0J-1000000D01*
G01*
X456722500Y-148810000D02*
X456722500Y-150460000D01*
X456722500Y-145160000D02*
X456722500Y-146810000D01*
X456722500Y-150460000D02*
X451522500Y-150460000D01*
X451522500Y-150460000D02*
X451522500Y-145160000D01*
X451522500Y-145160000D02*
X456722500Y-145160000D01*
%TO.C,U13*%
X426122500Y-145160000D02*
X431322500Y-145160000D01*
X426122500Y-150460000D02*
X426122500Y-145160000D01*
X431322500Y-150460000D02*
X426122500Y-150460000D01*
X431322500Y-145160000D02*
X431322500Y-146810000D01*
X431322500Y-148810000D02*
X431322500Y-150460000D01*
X431322500Y-146810000D02*
G75*
G03*
X431322500Y-148810000I0J-1000000D01*
G01*
%TO.C,U10*%
X346165000Y-145160000D02*
X351365000Y-145160000D01*
X346165000Y-150460000D02*
X346165000Y-145160000D01*
X351365000Y-150460000D02*
X346165000Y-150460000D01*
X351365000Y-145160000D02*
X351365000Y-146810000D01*
X351365000Y-148810000D02*
X351365000Y-150460000D01*
X351365000Y-146810000D02*
G75*
G03*
X351365000Y-148810000I0J-1000000D01*
G01*
%TO.C,U34*%
X295307500Y-186910000D02*
G75*
G03*
X295307500Y-184910000I0J1000000D01*
G01*
X330987500Y-183260000D02*
X330987500Y-188560000D01*
X295307500Y-183260000D02*
X330987500Y-183260000D01*
X295307500Y-184910000D02*
X295307500Y-183260000D01*
X330987500Y-188560000D02*
X295307500Y-188560000D01*
X295307500Y-188560000D02*
X295307500Y-186910000D01*
%TD*%
M02*
