M48
; DRILL file {KiCad 7.0.7} date Sun Sep  3 02:21:45 2023
; FORMAT={-:-/ absolute / inch / decimal}
; #@! TF.CreationDate,2023-09-03T02:21:45+05:00
; #@! TF.GenerationSoftware,Kicad,Pcbnew,7.0.7
; #@! TF.FileFunction,Plated,1,2,PTH
FMAT,2
INCH
; #@! TA.AperFunction,Plated,PTH,ComponentDrill
T1C0.0079
; #@! TA.AperFunction,Plated,PTH,ViaDrill
T2C0.0157
; #@! TA.AperFunction,Plated,PTH,ComponentDrill
T3C0.0236
; #@! TA.AperFunction,Plated,PTH,ComponentDrill
T4C0.0295
; #@! TA.AperFunction,Plated,PTH,ComponentDrill
T5C0.0315
; #@! TA.AperFunction,Plated,PTH,ComponentDrill
T6C0.0354
; #@! TA.AperFunction,Plated,PTH,ComponentDrill
T7C0.0394
; #@! TA.AperFunction,Plated,PTH,ComponentDrill
T8C0.0402
; #@! TA.AperFunction,Plated,PTH,ComponentDrill
T9C0.0433
; #@! TA.AperFunction,Plated,PTH,ComponentDrill
T10C0.0472
; #@! TA.AperFunction,Plated,PTH,ComponentDrill
T11C0.0598
; #@! TA.AperFunction,Plated,PTH,ComponentDrill
T12C0.0630
%
G90
G05
T1
X5.1051Y-8.1216
X5.1051Y-8.1816
X5.1351Y-8.0915
X5.1351Y-8.1516
X5.1351Y-8.2116
X5.1652Y-8.1216
X5.1652Y-8.1816
X5.1952Y-8.0915
X5.1952Y-8.1516
X5.1952Y-8.2116
X5.2252Y-8.1216
X5.2252Y-8.1816
T2
X4.2266Y-9.6646
X4.8762Y-7.7803
X5.0266Y-11.5
X5.4981Y-5.0977
X6.1266Y-11.5276
X7.0266Y-11.4969
X7.2266Y-5.0
X7.3266Y-6.5
X7.9266Y-11.5276
X8.3266Y-6.5
X8.7266Y-6.7
X9.0266Y-11.5276
X9.3266Y-5.0831
X9.3266Y-6.5
X9.6266Y-6.7
X9.6266Y-7.1851
X9.6266Y-9.2
X9.8064Y-8.8798
X9.9266Y-8.7
X10.0266Y-8.5
X10.1266Y-11.5
X10.4266Y-6.5
X10.5266Y-4.7969
X10.5266Y-8.5
X10.6266Y-6.7715
X10.6266Y-7.1851
X10.7266Y-8.7
X10.7266Y-9.0
X10.8266Y-7.2715
X10.8266Y-8.5
X10.8266Y-8.6
X10.8266Y-8.8
X10.8981Y-8.7
X10.9266Y-8.9
X11.1266Y-8.2
X11.1266Y-11.5276
X11.3266Y-8.5
X11.4266Y-8.6
X11.4266Y-9.1
X11.5266Y-6.5345
X11.5266Y-8.3
X11.5266Y-8.7
X11.5266Y-9.1
X11.5627Y-4.9984
X11.6266Y-6.9
X11.7266Y-6.9
X11.8266Y-6.8
X11.8266Y-9.2
X11.9266Y-6.6
X12.0266Y-8.8
X12.1266Y-6.8
X12.1266Y-11.5276
X12.3266Y-6.9
X12.3266Y-9.1
X12.4266Y-8.8
X12.5266Y-6.9
X12.5266Y-9.1
X12.5266Y-9.2
X12.6113Y-8.9769
X12.6266Y-6.5
X12.6574Y-8.9308
X12.7266Y-9.2
X12.9279Y-8.5408
X13.2266Y-7.6
X13.2266Y-7.7
X13.2266Y-7.8
X13.2266Y-7.9
X13.2266Y-11.5276
X13.6266Y-6.5
X14.1266Y-11.5276
X14.6266Y-4.9
X14.7266Y-6.5345
X14.9266Y-9.3
X15.1266Y-9.4
X15.2266Y-11.5276
X15.7266Y-4.7969
X15.7422Y-6.5408
X15.7807Y-4.9984
X16.2266Y-11.5276
X16.6266Y-7.6
X16.7266Y-7.7
X16.8286Y-4.7969
X17.4266Y-11.5
X17.6266Y-8.9
X17.6266Y-9.0
X17.7266Y-7.9
X17.8266Y-8.0
X17.9266Y-8.0
X17.9266Y-9.1
X18.0266Y-7.2408
X18.0266Y-7.8
X18.3266Y-11.5276
X18.8286Y-4.7969
X19.3266Y-11.5276
X19.8286Y-4.7969
X20.1266Y-5.7
T3
X16.6786Y-7.9693
X16.6786Y-8.0283
X18.1786Y-8.5693
X18.1786Y-8.6283
T4
X4.3807Y-5.0693
X4.4307Y-5.0693
X4.4807Y-5.0693
X4.5245Y-11.2
X4.5745Y-11.2
X4.6245Y-11.2
X5.3807Y-5.0693
X5.4307Y-5.0693
X5.4807Y-5.0693
X5.6766Y-11.2
X5.7266Y-11.2
X5.7766Y-11.2
X6.3807Y-5.0693
X6.4307Y-5.0693
X6.4807Y-5.0693
X6.5766Y-11.1693
X6.6266Y-11.1693
X6.6766Y-11.1693
X7.3627Y-5.0693
X7.4127Y-5.0693
X7.4627Y-5.0693
X7.5724Y-11.2
X7.6224Y-11.2
X7.6724Y-11.2
X8.4319Y-5.0913
X8.4819Y-5.0913
X8.5319Y-5.0913
X8.5724Y-11.2
X8.6224Y-11.2
X8.6724Y-11.2
X9.4286Y-5.0693
X9.4786Y-5.0693
X9.5286Y-5.0693
X9.6766Y-11.2
X9.7266Y-11.2
X9.7766Y-11.2
X10.5288Y-5.0693
X10.5788Y-5.0693
X10.6288Y-5.0693
X10.6766Y-11.2
X10.7266Y-11.2
X10.7766Y-11.2
X11.5627Y-5.0693
X11.6127Y-5.0693
X11.6627Y-5.0693
X11.6766Y-11.2
X11.7266Y-11.2
X11.7766Y-11.2
X12.6807Y-5.0693
X12.7307Y-5.0693
X12.7766Y-11.2
X12.7807Y-5.0693
X12.8266Y-11.2
X12.8766Y-11.2
X13.6807Y-5.0693
X13.7307Y-5.0693
X13.7766Y-11.2
X13.7807Y-5.0693
X13.8266Y-11.2
X13.8766Y-11.2
X14.7807Y-5.0693
X14.8307Y-5.0693
X14.8766Y-11.2
X14.8807Y-5.0693
X14.9266Y-11.2
X14.9766Y-11.2
X15.7807Y-5.0693
X15.8307Y-5.0693
X15.8766Y-11.2
X15.8807Y-5.0693
X15.9266Y-11.2
X15.9766Y-11.2
X16.8286Y-5.0693
X16.8786Y-5.0693
X16.9286Y-5.0693
X17.0766Y-11.2
X17.1266Y-11.2
X17.1766Y-11.2
X17.8286Y-5.0693
X17.8786Y-5.0693
X17.9286Y-5.0693
X18.0245Y-11.2
X18.0745Y-11.2
X18.1245Y-11.2
X18.8286Y-5.0693
X18.8786Y-5.0693
X18.9286Y-5.0693
X19.0245Y-11.2
X19.0745Y-11.2
X19.1245Y-11.2
X19.8286Y-5.0693
X19.8786Y-5.0693
X19.9286Y-5.0693
X19.9766Y-11.2
X20.0266Y-11.2
X20.0766Y-11.2
T5
X4.2307Y-5.3693
X4.3745Y-10.8266
X4.3809Y-5.6693
X4.3809Y-5.9693
X4.4307Y-6.2594
X4.4307Y-6.6594
X4.4809Y-5.6693
X4.4809Y-5.9693
X4.5247Y-10.2504
X4.5247Y-10.5504
X4.6247Y-10.2504
X4.6247Y-10.5504
X4.6266Y-9.5
X4.6266Y-9.9
X4.6307Y-5.3693
X4.7745Y-10.8266
X5.2307Y-5.3693
X5.3809Y-5.6693
X5.3809Y-5.9693
X5.4307Y-6.2693
X5.4307Y-6.6693
X5.4809Y-5.6693
X5.4809Y-5.9693
X5.5266Y-10.8266
X5.6307Y-5.3693
X5.6768Y-10.2504
X5.6768Y-10.5504
X5.7768Y-10.2504
X5.7768Y-10.5504
X5.8266Y-9.5
X5.8266Y-9.9
X5.9266Y-10.8266
X6.2307Y-5.3693
X6.3809Y-5.6693
X6.3809Y-5.9693
X6.4266Y-10.7959
X6.4307Y-6.2693
X6.4307Y-6.6693
X6.4809Y-5.6693
X6.4809Y-5.9693
X6.5768Y-10.2197
X6.5768Y-10.5197
X6.6307Y-5.3693
X6.6768Y-10.2197
X6.6768Y-10.5197
X6.7266Y-9.6
X6.7266Y-10.0
X6.8266Y-10.7959
X7.2127Y-5.3693
X7.3629Y-5.6693
X7.3629Y-5.9693
X7.4127Y-6.2693
X7.4127Y-6.6693
X7.4224Y-10.8266
X7.4629Y-5.6693
X7.4629Y-5.9693
X7.5726Y-10.2504
X7.5726Y-10.5504
X7.6127Y-5.3693
X7.6266Y-9.5
X7.6266Y-9.9
X7.6726Y-10.2504
X7.6726Y-10.5504
X7.8224Y-10.8266
X8.2819Y-5.3913
X8.4224Y-10.8266
X8.4321Y-5.6913
X8.4321Y-5.9913
X8.4819Y-6.2913
X8.4819Y-6.6913
X8.5321Y-5.6913
X8.5321Y-5.9913
X8.5726Y-10.2504
X8.5726Y-10.5504
X8.6266Y-9.5
X8.6266Y-9.9
X8.6726Y-10.2504
X8.6726Y-10.5504
X8.6819Y-5.3913
X8.8224Y-10.8266
X9.2786Y-5.3693
X9.4288Y-5.6693
X9.4288Y-5.9693
X9.4786Y-6.2693
X9.4786Y-6.6693
X9.5266Y-10.8266
X9.5288Y-5.6693
X9.5288Y-5.9693
X9.6768Y-10.2504
X9.6768Y-10.5504
X9.6786Y-5.3693
X9.7266Y-9.5
X9.7266Y-9.9
X9.7768Y-10.2504
X9.7768Y-10.5504
X9.9266Y-10.8266
X10.3788Y-5.3693
X10.5266Y-10.8266
X10.529Y-5.6693
X10.529Y-5.9693
X10.5788Y-6.2693
X10.5788Y-6.6693
X10.629Y-5.6693
X10.629Y-5.9693
X10.6768Y-10.2504
X10.6768Y-10.5504
X10.7266Y-9.5
X10.7266Y-9.9
X10.7768Y-10.2504
X10.7768Y-10.5504
X10.7788Y-5.3693
X10.9266Y-10.8266
X11.4127Y-5.3693
X11.5266Y-10.8266
X11.5629Y-5.6693
X11.5629Y-5.9693
X11.6127Y-6.2693
X11.6127Y-6.6693
X11.6629Y-5.6693
X11.6629Y-5.9693
X11.6768Y-10.2504
X11.6768Y-10.5504
X11.6786Y-7.1693
X11.6786Y-7.4693
X11.7768Y-10.2504
X11.7768Y-10.5504
X11.7786Y-7.1693
X11.7786Y-7.4693
X11.7786Y-8.5693
X11.7786Y-8.8693
X11.8127Y-5.3693
X11.8266Y-9.6
X11.8266Y-10.0
X11.8786Y-7.1693
X11.8786Y-7.4693
X11.8786Y-8.5693
X11.8786Y-8.8693
X11.9266Y-10.8266
X11.9786Y-7.1693
X11.9786Y-7.4693
X11.9786Y-8.5693
X11.9786Y-8.8693
X12.0786Y-7.1693
X12.0786Y-7.4693
X12.0786Y-8.5693
X12.0786Y-8.8693
X12.1786Y-7.1693
X12.1786Y-7.4693
X12.1786Y-8.5693
X12.1786Y-8.8693
X12.2786Y-7.1693
X12.2786Y-7.4693
X12.2786Y-8.5693
X12.2786Y-8.8693
X12.3786Y-7.1693
X12.3786Y-7.4693
X12.3786Y-8.5693
X12.3786Y-8.8693
X12.4786Y-7.1693
X12.4786Y-7.4693
X12.4786Y-8.5693
X12.4786Y-8.8693
X12.5307Y-5.3693
X12.5786Y-7.1693
X12.5786Y-7.4693
X12.5786Y-8.5693
X12.5786Y-8.8693
X12.6266Y-10.8266
X12.6786Y-7.1693
X12.6786Y-7.4693
X12.6786Y-8.5693
X12.6786Y-8.8693
X12.6809Y-5.6693
X12.6809Y-5.9693
X12.7307Y-6.2693
X12.7307Y-6.6693
X12.7768Y-10.2504
X12.7768Y-10.5504
X12.7786Y-7.1693
X12.7786Y-7.4693
X12.7786Y-8.5693
X12.7786Y-8.8693
X12.7809Y-5.6693
X12.7809Y-5.9693
X12.8768Y-10.2504
X12.8768Y-10.5504
X12.8786Y-7.1693
X12.8786Y-7.4693
X12.8786Y-8.5693
X12.8786Y-8.8693
X12.9266Y-9.6
X12.9266Y-10.0
X12.9307Y-5.3693
X12.9786Y-7.1693
X12.9786Y-7.4693
X12.9786Y-8.5693
X12.9786Y-8.8693
X13.0266Y-10.8266
X13.0786Y-8.5693
X13.0786Y-8.8693
X13.5307Y-5.3693
X13.6266Y-10.8266
X13.6809Y-5.6693
X13.6809Y-5.9693
X13.7307Y-6.2693
X13.7307Y-6.6693
X13.7768Y-10.2504
X13.7768Y-10.5504
X13.7809Y-5.6693
X13.7809Y-5.9693
X13.8768Y-10.2504
X13.8768Y-10.5504
X13.9266Y-9.5
X13.9266Y-9.9
X13.9307Y-5.3693
X14.0266Y-10.8266
X14.6307Y-5.3693
X14.7266Y-10.8266
X14.7809Y-5.6693
X14.7809Y-5.9693
X14.8307Y-6.2693
X14.8307Y-6.6693
X14.8768Y-10.2504
X14.8768Y-10.5504
X14.8809Y-5.6693
X14.8809Y-5.9693
X14.9768Y-10.2504
X14.9768Y-10.5504
X15.0266Y-9.5
X15.0266Y-9.9
X15.0307Y-5.3693
X15.1266Y-10.8266
X15.6307Y-5.3693
X15.7266Y-10.8266
X15.7809Y-5.6693
X15.7809Y-5.9693
X15.8307Y-6.2693
X15.8307Y-6.6693
X15.8768Y-10.2504
X15.8768Y-10.5504
X15.8809Y-5.6693
X15.8809Y-5.9693
X15.9768Y-10.2504
X15.9768Y-10.5504
X16.0266Y-9.5
X16.0266Y-9.9
X16.0307Y-5.3693
X16.1266Y-10.8266
X16.6786Y-5.3693
X16.8288Y-5.6693
X16.8288Y-5.9693
X16.8786Y-6.2693
X16.8786Y-6.6693
X16.9266Y-10.8266
X16.9288Y-5.6693
X16.9288Y-5.9693
X17.0768Y-10.2504
X17.0768Y-10.5504
X17.0786Y-5.3693
X17.1768Y-10.2504
X17.1768Y-10.5504
X17.2266Y-9.4
X17.2266Y-9.8
X17.3266Y-10.8266
X17.6786Y-5.3693
X17.8288Y-5.6693
X17.8288Y-5.9693
X17.8745Y-10.8266
X17.8786Y-6.2693
X17.8786Y-6.6693
X17.9288Y-5.6693
X17.9288Y-5.9693
X18.0247Y-10.2504
X18.0247Y-10.5504
X18.0786Y-5.3693
X18.1247Y-10.2504
X18.1247Y-10.5504
X18.1266Y-9.4
X18.1266Y-9.8
X18.1786Y-7.2693
X18.1786Y-7.3677
X18.2745Y-10.8266
X18.6786Y-5.3693
X18.6786Y-7.2193
X18.6786Y-7.5193
X18.6786Y-7.6193
X18.6786Y-7.9193
X18.8288Y-5.6693
X18.8288Y-5.9693
X18.8745Y-10.8266
X18.8786Y-6.2693
X18.8786Y-6.6693
X18.9288Y-5.6693
X18.9288Y-5.9693
X19.0247Y-10.2504
X19.0247Y-10.5504
X19.0786Y-5.3693
X19.1247Y-10.2504
X19.1247Y-10.5504
X19.1266Y-9.6
X19.1266Y-10.0
X19.2745Y-10.8266
X19.6786Y-5.3693
X19.8266Y-10.8266
X19.8288Y-5.6693
X19.8288Y-5.9693
X19.8786Y-6.2693
X19.8786Y-6.6693
X19.9288Y-5.6693
X19.9288Y-5.9693
X19.9768Y-10.2504
X19.9768Y-10.5504
X20.0768Y-10.2504
X20.0768Y-10.5504
X20.0786Y-5.3693
X20.1266Y-9.6
X20.1266Y-10.0
X20.2266Y-10.8266
T6
X4.1786Y-6.4594
X4.1786Y-6.5594
X4.2266Y-9.7079
X4.2266Y-9.8079
X5.1786Y-6.563
X5.1786Y-6.663
X5.3266Y-9.7
X5.3266Y-9.8
X6.1786Y-6.563
X6.1786Y-6.663
X6.3266Y-9.6772
X6.3266Y-9.7772
X7.1786Y-6.563
X7.1786Y-6.663
X7.3266Y-9.7079
X7.3266Y-9.8079
X8.1786Y-6.5693
X8.1786Y-6.6693
X8.2266Y-9.7
X8.2266Y-9.8
X9.1786Y-6.563
X9.1786Y-6.663
X9.3266Y-9.7079
X9.3266Y-9.8079
X10.2786Y-6.5693
X10.2786Y-6.6693
X10.3266Y-9.7
X10.3266Y-9.8
X11.2266Y-9.7079
X11.2266Y-9.8079
X11.3786Y-6.563
X11.3786Y-6.663
X12.4266Y-9.7
X12.4266Y-9.8
X12.4786Y-6.5693
X12.4786Y-6.6693
X13.4266Y-9.7079
X13.4266Y-9.8079
X13.4786Y-6.563
X13.4786Y-6.663
X14.5266Y-9.7
X14.5266Y-9.8
X14.5786Y-6.563
X14.5786Y-6.663
X15.5786Y-6.5693
X15.5786Y-6.6693
X15.6266Y-9.7
X15.6266Y-9.8
X16.5786Y-6.563
X16.5786Y-6.663
X16.8266Y-9.7079
X16.8266Y-9.8079
X17.5786Y-6.5693
X17.5786Y-6.6693
X17.7266Y-9.7079
X17.7266Y-9.8079
X18.5786Y-6.563
X18.5786Y-6.663
X18.7266Y-9.7079
X18.7266Y-9.8079
X19.5786Y-6.5693
X19.5786Y-6.6693
X19.6266Y-9.7079
X19.6266Y-9.8079
T7
X4.2786Y-4.4693
X4.4266Y-11.8693
X4.5786Y-4.4693
X4.7266Y-11.8693
X5.2786Y-4.4693
X5.5786Y-4.4693
X5.5786Y-11.8693
X5.8786Y-11.8693
X6.2786Y-4.4693
X6.4786Y-11.8693
X6.5786Y-4.4693
X6.7786Y-11.8693
X7.2606Y-4.4693
X7.4745Y-11.8693
X7.5606Y-4.4693
X7.7745Y-11.8693
X8.3298Y-4.4913
X8.4745Y-11.8693
X8.6298Y-4.4913
X8.7745Y-11.8693
X9.3266Y-4.4693
X9.5786Y-11.8693
X9.6266Y-4.4693
X9.8786Y-11.8693
X10.4268Y-4.4693
X10.5786Y-11.8693
X10.7268Y-4.4693
X10.8786Y-11.8693
X11.4606Y-4.4693
X11.5786Y-11.8693
X11.7606Y-4.4693
X11.8786Y-11.8693
X12.5786Y-4.4693
X12.6786Y-11.8693
X12.8786Y-4.4693
X12.9786Y-11.8693
X13.5786Y-4.4693
X13.6786Y-11.8693
X13.8786Y-4.4693
X13.9786Y-11.8693
X14.6786Y-4.4693
X14.7786Y-11.8693
X14.9786Y-4.4693
X15.0786Y-11.8693
X15.6786Y-4.4693
X15.7786Y-11.8693
X15.9786Y-4.4693
X16.0786Y-11.8693
X16.7266Y-4.4693
X16.9786Y-11.8693
X17.0266Y-4.4693
X17.2786Y-11.8693
X17.3786Y-7.2693
X17.3786Y-7.8693
X17.7266Y-4.4693
X17.9266Y-11.8693
X18.0266Y-4.4693
X18.2266Y-11.8693
X18.7266Y-4.4693
X18.9266Y-11.8693
X19.0266Y-4.4693
X19.2266Y-11.8693
X19.7266Y-4.4693
X19.8786Y-11.8693
X20.0266Y-4.4693
X20.1786Y-11.8693
T9
X4.2307Y-4.7693
X4.3745Y-11.5
X4.6307Y-4.7693
X4.7745Y-11.5
X5.2307Y-4.7693
X5.5266Y-11.5
X5.6307Y-4.7693
X5.9266Y-11.5
X6.2307Y-4.7693
X6.4266Y-11.4693
X6.6307Y-4.7693
X6.8266Y-11.4693
X7.2127Y-4.7693
X7.4224Y-11.5
X7.6127Y-4.7693
X7.8224Y-11.5
X8.2819Y-4.7913
X8.4224Y-11.5
X8.6819Y-4.7913
X8.8224Y-11.5
X9.2786Y-4.7693
X9.5266Y-11.5
X9.6786Y-4.7693
X9.9266Y-11.5
X10.3788Y-4.7693
X10.5266Y-11.5
X10.7788Y-4.7693
X10.9266Y-11.5
X11.4127Y-4.7693
X11.5266Y-11.5
X11.8127Y-4.7693
X11.9266Y-11.5
X12.5307Y-4.7693
X12.6266Y-11.5
X12.9307Y-4.7693
X13.0266Y-11.5
X13.5307Y-4.7693
X13.6266Y-11.5
X13.9307Y-4.7693
X14.0266Y-11.5
X14.6307Y-4.7693
X14.7266Y-11.5
X15.0307Y-4.7693
X15.1266Y-11.5
X15.6307Y-4.7693
X15.7266Y-11.5
X16.0307Y-4.7693
X16.1266Y-11.5
X16.6786Y-4.7693
X16.9266Y-11.5
X17.0786Y-4.7693
X17.3266Y-11.5
X17.6786Y-4.7693
X17.8745Y-11.5
X17.9786Y-7.8016
X17.9786Y-7.9354
X17.9786Y-8.0693
X18.0786Y-4.7693
X18.1243Y-7.8685
X18.1243Y-8.0024
X18.2745Y-11.5
X18.6786Y-4.7693
X18.8745Y-11.5
X19.0786Y-4.7693
X19.2745Y-11.5
X19.6786Y-4.7693
X19.8266Y-11.5
X20.0786Y-4.7693
X20.2266Y-11.5
T10
X4.2786Y-3.7693
X4.4266Y-12.2693
X4.4266Y-12.5693
X4.5786Y-3.7693
X4.5786Y-4.0693
X4.7266Y-12.5693
X5.2786Y-3.7693
X5.5786Y-3.7693
X5.5786Y-4.0693
X5.5786Y-12.2693
X5.5786Y-12.5693
X5.8786Y-12.5693
X6.2786Y-3.7693
X6.4786Y-12.2693
X6.4786Y-12.5693
X6.5786Y-3.7693
X6.5786Y-4.0693
X6.7786Y-12.5693
X7.2606Y-3.7693
X7.4745Y-12.2693
X7.4745Y-12.5693
X7.5606Y-3.7693
X7.5606Y-4.0693
X7.7745Y-12.5693
X8.3298Y-3.7913
X8.4745Y-12.2693
X8.4745Y-12.5693
X8.6298Y-3.7913
X8.6298Y-4.0913
X8.7745Y-12.5693
X9.3266Y-3.7693
X9.5786Y-12.2693
X9.5786Y-12.5693
X9.6266Y-3.7693
X9.6266Y-4.0693
X9.8786Y-12.5693
X10.4268Y-3.7693
X10.5786Y-12.2693
X10.5786Y-12.5693
X10.7268Y-3.7693
X10.7268Y-4.0693
X10.8786Y-12.5693
X11.4606Y-3.7693
X11.5786Y-12.2693
X11.5786Y-12.5693
X11.7606Y-3.7693
X11.7606Y-4.0693
X11.8786Y-12.5693
X12.5786Y-3.7693
X12.6786Y-12.2693
X12.6786Y-12.5693
X12.8786Y-3.7693
X12.8786Y-4.0693
X12.9786Y-12.5693
X13.5786Y-3.7693
X13.6786Y-12.2693
X13.6786Y-12.5693
X13.8786Y-3.7693
X13.8786Y-4.0693
X13.9786Y-12.5693
X14.6786Y-3.7693
X14.7786Y-12.2693
X14.7786Y-12.5693
X14.9786Y-3.7693
X14.9786Y-4.0693
X15.0786Y-12.5693
X15.6786Y-3.7693
X15.7786Y-12.2693
X15.7786Y-12.5693
X15.9786Y-3.7693
X15.9786Y-4.0693
X16.0786Y-12.5693
X16.7266Y-3.7693
X16.9786Y-12.2693
X16.9786Y-12.5693
X17.0266Y-3.7693
X17.0266Y-4.0693
X17.2786Y-12.5693
X17.7266Y-3.7693
X17.9266Y-12.2693
X17.9266Y-12.5693
X18.0266Y-3.7693
X18.0266Y-4.0693
X18.2266Y-12.5693
X18.7266Y-3.7693
X18.9266Y-12.2693
X18.9266Y-12.5693
X19.0266Y-3.7693
X19.0266Y-4.0693
X19.2266Y-12.5693
X19.7266Y-3.7693
X19.8786Y-12.2693
X19.8786Y-12.5693
X20.0266Y-3.7693
X20.0266Y-4.0693
X20.1786Y-12.5693
T11
X4.2307Y-2.6693
X4.3745Y-13.5693
X4.4307Y-2.6693
X4.5745Y-13.5693
X4.6307Y-2.6693
X4.7745Y-13.5693
X5.2307Y-2.6693
X5.4307Y-2.6693
X5.5266Y-13.5693
X5.6307Y-2.6693
X5.7266Y-13.5693
X5.9266Y-13.5693
X6.2307Y-2.6693
X6.4266Y-13.5693
X6.4307Y-2.6693
X6.6266Y-13.5693
X6.6307Y-2.6693
X6.8266Y-13.5693
X7.2127Y-2.6693
X7.4127Y-2.6693
X7.4224Y-13.5693
X7.6127Y-2.6693
X7.6224Y-13.5693
X7.8224Y-13.5693
X8.2819Y-2.6913
X8.4224Y-13.5693
X8.4819Y-2.6913
X8.6224Y-13.5693
X8.6819Y-2.6913
X8.8224Y-13.5693
X9.2786Y-2.6693
X9.4786Y-2.6693
X9.5266Y-13.5693
X9.6786Y-2.6693
X9.7266Y-13.5693
X9.9266Y-13.5693
X10.3788Y-2.6693
X10.5266Y-13.5693
X10.5788Y-2.6693
X10.7266Y-13.5693
X10.7788Y-2.6693
X10.9266Y-13.5693
X11.4127Y-2.6693
X11.5266Y-13.5693
X11.6127Y-2.6693
X11.7266Y-13.5693
X11.8127Y-2.6693
X11.9266Y-13.5693
X12.5307Y-2.6693
X12.6266Y-13.5693
X12.7307Y-2.6693
X12.8266Y-13.5693
X12.9307Y-2.6693
X13.0266Y-13.5693
X13.5307Y-2.6693
X13.6266Y-13.5693
X13.7307Y-2.6693
X13.8266Y-13.5693
X13.9307Y-2.6693
X14.0266Y-13.5693
X14.6307Y-2.6693
X14.7266Y-13.5693
X14.8307Y-2.6693
X14.9266Y-13.5693
X15.0307Y-2.6693
X15.1266Y-13.5693
X15.6307Y-2.6693
X15.7266Y-13.5693
X15.8307Y-2.6693
X15.9266Y-13.5693
X16.0307Y-2.6693
X16.1266Y-13.5693
X16.6786Y-2.6693
X16.8786Y-2.6693
X16.9266Y-13.5693
X17.0786Y-2.6693
X17.1266Y-13.5693
X17.3266Y-13.5693
X17.6786Y-2.6693
X17.8745Y-13.5693
X17.8786Y-2.6693
X18.0745Y-13.5693
X18.0786Y-2.6693
X18.2745Y-13.5693
X18.6786Y-2.6693
X18.8745Y-13.5693
X18.8786Y-2.6693
X19.0745Y-13.5693
X19.0786Y-2.6693
X19.2745Y-13.5693
X19.6786Y-2.6693
X19.8266Y-13.5693
X19.8786Y-2.6693
X20.0266Y-13.5693
X20.0786Y-2.6693
X20.2266Y-13.5693
T12
X17.2786Y-8.1693
X17.2786Y-8.7693
T8
G00X20.1145Y-7.5102
M15
G01X20.1145Y-7.6283
M16
G05
G00X20.3184Y-7.5102
M15
G01X20.3184Y-7.6283
M16
G05
T0
M30
