%TF.GenerationSoftware,KiCad,Pcbnew,7.0.7*%
%TF.CreationDate,2023-09-03T02:21:54+05:00*%
%TF.ProjectId,MCUPCB,4d435550-4342-42e6-9b69-6361645f7063,rev?*%
%TF.SameCoordinates,Original*%
%TF.FileFunction,Copper,L2,Bot*%
%TF.FilePolarity,Positive*%
%FSLAX46Y46*%
G04 Gerber Fmt 4.6, Leading zero omitted, Abs format (unit mm)*
G04 Created by KiCad (PCBNEW 7.0.7) date 2023-09-03 02:21:54*
%MOMM*%
%LPD*%
G01*
G04 APERTURE LIST*
%TA.AperFunction,ComponentPad*%
%ADD10R,2.200000X2.200000*%
%TD*%
%TA.AperFunction,ComponentPad*%
%ADD11O,2.200000X2.200000*%
%TD*%
%TA.AperFunction,ComponentPad*%
%ADD12C,1.800000*%
%TD*%
%TA.AperFunction,ComponentPad*%
%ADD13R,1.800000X1.800000*%
%TD*%
%TA.AperFunction,ComponentPad*%
%ADD14C,2.200000*%
%TD*%
%TA.AperFunction,ComponentPad*%
%ADD15R,1.050000X1.500000*%
%TD*%
%TA.AperFunction,ComponentPad*%
%ADD16O,1.050000X1.500000*%
%TD*%
%TA.AperFunction,ComponentPad*%
%ADD17O,1.600000X1.600000*%
%TD*%
%TA.AperFunction,ComponentPad*%
%ADD18R,1.600000X1.600000*%
%TD*%
%TA.AperFunction,ComponentPad*%
%ADD19C,3.000000*%
%TD*%
%TA.AperFunction,ComponentPad*%
%ADD20R,3.000000X3.000000*%
%TD*%
%TA.AperFunction,ComponentPad*%
%ADD21C,1.600000*%
%TD*%
%TA.AperFunction,HeatsinkPad*%
%ADD22C,0.600000*%
%TD*%
%TA.AperFunction,ComponentPad*%
%ADD23C,2.000000*%
%TD*%
%TA.AperFunction,ComponentPad*%
%ADD24O,2.000000X2.000000*%
%TD*%
%TA.AperFunction,ComponentPad*%
%ADD25O,1.800000X1.800000*%
%TD*%
%TA.AperFunction,ComponentPad*%
%ADD26O,2.020000X5.020000*%
%TD*%
%TA.AperFunction,ComponentPad*%
%ADD27R,2.020000X5.020000*%
%TD*%
%TA.AperFunction,ComponentPad*%
%ADD28R,3.200000X3.200000*%
%TD*%
%TA.AperFunction,ComponentPad*%
%ADD29O,3.200000X3.200000*%
%TD*%
%TA.AperFunction,ComponentPad*%
%ADD30R,1.200000X1.200000*%
%TD*%
%TA.AperFunction,ComponentPad*%
%ADD31C,1.200000*%
%TD*%
%TA.AperFunction,ViaPad*%
%ADD32C,0.800000*%
%TD*%
%TA.AperFunction,Conductor*%
%ADD33C,0.250000*%
%TD*%
G04 APERTURE END LIST*
D10*
%TO.P,D21,1,K*%
%TO.N,Net-(D1-K)*%
X381780000Y-121140000D03*
D11*
%TO.P,D21,2,A*%
%TO.N,Net-(D21-A)*%
X371620000Y-121140000D03*
%TD*%
D12*
%TO.P,K12,A2*%
%TO.N,Net-(D23-A)*%
X398237500Y-113520000D03*
D13*
%TO.P,K12,A1*%
%TO.N,Net-(D1-K)*%
X405857500Y-113520000D03*
D14*
%TO.P,K12,14*%
%TO.N,Net-(J12-Pin_2)*%
X405857500Y-95740000D03*
%TO.P,K12,12*%
%TO.N,Net-(J12-Pin_1)*%
X398237500Y-95740000D03*
%TO.P,K12,11*%
%TO.N,Net-(J12-Pin_3)*%
X405857500Y-103360000D03*
%TD*%
D10*
%TO.P,D15,1,K*%
%TO.N,Net-(D1-K)*%
X300042500Y-121140000D03*
D11*
%TO.P,D15,2,A*%
%TO.N,Net-(D15-A)*%
X289882500Y-121140000D03*
%TD*%
D12*
%TO.P,K14,A2*%
%TO.N,Net-(D27-A)*%
X450255000Y-113520000D03*
D13*
%TO.P,K14,A1*%
%TO.N,Net-(D1-K)*%
X457875000Y-113520000D03*
D14*
%TO.P,K14,14*%
%TO.N,Net-(J14-Pin_2)*%
X457875000Y-95740000D03*
%TO.P,K14,12*%
%TO.N,Net-(J14-Pin_1)*%
X450255000Y-95740000D03*
%TO.P,K14,11*%
%TO.N,Net-(J14-Pin_3)*%
X457875000Y-103360000D03*
%TD*%
D15*
%TO.P,Q8,1,C*%
%TO.N,Net-(D15-A)*%
X293692500Y-128760000D03*
D16*
%TO.P,Q8,2,B*%
%TO.N,Net-(Q8-B)*%
X294962500Y-128760000D03*
%TO.P,Q8,3,E*%
%TO.N,GNDREF*%
X296232500Y-128760000D03*
%TD*%
D12*
%TO.P,K15,A2*%
%TO.N,Net-(D29-A)*%
X475655000Y-113520000D03*
D13*
%TO.P,K15,A1*%
%TO.N,Net-(D1-K)*%
X483275000Y-113520000D03*
D14*
%TO.P,K15,14*%
%TO.N,Net-(J15-Pin_2)*%
X483275000Y-95740000D03*
%TO.P,K15,12*%
%TO.N,Net-(J15-Pin_1)*%
X475655000Y-95740000D03*
%TO.P,K15,11*%
%TO.N,Net-(J15-Pin_3)*%
X483275000Y-103360000D03*
%TD*%
D12*
%TO.P,K16,A2*%
%TO.N,Net-(D31-A)*%
X501055000Y-113520000D03*
D13*
%TO.P,K16,A1*%
%TO.N,Net-(D1-K)*%
X508675000Y-113520000D03*
D14*
%TO.P,K16,14*%
%TO.N,Net-(J16-Pin_2)*%
X508675000Y-95740000D03*
%TO.P,K16,12*%
%TO.N,Net-(J16-Pin_1)*%
X501055000Y-95740000D03*
%TO.P,K16,11*%
%TO.N,Net-(J16-Pin_3)*%
X508675000Y-103360000D03*
%TD*%
D12*
%TO.P,K5,A2*%
%TO.N,Net-(D9-A)*%
X211577500Y-114080000D03*
D13*
%TO.P,K5,A1*%
%TO.N,Net-(D1-K)*%
X219197500Y-114080000D03*
D14*
%TO.P,K5,14*%
%TO.N,Net-(J5-Pin_2)*%
X219197500Y-96300000D03*
%TO.P,K5,12*%
%TO.N,Net-(J5-Pin_1)*%
X211577500Y-96300000D03*
%TO.P,K5,11*%
%TO.N,Net-(J5-Pin_3)*%
X219197500Y-103920000D03*
%TD*%
D17*
%TO.P,U16,4*%
%TO.N,Net-(D1-K)*%
X506192500Y-144000000D03*
%TO.P,U16,3*%
%TO.N,Net-(R32-Pad2)*%
X503652500Y-144000000D03*
%TO.P,U16,2*%
%TO.N,Net-(D32-A)*%
X503652500Y-151620000D03*
D18*
%TO.P,U16,1*%
%TO.N,Net-(R31-Pad1)*%
X506192500Y-151620000D03*
%TD*%
D19*
%TO.P,J14,3,Pin_3*%
%TO.N,Net-(J14-Pin_3)*%
X459197500Y-67800000D03*
%TO.P,J14,2,Pin_2*%
%TO.N,Net-(J14-Pin_2)*%
X454117500Y-67800000D03*
D20*
%TO.P,J14,1,Pin_1*%
%TO.N,Net-(J14-Pin_1)*%
X449037500Y-67800000D03*
%TD*%
D16*
%TO.P,Q10,3,E*%
%TO.N,GNDREF*%
X350030000Y-128760000D03*
%TO.P,Q10,2,B*%
%TO.N,Net-(Q10-B)*%
X348760000Y-128760000D03*
D15*
%TO.P,Q10,1,C*%
%TO.N,Net-(D19-A)*%
X347490000Y-128760000D03*
%TD*%
D14*
%TO.P,K10,11*%
%TO.N,Net-(J10-Pin_3)*%
X352517500Y-103360000D03*
%TO.P,K10,12*%
%TO.N,Net-(J10-Pin_1)*%
X344897500Y-95740000D03*
%TO.P,K10,14*%
%TO.N,Net-(J10-Pin_2)*%
X352517500Y-95740000D03*
D13*
%TO.P,K10,A1*%
%TO.N,Net-(D1-K)*%
X352517500Y-113520000D03*
D12*
%TO.P,K10,A2*%
%TO.N,Net-(D19-A)*%
X344897500Y-113520000D03*
%TD*%
D17*
%TO.P,R23,2*%
%TO.N,SW12*%
X402100000Y-169400000D03*
D21*
%TO.P,R23,1*%
%TO.N,Net-(R23-Pad1)*%
X402100000Y-159240000D03*
%TD*%
D11*
%TO.P,D23,2,A*%
%TO.N,Net-(D23-A)*%
X397020000Y-121140000D03*
D10*
%TO.P,D23,1,K*%
%TO.N,Net-(D1-K)*%
X407180000Y-121140000D03*
%TD*%
D12*
%TO.P,K11,A2*%
%TO.N,Net-(D21-A)*%
X372837500Y-113520000D03*
D13*
%TO.P,K11,A1*%
%TO.N,Net-(D1-K)*%
X380457500Y-113520000D03*
D14*
%TO.P,K11,14*%
%TO.N,Net-(J11-Pin_2)*%
X380457500Y-95740000D03*
%TO.P,K11,12*%
%TO.N,Net-(J11-Pin_1)*%
X372837500Y-95740000D03*
%TO.P,K11,11*%
%TO.N,Net-(J11-Pin_3)*%
X380457500Y-103360000D03*
%TD*%
D12*
%TO.P,D24,2,A*%
%TO.N,Net-(D24-A)*%
X395697500Y-169400000D03*
D13*
%TO.P,D24,1,K*%
%TO.N,GNDREF*%
X395697500Y-166860000D03*
%TD*%
D16*
%TO.P,Q16,3,E*%
%TO.N,GNDREF*%
X506187500Y-128760000D03*
%TO.P,Q16,2,B*%
%TO.N,Net-(Q16-B)*%
X504917500Y-128760000D03*
D15*
%TO.P,Q16,1,C*%
%TO.N,Net-(D31-A)*%
X503647500Y-128760000D03*
%TD*%
D12*
%TO.P,K13,A2*%
%TO.N,Net-(D25-A)*%
X424855000Y-113520000D03*
D13*
%TO.P,K13,A1*%
%TO.N,Net-(D1-K)*%
X432475000Y-113520000D03*
D14*
%TO.P,K13,14*%
%TO.N,Net-(J13-Pin_2)*%
X432475000Y-95740000D03*
%TO.P,K13,12*%
%TO.N,Net-(J13-Pin_1)*%
X424855000Y-95740000D03*
%TO.P,K13,11*%
%TO.N,Net-(J13-Pin_3)*%
X432475000Y-103360000D03*
%TD*%
D12*
%TO.P,D26,2,A*%
%TO.N,Net-(D26-A)*%
X421097500Y-169240000D03*
D13*
%TO.P,D26,1,K*%
%TO.N,GNDREF*%
X421097500Y-166700000D03*
%TD*%
D15*
%TO.P,Q11,1,C*%
%TO.N,Net-(D21-A)*%
X375430000Y-128760000D03*
D16*
%TO.P,Q11,2,B*%
%TO.N,Net-(Q11-B)*%
X376700000Y-128760000D03*
%TO.P,Q11,3,E*%
%TO.N,GNDREF*%
X377970000Y-128760000D03*
%TD*%
D17*
%TO.P,R29,2*%
%TO.N,SW15*%
X479517500Y-169400000D03*
D21*
%TO.P,R29,1*%
%TO.N,Net-(R29-Pad1)*%
X479517500Y-159240000D03*
%TD*%
D16*
%TO.P,Q13,3,E*%
%TO.N,GNDREF*%
X429987500Y-128760000D03*
%TO.P,Q13,2,B*%
%TO.N,Net-(Q13-B)*%
X428717500Y-128760000D03*
D15*
%TO.P,Q13,1,C*%
%TO.N,Net-(D25-A)*%
X427447500Y-128760000D03*
%TD*%
%TO.P,Q6,1,C*%
%TO.N,Net-(D11-A)*%
X239487500Y-128760000D03*
D16*
%TO.P,Q6,2,B*%
%TO.N,Net-(Q6-B)*%
X240757500Y-128760000D03*
%TO.P,Q6,3,E*%
%TO.N,GNDREF*%
X242027500Y-128760000D03*
%TD*%
D15*
%TO.P,Q4,1,C*%
%TO.N,Net-(D7-A)*%
X187012500Y-128760000D03*
D16*
%TO.P,Q4,2,B*%
%TO.N,Net-(Q4-B)*%
X188282500Y-128760000D03*
%TO.P,Q4,3,E*%
%TO.N,GNDREF*%
X189552500Y-128760000D03*
%TD*%
D15*
%TO.P,Q12,1,C*%
%TO.N,Net-(D23-A)*%
X400830000Y-128760000D03*
D16*
%TO.P,Q12,2,B*%
%TO.N,Net-(Q12-B)*%
X402100000Y-128760000D03*
%TO.P,Q12,3,E*%
%TO.N,GNDREF*%
X403370000Y-128760000D03*
%TD*%
D13*
%TO.P,D20,1,K*%
%TO.N,GNDREF*%
X342357500Y-166700000D03*
D12*
%TO.P,D20,2,A*%
%TO.N,Net-(D20-A)*%
X342357500Y-169240000D03*
%TD*%
D15*
%TO.P,Q3,1,C*%
%TO.N,Net-(D5-A)*%
X162070000Y-128760000D03*
D16*
%TO.P,Q3,2,B*%
%TO.N,Net-(Q3-B)*%
X163340000Y-128760000D03*
%TO.P,Q3,3,E*%
%TO.N,GNDREF*%
X164610000Y-128760000D03*
%TD*%
D17*
%TO.P,U9,4*%
%TO.N,Net-(D1-K)*%
X324635000Y-144000000D03*
%TO.P,U9,3*%
%TO.N,Net-(R18-Pad2)*%
X322095000Y-144000000D03*
%TO.P,U9,2*%
%TO.N,Net-(D18-A)*%
X322095000Y-151620000D03*
D18*
%TO.P,U9,1*%
%TO.N,Net-(R17-Pad1)*%
X324635000Y-151620000D03*
%TD*%
D16*
%TO.P,Q1,3,E*%
%TO.N,GNDREF*%
X113810000Y-128760000D03*
%TO.P,Q1,2,B*%
%TO.N,Net-(Q1-B)*%
X112540000Y-128760000D03*
D15*
%TO.P,Q1,1,C*%
%TO.N,Net-(D1-A)*%
X111270000Y-128760000D03*
%TD*%
%TO.P,Q5,1,C*%
%TO.N,Net-(D9-A)*%
X214170000Y-129320000D03*
D16*
%TO.P,Q5,2,B*%
%TO.N,Net-(Q5-B)*%
X215440000Y-129320000D03*
%TO.P,Q5,3,E*%
%TO.N,GNDREF*%
X216710000Y-129320000D03*
%TD*%
%TO.P,Q2,3,E*%
%TO.N,GNDREF*%
X139210000Y-128760000D03*
%TO.P,Q2,2,B*%
%TO.N,Net-(Q2-B)*%
X137940000Y-128760000D03*
D15*
%TO.P,Q2,1,C*%
%TO.N,Net-(D3-A)*%
X136670000Y-128760000D03*
%TD*%
D17*
%TO.P,R12,2*%
%TO.N,Net-(R12-Pad2)*%
X245837500Y-136380000D03*
D21*
%TO.P,R12,1*%
%TO.N,Net-(Q6-B)*%
X235677500Y-136380000D03*
%TD*%
D15*
%TO.P,Q9,1,C*%
%TO.N,Net-(D17-A)*%
X322090000Y-128760000D03*
D16*
%TO.P,Q9,2,B*%
%TO.N,Net-(Q9-B)*%
X323360000Y-128760000D03*
%TO.P,Q9,3,E*%
%TO.N,GNDREF*%
X324630000Y-128760000D03*
%TD*%
%TO.P,Q15,3,E*%
%TO.N,GNDREF*%
X480787500Y-128760000D03*
%TO.P,Q15,2,B*%
%TO.N,Net-(Q15-B)*%
X479517500Y-128760000D03*
D15*
%TO.P,Q15,1,C*%
%TO.N,Net-(D29-A)*%
X478247500Y-128760000D03*
%TD*%
D17*
%TO.P,R10,2*%
%TO.N,Net-(R10-Pad2)*%
X220520000Y-136940000D03*
D21*
%TO.P,R10,1*%
%TO.N,Net-(Q5-B)*%
X210360000Y-136940000D03*
%TD*%
D13*
%TO.P,D16,1,K*%
%TO.N,GNDREF*%
X289017500Y-166700000D03*
D12*
%TO.P,D16,2,A*%
%TO.N,Net-(D16-A)*%
X289017500Y-169240000D03*
%TD*%
D16*
%TO.P,Q7,3,E*%
%TO.N,GNDREF*%
X269972500Y-128760000D03*
%TO.P,Q7,2,B*%
%TO.N,Net-(Q7-B)*%
X268702500Y-128760000D03*
D15*
%TO.P,Q7,1,C*%
%TO.N,Net-(D13-A)*%
X267432500Y-128760000D03*
%TD*%
%TO.P,Q14,1,C*%
%TO.N,Net-(D27-A)*%
X452847500Y-128760000D03*
D16*
%TO.P,Q14,2,B*%
%TO.N,Net-(Q14-B)*%
X454117500Y-128760000D03*
%TO.P,Q14,3,E*%
%TO.N,GNDREF*%
X455387500Y-128760000D03*
%TD*%
D11*
%TO.P,D11,2,A*%
%TO.N,Net-(D11-A)*%
X235677500Y-121140000D03*
D10*
%TO.P,D11,1,K*%
%TO.N,Net-(D1-K)*%
X245837500Y-121140000D03*
%TD*%
D17*
%TO.P,R2,2*%
%TO.N,Net-(R2-Pad2)*%
X117620000Y-136380000D03*
D21*
%TO.P,R2,1*%
%TO.N,Net-(Q1-B)*%
X107460000Y-136380000D03*
%TD*%
D17*
%TO.P,R3,2*%
%TO.N,SW2*%
X137940000Y-169400000D03*
D21*
%TO.P,R3,1*%
%TO.N,Net-(R3-Pad1)*%
X137940000Y-159240000D03*
%TD*%
D17*
%TO.P,R4,2*%
%TO.N,Net-(R4-Pad2)*%
X143020000Y-136380000D03*
D21*
%TO.P,R4,1*%
%TO.N,Net-(Q2-B)*%
X132860000Y-136380000D03*
%TD*%
D13*
%TO.P,D32,1,K*%
%TO.N,GNDREF*%
X497297500Y-166860000D03*
D12*
%TO.P,D32,2,A*%
%TO.N,Net-(D32-A)*%
X497297500Y-169400000D03*
%TD*%
D17*
%TO.P,R5,2*%
%TO.N,SW3*%
X163340000Y-169400000D03*
D21*
%TO.P,R5,1*%
%TO.N,Net-(R5-Pad1)*%
X163340000Y-159240000D03*
%TD*%
D11*
%TO.P,D9,2,A*%
%TO.N,Net-(D9-A)*%
X210360000Y-121700000D03*
D10*
%TO.P,D9,1,K*%
%TO.N,Net-(D1-K)*%
X220520000Y-121700000D03*
%TD*%
D17*
%TO.P,R6,2*%
%TO.N,Net-(R6-Pad2)*%
X168420000Y-136380000D03*
D21*
%TO.P,R6,1*%
%TO.N,Net-(Q3-B)*%
X158260000Y-136380000D03*
%TD*%
D17*
%TO.P,R7,2*%
%TO.N,SW4*%
X188282500Y-169400000D03*
D21*
%TO.P,R7,1*%
%TO.N,Net-(R7-Pad1)*%
X188282500Y-159240000D03*
%TD*%
D17*
%TO.P,R8,2*%
%TO.N,Net-(R8-Pad2)*%
X193362500Y-136380000D03*
D21*
%TO.P,R8,1*%
%TO.N,Net-(Q4-B)*%
X183202500Y-136380000D03*
%TD*%
D19*
%TO.P,J15,3,Pin_3*%
%TO.N,Net-(J15-Pin_3)*%
X484597500Y-67800000D03*
%TO.P,J15,2,Pin_2*%
%TO.N,Net-(J15-Pin_2)*%
X479517500Y-67800000D03*
D20*
%TO.P,J15,1,Pin_1*%
%TO.N,Net-(J15-Pin_1)*%
X474437500Y-67800000D03*
%TD*%
D13*
%TO.P,D8,1,K*%
%TO.N,GNDREF*%
X182337500Y-166700000D03*
D12*
%TO.P,D8,2,A*%
%TO.N,Net-(D8-A)*%
X182337500Y-169240000D03*
%TD*%
D11*
%TO.P,D13,2,A*%
%TO.N,Net-(D13-A)*%
X263622500Y-121140000D03*
D10*
%TO.P,D13,1,K*%
%TO.N,Net-(D1-K)*%
X273782500Y-121140000D03*
%TD*%
D12*
%TO.P,D18,2,A*%
%TO.N,Net-(D18-A)*%
X316957500Y-169400000D03*
D13*
%TO.P,D18,1,K*%
%TO.N,GNDREF*%
X316957500Y-166860000D03*
%TD*%
D11*
%TO.P,D3,2,A*%
%TO.N,Net-(D3-A)*%
X132860000Y-121140000D03*
D10*
%TO.P,D3,1,K*%
%TO.N,Net-(D1-K)*%
X143020000Y-121140000D03*
%TD*%
D12*
%TO.P,D4,2,A*%
%TO.N,Net-(D4-A)*%
X131537500Y-169240000D03*
D13*
%TO.P,D4,1,K*%
%TO.N,GNDREF*%
X131537500Y-166700000D03*
%TD*%
D10*
%TO.P,D17,1,K*%
%TO.N,Net-(D1-K)*%
X328440000Y-121140000D03*
D11*
%TO.P,D17,2,A*%
%TO.N,Net-(D17-A)*%
X318280000Y-121140000D03*
%TD*%
%TO.P,D1,2,A*%
%TO.N,Net-(D1-A)*%
X107460000Y-121140000D03*
D10*
%TO.P,D1,1,K*%
%TO.N,Net-(D1-K)*%
X117620000Y-121140000D03*
%TD*%
D12*
%TO.P,D6,2,A*%
%TO.N,Net-(D6-A)*%
X156937500Y-169240000D03*
D13*
%TO.P,D6,1,K*%
%TO.N,GNDREF*%
X156937500Y-166700000D03*
%TD*%
D11*
%TO.P,D7,2,A*%
%TO.N,Net-(D7-A)*%
X183202500Y-121140000D03*
D10*
%TO.P,D7,1,K*%
%TO.N,Net-(D1-K)*%
X193362500Y-121140000D03*
%TD*%
D11*
%TO.P,D5,2,A*%
%TO.N,Net-(D5-A)*%
X158260000Y-121140000D03*
D10*
%TO.P,D5,1,K*%
%TO.N,Net-(D1-K)*%
X168420000Y-121140000D03*
%TD*%
D12*
%TO.P,D10,2,A*%
%TO.N,Net-(D10-A)*%
X207737500Y-169400000D03*
D13*
%TO.P,D10,1,K*%
%TO.N,GNDREF*%
X207737500Y-166860000D03*
%TD*%
D12*
%TO.P,D12,2,A*%
%TO.N,Net-(D12-A)*%
X233137500Y-169240000D03*
D13*
%TO.P,D12,1,K*%
%TO.N,GNDREF*%
X233137500Y-166700000D03*
%TD*%
D11*
%TO.P,D19,2,A*%
%TO.N,Net-(D19-A)*%
X343680000Y-121140000D03*
D10*
%TO.P,D19,1,K*%
%TO.N,Net-(D1-K)*%
X353840000Y-121140000D03*
%TD*%
D13*
%TO.P,D14,1,K*%
%TO.N,GNDREF*%
X261077500Y-166860000D03*
D12*
%TO.P,D14,2,A*%
%TO.N,Net-(D14-A)*%
X261077500Y-169400000D03*
%TD*%
D13*
%TO.P,D22,1,K*%
%TO.N,GNDREF*%
X370297500Y-166700000D03*
D12*
%TO.P,D22,2,A*%
%TO.N,Net-(D22-A)*%
X370297500Y-169240000D03*
%TD*%
D19*
%TO.P,J2,3,Pin_3*%
%TO.N,Net-(J2-Pin_3)*%
X143020000Y-67800000D03*
%TO.P,J2,2,Pin_2*%
%TO.N,Net-(J2-Pin_2)*%
X137940000Y-67800000D03*
D20*
%TO.P,J2,1,Pin_1*%
%TO.N,Net-(J2-Pin_1)*%
X132860000Y-67800000D03*
%TD*%
D11*
%TO.P,D31,2,A*%
%TO.N,Net-(D31-A)*%
X499837500Y-121140000D03*
D10*
%TO.P,D31,1,K*%
%TO.N,Net-(D1-K)*%
X509997500Y-121140000D03*
%TD*%
D12*
%TO.P,D28,2,A*%
%TO.N,Net-(D28-A)*%
X446497500Y-169400000D03*
D13*
%TO.P,D28,1,K*%
%TO.N,GNDREF*%
X446497500Y-166860000D03*
%TD*%
D11*
%TO.P,D29,2,A*%
%TO.N,Net-(D29-A)*%
X474437500Y-121140000D03*
D10*
%TO.P,D29,1,K*%
%TO.N,Net-(D1-K)*%
X484597500Y-121140000D03*
%TD*%
D11*
%TO.P,D27,2,A*%
%TO.N,Net-(D27-A)*%
X449037500Y-121140000D03*
D10*
%TO.P,D27,1,K*%
%TO.N,Net-(D1-K)*%
X459197500Y-121140000D03*
%TD*%
D12*
%TO.P,D30,2,A*%
%TO.N,Net-(D30-A)*%
X471897500Y-169240000D03*
D13*
%TO.P,D30,1,K*%
%TO.N,GNDREF*%
X471897500Y-166700000D03*
%TD*%
D10*
%TO.P,D25,1,K*%
%TO.N,Net-(D1-K)*%
X433797500Y-121140000D03*
D11*
%TO.P,D25,2,A*%
%TO.N,Net-(D25-A)*%
X423637500Y-121140000D03*
%TD*%
D19*
%TO.P,J12,3,Pin_3*%
%TO.N,Net-(J12-Pin_3)*%
X407180000Y-67800000D03*
%TO.P,J12,2,Pin_2*%
%TO.N,Net-(J12-Pin_2)*%
X402100000Y-67800000D03*
D20*
%TO.P,J12,1,Pin_1*%
%TO.N,Net-(J12-Pin_1)*%
X397020000Y-67800000D03*
%TD*%
D19*
%TO.P,J9,3,Pin_3*%
%TO.N,Net-(J9-Pin_3)*%
X328440000Y-67800000D03*
%TO.P,J9,2,Pin_2*%
%TO.N,Net-(J9-Pin_2)*%
X323360000Y-67800000D03*
D20*
%TO.P,J9,1,Pin_1*%
%TO.N,Net-(J9-Pin_1)*%
X318280000Y-67800000D03*
%TD*%
%TO.P,J7,1,Pin_1*%
%TO.N,Net-(J7-Pin_1)*%
X263622500Y-67800000D03*
D19*
%TO.P,J7,2,Pin_2*%
%TO.N,Net-(J7-Pin_2)*%
X268702500Y-67800000D03*
%TO.P,J7,3,Pin_3*%
%TO.N,Net-(J7-Pin_3)*%
X273782500Y-67800000D03*
%TD*%
%TO.P,J1,3,Pin_3*%
%TO.N,Net-(J1-Pin_3)*%
X117620000Y-67800000D03*
%TO.P,J1,2,Pin_2*%
%TO.N,Net-(J1-Pin_2)*%
X112540000Y-67800000D03*
D20*
%TO.P,J1,1,Pin_1*%
%TO.N,Net-(J1-Pin_1)*%
X107460000Y-67800000D03*
%TD*%
%TO.P,J3,1,Pin_1*%
%TO.N,Net-(J3-Pin_1)*%
X158260000Y-67800000D03*
D19*
%TO.P,J3,2,Pin_2*%
%TO.N,Net-(J3-Pin_2)*%
X163340000Y-67800000D03*
%TO.P,J3,3,Pin_3*%
%TO.N,Net-(J3-Pin_3)*%
X168420000Y-67800000D03*
%TD*%
%TO.P,J4,3,Pin_3*%
%TO.N,Net-(J4-Pin_3)*%
X193362500Y-67800000D03*
%TO.P,J4,2,Pin_2*%
%TO.N,Net-(J4-Pin_2)*%
X188282500Y-67800000D03*
D20*
%TO.P,J4,1,Pin_1*%
%TO.N,Net-(J4-Pin_1)*%
X183202500Y-67800000D03*
%TD*%
D19*
%TO.P,J11,3,Pin_3*%
%TO.N,Net-(J11-Pin_3)*%
X381780000Y-67800000D03*
%TO.P,J11,2,Pin_2*%
%TO.N,Net-(J11-Pin_2)*%
X376700000Y-67800000D03*
D20*
%TO.P,J11,1,Pin_1*%
%TO.N,Net-(J11-Pin_1)*%
X371620000Y-67800000D03*
%TD*%
D19*
%TO.P,J8,3,Pin_3*%
%TO.N,Net-(J8-Pin_3)*%
X300042500Y-67800000D03*
%TO.P,J8,2,Pin_2*%
%TO.N,Net-(J8-Pin_2)*%
X294962500Y-67800000D03*
D20*
%TO.P,J8,1,Pin_1*%
%TO.N,Net-(J8-Pin_1)*%
X289882500Y-67800000D03*
%TD*%
D19*
%TO.P,J6,3,Pin_3*%
%TO.N,Net-(J6-Pin_3)*%
X245837500Y-67800000D03*
%TO.P,J6,2,Pin_2*%
%TO.N,Net-(J6-Pin_2)*%
X240757500Y-67800000D03*
D20*
%TO.P,J6,1,Pin_1*%
%TO.N,Net-(J6-Pin_1)*%
X235677500Y-67800000D03*
%TD*%
%TO.P,J10,1,Pin_1*%
%TO.N,Net-(J10-Pin_1)*%
X343680000Y-67800000D03*
D19*
%TO.P,J10,2,Pin_2*%
%TO.N,Net-(J10-Pin_2)*%
X348760000Y-67800000D03*
%TO.P,J10,3,Pin_3*%
%TO.N,Net-(J10-Pin_3)*%
X353840000Y-67800000D03*
%TD*%
%TO.P,J5,3,Pin_3*%
%TO.N,Net-(J5-Pin_3)*%
X220520000Y-68360000D03*
%TO.P,J5,2,Pin_2*%
%TO.N,Net-(J5-Pin_2)*%
X215440000Y-68360000D03*
D20*
%TO.P,J5,1,Pin_1*%
%TO.N,Net-(J5-Pin_1)*%
X210360000Y-68360000D03*
%TD*%
%TO.P,J13,1,Pin_1*%
%TO.N,Net-(J13-Pin_1)*%
X423637500Y-67800000D03*
D19*
%TO.P,J13,2,Pin_2*%
%TO.N,Net-(J13-Pin_2)*%
X428717500Y-67800000D03*
%TO.P,J13,3,Pin_3*%
%TO.N,Net-(J13-Pin_3)*%
X433797500Y-67800000D03*
%TD*%
%TO.P,J16,3,Pin_3*%
%TO.N,Net-(J16-Pin_3)*%
X509997500Y-67800000D03*
%TO.P,J16,2,Pin_2*%
%TO.N,Net-(J16-Pin_2)*%
X504917500Y-67800000D03*
D20*
%TO.P,J16,1,Pin_1*%
%TO.N,Net-(J16-Pin_1)*%
X499837500Y-67800000D03*
%TD*%
D14*
%TO.P,K7,11*%
%TO.N,Net-(J7-Pin_3)*%
X272460000Y-103360000D03*
%TO.P,K7,12*%
%TO.N,Net-(J7-Pin_1)*%
X264840000Y-95740000D03*
%TO.P,K7,14*%
%TO.N,Net-(J7-Pin_2)*%
X272460000Y-95740000D03*
D13*
%TO.P,K7,A1*%
%TO.N,Net-(D1-K)*%
X272460000Y-113520000D03*
D12*
%TO.P,K7,A2*%
%TO.N,Net-(D13-A)*%
X264840000Y-113520000D03*
%TD*%
%TO.P,K8,A2*%
%TO.N,Net-(D15-A)*%
X291100000Y-113520000D03*
D13*
%TO.P,K8,A1*%
%TO.N,Net-(D1-K)*%
X298720000Y-113520000D03*
D14*
%TO.P,K8,14*%
%TO.N,Net-(J8-Pin_2)*%
X298720000Y-95740000D03*
%TO.P,K8,12*%
%TO.N,Net-(J8-Pin_1)*%
X291100000Y-95740000D03*
%TO.P,K8,11*%
%TO.N,Net-(J8-Pin_3)*%
X298720000Y-103360000D03*
%TD*%
D12*
%TO.P,K9,A2*%
%TO.N,Net-(D17-A)*%
X319497500Y-113520000D03*
D13*
%TO.P,K9,A1*%
%TO.N,Net-(D1-K)*%
X327117500Y-113520000D03*
D14*
%TO.P,K9,14*%
%TO.N,Net-(J9-Pin_2)*%
X327117500Y-95740000D03*
%TO.P,K9,12*%
%TO.N,Net-(J9-Pin_1)*%
X319497500Y-95740000D03*
%TO.P,K9,11*%
%TO.N,Net-(J9-Pin_3)*%
X327117500Y-103360000D03*
%TD*%
%TO.P,K1,11*%
%TO.N,Net-(J1-Pin_3)*%
X116297500Y-103360000D03*
%TO.P,K1,12*%
%TO.N,Net-(J1-Pin_1)*%
X108677500Y-95740000D03*
%TO.P,K1,14*%
%TO.N,Net-(J1-Pin_2)*%
X116297500Y-95740000D03*
D13*
%TO.P,K1,A1*%
%TO.N,Net-(D1-K)*%
X116297500Y-113520000D03*
D12*
%TO.P,K1,A2*%
%TO.N,Net-(D1-A)*%
X108677500Y-113520000D03*
%TD*%
%TO.P,K4,A2*%
%TO.N,Net-(D7-A)*%
X184420000Y-113520000D03*
D13*
%TO.P,K4,A1*%
%TO.N,Net-(D1-K)*%
X192040000Y-113520000D03*
D14*
%TO.P,K4,14*%
%TO.N,Net-(J4-Pin_2)*%
X192040000Y-95740000D03*
%TO.P,K4,12*%
%TO.N,Net-(J4-Pin_1)*%
X184420000Y-95740000D03*
%TO.P,K4,11*%
%TO.N,Net-(J4-Pin_3)*%
X192040000Y-103360000D03*
%TD*%
D12*
%TO.P,K3,A2*%
%TO.N,Net-(D5-A)*%
X159477500Y-113520000D03*
D13*
%TO.P,K3,A1*%
%TO.N,Net-(D1-K)*%
X167097500Y-113520000D03*
D14*
%TO.P,K3,14*%
%TO.N,Net-(J3-Pin_2)*%
X167097500Y-95740000D03*
%TO.P,K3,12*%
%TO.N,Net-(J3-Pin_1)*%
X159477500Y-95740000D03*
%TO.P,K3,11*%
%TO.N,Net-(J3-Pin_3)*%
X167097500Y-103360000D03*
%TD*%
D12*
%TO.P,K6,A2*%
%TO.N,Net-(D11-A)*%
X236895000Y-113520000D03*
D13*
%TO.P,K6,A1*%
%TO.N,Net-(D1-K)*%
X244515000Y-113520000D03*
D14*
%TO.P,K6,14*%
%TO.N,Net-(J6-Pin_2)*%
X244515000Y-95740000D03*
%TO.P,K6,12*%
%TO.N,Net-(J6-Pin_1)*%
X236895000Y-95740000D03*
%TO.P,K6,11*%
%TO.N,Net-(J6-Pin_3)*%
X244515000Y-103360000D03*
%TD*%
D12*
%TO.P,K2,A2*%
%TO.N,Net-(D3-A)*%
X134077500Y-113520000D03*
D13*
%TO.P,K2,A1*%
%TO.N,Net-(D1-K)*%
X141697500Y-113520000D03*
D14*
%TO.P,K2,14*%
%TO.N,Net-(J2-Pin_2)*%
X141697500Y-95740000D03*
%TO.P,K2,12*%
%TO.N,Net-(J2-Pin_1)*%
X134077500Y-95740000D03*
%TO.P,K2,11*%
%TO.N,Net-(J2-Pin_3)*%
X141697500Y-103360000D03*
%TD*%
D17*
%TO.P,R1,2*%
%TO.N,SW1*%
X112540000Y-169150000D03*
D21*
%TO.P,R1,1*%
%TO.N,Net-(R1-Pad1)*%
X112540000Y-158990000D03*
%TD*%
D12*
%TO.P,D2,2,A*%
%TO.N,Net-(D2-A)*%
X106137500Y-166610000D03*
D13*
%TO.P,D2,1,K*%
%TO.N,GNDREF*%
X106137500Y-164070000D03*
%TD*%
D21*
%TO.P,R13,1*%
%TO.N,Net-(R13-Pad1)*%
X268702500Y-159240000D03*
D17*
%TO.P,R13,2*%
%TO.N,SW7*%
X268702500Y-169400000D03*
%TD*%
D21*
%TO.P,R25,1*%
%TO.N,Net-(R25-Pad1)*%
X428717500Y-159240000D03*
D17*
%TO.P,R25,2*%
%TO.N,SW13*%
X428717500Y-169400000D03*
%TD*%
%TO.P,R16,2*%
%TO.N,Net-(R16-Pad2)*%
X300042500Y-136380000D03*
D21*
%TO.P,R16,1*%
%TO.N,Net-(Q8-B)*%
X289882500Y-136380000D03*
%TD*%
%TO.P,R20,1*%
%TO.N,Net-(Q10-B)*%
X343680000Y-136380000D03*
D17*
%TO.P,R20,2*%
%TO.N,Net-(R20-Pad2)*%
X353840000Y-136380000D03*
%TD*%
%TO.P,R32,2*%
%TO.N,Net-(R32-Pad2)*%
X509997500Y-136380000D03*
D21*
%TO.P,R32,1*%
%TO.N,Net-(Q16-B)*%
X499837500Y-136380000D03*
%TD*%
D17*
%TO.P,R9,2*%
%TO.N,SW5*%
X215440000Y-169960000D03*
D21*
%TO.P,R9,1*%
%TO.N,Net-(R9-Pad1)*%
X215440000Y-159800000D03*
%TD*%
D17*
%TO.P,R22,2*%
%TO.N,Net-(R22-Pad2)*%
X381780000Y-136380000D03*
D21*
%TO.P,R22,1*%
%TO.N,Net-(Q11-B)*%
X371620000Y-136380000D03*
%TD*%
D17*
%TO.P,R11,2*%
%TO.N,SW6*%
X240757500Y-169400000D03*
D21*
%TO.P,R11,1*%
%TO.N,Net-(R11-Pad1)*%
X240757500Y-159240000D03*
%TD*%
D17*
%TO.P,R21,2*%
%TO.N,SW11*%
X376700000Y-169400000D03*
D21*
%TO.P,R21,1*%
%TO.N,Net-(R21-Pad1)*%
X376700000Y-159240000D03*
%TD*%
D17*
%TO.P,R28,2*%
%TO.N,Net-(R28-Pad2)*%
X459197500Y-136380000D03*
D21*
%TO.P,R28,1*%
%TO.N,Net-(Q14-B)*%
X449037500Y-136380000D03*
%TD*%
D17*
%TO.P,R31,2*%
%TO.N,SW16*%
X504917500Y-169400000D03*
D21*
%TO.P,R31,1*%
%TO.N,Net-(R31-Pad1)*%
X504917500Y-159240000D03*
%TD*%
D17*
%TO.P,R15,2*%
%TO.N,SW8*%
X294962500Y-169400000D03*
D21*
%TO.P,R15,1*%
%TO.N,Net-(R15-Pad1)*%
X294962500Y-159240000D03*
%TD*%
D17*
%TO.P,R18,2*%
%TO.N,Net-(R18-Pad2)*%
X328440000Y-136380000D03*
D21*
%TO.P,R18,1*%
%TO.N,Net-(Q9-B)*%
X318280000Y-136380000D03*
%TD*%
%TO.P,R14,1*%
%TO.N,Net-(Q7-B)*%
X263622500Y-136380000D03*
D17*
%TO.P,R14,2*%
%TO.N,Net-(R14-Pad2)*%
X273782500Y-136380000D03*
%TD*%
%TO.P,R17,2*%
%TO.N,SW9*%
X323360000Y-169400000D03*
D21*
%TO.P,R17,1*%
%TO.N,Net-(R17-Pad1)*%
X323360000Y-159240000D03*
%TD*%
%TO.P,R19,1*%
%TO.N,Net-(R19-Pad1)*%
X348760000Y-159240000D03*
D17*
%TO.P,R19,2*%
%TO.N,SW10*%
X348760000Y-169400000D03*
%TD*%
%TO.P,R24,2*%
%TO.N,Net-(R24-Pad2)*%
X407180000Y-136380000D03*
D21*
%TO.P,R24,1*%
%TO.N,Net-(Q12-B)*%
X397020000Y-136380000D03*
%TD*%
%TO.P,R26,1*%
%TO.N,Net-(Q13-B)*%
X423637500Y-136380000D03*
D17*
%TO.P,R26,2*%
%TO.N,Net-(R26-Pad2)*%
X433797500Y-136380000D03*
%TD*%
%TO.P,R27,2*%
%TO.N,SW14*%
X454117500Y-169400000D03*
D21*
%TO.P,R27,1*%
%TO.N,Net-(R27-Pad1)*%
X454117500Y-159240000D03*
%TD*%
D17*
%TO.P,R30,2*%
%TO.N,Net-(R30-Pad2)*%
X484597500Y-136380000D03*
D21*
%TO.P,R30,1*%
%TO.N,Net-(Q15-B)*%
X474437500Y-136380000D03*
%TD*%
D17*
%TO.P,U1,4*%
%TO.N,Net-(D1-K)*%
X113815000Y-144000000D03*
%TO.P,U1,3*%
%TO.N,Net-(R2-Pad2)*%
X111275000Y-144000000D03*
%TO.P,U1,2*%
%TO.N,Net-(D2-A)*%
X111275000Y-151620000D03*
D18*
%TO.P,U1,1*%
%TO.N,Net-(R1-Pad1)*%
X113815000Y-151620000D03*
%TD*%
D17*
%TO.P,U3,4*%
%TO.N,Net-(D1-K)*%
X164615000Y-144000000D03*
%TO.P,U3,3*%
%TO.N,Net-(R6-Pad2)*%
X162075000Y-144000000D03*
%TO.P,U3,2*%
%TO.N,Net-(D6-A)*%
X162075000Y-151620000D03*
D18*
%TO.P,U3,1*%
%TO.N,Net-(R5-Pad1)*%
X164615000Y-151620000D03*
%TD*%
D17*
%TO.P,U4,4*%
%TO.N,Net-(D1-K)*%
X189557500Y-144000000D03*
%TO.P,U4,3*%
%TO.N,Net-(R8-Pad2)*%
X187017500Y-144000000D03*
%TO.P,U4,2*%
%TO.N,Net-(D8-A)*%
X187017500Y-151620000D03*
D18*
%TO.P,U4,1*%
%TO.N,Net-(R7-Pad1)*%
X189557500Y-151620000D03*
%TD*%
D17*
%TO.P,U5,4*%
%TO.N,Net-(D1-K)*%
X216715000Y-144560000D03*
%TO.P,U5,3*%
%TO.N,Net-(R10-Pad2)*%
X214175000Y-144560000D03*
%TO.P,U5,2*%
%TO.N,Net-(D10-A)*%
X214175000Y-152180000D03*
D18*
%TO.P,U5,1*%
%TO.N,Net-(R9-Pad1)*%
X216715000Y-152180000D03*
%TD*%
D17*
%TO.P,U6,4*%
%TO.N,Net-(D1-K)*%
X242032500Y-144000000D03*
%TO.P,U6,3*%
%TO.N,Net-(R12-Pad2)*%
X239492500Y-144000000D03*
%TO.P,U6,2*%
%TO.N,Net-(D12-A)*%
X239492500Y-151620000D03*
D18*
%TO.P,U6,1*%
%TO.N,Net-(R11-Pad1)*%
X242032500Y-151620000D03*
%TD*%
D17*
%TO.P,U2,4*%
%TO.N,Net-(D1-K)*%
X139215000Y-144000000D03*
%TO.P,U2,3*%
%TO.N,Net-(R4-Pad2)*%
X136675000Y-144000000D03*
%TO.P,U2,2*%
%TO.N,Net-(D4-A)*%
X136675000Y-151620000D03*
D18*
%TO.P,U2,1*%
%TO.N,Net-(R3-Pad1)*%
X139215000Y-151620000D03*
%TD*%
D17*
%TO.P,U8,4*%
%TO.N,Net-(D1-K)*%
X296237500Y-144000000D03*
%TO.P,U8,3*%
%TO.N,Net-(R16-Pad2)*%
X293697500Y-144000000D03*
%TO.P,U8,2*%
%TO.N,Net-(D16-A)*%
X293697500Y-151620000D03*
D18*
%TO.P,U8,1*%
%TO.N,Net-(R15-Pad1)*%
X296237500Y-151620000D03*
%TD*%
%TO.P,U7,1*%
%TO.N,Net-(R13-Pad1)*%
X269977500Y-151620000D03*
D17*
%TO.P,U7,2*%
%TO.N,Net-(D14-A)*%
X267437500Y-151620000D03*
%TO.P,U7,3*%
%TO.N,Net-(R14-Pad2)*%
X267437500Y-144000000D03*
%TO.P,U7,4*%
%TO.N,Net-(D1-K)*%
X269977500Y-144000000D03*
%TD*%
%TO.P,U11,4*%
%TO.N,Net-(D1-K)*%
X377975000Y-144000000D03*
%TO.P,U11,3*%
%TO.N,Net-(R22-Pad2)*%
X375435000Y-144000000D03*
%TO.P,U11,2*%
%TO.N,Net-(D22-A)*%
X375435000Y-151620000D03*
D18*
%TO.P,U11,1*%
%TO.N,Net-(R21-Pad1)*%
X377975000Y-151620000D03*
%TD*%
D17*
%TO.P,U12,4*%
%TO.N,Net-(D1-K)*%
X403375000Y-144000000D03*
%TO.P,U12,3*%
%TO.N,Net-(R24-Pad2)*%
X400835000Y-144000000D03*
%TO.P,U12,2*%
%TO.N,Net-(D24-A)*%
X400835000Y-151620000D03*
D18*
%TO.P,U12,1*%
%TO.N,Net-(R23-Pad1)*%
X403375000Y-151620000D03*
%TD*%
D17*
%TO.P,U15,4*%
%TO.N,Net-(D1-K)*%
X480792500Y-144000000D03*
%TO.P,U15,3*%
%TO.N,Net-(R30-Pad2)*%
X478252500Y-144000000D03*
%TO.P,U15,2*%
%TO.N,Net-(D30-A)*%
X478252500Y-151620000D03*
D18*
%TO.P,U15,1*%
%TO.N,Net-(R29-Pad1)*%
X480792500Y-151620000D03*
%TD*%
D17*
%TO.P,U14,4*%
%TO.N,Net-(D1-K)*%
X455392500Y-144000000D03*
%TO.P,U14,3*%
%TO.N,Net-(R28-Pad2)*%
X452852500Y-144000000D03*
%TO.P,U14,2*%
%TO.N,Net-(D28-A)*%
X452852500Y-151620000D03*
D18*
%TO.P,U14,1*%
%TO.N,Net-(R27-Pad1)*%
X455392500Y-151620000D03*
%TD*%
%TO.P,U13,1*%
%TO.N,Net-(R25-Pad1)*%
X429992500Y-151620000D03*
D17*
%TO.P,U13,2*%
%TO.N,Net-(D26-A)*%
X427452500Y-151620000D03*
%TO.P,U13,3*%
%TO.N,Net-(R26-Pad2)*%
X427452500Y-144000000D03*
%TO.P,U13,4*%
%TO.N,Net-(D1-K)*%
X429992500Y-144000000D03*
%TD*%
D18*
%TO.P,U10,1*%
%TO.N,Net-(R19-Pad1)*%
X350035000Y-151620000D03*
D17*
%TO.P,U10,2*%
%TO.N,Net-(D20-A)*%
X347495000Y-151620000D03*
%TO.P,U10,3*%
%TO.N,Net-(R20-Pad2)*%
X347495000Y-144000000D03*
%TO.P,U10,4*%
%TO.N,Net-(D1-K)*%
X350035000Y-144000000D03*
%TD*%
D22*
%TO.P,U33,39,GND*%
%TO.N,GNDREF*%
X130432500Y-208575000D03*
X132720000Y-206287500D03*
X129670000Y-206287500D03*
X131957500Y-208575000D03*
X132720000Y-207812500D03*
X129670000Y-207812500D03*
X130432500Y-205525000D03*
X131957500Y-207050000D03*
X131195000Y-206287500D03*
X131195000Y-207812500D03*
X131957500Y-205525000D03*
X130432500Y-207050000D03*
%TD*%
D12*
%TO.P,D46,2,A*%
%TO.N,Net-(D46-A)*%
X341035000Y-249120000D03*
D13*
%TO.P,D46,1,K*%
%TO.N,GNDREF*%
X341035000Y-246580000D03*
%TD*%
D23*
%TO.P,L1,1,1*%
%TO.N,Net-(U33-VDD)*%
X441417500Y-184640000D03*
D24*
%TO.P,L1,2,2*%
%TO.N,Net-(D65-K)*%
X441417500Y-199880000D03*
%TD*%
D13*
%TO.P,U36,1,VIN*%
%TO.N,Net-(D1-K)*%
X456657500Y-198160000D03*
D25*
%TO.P,U36,2,OUT*%
%TO.N,Net-(D65-K)*%
X460357500Y-199860000D03*
%TO.P,U36,3,GND*%
%TO.N,GNDREF*%
X456657500Y-201560000D03*
%TO.P,U36,4,FB*%
%TO.N,Net-(U36-FB)*%
X460357500Y-203260000D03*
%TO.P,U36,5,~{ON}/OFF*%
%TO.N,GNDREF*%
X456657500Y-204960000D03*
%TD*%
D17*
%TO.P,U35,28,GPA7*%
%TO.N,SW32*%
X299177500Y-217660000D03*
%TO.P,U35,27,GPA6*%
%TO.N,SW31*%
X301717500Y-217660000D03*
%TO.P,U35,26,GPA5*%
%TO.N,SW30*%
X304257500Y-217660000D03*
%TO.P,U35,25,GPA4*%
%TO.N,SW29*%
X306797500Y-217660000D03*
%TO.P,U35,24,GPA3*%
%TO.N,SW28*%
X309337500Y-217660000D03*
%TO.P,U35,23,GPA2*%
%TO.N,SW27*%
X311877500Y-217660000D03*
%TO.P,U35,22,GPA1*%
%TO.N,SW26*%
X314417500Y-217660000D03*
%TO.P,U35,21,GPA0*%
%TO.N,SW25*%
X316957500Y-217660000D03*
%TO.P,U35,20,INTA*%
%TO.N,unconnected-(U35-INTA-Pad20)*%
X319497500Y-217660000D03*
%TO.P,U35,19,INTB*%
%TO.N,unconnected-(U35-INTB-Pad19)*%
X322037500Y-217660000D03*
%TO.P,U35,18,~{RESET}*%
%TO.N,unconnected-(U35-~{RESET}-Pad18)*%
X324577500Y-217660000D03*
%TO.P,U35,17,A2*%
%TO.N,GNDREF*%
X327117500Y-217660000D03*
%TO.P,U35,16,A1*%
X329657500Y-217660000D03*
%TO.P,U35,15,A0*%
X332197500Y-217660000D03*
%TO.P,U35,14,NC*%
%TO.N,unconnected-(U35-NC-Pad14)*%
X332197500Y-225280000D03*
%TO.P,U35,13,SDA*%
%TO.N,Net-(U33-IO21)*%
X329657500Y-225280000D03*
%TO.P,U35,12,SCK*%
%TO.N,Net-(U33-IO22)*%
X327117500Y-225280000D03*
%TO.P,U35,11,NC*%
%TO.N,unconnected-(U35-NC-Pad11)*%
X324577500Y-225280000D03*
%TO.P,U35,10,VSS*%
%TO.N,GNDREF*%
X322037500Y-225280000D03*
%TO.P,U35,9,VDD*%
%TO.N,Net-(U33-VDD)*%
X319497500Y-225280000D03*
%TO.P,U35,8,GPB7*%
%TO.N,SW24*%
X316957500Y-225280000D03*
%TO.P,U35,7,GPB6*%
%TO.N,SW23*%
X314417500Y-225280000D03*
%TO.P,U35,6,GPB5*%
%TO.N,SW22*%
X311877500Y-225280000D03*
%TO.P,U35,5,GPB4*%
%TO.N,SW21*%
X309337500Y-225280000D03*
%TO.P,U35,4,GPB3*%
%TO.N,SW20*%
X306797500Y-225280000D03*
%TO.P,U35,3,GPB2*%
%TO.N,SW19*%
X304257500Y-225280000D03*
%TO.P,U35,2,GPB1*%
%TO.N,SW18*%
X301717500Y-225280000D03*
D18*
%TO.P,U35,1,GPB0*%
%TO.N,SW17*%
X299177500Y-225280000D03*
%TD*%
D17*
%TO.P,U34,28,GPA7*%
%TO.N,SW16*%
X296637500Y-189720000D03*
%TO.P,U34,27,GPA6*%
%TO.N,SW15*%
X299177500Y-189720000D03*
%TO.P,U34,26,GPA5*%
%TO.N,SW14*%
X301717500Y-189720000D03*
%TO.P,U34,25,GPA4*%
%TO.N,SW13*%
X304257500Y-189720000D03*
%TO.P,U34,24,GPA3*%
%TO.N,SW12*%
X306797500Y-189720000D03*
%TO.P,U34,23,GPA2*%
%TO.N,SW11*%
X309337500Y-189720000D03*
%TO.P,U34,22,GPA1*%
%TO.N,SW10*%
X311877500Y-189720000D03*
%TO.P,U34,21,GPA0*%
%TO.N,SW9*%
X314417500Y-189720000D03*
%TO.P,U34,20,INTA*%
%TO.N,unconnected-(U34-INTA-Pad20)*%
X316957500Y-189720000D03*
%TO.P,U34,19,INTB*%
%TO.N,unconnected-(U34-INTB-Pad19)*%
X319497500Y-189720000D03*
%TO.P,U34,18,~{RESET}*%
%TO.N,unconnected-(U34-~{RESET}-Pad18)*%
X322037500Y-189720000D03*
%TO.P,U34,17,A2*%
%TO.N,GNDREF*%
X324577500Y-189720000D03*
%TO.P,U34,16,A1*%
X327117500Y-189720000D03*
%TO.P,U34,15,A0*%
X329657500Y-189720000D03*
%TO.P,U34,14,NC*%
%TO.N,unconnected-(U34-NC-Pad14)*%
X329657500Y-182100000D03*
%TO.P,U34,13,SDA*%
%TO.N,Net-(U33-IO21)*%
X327117500Y-182100000D03*
%TO.P,U34,12,SCK*%
%TO.N,Net-(U33-IO22)*%
X324577500Y-182100000D03*
%TO.P,U34,11,NC*%
%TO.N,unconnected-(U34-NC-Pad11)*%
X322037500Y-182100000D03*
%TO.P,U34,10,VSS*%
%TO.N,GNDREF*%
X319497500Y-182100000D03*
%TO.P,U34,9,VDD*%
%TO.N,Net-(U33-VDD)*%
X316957500Y-182100000D03*
%TO.P,U34,8,GPB7*%
%TO.N,SW8*%
X314417500Y-182100000D03*
%TO.P,U34,7,GPB6*%
%TO.N,SW7*%
X311877500Y-182100000D03*
%TO.P,U34,6,GPB5*%
%TO.N,SW6*%
X309337500Y-182100000D03*
%TO.P,U34,5,GPB4*%
%TO.N,SW5*%
X306797500Y-182100000D03*
%TO.P,U34,4,GPB3*%
%TO.N,SW4*%
X304257500Y-182100000D03*
%TO.P,U34,3,GPB2*%
%TO.N,SW3*%
X301717500Y-182100000D03*
%TO.P,U34,2,GPB1*%
%TO.N,SW2*%
X299177500Y-182100000D03*
D18*
%TO.P,U34,1,GPB0*%
%TO.N,SW1*%
X296637500Y-182100000D03*
%TD*%
D17*
%TO.P,U32,4*%
%TO.N,Net-(D33-K)*%
X117467500Y-267980000D03*
%TO.P,U32,3*%
%TO.N,Net-(R64-Pad2)*%
X114927500Y-267980000D03*
%TO.P,U32,2*%
%TO.N,Net-(D64-A)*%
X114927500Y-260360000D03*
D18*
%TO.P,U32,1*%
%TO.N,Net-(R63-Pad1)*%
X117467500Y-260360000D03*
%TD*%
D17*
%TO.P,U31,4*%
%TO.N,Net-(D33-K)*%
X146730000Y-267980000D03*
%TO.P,U31,3*%
%TO.N,Net-(R62-Pad2)*%
X144190000Y-267980000D03*
%TO.P,U31,2*%
%TO.N,Net-(D62-A)*%
X144190000Y-260360000D03*
D18*
%TO.P,U31,1*%
%TO.N,Net-(R61-Pad1)*%
X146730000Y-260360000D03*
%TD*%
D17*
%TO.P,U30,4*%
%TO.N,Net-(D33-K)*%
X169590000Y-267200000D03*
%TO.P,U30,3*%
%TO.N,Net-(R60-Pad2)*%
X167050000Y-267200000D03*
%TO.P,U30,2*%
%TO.N,Net-(D60-A)*%
X167050000Y-259580000D03*
D18*
%TO.P,U30,1*%
%TO.N,Net-(R59-Pad1)*%
X169590000Y-259580000D03*
%TD*%
%TO.P,U29,1*%
%TO.N,Net-(R57-Pad1)*%
X194885000Y-260360000D03*
D17*
%TO.P,U29,2*%
%TO.N,Net-(D58-A)*%
X192345000Y-260360000D03*
%TO.P,U29,3*%
%TO.N,Net-(R58-Pad2)*%
X192345000Y-267980000D03*
%TO.P,U29,4*%
%TO.N,Net-(D33-K)*%
X194885000Y-267980000D03*
%TD*%
D18*
%TO.P,U28,1*%
%TO.N,Net-(R55-Pad1)*%
X220285000Y-260360000D03*
D17*
%TO.P,U28,2*%
%TO.N,Net-(D56-A)*%
X217745000Y-260360000D03*
%TO.P,U28,3*%
%TO.N,Net-(R56-Pad2)*%
X217745000Y-267980000D03*
%TO.P,U28,4*%
%TO.N,Net-(D33-K)*%
X220285000Y-267980000D03*
%TD*%
%TO.P,U27,4*%
%TO.N,Net-(D33-K)*%
X248330000Y-267980000D03*
%TO.P,U27,3*%
%TO.N,Net-(R54-Pad2)*%
X245790000Y-267980000D03*
%TO.P,U27,2*%
%TO.N,Net-(D54-A)*%
X245790000Y-260360000D03*
D18*
%TO.P,U27,1*%
%TO.N,Net-(R53-Pad1)*%
X248330000Y-260360000D03*
%TD*%
D17*
%TO.P,U26,4*%
%TO.N,Net-(D33-K)*%
X273730000Y-267980000D03*
%TO.P,U26,3*%
%TO.N,Net-(R52-Pad2)*%
X271190000Y-267980000D03*
%TO.P,U26,2*%
%TO.N,Net-(D52-A)*%
X271190000Y-260360000D03*
D18*
%TO.P,U26,1*%
%TO.N,Net-(R51-Pad1)*%
X273730000Y-260360000D03*
%TD*%
D17*
%TO.P,U25,4*%
%TO.N,Net-(D33-K)*%
X299130000Y-267980000D03*
%TO.P,U25,3*%
%TO.N,Net-(R50-Pad2)*%
X296590000Y-267980000D03*
%TO.P,U25,2*%
%TO.N,Net-(D50-A)*%
X296590000Y-260360000D03*
D18*
%TO.P,U25,1*%
%TO.N,Net-(R49-Pad1)*%
X299130000Y-260360000D03*
%TD*%
D17*
%TO.P,U24,4*%
%TO.N,Net-(D33-K)*%
X327070000Y-267980000D03*
%TO.P,U24,3*%
%TO.N,Net-(R48-Pad2)*%
X324530000Y-267980000D03*
%TO.P,U24,2*%
%TO.N,Net-(D48-A)*%
X324530000Y-260360000D03*
D18*
%TO.P,U24,1*%
%TO.N,Net-(R47-Pad1)*%
X327070000Y-260360000D03*
%TD*%
D17*
%TO.P,U23,4*%
%TO.N,Net-(D33-K)*%
X352470000Y-267980000D03*
%TO.P,U23,3*%
%TO.N,Net-(R46-Pad2)*%
X349930000Y-267980000D03*
%TO.P,U23,2*%
%TO.N,Net-(D46-A)*%
X349930000Y-260360000D03*
D18*
%TO.P,U23,1*%
%TO.N,Net-(R45-Pad1)*%
X352470000Y-260360000D03*
%TD*%
D17*
%TO.P,U22,4*%
%TO.N,Net-(D33-K)*%
X380410000Y-267980000D03*
%TO.P,U22,3*%
%TO.N,Net-(R44-Pad2)*%
X377870000Y-267980000D03*
%TO.P,U22,2*%
%TO.N,Net-(D44-A)*%
X377870000Y-260360000D03*
D18*
%TO.P,U22,1*%
%TO.N,Net-(R43-Pad1)*%
X380410000Y-260360000D03*
%TD*%
D17*
%TO.P,U21,4*%
%TO.N,Net-(D33-K)*%
X405810000Y-267980000D03*
%TO.P,U21,3*%
%TO.N,Net-(R42-Pad2)*%
X403270000Y-267980000D03*
%TO.P,U21,2*%
%TO.N,Net-(D42-A)*%
X403270000Y-260360000D03*
D18*
%TO.P,U21,1*%
%TO.N,Net-(R41-Pad1)*%
X405810000Y-260360000D03*
%TD*%
%TO.P,U20,1*%
%TO.N,Net-(R39-Pad1)*%
X436290000Y-260360000D03*
D17*
%TO.P,U20,2*%
%TO.N,Net-(D40-A)*%
X433750000Y-260360000D03*
%TO.P,U20,3*%
%TO.N,Net-(R40-Pad2)*%
X433750000Y-267980000D03*
%TO.P,U20,4*%
%TO.N,Net-(D33-K)*%
X436290000Y-267980000D03*
%TD*%
%TO.P,U19,4*%
%TO.N,Net-(D33-K)*%
X460367500Y-267980000D03*
%TO.P,U19,3*%
%TO.N,Net-(R38-Pad2)*%
X457827500Y-267980000D03*
%TO.P,U19,2*%
%TO.N,Net-(D38-A)*%
X457827500Y-260360000D03*
D18*
%TO.P,U19,1*%
%TO.N,Net-(R37-Pad1)*%
X460367500Y-260360000D03*
%TD*%
D17*
%TO.P,U18,4*%
%TO.N,Net-(D33-K)*%
X485767500Y-267980000D03*
%TO.P,U18,3*%
%TO.N,Net-(R36-Pad2)*%
X483227500Y-267980000D03*
%TO.P,U18,2*%
%TO.N,Net-(D36-A)*%
X483227500Y-260360000D03*
D18*
%TO.P,U18,1*%
%TO.N,Net-(R35-Pad1)*%
X485767500Y-260360000D03*
%TD*%
%TO.P,U17,1*%
%TO.N,Net-(R33-Pad1)*%
X509950000Y-260360000D03*
D17*
%TO.P,U17,2*%
%TO.N,Net-(D34-A)*%
X507410000Y-260360000D03*
%TO.P,U17,3*%
%TO.N,Net-(R34-Pad2)*%
X507410000Y-267980000D03*
%TO.P,U17,4*%
%TO.N,Net-(D33-K)*%
X509950000Y-267980000D03*
%TD*%
%TO.P,R66,2*%
%TO.N,Net-(U36-FB)*%
X474437500Y-190990000D03*
D21*
%TO.P,R66,1*%
%TO.N,Net-(U33-VDD)*%
X474437500Y-183370000D03*
%TD*%
D17*
%TO.P,R65,2*%
%TO.N,GNDREF*%
X474437500Y-201150000D03*
D21*
%TO.P,R65,1*%
%TO.N,Net-(U36-FB)*%
X474437500Y-193530000D03*
%TD*%
D17*
%TO.P,R64,2*%
%TO.N,Net-(R64-Pad2)*%
X111112500Y-274996750D03*
D21*
%TO.P,R64,1*%
%TO.N,Net-(Q32-B)*%
X121272500Y-274996750D03*
%TD*%
D17*
%TO.P,R63,2*%
%TO.N,SW32*%
X117515000Y-241300000D03*
D21*
%TO.P,R63,1*%
%TO.N,Net-(R63-Pad1)*%
X117515000Y-251460000D03*
%TD*%
D17*
%TO.P,R62,2*%
%TO.N,Net-(R62-Pad2)*%
X140375000Y-274996750D03*
D21*
%TO.P,R62,1*%
%TO.N,Net-(Q31-B)*%
X150535000Y-274996750D03*
%TD*%
D17*
%TO.P,R61,2*%
%TO.N,SW31*%
X147995000Y-241300000D03*
D21*
%TO.P,R61,1*%
%TO.N,Net-(R61-Pad1)*%
X147995000Y-251460000D03*
%TD*%
D17*
%TO.P,R60,2*%
%TO.N,Net-(R60-Pad2)*%
X163235000Y-274216750D03*
D21*
%TO.P,R60,1*%
%TO.N,Net-(Q30-B)*%
X173395000Y-274216750D03*
%TD*%
%TO.P,R59,1*%
%TO.N,Net-(R59-Pad1)*%
X170855000Y-254000000D03*
D17*
%TO.P,R59,2*%
%TO.N,SW30*%
X170855000Y-243840000D03*
%TD*%
D21*
%TO.P,R58,1*%
%TO.N,Net-(Q29-B)*%
X198690000Y-274996750D03*
D17*
%TO.P,R58,2*%
%TO.N,Net-(R58-Pad2)*%
X188530000Y-274996750D03*
%TD*%
%TO.P,R57,2*%
%TO.N,SW29*%
X193715000Y-241300000D03*
D21*
%TO.P,R57,1*%
%TO.N,Net-(R57-Pad1)*%
X193715000Y-251460000D03*
%TD*%
D17*
%TO.P,R56,2*%
%TO.N,Net-(R56-Pad2)*%
X213930000Y-274996750D03*
D21*
%TO.P,R56,1*%
%TO.N,Net-(Q28-B)*%
X224090000Y-274996750D03*
%TD*%
D17*
%TO.P,R55,2*%
%TO.N,SW28*%
X219115000Y-241300000D03*
D21*
%TO.P,R55,1*%
%TO.N,Net-(R55-Pad1)*%
X219115000Y-251460000D03*
%TD*%
D17*
%TO.P,R54,2*%
%TO.N,Net-(R54-Pad2)*%
X241975000Y-274996750D03*
D21*
%TO.P,R54,1*%
%TO.N,Net-(Q27-B)*%
X252135000Y-274996750D03*
%TD*%
D17*
%TO.P,R53,2*%
%TO.N,SW27*%
X247055000Y-241300000D03*
D21*
%TO.P,R53,1*%
%TO.N,Net-(R53-Pad1)*%
X247055000Y-251460000D03*
%TD*%
D17*
%TO.P,R52,2*%
%TO.N,Net-(R52-Pad2)*%
X267375000Y-274996750D03*
D21*
%TO.P,R52,1*%
%TO.N,Net-(Q26-B)*%
X277535000Y-274996750D03*
%TD*%
D17*
%TO.P,R51,2*%
%TO.N,SW26*%
X272455000Y-241300000D03*
D21*
%TO.P,R51,1*%
%TO.N,Net-(R51-Pad1)*%
X272455000Y-251460000D03*
%TD*%
D17*
%TO.P,R50,2*%
%TO.N,Net-(R50-Pad2)*%
X292775000Y-274996750D03*
D21*
%TO.P,R50,1*%
%TO.N,Net-(Q25-B)*%
X302935000Y-274996750D03*
%TD*%
D17*
%TO.P,R49,2*%
%TO.N,SW25*%
X300395000Y-243840000D03*
D21*
%TO.P,R49,1*%
%TO.N,Net-(R49-Pad1)*%
X300395000Y-254000000D03*
%TD*%
D17*
%TO.P,R48,2*%
%TO.N,Net-(R48-Pad2)*%
X320715000Y-274996750D03*
D21*
%TO.P,R48,1*%
%TO.N,Net-(Q24-B)*%
X330875000Y-274996750D03*
%TD*%
D17*
%TO.P,R47,2*%
%TO.N,SW24*%
X328335000Y-243840000D03*
D21*
%TO.P,R47,1*%
%TO.N,Net-(R47-Pad1)*%
X328335000Y-254000000D03*
%TD*%
D17*
%TO.P,R46,2*%
%TO.N,Net-(R46-Pad2)*%
X346115000Y-274996750D03*
D21*
%TO.P,R46,1*%
%TO.N,Net-(Q23-B)*%
X356275000Y-274996750D03*
%TD*%
D17*
%TO.P,R45,2*%
%TO.N,SW23*%
X353735000Y-241300000D03*
D21*
%TO.P,R45,1*%
%TO.N,Net-(R45-Pad1)*%
X353735000Y-251460000D03*
%TD*%
D17*
%TO.P,R44,2*%
%TO.N,Net-(R44-Pad2)*%
X374055000Y-274996750D03*
D21*
%TO.P,R44,1*%
%TO.N,Net-(Q22-B)*%
X384215000Y-274996750D03*
%TD*%
%TO.P,R43,1*%
%TO.N,Net-(R43-Pad1)*%
X381675000Y-251460000D03*
D17*
%TO.P,R43,2*%
%TO.N,SW22*%
X381675000Y-241300000D03*
%TD*%
%TO.P,R42,2*%
%TO.N,Net-(R42-Pad2)*%
X399455000Y-274996750D03*
D21*
%TO.P,R42,1*%
%TO.N,Net-(Q21-B)*%
X409615000Y-274996750D03*
%TD*%
D17*
%TO.P,R41,2*%
%TO.N,SW21*%
X407075000Y-241300000D03*
D21*
%TO.P,R41,1*%
%TO.N,Net-(R41-Pad1)*%
X407075000Y-251460000D03*
%TD*%
%TO.P,R40,1*%
%TO.N,Net-(Q20-B)*%
X440095000Y-274996750D03*
D17*
%TO.P,R40,2*%
%TO.N,Net-(R40-Pad2)*%
X429935000Y-274996750D03*
%TD*%
D21*
%TO.P,R39,1*%
%TO.N,Net-(R39-Pad1)*%
X437555000Y-248920000D03*
D17*
%TO.P,R39,2*%
%TO.N,SW20*%
X437555000Y-238760000D03*
%TD*%
%TO.P,R38,2*%
%TO.N,Net-(R38-Pad2)*%
X454012500Y-274996750D03*
D21*
%TO.P,R38,1*%
%TO.N,Net-(Q19-B)*%
X464172500Y-274996750D03*
%TD*%
D17*
%TO.P,R37,2*%
%TO.N,SW19*%
X460415000Y-238760000D03*
D21*
%TO.P,R37,1*%
%TO.N,Net-(R37-Pad1)*%
X460415000Y-248920000D03*
%TD*%
D17*
%TO.P,R36,2*%
%TO.N,Net-(R36-Pad2)*%
X479412500Y-274996750D03*
D21*
%TO.P,R36,1*%
%TO.N,Net-(Q18-B)*%
X489572500Y-274996750D03*
%TD*%
%TO.P,R35,1*%
%TO.N,Net-(R35-Pad1)*%
X485815000Y-254000000D03*
D17*
%TO.P,R35,2*%
%TO.N,SW18*%
X485815000Y-243840000D03*
%TD*%
D21*
%TO.P,R34,1*%
%TO.N,Net-(Q17-B)*%
X513755000Y-274996750D03*
D17*
%TO.P,R34,2*%
%TO.N,Net-(R34-Pad2)*%
X503595000Y-274996750D03*
%TD*%
D21*
%TO.P,R33,1*%
%TO.N,Net-(R33-Pad1)*%
X511215000Y-254000000D03*
D17*
%TO.P,R33,2*%
%TO.N,SW17*%
X511215000Y-243840000D03*
%TD*%
D16*
%TO.P,Q32,3,E*%
%TO.N,GNDREF*%
X117462500Y-284480000D03*
%TO.P,Q32,2,B*%
%TO.N,Net-(Q32-B)*%
X116192500Y-284480000D03*
D15*
%TO.P,Q32,1,C*%
%TO.N,Net-(D63-A)*%
X114922500Y-284480000D03*
%TD*%
D16*
%TO.P,Q31,3,E*%
%TO.N,GNDREF*%
X146725000Y-284480000D03*
%TO.P,Q31,2,B*%
%TO.N,Net-(Q31-B)*%
X145455000Y-284480000D03*
D15*
%TO.P,Q31,1,C*%
%TO.N,Net-(D61-A)*%
X144185000Y-284480000D03*
%TD*%
D16*
%TO.P,Q30,3,E*%
%TO.N,GNDREF*%
X169585000Y-283700000D03*
%TO.P,Q30,2,B*%
%TO.N,Net-(Q30-B)*%
X168315000Y-283700000D03*
D15*
%TO.P,Q30,1,C*%
%TO.N,Net-(D59-A)*%
X167045000Y-283700000D03*
%TD*%
%TO.P,Q29,1,C*%
%TO.N,Net-(D57-A)*%
X192340000Y-284480000D03*
D16*
%TO.P,Q29,2,B*%
%TO.N,Net-(Q29-B)*%
X193610000Y-284480000D03*
%TO.P,Q29,3,E*%
%TO.N,GNDREF*%
X194880000Y-284480000D03*
%TD*%
%TO.P,Q28,3,E*%
%TO.N,GNDREF*%
X220280000Y-284480000D03*
%TO.P,Q28,2,B*%
%TO.N,Net-(Q28-B)*%
X219010000Y-284480000D03*
D15*
%TO.P,Q28,1,C*%
%TO.N,Net-(D55-A)*%
X217740000Y-284480000D03*
%TD*%
D16*
%TO.P,Q27,3,E*%
%TO.N,GNDREF*%
X248325000Y-284480000D03*
%TO.P,Q27,2,B*%
%TO.N,Net-(Q27-B)*%
X247055000Y-284480000D03*
D15*
%TO.P,Q27,1,C*%
%TO.N,Net-(D53-A)*%
X245785000Y-284480000D03*
%TD*%
D16*
%TO.P,Q26,3,E*%
%TO.N,GNDREF*%
X273725000Y-284480000D03*
%TO.P,Q26,2,B*%
%TO.N,Net-(Q26-B)*%
X272455000Y-284480000D03*
D15*
%TO.P,Q26,1,C*%
%TO.N,Net-(D51-A)*%
X271185000Y-284480000D03*
%TD*%
D16*
%TO.P,Q25,3,E*%
%TO.N,GNDREF*%
X299125000Y-284480000D03*
%TO.P,Q25,2,B*%
%TO.N,Net-(Q25-B)*%
X297855000Y-284480000D03*
D15*
%TO.P,Q25,1,C*%
%TO.N,Net-(D49-A)*%
X296585000Y-284480000D03*
%TD*%
D16*
%TO.P,Q24,3,E*%
%TO.N,GNDREF*%
X327065000Y-284480000D03*
%TO.P,Q24,2,B*%
%TO.N,Net-(Q24-B)*%
X325795000Y-284480000D03*
D15*
%TO.P,Q24,1,C*%
%TO.N,Net-(D47-A)*%
X324525000Y-284480000D03*
%TD*%
D16*
%TO.P,Q23,3,E*%
%TO.N,GNDREF*%
X352465000Y-284480000D03*
%TO.P,Q23,2,B*%
%TO.N,Net-(Q23-B)*%
X351195000Y-284480000D03*
D15*
%TO.P,Q23,1,C*%
%TO.N,Net-(D45-A)*%
X349925000Y-284480000D03*
%TD*%
D16*
%TO.P,Q22,3,E*%
%TO.N,GNDREF*%
X380405000Y-284480000D03*
%TO.P,Q22,2,B*%
%TO.N,Net-(Q22-B)*%
X379135000Y-284480000D03*
D15*
%TO.P,Q22,1,C*%
%TO.N,Net-(D43-A)*%
X377865000Y-284480000D03*
%TD*%
D16*
%TO.P,Q21,3,E*%
%TO.N,GNDREF*%
X405805000Y-284480000D03*
%TO.P,Q21,2,B*%
%TO.N,Net-(Q21-B)*%
X404535000Y-284480000D03*
D15*
%TO.P,Q21,1,C*%
%TO.N,Net-(D41-A)*%
X403265000Y-284480000D03*
%TD*%
%TO.P,Q20,1,C*%
%TO.N,Net-(D39-A)*%
X433745000Y-284480000D03*
D16*
%TO.P,Q20,2,B*%
%TO.N,Net-(Q20-B)*%
X435015000Y-284480000D03*
%TO.P,Q20,3,E*%
%TO.N,GNDREF*%
X436285000Y-284480000D03*
%TD*%
%TO.P,Q19,3,E*%
%TO.N,GNDREF*%
X460362500Y-284480000D03*
%TO.P,Q19,2,B*%
%TO.N,Net-(Q19-B)*%
X459092500Y-284480000D03*
D15*
%TO.P,Q19,1,C*%
%TO.N,Net-(D37-A)*%
X457822500Y-284480000D03*
%TD*%
D16*
%TO.P,Q18,3,E*%
%TO.N,GNDREF*%
X485762500Y-284480000D03*
%TO.P,Q18,2,B*%
%TO.N,Net-(Q18-B)*%
X484492500Y-284480000D03*
D15*
%TO.P,Q18,1,C*%
%TO.N,Net-(D35-A)*%
X483222500Y-284480000D03*
%TD*%
%TO.P,Q17,1,C*%
%TO.N,Net-(D33-A)*%
X507405000Y-284480000D03*
D16*
%TO.P,Q17,2,B*%
%TO.N,Net-(Q17-B)*%
X508675000Y-284480000D03*
%TO.P,Q17,3,E*%
%TO.N,GNDREF*%
X509945000Y-284480000D03*
%TD*%
D12*
%TO.P,K32,A2*%
%TO.N,Net-(D63-A)*%
X120055000Y-301480000D03*
D13*
%TO.P,K32,A1*%
%TO.N,Net-(D33-K)*%
X112435000Y-301480000D03*
D14*
%TO.P,K32,14*%
%TO.N,Net-(J32-Pin_2)*%
X112435000Y-319260000D03*
%TO.P,K32,12*%
%TO.N,Net-(J32-Pin_1)*%
X120055000Y-319260000D03*
%TO.P,K32,11*%
%TO.N,Net-(J32-Pin_3)*%
X112435000Y-311640000D03*
%TD*%
D12*
%TO.P,K31,A2*%
%TO.N,Net-(D61-A)*%
X149317500Y-301480000D03*
D13*
%TO.P,K31,A1*%
%TO.N,Net-(D33-K)*%
X141697500Y-301480000D03*
D14*
%TO.P,K31,14*%
%TO.N,Net-(J31-Pin_2)*%
X141697500Y-319260000D03*
%TO.P,K31,12*%
%TO.N,Net-(J31-Pin_1)*%
X149317500Y-319260000D03*
%TO.P,K31,11*%
%TO.N,Net-(J31-Pin_3)*%
X141697500Y-311640000D03*
%TD*%
D12*
%TO.P,K30,A2*%
%TO.N,Net-(D59-A)*%
X172177500Y-301480000D03*
D13*
%TO.P,K30,A1*%
%TO.N,Net-(D33-K)*%
X164557500Y-301480000D03*
D14*
%TO.P,K30,14*%
%TO.N,Net-(J30-Pin_2)*%
X164557500Y-319260000D03*
%TO.P,K30,12*%
%TO.N,Net-(J30-Pin_1)*%
X172177500Y-319260000D03*
%TO.P,K30,11*%
%TO.N,Net-(J30-Pin_3)*%
X164557500Y-311640000D03*
%TD*%
%TO.P,K29,11*%
%TO.N,Net-(J29-Pin_3)*%
X189852500Y-311640000D03*
%TO.P,K29,12*%
%TO.N,Net-(J29-Pin_1)*%
X197472500Y-319260000D03*
%TO.P,K29,14*%
%TO.N,Net-(J29-Pin_2)*%
X189852500Y-319260000D03*
D13*
%TO.P,K29,A1*%
%TO.N,Net-(D33-K)*%
X189852500Y-301480000D03*
D12*
%TO.P,K29,A2*%
%TO.N,Net-(D57-A)*%
X197472500Y-301480000D03*
%TD*%
%TO.P,K28,A2*%
%TO.N,Net-(D55-A)*%
X222872500Y-301480000D03*
D13*
%TO.P,K28,A1*%
%TO.N,Net-(D33-K)*%
X215252500Y-301480000D03*
D14*
%TO.P,K28,14*%
%TO.N,Net-(J28-Pin_2)*%
X215252500Y-319260000D03*
%TO.P,K28,12*%
%TO.N,Net-(J28-Pin_1)*%
X222872500Y-319260000D03*
%TO.P,K28,11*%
%TO.N,Net-(J28-Pin_3)*%
X215252500Y-311640000D03*
%TD*%
D12*
%TO.P,K27,A2*%
%TO.N,Net-(D53-A)*%
X250917500Y-301480000D03*
D13*
%TO.P,K27,A1*%
%TO.N,Net-(D33-K)*%
X243297500Y-301480000D03*
D14*
%TO.P,K27,14*%
%TO.N,Net-(J27-Pin_2)*%
X243297500Y-319260000D03*
%TO.P,K27,12*%
%TO.N,Net-(J27-Pin_1)*%
X250917500Y-319260000D03*
%TO.P,K27,11*%
%TO.N,Net-(J27-Pin_3)*%
X243297500Y-311640000D03*
%TD*%
D12*
%TO.P,K26,A2*%
%TO.N,Net-(D51-A)*%
X276317500Y-301480000D03*
D13*
%TO.P,K26,A1*%
%TO.N,Net-(D33-K)*%
X268697500Y-301480000D03*
D14*
%TO.P,K26,14*%
%TO.N,Net-(J26-Pin_2)*%
X268697500Y-319260000D03*
%TO.P,K26,12*%
%TO.N,Net-(J26-Pin_1)*%
X276317500Y-319260000D03*
%TO.P,K26,11*%
%TO.N,Net-(J26-Pin_3)*%
X268697500Y-311640000D03*
%TD*%
D12*
%TO.P,K25,A2*%
%TO.N,Net-(D49-A)*%
X301717500Y-301480000D03*
D13*
%TO.P,K25,A1*%
%TO.N,Net-(D33-K)*%
X294097500Y-301480000D03*
D14*
%TO.P,K25,14*%
%TO.N,Net-(J25-Pin_2)*%
X294097500Y-319260000D03*
%TO.P,K25,12*%
%TO.N,Net-(J25-Pin_1)*%
X301717500Y-319260000D03*
%TO.P,K25,11*%
%TO.N,Net-(J25-Pin_3)*%
X294097500Y-311640000D03*
%TD*%
D12*
%TO.P,K24,A2*%
%TO.N,Net-(D47-A)*%
X329657500Y-301480000D03*
D13*
%TO.P,K24,A1*%
%TO.N,Net-(D33-K)*%
X322037500Y-301480000D03*
D14*
%TO.P,K24,14*%
%TO.N,Net-(J24-Pin_2)*%
X322037500Y-319260000D03*
%TO.P,K24,12*%
%TO.N,Net-(J24-Pin_1)*%
X329657500Y-319260000D03*
%TO.P,K24,11*%
%TO.N,Net-(J24-Pin_3)*%
X322037500Y-311640000D03*
%TD*%
D12*
%TO.P,K23,A2*%
%TO.N,Net-(D45-A)*%
X355057500Y-301480000D03*
D13*
%TO.P,K23,A1*%
%TO.N,Net-(D33-K)*%
X347437500Y-301480000D03*
D14*
%TO.P,K23,14*%
%TO.N,Net-(J23-Pin_2)*%
X347437500Y-319260000D03*
%TO.P,K23,12*%
%TO.N,Net-(J23-Pin_1)*%
X355057500Y-319260000D03*
%TO.P,K23,11*%
%TO.N,Net-(J23-Pin_3)*%
X347437500Y-311640000D03*
%TD*%
D12*
%TO.P,K22,A2*%
%TO.N,Net-(D43-A)*%
X382997500Y-301480000D03*
D13*
%TO.P,K22,A1*%
%TO.N,Net-(D33-K)*%
X375377500Y-301480000D03*
D14*
%TO.P,K22,14*%
%TO.N,Net-(J22-Pin_2)*%
X375377500Y-319260000D03*
%TO.P,K22,12*%
%TO.N,Net-(J22-Pin_1)*%
X382997500Y-319260000D03*
%TO.P,K22,11*%
%TO.N,Net-(J22-Pin_3)*%
X375377500Y-311640000D03*
%TD*%
D12*
%TO.P,K21,A2*%
%TO.N,Net-(D41-A)*%
X408397500Y-301480000D03*
D13*
%TO.P,K21,A1*%
%TO.N,Net-(D33-K)*%
X400777500Y-301480000D03*
D14*
%TO.P,K21,14*%
%TO.N,Net-(J21-Pin_2)*%
X400777500Y-319260000D03*
%TO.P,K21,12*%
%TO.N,Net-(J21-Pin_1)*%
X408397500Y-319260000D03*
%TO.P,K21,11*%
%TO.N,Net-(J21-Pin_3)*%
X400777500Y-311640000D03*
%TD*%
%TO.P,K20,11*%
%TO.N,Net-(J20-Pin_3)*%
X431257500Y-311640000D03*
%TO.P,K20,12*%
%TO.N,Net-(J20-Pin_1)*%
X438877500Y-319260000D03*
%TO.P,K20,14*%
%TO.N,Net-(J20-Pin_2)*%
X431257500Y-319260000D03*
D13*
%TO.P,K20,A1*%
%TO.N,Net-(D33-K)*%
X431257500Y-301480000D03*
D12*
%TO.P,K20,A2*%
%TO.N,Net-(D39-A)*%
X438877500Y-301480000D03*
%TD*%
%TO.P,K19,A2*%
%TO.N,Net-(D37-A)*%
X462955000Y-301480000D03*
D13*
%TO.P,K19,A1*%
%TO.N,Net-(D33-K)*%
X455335000Y-301480000D03*
D14*
%TO.P,K19,14*%
%TO.N,Net-(J19-Pin_2)*%
X455335000Y-319260000D03*
%TO.P,K19,12*%
%TO.N,Net-(J19-Pin_1)*%
X462955000Y-319260000D03*
%TO.P,K19,11*%
%TO.N,Net-(J19-Pin_3)*%
X455335000Y-311640000D03*
%TD*%
D12*
%TO.P,K18,A2*%
%TO.N,Net-(D35-A)*%
X488355000Y-301480000D03*
D13*
%TO.P,K18,A1*%
%TO.N,Net-(D33-K)*%
X480735000Y-301480000D03*
D14*
%TO.P,K18,14*%
%TO.N,Net-(J18-Pin_2)*%
X480735000Y-319260000D03*
%TO.P,K18,12*%
%TO.N,Net-(J18-Pin_1)*%
X488355000Y-319260000D03*
%TO.P,K18,11*%
%TO.N,Net-(J18-Pin_3)*%
X480735000Y-311640000D03*
%TD*%
%TO.P,K17,11*%
%TO.N,Net-(J17-Pin_3)*%
X504917500Y-311640000D03*
%TO.P,K17,12*%
%TO.N,Net-(J17-Pin_1)*%
X512537500Y-319260000D03*
%TO.P,K17,14*%
%TO.N,Net-(J17-Pin_2)*%
X504917500Y-319260000D03*
D13*
%TO.P,K17,A1*%
%TO.N,Net-(D33-K)*%
X504917500Y-301480000D03*
D12*
%TO.P,K17,A2*%
%TO.N,Net-(D33-A)*%
X512537500Y-301480000D03*
%TD*%
D26*
%TO.P,J33,2*%
%TO.N,GNDREF*%
X510907500Y-192260000D03*
D27*
%TO.P,J33,1*%
%TO.N,Net-(D1-K)*%
X516087500Y-192260000D03*
%TD*%
D19*
%TO.P,J32,3,Pin_3*%
%TO.N,Net-(J32-Pin_3)*%
X111112500Y-344660000D03*
%TO.P,J32,2,Pin_2*%
%TO.N,Net-(J32-Pin_2)*%
X116192500Y-344660000D03*
D20*
%TO.P,J32,1,Pin_1*%
%TO.N,Net-(J32-Pin_1)*%
X121272500Y-344660000D03*
%TD*%
D19*
%TO.P,J31,3,Pin_3*%
%TO.N,Net-(J31-Pin_3)*%
X140375000Y-344660000D03*
%TO.P,J31,2,Pin_2*%
%TO.N,Net-(J31-Pin_2)*%
X145455000Y-344660000D03*
D20*
%TO.P,J31,1,Pin_1*%
%TO.N,Net-(J31-Pin_1)*%
X150535000Y-344660000D03*
%TD*%
D19*
%TO.P,J30,3,Pin_3*%
%TO.N,Net-(J30-Pin_3)*%
X163235000Y-344660000D03*
%TO.P,J30,2,Pin_2*%
%TO.N,Net-(J30-Pin_2)*%
X168315000Y-344660000D03*
D20*
%TO.P,J30,1,Pin_1*%
%TO.N,Net-(J30-Pin_1)*%
X173395000Y-344660000D03*
%TD*%
%TO.P,J29,1,Pin_1*%
%TO.N,Net-(J29-Pin_1)*%
X198690000Y-344660000D03*
D19*
%TO.P,J29,2,Pin_2*%
%TO.N,Net-(J29-Pin_2)*%
X193610000Y-344660000D03*
%TO.P,J29,3,Pin_3*%
%TO.N,Net-(J29-Pin_3)*%
X188530000Y-344660000D03*
%TD*%
%TO.P,J28,3,Pin_3*%
%TO.N,Net-(J28-Pin_3)*%
X213930000Y-344660000D03*
%TO.P,J28,2,Pin_2*%
%TO.N,Net-(J28-Pin_2)*%
X219010000Y-344660000D03*
D20*
%TO.P,J28,1,Pin_1*%
%TO.N,Net-(J28-Pin_1)*%
X224090000Y-344660000D03*
%TD*%
D19*
%TO.P,J27,3,Pin_3*%
%TO.N,Net-(J27-Pin_3)*%
X241975000Y-344660000D03*
%TO.P,J27,2,Pin_2*%
%TO.N,Net-(J27-Pin_2)*%
X247055000Y-344660000D03*
D20*
%TO.P,J27,1,Pin_1*%
%TO.N,Net-(J27-Pin_1)*%
X252135000Y-344660000D03*
%TD*%
D19*
%TO.P,J26,3,Pin_3*%
%TO.N,Net-(J26-Pin_3)*%
X267375000Y-344660000D03*
%TO.P,J26,2,Pin_2*%
%TO.N,Net-(J26-Pin_2)*%
X272455000Y-344660000D03*
D20*
%TO.P,J26,1,Pin_1*%
%TO.N,Net-(J26-Pin_1)*%
X277535000Y-344660000D03*
%TD*%
D19*
%TO.P,J25,3,Pin_3*%
%TO.N,Net-(J25-Pin_3)*%
X292775000Y-344660000D03*
%TO.P,J25,2,Pin_2*%
%TO.N,Net-(J25-Pin_2)*%
X297855000Y-344660000D03*
D20*
%TO.P,J25,1,Pin_1*%
%TO.N,Net-(J25-Pin_1)*%
X302935000Y-344660000D03*
%TD*%
D19*
%TO.P,J24,3,Pin_3*%
%TO.N,Net-(J24-Pin_3)*%
X320715000Y-344660000D03*
%TO.P,J24,2,Pin_2*%
%TO.N,Net-(J24-Pin_2)*%
X325795000Y-344660000D03*
D20*
%TO.P,J24,1,Pin_1*%
%TO.N,Net-(J24-Pin_1)*%
X330875000Y-344660000D03*
%TD*%
D19*
%TO.P,J23,3,Pin_3*%
%TO.N,Net-(J23-Pin_3)*%
X346115000Y-344660000D03*
%TO.P,J23,2,Pin_2*%
%TO.N,Net-(J23-Pin_2)*%
X351195000Y-344660000D03*
D20*
%TO.P,J23,1,Pin_1*%
%TO.N,Net-(J23-Pin_1)*%
X356275000Y-344660000D03*
%TD*%
D19*
%TO.P,J22,3,Pin_3*%
%TO.N,Net-(J22-Pin_3)*%
X374055000Y-344660000D03*
%TO.P,J22,2,Pin_2*%
%TO.N,Net-(J22-Pin_2)*%
X379135000Y-344660000D03*
D20*
%TO.P,J22,1,Pin_1*%
%TO.N,Net-(J22-Pin_1)*%
X384215000Y-344660000D03*
%TD*%
D19*
%TO.P,J21,3,Pin_3*%
%TO.N,Net-(J21-Pin_3)*%
X399455000Y-344660000D03*
%TO.P,J21,2,Pin_2*%
%TO.N,Net-(J21-Pin_2)*%
X404535000Y-344660000D03*
D20*
%TO.P,J21,1,Pin_1*%
%TO.N,Net-(J21-Pin_1)*%
X409615000Y-344660000D03*
%TD*%
%TO.P,J20,1,Pin_1*%
%TO.N,Net-(J20-Pin_1)*%
X440095000Y-344660000D03*
D19*
%TO.P,J20,2,Pin_2*%
%TO.N,Net-(J20-Pin_2)*%
X435015000Y-344660000D03*
%TO.P,J20,3,Pin_3*%
%TO.N,Net-(J20-Pin_3)*%
X429935000Y-344660000D03*
%TD*%
%TO.P,J19,3,Pin_3*%
%TO.N,Net-(J19-Pin_3)*%
X454012500Y-344660000D03*
%TO.P,J19,2,Pin_2*%
%TO.N,Net-(J19-Pin_2)*%
X459092500Y-344660000D03*
D20*
%TO.P,J19,1,Pin_1*%
%TO.N,Net-(J19-Pin_1)*%
X464172500Y-344660000D03*
%TD*%
D19*
%TO.P,J18,3,Pin_3*%
%TO.N,Net-(J18-Pin_3)*%
X479412500Y-344660000D03*
%TO.P,J18,2,Pin_2*%
%TO.N,Net-(J18-Pin_2)*%
X484492500Y-344660000D03*
D20*
%TO.P,J18,1,Pin_1*%
%TO.N,Net-(J18-Pin_1)*%
X489572500Y-344660000D03*
%TD*%
%TO.P,J17,1,Pin_1*%
%TO.N,Net-(J17-Pin_1)*%
X513755000Y-344660000D03*
D19*
%TO.P,J17,2,Pin_2*%
%TO.N,Net-(J17-Pin_2)*%
X508675000Y-344660000D03*
%TO.P,J17,3,Pin_3*%
%TO.N,Net-(J17-Pin_3)*%
X503595000Y-344660000D03*
%TD*%
D28*
%TO.P,D65,1,K*%
%TO.N,Net-(D65-K)*%
X438877500Y-207500000D03*
D29*
%TO.P,D65,2,A*%
%TO.N,GNDREF*%
X438877500Y-222740000D03*
%TD*%
D13*
%TO.P,D64,1,K*%
%TO.N,GNDREF*%
X107355000Y-246580000D03*
D12*
%TO.P,D64,2,A*%
%TO.N,Net-(D64-A)*%
X107355000Y-249120000D03*
%TD*%
D11*
%TO.P,D63,2,A*%
%TO.N,Net-(D63-A)*%
X121272500Y-292100000D03*
D10*
%TO.P,D63,1,K*%
%TO.N,Net-(D33-K)*%
X111112500Y-292100000D03*
%TD*%
D13*
%TO.P,D62,1,K*%
%TO.N,GNDREF*%
X135295000Y-246380000D03*
D12*
%TO.P,D62,2,A*%
%TO.N,Net-(D62-A)*%
X135295000Y-248920000D03*
%TD*%
D10*
%TO.P,D61,1,K*%
%TO.N,Net-(D33-K)*%
X140375000Y-292100000D03*
D11*
%TO.P,D61,2,A*%
%TO.N,Net-(D61-A)*%
X150535000Y-292100000D03*
%TD*%
D13*
%TO.P,D60,1,K*%
%TO.N,GNDREF*%
X160695000Y-245800000D03*
D12*
%TO.P,D60,2,A*%
%TO.N,Net-(D60-A)*%
X160695000Y-248340000D03*
%TD*%
D10*
%TO.P,D59,1,K*%
%TO.N,Net-(D33-K)*%
X163235000Y-291320000D03*
D11*
%TO.P,D59,2,A*%
%TO.N,Net-(D59-A)*%
X173395000Y-291320000D03*
%TD*%
D12*
%TO.P,D58,2,A*%
%TO.N,Net-(D58-A)*%
X186095000Y-249120000D03*
D13*
%TO.P,D58,1,K*%
%TO.N,GNDREF*%
X186095000Y-246580000D03*
%TD*%
D11*
%TO.P,D57,2,A*%
%TO.N,Net-(D57-A)*%
X198690000Y-292100000D03*
D10*
%TO.P,D57,1,K*%
%TO.N,Net-(D33-K)*%
X188530000Y-292100000D03*
%TD*%
D12*
%TO.P,D56,2,A*%
%TO.N,Net-(D56-A)*%
X208955000Y-248920000D03*
D13*
%TO.P,D56,1,K*%
%TO.N,GNDREF*%
X208955000Y-246380000D03*
%TD*%
D10*
%TO.P,D55,1,K*%
%TO.N,Net-(D33-K)*%
X213930000Y-292100000D03*
D11*
%TO.P,D55,2,A*%
%TO.N,Net-(D55-A)*%
X224090000Y-292100000D03*
%TD*%
D12*
%TO.P,D54,2,A*%
%TO.N,Net-(D54-A)*%
X236895000Y-249120000D03*
D13*
%TO.P,D54,1,K*%
%TO.N,GNDREF*%
X236895000Y-246580000D03*
%TD*%
D10*
%TO.P,D53,1,K*%
%TO.N,Net-(D33-K)*%
X241975000Y-292100000D03*
D11*
%TO.P,D53,2,A*%
%TO.N,Net-(D53-A)*%
X252135000Y-292100000D03*
%TD*%
D12*
%TO.P,D52,2,A*%
%TO.N,Net-(D52-A)*%
X262295000Y-248920000D03*
D13*
%TO.P,D52,1,K*%
%TO.N,GNDREF*%
X262295000Y-246380000D03*
%TD*%
D10*
%TO.P,D51,1,K*%
%TO.N,Net-(D33-K)*%
X267375000Y-292100000D03*
D11*
%TO.P,D51,2,A*%
%TO.N,Net-(D51-A)*%
X277535000Y-292100000D03*
%TD*%
D13*
%TO.P,D50,1,K*%
%TO.N,GNDREF*%
X285155000Y-246580000D03*
D12*
%TO.P,D50,2,A*%
%TO.N,Net-(D50-A)*%
X285155000Y-249120000D03*
%TD*%
D10*
%TO.P,D49,1,K*%
%TO.N,Net-(D33-K)*%
X292775000Y-292100000D03*
D11*
%TO.P,D49,2,A*%
%TO.N,Net-(D49-A)*%
X302935000Y-292100000D03*
%TD*%
D12*
%TO.P,D48,2,A*%
%TO.N,Net-(D48-A)*%
X315635000Y-248920000D03*
D13*
%TO.P,D48,1,K*%
%TO.N,GNDREF*%
X315635000Y-246380000D03*
%TD*%
D10*
%TO.P,D47,1,K*%
%TO.N,Net-(D33-K)*%
X320715000Y-292100000D03*
D11*
%TO.P,D47,2,A*%
%TO.N,Net-(D47-A)*%
X330875000Y-292100000D03*
%TD*%
D10*
%TO.P,D45,1,K*%
%TO.N,Net-(D33-K)*%
X346115000Y-292100000D03*
D11*
%TO.P,D45,2,A*%
%TO.N,Net-(D45-A)*%
X356275000Y-292100000D03*
%TD*%
D12*
%TO.P,D44,2,A*%
%TO.N,Net-(D44-A)*%
X368975000Y-248920000D03*
D13*
%TO.P,D44,1,K*%
%TO.N,GNDREF*%
X368975000Y-246380000D03*
%TD*%
D10*
%TO.P,D43,1,K*%
%TO.N,Net-(D33-K)*%
X374055000Y-292100000D03*
D11*
%TO.P,D43,2,A*%
%TO.N,Net-(D43-A)*%
X384215000Y-292100000D03*
%TD*%
D12*
%TO.P,D42,2,A*%
%TO.N,Net-(D42-A)*%
X396915000Y-248920000D03*
D13*
%TO.P,D42,1,K*%
%TO.N,GNDREF*%
X396915000Y-246380000D03*
%TD*%
D11*
%TO.P,D41,2,A*%
%TO.N,Net-(D41-A)*%
X409615000Y-292100000D03*
D10*
%TO.P,D41,1,K*%
%TO.N,Net-(D33-K)*%
X399455000Y-292100000D03*
%TD*%
D13*
%TO.P,D40,1,K*%
%TO.N,GNDREF*%
X427395000Y-246580000D03*
D12*
%TO.P,D40,2,A*%
%TO.N,Net-(D40-A)*%
X427395000Y-249120000D03*
%TD*%
D11*
%TO.P,D39,2,A*%
%TO.N,Net-(D39-A)*%
X440095000Y-292100000D03*
D10*
%TO.P,D39,1,K*%
%TO.N,Net-(D33-K)*%
X429935000Y-292100000D03*
%TD*%
D13*
%TO.P,D38,1,K*%
%TO.N,GNDREF*%
X450255000Y-246580000D03*
D12*
%TO.P,D38,2,A*%
%TO.N,Net-(D38-A)*%
X450255000Y-249120000D03*
%TD*%
D10*
%TO.P,D37,1,K*%
%TO.N,Net-(D33-K)*%
X454012500Y-292100000D03*
D11*
%TO.P,D37,2,A*%
%TO.N,Net-(D37-A)*%
X464172500Y-292100000D03*
%TD*%
D12*
%TO.P,D36,2,A*%
%TO.N,Net-(D36-A)*%
X475655000Y-249120000D03*
D13*
%TO.P,D36,1,K*%
%TO.N,GNDREF*%
X475655000Y-246580000D03*
%TD*%
D10*
%TO.P,D35,1,K*%
%TO.N,Net-(D33-K)*%
X479412500Y-292100000D03*
D11*
%TO.P,D35,2,A*%
%TO.N,Net-(D35-A)*%
X489572500Y-292100000D03*
%TD*%
D13*
%TO.P,D34,1,K*%
%TO.N,GNDREF*%
X498515000Y-246580000D03*
D12*
%TO.P,D34,2,A*%
%TO.N,Net-(D34-A)*%
X498515000Y-249120000D03*
%TD*%
D11*
%TO.P,D33,2,A*%
%TO.N,Net-(D33-A)*%
X513755000Y-292100000D03*
D10*
%TO.P,D33,1,K*%
%TO.N,Net-(D33-K)*%
X503595000Y-292100000D03*
%TD*%
D21*
%TO.P,C4,1*%
%TO.N,Net-(U33-VDD)*%
X461737500Y-184640000D03*
%TO.P,C4,2*%
%TO.N,Net-(U36-FB)*%
X461737500Y-187140000D03*
%TD*%
D30*
%TO.P,C2,1*%
%TO.N,Net-(D1-K)*%
X461737500Y-217660000D03*
D31*
%TO.P,C2,2*%
%TO.N,GNDREF*%
X461737500Y-219160000D03*
%TD*%
D30*
%TO.P,C1,1*%
%TO.N,Net-(U33-VDD)*%
X423637500Y-202420000D03*
D31*
%TO.P,C1,2*%
%TO.N,GNDREF*%
X423637500Y-203920000D03*
%TD*%
D32*
%TO.N,SW30*%
X276810500Y-220980000D03*
X292775000Y-220980000D03*
X272455000Y-220980000D03*
X274995000Y-223520000D03*
%TO.N,SW31*%
X290235000Y-231140000D03*
X249082700Y-225547700D03*
X272455000Y-228600000D03*
X252135000Y-220980000D03*
%TO.N,SW29*%
X292775000Y-231140000D03*
X244515000Y-233680000D03*
%TO.N,SW28*%
X300395000Y-233680000D03*
%TO.N,SW32*%
X290235000Y-218440000D03*
X274995000Y-218440000D03*
X254675000Y-215900000D03*
%TO.N,SW27*%
X287695000Y-215900000D03*
X267375000Y-215900000D03*
X274995000Y-215900000D03*
%TO.N,SW18*%
X315635000Y-223520000D03*
X455335000Y-231140000D03*
X305475000Y-223520000D03*
%TO.N,SW17*%
X282615000Y-208280000D03*
X447715000Y-226060000D03*
%TO.N,SW19*%
X292775000Y-210820000D03*
X447715000Y-228600000D03*
%TO.N,SW20*%
X384215000Y-238760000D03*
%TO.N,SW21*%
X379135000Y-236220000D03*
%TO.N,SW22*%
X323255000Y-233680000D03*
%TO.N,SW23*%
X318175000Y-231140000D03*
%TO.N,SW24*%
X318175000Y-233680000D03*
%TO.N,SW25*%
X313095000Y-231140000D03*
%TO.N,SW26*%
X277535000Y-226060000D03*
%TO.N,SW11*%
X335955000Y-193040000D03*
%TO.N,SW12*%
X335955000Y-195580000D03*
%TO.N,SW13*%
X335955000Y-198120000D03*
%TO.N,SW14*%
X335955000Y-200660000D03*
%TO.N,SW15*%
X422315000Y-193040000D03*
%TO.N,SW16*%
X424855000Y-195580000D03*
%TO.N,SW10*%
X318175000Y-175260000D03*
%TO.N,SW9*%
X308015000Y-172720000D03*
%TO.N,SW8*%
X313095000Y-175260000D03*
%TO.N,SW7*%
X274995000Y-184695500D03*
X269915000Y-182500500D03*
X269915000Y-171995500D03*
%TO.N,SW6*%
X244515000Y-182500500D03*
X244515000Y-170180000D03*
%TO.N,SW5*%
X221655000Y-170180000D03*
%TO.N,SW4*%
X302935000Y-167640000D03*
%TO.N,SW3*%
X300395000Y-172720000D03*
%TO.N,SW2*%
X297855000Y-175260000D03*
%TO.N,SW1*%
X295315000Y-175260000D03*
%TO.N,Net-(U33-VDD)*%
X321498550Y-226843550D03*
X320327998Y-228014102D03*
%TO.N,Net-(D1-K)*%
X457875000Y-183915500D03*
%TO.N,Net-(U36-FB)*%
X455335000Y-203200000D03*
X452795000Y-203200000D03*
%TO.N,Net-(D1-K)*%
X457875000Y-198120000D03*
%TO.N,Net-(D65-K)*%
X450255000Y-200660000D03*
%TO.N,Net-(U33-IO22)*%
X328367669Y-216935500D03*
%TO.N,Net-(D63-A)*%
X127675000Y-292100000D03*
%TO.N,Net-(D61-A)*%
X155615000Y-292800500D03*
%TO.N,Net-(D59-A)*%
X178475000Y-292020500D03*
%TO.N,Net-(D57-A)*%
X201335000Y-292800500D03*
%TO.N,Net-(D55-A)*%
X229275000Y-292800500D03*
%TO.N,Net-(D53-A)*%
X257215000Y-292100000D03*
%TO.N,Net-(D51-A)*%
X282615000Y-292800500D03*
%TO.N,Net-(D49-A)*%
X308015000Y-292800500D03*
%TO.N,Net-(D47-A)*%
X335955000Y-292800500D03*
%TO.N,Net-(D45-A)*%
X358815000Y-292800500D03*
%TO.N,Net-(D43-A)*%
X386755000Y-292800500D03*
%TO.N,Net-(D41-A)*%
X412155000Y-292800500D03*
%TO.N,Net-(D37-A)*%
X465495000Y-292800500D03*
%TO.N,Net-(D39-A)*%
X442635000Y-292100000D03*
%TO.N,Net-(D35-A)*%
X490895000Y-292800500D03*
%TO.N,Net-(D8-A)*%
X186095000Y-165100000D03*
%TO.N,Net-(D10-A)*%
X211495000Y-165100000D03*
%TO.N,Net-(D12-A)*%
X236895000Y-165100000D03*
%TO.N,Net-(D14-A)*%
X264835000Y-165100000D03*
%TO.N,Net-(D16-A)*%
X292775000Y-165975500D03*
%TO.N,Net-(D18-A)*%
X320715000Y-165100000D03*
%TO.N,Net-(D20-A)*%
X346115000Y-165100000D03*
%TO.N,Net-(D22-A)*%
X374055000Y-165975500D03*
%TO.N,Net-(D24-A)*%
X399852521Y-166135500D03*
%TO.N,Net-(D15-A)*%
X293692500Y-126960500D03*
%TO.N,Net-(Q6-B)*%
X236895000Y-129110500D03*
%TO.N,Net-(Q4-B)*%
X183555000Y-127000000D03*
%TO.N,Net-(D13-A)*%
X267375000Y-121840500D03*
%TO.N,Net-(D21-A)*%
X371515000Y-124460000D03*
%TO.N,Net-(D23-A)*%
X400830000Y-126960500D03*
X399455000Y-121840500D03*
%TO.N,Net-(D25-A)*%
X427447500Y-121840500D03*
%TO.N,Net-(D29-A)*%
X478247500Y-121840500D03*
%TO.N,Net-(D31-A)*%
X503647500Y-121840500D03*
%TO.N,Net-(D1-K)*%
X511215000Y-144780000D03*
%TO.N,GNDREF*%
X107355000Y-245480500D03*
X123855000Y-197620000D03*
X139650500Y-129480483D03*
%TD*%
D33*
%TO.N,SW30*%
X303132500Y-216535000D02*
X304257500Y-217660000D01*
X301251509Y-216535000D02*
X303132500Y-216535000D01*
X300592500Y-217194009D02*
X301251509Y-216535000D01*
X300592500Y-218125991D02*
X300592500Y-217194009D01*
X297738491Y-220980000D02*
X300592500Y-218125991D01*
X292775000Y-220980000D02*
X297738491Y-220980000D01*
X272455000Y-220980000D02*
X276810500Y-220980000D01*
X273969695Y-223520000D02*
X274995000Y-223520000D01*
X173395000Y-223520000D02*
X273969695Y-223520000D01*
X170855000Y-226060000D02*
X173395000Y-223520000D01*
X170855000Y-243840000D02*
X170855000Y-226060000D01*
%TO.N,SW31*%
X290235000Y-231140000D02*
X301717500Y-219657500D01*
X252135000Y-228600000D02*
X272455000Y-228600000D01*
X249082700Y-225547700D02*
X252135000Y-228600000D01*
X301717500Y-219657500D02*
X301717500Y-217660000D01*
X249595000Y-218440000D02*
X252135000Y-220980000D01*
X147995000Y-223520000D02*
X153075000Y-218440000D01*
X147995000Y-241300000D02*
X147995000Y-223520000D01*
X153075000Y-218440000D02*
X249595000Y-218440000D01*
%TO.N,SW29*%
X300302500Y-224155000D02*
X306797500Y-217660000D01*
X298052500Y-224155000D02*
X300302500Y-224155000D01*
X292775000Y-229432500D02*
X298052500Y-224155000D01*
X292775000Y-231140000D02*
X292775000Y-229432500D01*
X244515000Y-233680000D02*
X290235000Y-233680000D01*
X290235000Y-233680000D02*
X292775000Y-231140000D01*
%TO.N,SW28*%
X309337500Y-221149009D02*
X309337500Y-217660000D01*
X305382500Y-225104009D02*
X309337500Y-221149009D01*
X305382500Y-225745991D02*
X305382500Y-225104009D01*
X300395000Y-230733491D02*
X305382500Y-225745991D01*
X300395000Y-233680000D02*
X300395000Y-230733491D01*
%TO.N,SW32*%
X291015000Y-217660000D02*
X299177500Y-217660000D01*
X290235000Y-218440000D02*
X291015000Y-217660000D01*
X257215000Y-218440000D02*
X274995000Y-218440000D01*
X254675000Y-215900000D02*
X257215000Y-218440000D01*
%TO.N,SW27*%
X310555000Y-216337500D02*
X311877500Y-217660000D01*
X310555000Y-215900000D02*
X310555000Y-216337500D01*
X287695000Y-215900000D02*
X310555000Y-215900000D01*
X267375000Y-215900000D02*
X274995000Y-215900000D01*
%TO.N,SW18*%
X305475000Y-223520000D02*
X303477500Y-223520000D01*
X316788491Y-223520000D02*
X315635000Y-223520000D01*
X318082500Y-224814009D02*
X316788491Y-223520000D01*
X318082500Y-226845799D02*
X318082500Y-224814009D01*
X303477500Y-223520000D02*
X301717500Y-225280000D01*
X322376701Y-231140000D02*
X318082500Y-226845799D01*
X455335000Y-231140000D02*
X322376701Y-231140000D01*
%TO.N,SW17*%
X285155000Y-208280000D02*
X282615000Y-208280000D01*
X343575000Y-208280000D02*
X285155000Y-208280000D01*
X361355000Y-226060000D02*
X358815000Y-223520000D01*
X358815000Y-223520000D02*
X343575000Y-208280000D01*
X447715000Y-226060000D02*
X361355000Y-226060000D01*
%TO.N,SW19*%
X295315000Y-210820000D02*
X292775000Y-210820000D01*
X341035000Y-210820000D02*
X295315000Y-210820000D01*
X447715000Y-228600000D02*
X358815000Y-228600000D01*
X358815000Y-228600000D02*
X341035000Y-210820000D01*
%TO.N,SW20*%
X306797500Y-227277500D02*
X306797500Y-225280000D01*
X305475000Y-228600000D02*
X306797500Y-227277500D01*
X305475000Y-241300000D02*
X305475000Y-228600000D01*
X308015000Y-243840000D02*
X305475000Y-241300000D01*
X320715000Y-243840000D02*
X308015000Y-243840000D01*
X325795000Y-238760000D02*
X320715000Y-243840000D01*
X384215000Y-238760000D02*
X325795000Y-238760000D01*
%TO.N,SW21*%
X308557500Y-226060000D02*
X309337500Y-225280000D01*
X308015000Y-226060000D02*
X308557500Y-226060000D01*
X308015000Y-241300000D02*
X308015000Y-226060000D01*
X379135000Y-236220000D02*
X375870000Y-232955000D01*
X318175000Y-241300000D02*
X308015000Y-241300000D01*
X326520000Y-232955000D02*
X318175000Y-241300000D01*
X375870000Y-232955000D02*
X326520000Y-232955000D01*
%TO.N,SW22*%
X311097500Y-226060000D02*
X311877500Y-225280000D01*
X310555000Y-226060000D02*
X311097500Y-226060000D01*
X318175000Y-238760000D02*
X310555000Y-238760000D01*
X323255000Y-233680000D02*
X318175000Y-238760000D01*
X310555000Y-238760000D02*
X310555000Y-226060000D01*
%TO.N,SW23*%
X314417500Y-230947805D02*
X314417500Y-225280000D01*
X317874695Y-234405000D02*
X314417500Y-230947805D01*
X318475305Y-234405000D02*
X317874695Y-234405000D01*
X318900000Y-233980305D02*
X318475305Y-234405000D01*
X318900000Y-231865000D02*
X318900000Y-233980305D01*
X318175000Y-231140000D02*
X318900000Y-231865000D01*
%TO.N,SW24*%
X316957500Y-232462500D02*
X316957500Y-225280000D01*
X318175000Y-233680000D02*
X316957500Y-232462500D01*
%TO.N,SW25*%
X313095000Y-231140000D02*
X313095000Y-221522500D01*
X313095000Y-221522500D02*
X316957500Y-217660000D01*
%TO.N,SW26*%
X314417500Y-214682500D02*
X314417500Y-217660000D01*
X313095000Y-213360000D02*
X314417500Y-214682500D01*
X277535000Y-215900000D02*
X280075000Y-213360000D01*
X277535000Y-226060000D02*
X277535000Y-215900000D01*
X280075000Y-213360000D02*
X313095000Y-213360000D01*
%TO.N,SW11*%
X335955000Y-193040000D02*
X310555000Y-193040000D01*
X310555000Y-193040000D02*
X309337500Y-191822500D01*
X309337500Y-191822500D02*
X309337500Y-189720000D01*
%TO.N,SW12*%
X306797500Y-194362500D02*
X306797500Y-189720000D01*
X335955000Y-195580000D02*
X308015000Y-195580000D01*
X308015000Y-195580000D02*
X306797500Y-194362500D01*
%TO.N,SW13*%
X305475000Y-198120000D02*
X304257500Y-196902500D01*
X304257500Y-196902500D02*
X304257500Y-189720000D01*
X335955000Y-198120000D02*
X305475000Y-198120000D01*
%TO.N,SW14*%
X302935000Y-200660000D02*
X301717500Y-199442500D01*
X335955000Y-200660000D02*
X302935000Y-200660000D01*
X301717500Y-199442500D02*
X301717500Y-189720000D01*
%TO.N,SW15*%
X299177500Y-201982500D02*
X299177500Y-189720000D01*
X300395000Y-203200000D02*
X299177500Y-201982500D01*
X412155000Y-203200000D02*
X300395000Y-203200000D01*
X422315000Y-193040000D02*
X412155000Y-203200000D01*
%TO.N,SW16*%
X296637500Y-204522500D02*
X296637500Y-189720000D01*
X297855000Y-205740000D02*
X296637500Y-204522500D01*
X414695000Y-205740000D02*
X297855000Y-205740000D01*
X424855000Y-195580000D02*
X414695000Y-205740000D01*
%TO.N,SW10*%
X313002500Y-190845000D02*
X311877500Y-189720000D01*
X315290000Y-190845000D02*
X313002500Y-190845000D01*
X315542500Y-190592500D02*
X315290000Y-190845000D01*
X315542500Y-177892500D02*
X315542500Y-190592500D01*
X318175000Y-175260000D02*
X315542500Y-177892500D01*
%TO.N,SW9*%
X313002500Y-177707500D02*
X313002500Y-188305000D01*
X308015000Y-172720000D02*
X313002500Y-177707500D01*
X313002500Y-188305000D02*
X314417500Y-189720000D01*
%TO.N,SW8*%
X314417500Y-176582500D02*
X314417500Y-182100000D01*
X313095000Y-175260000D02*
X314417500Y-176582500D01*
%TO.N,SW7*%
X309282000Y-184695500D02*
X311877500Y-182100000D01*
X274995000Y-184695500D02*
X309282000Y-184695500D01*
X269915000Y-171995500D02*
X269915000Y-182500500D01*
%TO.N,SW6*%
X244515000Y-170180000D02*
X244515000Y-182500500D01*
%TO.N,SW5*%
X221655000Y-182880000D02*
X222000000Y-183225000D01*
X221655000Y-170180000D02*
X221655000Y-182880000D01*
X222000000Y-183225000D02*
X305672500Y-183225000D01*
X305672500Y-183225000D02*
X306797500Y-182100000D01*
%TO.N,SW4*%
X304257500Y-168962500D02*
X304257500Y-182100000D01*
X302935000Y-167640000D02*
X304257500Y-168962500D01*
%TO.N,SW3*%
X301717500Y-174042500D02*
X301717500Y-182100000D01*
X300395000Y-172720000D02*
X301717500Y-174042500D01*
%TO.N,SW2*%
X297855000Y-175260000D02*
X299177500Y-176582500D01*
X299177500Y-176582500D02*
X299177500Y-182100000D01*
%TO.N,SW1*%
X296637500Y-176582500D02*
X296637500Y-182100000D01*
X295315000Y-175260000D02*
X296637500Y-176582500D01*
%TO.N,Net-(U33-VDD)*%
X321498550Y-226843550D02*
X321061050Y-226843550D01*
X321061050Y-226843550D02*
X319497500Y-225280000D01*
%TO.N,Net-(D1-K)*%
X456657500Y-185133000D02*
X456657500Y-198160000D01*
X457875000Y-183915500D02*
X456657500Y-185133000D01*
%TO.N,Net-(U36-FB)*%
X455395000Y-203260000D02*
X460357500Y-203260000D01*
X455335000Y-203200000D02*
X455395000Y-203260000D01*
%TO.N,Net-(D1-K)*%
X460349912Y-198120000D02*
X461737500Y-199507588D01*
X457875000Y-198120000D02*
X460349912Y-198120000D01*
X461737500Y-199507588D02*
X461737500Y-217660000D01*
%TO.N,Net-(D65-K)*%
X451055000Y-199860000D02*
X460357500Y-199860000D01*
X450255000Y-200660000D02*
X451055000Y-199860000D01*
%TO.N,Net-(R42-Pad2)*%
X399455000Y-271795000D02*
X403270000Y-267980000D01*
X399455000Y-274996750D02*
X399455000Y-271795000D01*
%TO.N,Net-(Q21-B)*%
X404535000Y-280076750D02*
X404535000Y-284480000D01*
X409615000Y-274996750D02*
X404535000Y-280076750D01*
%TO.N,Net-(D41-A)*%
X403265000Y-285750000D02*
X403265000Y-284480000D01*
X409615000Y-292100000D02*
X403265000Y-285750000D01*
%TO.N,Net-(D37-A)*%
X457822500Y-285750000D02*
X457822500Y-284480000D01*
X464172500Y-292100000D02*
X457822500Y-285750000D01*
%TO.N,Net-(R44-Pad2)*%
X374055000Y-271795000D02*
X377870000Y-267980000D01*
X374055000Y-274996750D02*
X374055000Y-271795000D01*
%TO.N,Net-(Q22-B)*%
X384215000Y-274996750D02*
X379135000Y-280076750D01*
X379135000Y-280076750D02*
X379135000Y-284480000D01*
%TO.N,Net-(D43-A)*%
X377865000Y-285750000D02*
X377865000Y-284480000D01*
X384215000Y-292100000D02*
X377865000Y-285750000D01*
%TO.N,Net-(D45-A)*%
X349925000Y-285750000D02*
X349925000Y-284480000D01*
X356275000Y-292100000D02*
X349925000Y-285750000D01*
%TO.N,Net-(Q23-B)*%
X351195000Y-280076750D02*
X351195000Y-284480000D01*
X356275000Y-274996750D02*
X351195000Y-280076750D01*
%TO.N,Net-(R46-Pad2)*%
X349930000Y-271181750D02*
X346115000Y-274996750D01*
X349930000Y-267980000D02*
X349930000Y-271181750D01*
%TO.N,Net-(R48-Pad2)*%
X320715000Y-271795000D02*
X324530000Y-267980000D01*
X320715000Y-274996750D02*
X320715000Y-271795000D01*
%TO.N,Net-(Q24-B)*%
X325795000Y-280076750D02*
X325795000Y-284480000D01*
X330875000Y-274996750D02*
X325795000Y-280076750D01*
%TO.N,Net-(D47-A)*%
X324525000Y-285750000D02*
X324525000Y-284480000D01*
X330875000Y-292100000D02*
X324525000Y-285750000D01*
%TO.N,Net-(D49-A)*%
X296585000Y-285750000D02*
X296585000Y-284480000D01*
X302935000Y-292100000D02*
X296585000Y-285750000D01*
%TO.N,Net-(Q25-B)*%
X297855000Y-280076750D02*
X297855000Y-284480000D01*
X302935000Y-274996750D02*
X297855000Y-280076750D01*
%TO.N,Net-(R50-Pad2)*%
X296590000Y-267980000D02*
X296590000Y-271181750D01*
X296590000Y-271181750D02*
X292775000Y-274996750D01*
%TO.N,Net-(R52-Pad2)*%
X271190000Y-271181750D02*
X267375000Y-274996750D01*
X271190000Y-267980000D02*
X271190000Y-271181750D01*
%TO.N,Net-(D51-A)*%
X271185000Y-285750000D02*
X271185000Y-284480000D01*
X277535000Y-292100000D02*
X271185000Y-285750000D01*
%TO.N,Net-(Q26-B)*%
X272455000Y-280076750D02*
X272455000Y-284480000D01*
X277535000Y-274996750D02*
X272455000Y-280076750D01*
%TO.N,Net-(D53-A)*%
X245785000Y-285750000D02*
X245785000Y-284480000D01*
X252135000Y-292100000D02*
X245785000Y-285750000D01*
%TO.N,Net-(Q27-B)*%
X247055000Y-280076750D02*
X247055000Y-284480000D01*
X252135000Y-274996750D02*
X247055000Y-280076750D01*
%TO.N,Net-(R54-Pad2)*%
X245790000Y-271181750D02*
X241975000Y-274996750D01*
X245790000Y-267980000D02*
X245790000Y-271181750D01*
%TO.N,Net-(D57-A)*%
X192340000Y-285750000D02*
X192340000Y-284480000D01*
X198690000Y-292100000D02*
X192340000Y-285750000D01*
%TO.N,Net-(D55-A)*%
X224090000Y-292100000D02*
X217740000Y-285750000D01*
X217740000Y-285750000D02*
X217740000Y-284480000D01*
%TO.N,Net-(Q28-B)*%
X219010000Y-280076750D02*
X219010000Y-284480000D01*
X224090000Y-274996750D02*
X219010000Y-280076750D01*
%TO.N,Net-(R56-Pad2)*%
X217745000Y-271181750D02*
X213930000Y-274996750D01*
X217745000Y-267980000D02*
X217745000Y-271181750D01*
%TO.N,Net-(R58-Pad2)*%
X188530000Y-274996750D02*
X188530000Y-271795000D01*
X188530000Y-271795000D02*
X192345000Y-267980000D01*
%TO.N,Net-(Q29-B)*%
X198690000Y-274996750D02*
X193610000Y-280076750D01*
X193610000Y-280076750D02*
X193610000Y-284480000D01*
%TO.N,Net-(D58-A)*%
X186095000Y-254110000D02*
X192345000Y-260360000D01*
X186095000Y-249120000D02*
X186095000Y-254110000D01*
%TO.N,Net-(D60-A)*%
X167050000Y-254695000D02*
X160695000Y-248340000D01*
X167050000Y-259580000D02*
X167050000Y-254695000D01*
%TO.N,Net-(R60-Pad2)*%
X163235000Y-271015000D02*
X167050000Y-267200000D01*
X163235000Y-274216750D02*
X163235000Y-271015000D01*
%TO.N,Net-(Q30-B)*%
X168315000Y-279296750D02*
X168315000Y-283700000D01*
X173395000Y-274216750D02*
X168315000Y-279296750D01*
%TO.N,Net-(D59-A)*%
X167045000Y-284970000D02*
X167045000Y-283700000D01*
X173395000Y-291320000D02*
X167045000Y-284970000D01*
%TO.N,Net-(R63-Pad1)*%
X117515000Y-260312500D02*
X117467500Y-260360000D01*
X117515000Y-256540000D02*
X117515000Y-260312500D01*
%TO.N,Net-(R61-Pad1)*%
X147995000Y-259095000D02*
X146730000Y-260360000D01*
X147995000Y-256540000D02*
X147995000Y-259095000D01*
%TO.N,Net-(D62-A)*%
X135295000Y-248920000D02*
X144190000Y-257815000D01*
X144190000Y-257815000D02*
X144190000Y-260360000D01*
%TO.N,Net-(D64-A)*%
X107355000Y-252787500D02*
X114927500Y-260360000D01*
X107355000Y-249120000D02*
X107355000Y-252787500D01*
%TO.N,Net-(Q31-B)*%
X145455000Y-280076750D02*
X145455000Y-284480000D01*
X150535000Y-274996750D02*
X145455000Y-280076750D01*
%TO.N,Net-(R62-Pad2)*%
X144190000Y-271181750D02*
X140375000Y-274996750D01*
X144190000Y-267980000D02*
X144190000Y-271181750D01*
%TO.N,Net-(R64-Pad2)*%
X111112500Y-271795000D02*
X114927500Y-267980000D01*
X111112500Y-274996750D02*
X111112500Y-271795000D01*
%TO.N,Net-(Q32-B)*%
X115772500Y-284480000D02*
X116192500Y-284480000D01*
X121272500Y-278980000D02*
X115772500Y-284480000D01*
X121272500Y-274996750D02*
X121272500Y-278980000D01*
%TO.N,Net-(D63-A)*%
X114922500Y-285750000D02*
X114922500Y-284480000D01*
X121272500Y-292100000D02*
X114922500Y-285750000D01*
%TO.N,Net-(D61-A)*%
X144185000Y-285750000D02*
X144185000Y-284480000D01*
X150535000Y-292100000D02*
X144185000Y-285750000D01*
%TO.N,Net-(D63-A)*%
X121272500Y-292100000D02*
X127675000Y-292100000D01*
%TO.N,Net-(D61-A)*%
X154914500Y-292100000D02*
X155615000Y-292800500D01*
X150535000Y-292100000D02*
X154914500Y-292100000D01*
%TO.N,Net-(D59-A)*%
X177774500Y-291320000D02*
X178475000Y-292020500D01*
X173395000Y-291320000D02*
X177774500Y-291320000D01*
%TO.N,Net-(D57-A)*%
X201335000Y-293075000D02*
X201335000Y-292800500D01*
X201335000Y-292100000D02*
X201335000Y-293075000D01*
X198690000Y-292100000D02*
X201335000Y-292100000D01*
%TO.N,Net-(D55-A)*%
X228574500Y-292100000D02*
X229275000Y-292800500D01*
X224090000Y-292100000D02*
X228574500Y-292100000D01*
%TO.N,Net-(D53-A)*%
X252135000Y-292100000D02*
X257215000Y-292100000D01*
%TO.N,Net-(D51-A)*%
X281914500Y-292100000D02*
X282615000Y-292800500D01*
X277535000Y-292100000D02*
X281914500Y-292100000D01*
%TO.N,Net-(D49-A)*%
X307314500Y-292100000D02*
X308015000Y-292800500D01*
X302935000Y-292100000D02*
X307314500Y-292100000D01*
%TO.N,Net-(D47-A)*%
X335254500Y-292100000D02*
X335955000Y-292800500D01*
X330875000Y-292100000D02*
X335254500Y-292100000D01*
%TO.N,Net-(D45-A)*%
X358114500Y-292100000D02*
X358815000Y-292800500D01*
X356275000Y-292100000D02*
X358114500Y-292100000D01*
%TO.N,Net-(D43-A)*%
X386054500Y-292100000D02*
X386755000Y-292800500D01*
X384215000Y-292100000D02*
X386054500Y-292100000D01*
%TO.N,Net-(D41-A)*%
X411454500Y-292100000D02*
X412155000Y-292800500D01*
X409615000Y-292100000D02*
X411454500Y-292100000D01*
%TO.N,Net-(D37-A)*%
X464794500Y-292100000D02*
X465495000Y-292800500D01*
X464172500Y-292100000D02*
X464794500Y-292100000D01*
%TO.N,Net-(D39-A)*%
X440095000Y-292100000D02*
X442635000Y-292100000D01*
X433745000Y-285750000D02*
X433745000Y-284480000D01*
X440095000Y-292100000D02*
X433745000Y-285750000D01*
%TO.N,Net-(Q20-B)*%
X435015000Y-280076750D02*
X435015000Y-284480000D01*
X440095000Y-274996750D02*
X435015000Y-280076750D01*
%TO.N,Net-(R40-Pad2)*%
X433750000Y-267980000D02*
X433750000Y-271181750D01*
X433750000Y-271181750D02*
X429935000Y-274996750D01*
%TO.N,Net-(D40-A)*%
X427395000Y-254005000D02*
X433750000Y-260360000D01*
X427395000Y-249120000D02*
X427395000Y-254005000D01*
%TO.N,Net-(R39-Pad1)*%
X435015000Y-259085000D02*
X436290000Y-260360000D01*
X435015000Y-256540000D02*
X435015000Y-259085000D01*
%TO.N,Net-(R37-Pad1)*%
X460415000Y-260312500D02*
X460367500Y-260360000D01*
X460415000Y-256540000D02*
X460415000Y-260312500D01*
%TO.N,Net-(D38-A)*%
X457827500Y-256692500D02*
X457827500Y-260360000D01*
X450255000Y-249120000D02*
X457827500Y-256692500D01*
%TO.N,Net-(R38-Pad2)*%
X457827500Y-271181750D02*
X454012500Y-274996750D01*
X457827500Y-267980000D02*
X457827500Y-271181750D01*
%TO.N,Net-(Q19-B)*%
X459092500Y-280076750D02*
X459092500Y-284480000D01*
X464172500Y-274996750D02*
X459092500Y-280076750D01*
%TO.N,Net-(R36-Pad2)*%
X483227500Y-271181750D02*
X479412500Y-274996750D01*
X483227500Y-267980000D02*
X483227500Y-271181750D01*
%TO.N,Net-(D36-A)*%
X475655000Y-252787500D02*
X483227500Y-260360000D01*
X475655000Y-249120000D02*
X475655000Y-252787500D01*
%TO.N,Net-(R35-Pad1)*%
X485815000Y-260312500D02*
X485767500Y-260360000D01*
X485815000Y-256540000D02*
X485815000Y-260312500D01*
%TO.N,Net-(R33-Pad1)*%
X511215000Y-259095000D02*
X509950000Y-260360000D01*
X511215000Y-256540000D02*
X511215000Y-259095000D01*
%TO.N,Net-(R45-Pad1)*%
X353735000Y-259095000D02*
X352470000Y-260360000D01*
%TO.N,Net-(D33-K)*%
X134015000Y-267980000D02*
X117467500Y-267980000D01*
X137835000Y-264160000D02*
X134015000Y-267980000D01*
X142910000Y-264160000D02*
X137835000Y-264160000D01*
X146730000Y-267980000D02*
X142910000Y-264160000D01*
X154335000Y-267980000D02*
X146730000Y-267980000D01*
X158155000Y-264160000D02*
X154335000Y-267980000D01*
X166550000Y-264160000D02*
X158155000Y-264160000D01*
X169590000Y-267200000D02*
X166550000Y-264160000D01*
X175435000Y-267200000D02*
X169590000Y-267200000D01*
X175935000Y-266700000D02*
X175435000Y-267200000D01*
X193605000Y-266700000D02*
X175935000Y-266700000D01*
X194885000Y-267980000D02*
X193605000Y-266700000D01*
X197515000Y-267980000D02*
X194885000Y-267980000D01*
X198795000Y-266700000D02*
X197515000Y-267980000D01*
X219005000Y-266700000D02*
X198795000Y-266700000D01*
X220285000Y-267980000D02*
X219005000Y-266700000D01*
X221565000Y-266700000D02*
X220285000Y-267980000D01*
X247050000Y-266700000D02*
X221565000Y-266700000D01*
X248330000Y-267980000D02*
X247050000Y-266700000D01*
X252135000Y-264175000D02*
X248330000Y-267980000D01*
X252135000Y-264160000D02*
X252135000Y-264175000D01*
X269910000Y-264160000D02*
X252135000Y-264160000D01*
X273730000Y-267980000D02*
X269910000Y-264160000D01*
X291495000Y-267980000D02*
X273730000Y-267980000D01*
X295315000Y-264165000D02*
X295315000Y-264160000D01*
X295315000Y-264160000D02*
X291495000Y-267980000D01*
X299130000Y-267980000D02*
X295315000Y-264165000D01*
X304195000Y-267980000D02*
X299130000Y-267980000D01*
X305475000Y-266700000D02*
X304195000Y-267980000D01*
X325795000Y-266700000D02*
X305475000Y-266700000D01*
X327070000Y-267980000D02*
X325795000Y-266705000D01*
X325795000Y-266705000D02*
X325795000Y-266700000D01*
X351195000Y-266700000D02*
X328350000Y-266700000D01*
X328350000Y-266700000D02*
X327070000Y-267980000D01*
X351195000Y-266705000D02*
X351195000Y-266700000D01*
X352470000Y-267980000D02*
X351195000Y-266705000D01*
X372775000Y-267980000D02*
X352470000Y-267980000D01*
X374055000Y-266700000D02*
X372775000Y-267980000D01*
X379130000Y-266700000D02*
X374055000Y-266700000D01*
X380410000Y-267980000D02*
X379130000Y-266700000D01*
X381690000Y-266700000D02*
X380410000Y-267980000D01*
X404535000Y-266705000D02*
X404535000Y-266700000D01*
X405810000Y-267980000D02*
X404535000Y-266705000D01*
X404535000Y-266700000D02*
X381690000Y-266700000D01*
X407082500Y-266707500D02*
X405810000Y-267980000D01*
X437562500Y-266707500D02*
X407082500Y-266707500D01*
X437562500Y-266707500D02*
X436290000Y-267980000D01*
X437570000Y-266700000D02*
X437562500Y-266707500D01*
X460415000Y-266700000D02*
X437570000Y-266700000D01*
X460367500Y-266747500D02*
X460367500Y-267980000D01*
X484487500Y-266700000D02*
X460415000Y-266700000D01*
X485767500Y-267980000D02*
X484487500Y-266700000D01*
X460415000Y-266700000D02*
X460367500Y-266747500D01*
X508825000Y-266855000D02*
X486892500Y-266855000D01*
X509950000Y-267980000D02*
X508825000Y-266855000D01*
X486892500Y-266855000D02*
X485767500Y-267980000D01*
%TO.N,*%
X511210000Y-269240000D02*
X510745495Y-268775495D01*
X511215000Y-269240000D02*
X511210000Y-269240000D01*
%TO.N,Net-(D34-A)*%
X498515000Y-251465000D02*
X507410000Y-260360000D01*
X498515000Y-249120000D02*
X498515000Y-251465000D01*
%TO.N,Net-(R34-Pad2)*%
X507410000Y-271181750D02*
X503595000Y-274996750D01*
X507410000Y-267980000D02*
X507410000Y-271181750D01*
%TO.N,Net-(Q17-B)*%
X508675000Y-280076750D02*
X508675000Y-284480000D01*
X513755000Y-274996750D02*
X508675000Y-280076750D01*
%TO.N,Net-(D33-A)*%
X507405000Y-285750000D02*
X507405000Y-284480000D01*
X513755000Y-292100000D02*
X507405000Y-285750000D01*
%TO.N,Net-(Q18-B)*%
X484492500Y-280076750D02*
X484492500Y-284480000D01*
X489572500Y-274996750D02*
X484492500Y-280076750D01*
%TO.N,Net-(D35-A)*%
X483222500Y-285750000D02*
X483222500Y-284480000D01*
X489572500Y-292100000D02*
X483222500Y-285750000D01*
X490194500Y-292100000D02*
X490895000Y-292800500D01*
X489572500Y-292100000D02*
X490194500Y-292100000D01*
%TO.N,Net-(D33-A)*%
X513755000Y-300262500D02*
X512537500Y-301480000D01*
X513755000Y-292100000D02*
X513755000Y-300262500D01*
%TO.N,Net-(D33-K)*%
X111112500Y-300157500D02*
X112435000Y-301480000D01*
X111112500Y-292100000D02*
X111112500Y-300157500D01*
X112537500Y-293525000D02*
X111112500Y-292100000D01*
X140375000Y-292100000D02*
X138950000Y-293525000D01*
X138950000Y-293525000D02*
X112537500Y-293525000D01*
X140375000Y-300157500D02*
X141697500Y-301480000D01*
X140375000Y-292100000D02*
X140375000Y-300157500D01*
X141800000Y-293525000D02*
X140375000Y-292100000D01*
X163235000Y-291320000D02*
X161030000Y-293525000D01*
X161030000Y-293525000D02*
X141800000Y-293525000D01*
X163235000Y-300157500D02*
X164557500Y-301480000D01*
X163235000Y-291320000D02*
X163235000Y-300157500D01*
X164660000Y-292745000D02*
X163235000Y-291320000D01*
X187885000Y-292745000D02*
X164660000Y-292745000D01*
X188530000Y-292100000D02*
X187885000Y-292745000D01*
X188530000Y-300157500D02*
X189852500Y-301480000D01*
X188530000Y-292100000D02*
X188530000Y-300157500D01*
X212505000Y-293525000D02*
X189955000Y-293525000D01*
X213930000Y-292100000D02*
X212505000Y-293525000D01*
X189955000Y-293525000D02*
X188530000Y-292100000D01*
X213930000Y-300157500D02*
X215252500Y-301480000D01*
X213930000Y-292100000D02*
X213930000Y-300157500D01*
X215355000Y-293525000D02*
X213930000Y-292100000D01*
X240550000Y-293525000D02*
X215355000Y-293525000D01*
X241975000Y-292100000D02*
X240550000Y-293525000D01*
X241975000Y-300157500D02*
X243297500Y-301480000D01*
X241975000Y-292100000D02*
X241975000Y-300157500D01*
X243400000Y-293525000D02*
X241975000Y-292100000D01*
X265950000Y-293525000D02*
X243400000Y-293525000D01*
X267375000Y-292100000D02*
X265950000Y-293525000D01*
X267375000Y-300157500D02*
X268697500Y-301480000D01*
X267375000Y-292100000D02*
X267375000Y-300157500D01*
X268800000Y-293525000D02*
X267375000Y-292100000D01*
X291350000Y-293525000D02*
X268800000Y-293525000D01*
X292775000Y-292100000D02*
X291350000Y-293525000D01*
X292775000Y-300157500D02*
X294097500Y-301480000D01*
X292775000Y-292100000D02*
X292775000Y-300157500D01*
X294200000Y-293525000D02*
X292775000Y-292100000D01*
X319290000Y-293525000D02*
X294200000Y-293525000D01*
X320715000Y-292100000D02*
X319290000Y-293525000D01*
X320715000Y-300157500D02*
X322037500Y-301480000D01*
X320715000Y-292100000D02*
X320715000Y-300157500D01*
X322140000Y-293525000D02*
X320715000Y-292100000D01*
X344690000Y-293525000D02*
X322140000Y-293525000D01*
X346115000Y-292100000D02*
X344690000Y-293525000D01*
X346115000Y-300157500D02*
X347437500Y-301480000D01*
X346115000Y-292100000D02*
X346115000Y-300157500D01*
X372630000Y-293525000D02*
X347540000Y-293525000D01*
X347540000Y-293525000D02*
X346115000Y-292100000D01*
X374055000Y-292100000D02*
X372630000Y-293525000D01*
X374055000Y-300157500D02*
X375377500Y-301480000D01*
X374055000Y-292100000D02*
X374055000Y-300157500D01*
X375480000Y-293525000D02*
X374055000Y-292100000D01*
X398030000Y-293525000D02*
X375480000Y-293525000D01*
X399455000Y-292100000D02*
X398030000Y-293525000D01*
X399455000Y-292100000D02*
X399455000Y-300157500D01*
X399455000Y-300157500D02*
X400777500Y-301480000D01*
X400880000Y-293525000D02*
X399455000Y-292100000D01*
X428510000Y-293525000D02*
X400880000Y-293525000D01*
X429935000Y-292100000D02*
X428510000Y-293525000D01*
X429935000Y-300157500D02*
X431257500Y-301480000D01*
X429935000Y-292100000D02*
X429935000Y-300157500D01*
X431360000Y-293525000D02*
X429935000Y-292100000D01*
X452587500Y-293525000D02*
X431360000Y-293525000D01*
X454012500Y-292100000D02*
X452587500Y-293525000D01*
X454012500Y-300157500D02*
X455335000Y-301480000D01*
X454012500Y-292100000D02*
X454012500Y-300157500D01*
X455437500Y-293525000D02*
X454012500Y-292100000D01*
X479412500Y-292100000D02*
X477987500Y-293525000D01*
X477987500Y-293525000D02*
X455437500Y-293525000D01*
X479412500Y-300157500D02*
X480735000Y-301480000D01*
X479412500Y-292100000D02*
X479412500Y-300157500D01*
X480837500Y-293525000D02*
X479412500Y-292100000D01*
X503595000Y-292100000D02*
X502170000Y-293525000D01*
X502170000Y-293525000D02*
X480837500Y-293525000D01*
X503595000Y-276587741D02*
X509950000Y-270232741D01*
X503595000Y-292100000D02*
X503595000Y-276587741D01*
X509950000Y-270232741D02*
X509950000Y-267980000D01*
X504917500Y-293422500D02*
X503595000Y-292100000D01*
X504917500Y-301480000D02*
X504917500Y-293422500D01*
%TO.N,Net-(J17-Pin_1)*%
X512537500Y-343442500D02*
X513755000Y-344660000D01*
X512537500Y-319260000D02*
X512537500Y-343442500D01*
%TO.N,Net-(J17-Pin_2)*%
X504917500Y-341682500D02*
X508675000Y-345440000D01*
X504917500Y-319260000D02*
X504917500Y-341682500D01*
%TO.N,Net-(J17-Pin_3)*%
X498515000Y-339580000D02*
X503595000Y-344660000D01*
X499295000Y-311640000D02*
X498515000Y-312420000D01*
X504917500Y-311640000D02*
X499295000Y-311640000D01*
X498515000Y-312420000D02*
X498515000Y-339580000D01*
%TO.N,Net-(J18-Pin_1)*%
X488355000Y-343442500D02*
X489572500Y-344660000D01*
X488355000Y-319260000D02*
X488355000Y-343442500D01*
%TO.N,Net-(J18-Pin_2)*%
X480735000Y-340902500D02*
X484492500Y-344660000D01*
X480735000Y-319260000D02*
X480735000Y-340902500D01*
%TO.N,Net-(J18-Pin_3)*%
X475655000Y-314960000D02*
X475655000Y-340902500D01*
X478975000Y-311640000D02*
X475655000Y-314960000D01*
X475655000Y-340902500D02*
X479412500Y-344660000D01*
X480735000Y-311640000D02*
X478975000Y-311640000D01*
%TO.N,Net-(J19-Pin_1)*%
X462955000Y-343442500D02*
X464172500Y-344660000D01*
X462955000Y-319260000D02*
X462955000Y-343442500D01*
%TO.N,Net-(J19-Pin_2)*%
X455335000Y-340902500D02*
X459092500Y-344660000D01*
X455335000Y-319260000D02*
X455335000Y-340902500D01*
%TO.N,Net-(J19-Pin_3)*%
X450255000Y-314960000D02*
X450255000Y-340902500D01*
X450255000Y-340902500D02*
X454012500Y-344660000D01*
X453575000Y-311640000D02*
X450255000Y-314960000D01*
X455335000Y-311640000D02*
X453575000Y-311640000D01*
%TO.N,Net-(J20-Pin_1)*%
X438877500Y-343442500D02*
X440095000Y-344660000D01*
X438877500Y-319260000D02*
X438877500Y-343442500D01*
%TO.N,Net-(J20-Pin_2)*%
X431257500Y-340902500D02*
X435015000Y-344660000D01*
X431257500Y-319260000D02*
X431257500Y-340902500D01*
%TO.N,Net-(J20-Pin_3)*%
X427395000Y-342120000D02*
X429935000Y-344660000D01*
X427395000Y-312420000D02*
X427395000Y-342120000D01*
X428175000Y-311640000D02*
X427395000Y-312420000D01*
X431257500Y-311640000D02*
X428175000Y-311640000D01*
%TO.N,Net-(J21-Pin_1)*%
X408397500Y-343442500D02*
X409615000Y-344660000D01*
X408397500Y-319260000D02*
X408397500Y-343442500D01*
%TO.N,*%
X409822500Y-317835000D02*
X409405127Y-318252373D01*
X409822500Y-317707500D02*
X409822500Y-317835000D01*
X409615000Y-317500000D02*
X409822500Y-317707500D01*
%TO.N,Net-(J21-Pin_2)*%
X400777500Y-340902500D02*
X404535000Y-344660000D01*
X400777500Y-319260000D02*
X400777500Y-340902500D01*
%TO.N,Net-(J21-Pin_3)*%
X394375000Y-339580000D02*
X399455000Y-344660000D01*
X397695000Y-311640000D02*
X394375000Y-314960000D01*
X400777500Y-311640000D02*
X397695000Y-311640000D01*
X394375000Y-314960000D02*
X394375000Y-339580000D01*
%TO.N,Net-(J22-Pin_1)*%
X382997500Y-343442500D02*
X384215000Y-344660000D01*
X382997500Y-319260000D02*
X382997500Y-343442500D01*
%TO.N,Net-(J22-Pin_2)*%
X375377500Y-340902500D02*
X379135000Y-344660000D01*
X375377500Y-319260000D02*
X375377500Y-340902500D01*
%TO.N,Net-(J22-Pin_3)*%
X368975000Y-312420000D02*
X368975000Y-339580000D01*
X369755000Y-311640000D02*
X368975000Y-312420000D01*
X375377500Y-311640000D02*
X369755000Y-311640000D01*
X368975000Y-339580000D02*
X374055000Y-344660000D01*
%TO.N,Net-(J23-Pin_1)*%
X355057500Y-319260000D02*
X355057500Y-343442500D01*
X355057500Y-343442500D02*
X356275000Y-344660000D01*
%TO.N,Net-(J23-Pin_2)*%
X347437500Y-340902500D02*
X351195000Y-344660000D01*
X347437500Y-319260000D02*
X347437500Y-340902500D01*
%TO.N,Net-(J23-Pin_3)*%
X343575000Y-312420000D02*
X343575000Y-342120000D01*
X344355000Y-311640000D02*
X343575000Y-312420000D01*
X343575000Y-342120000D02*
X346115000Y-344660000D01*
X347437500Y-311640000D02*
X344355000Y-311640000D01*
%TO.N,Net-(J24-Pin_1)*%
X329657500Y-343442500D02*
X330875000Y-344660000D01*
X329657500Y-319260000D02*
X329657500Y-343442500D01*
%TO.N,Net-(J24-Pin_2)*%
X322037500Y-340902500D02*
X325795000Y-344660000D01*
X322037500Y-319260000D02*
X322037500Y-340902500D01*
%TO.N,Net-(J24-Pin_3)*%
X315635000Y-312420000D02*
X315635000Y-339580000D01*
X315635000Y-339580000D02*
X320715000Y-344660000D01*
X316415000Y-311640000D02*
X315635000Y-312420000D01*
X322037500Y-311640000D02*
X316415000Y-311640000D01*
%TO.N,Net-(J25-Pin_1)*%
X301717500Y-319260000D02*
X301717500Y-343442500D01*
X301717500Y-343442500D02*
X302935000Y-344660000D01*
%TO.N,Net-(J25-Pin_2)*%
X294097500Y-319260000D02*
X294097500Y-340902500D01*
X294097500Y-340902500D02*
X297855000Y-344660000D01*
%TO.N,Net-(J25-Pin_3)*%
X290235000Y-312420000D02*
X290235000Y-342120000D01*
X291015000Y-311640000D02*
X290235000Y-312420000D01*
X294097500Y-311640000D02*
X291015000Y-311640000D01*
X290235000Y-342120000D02*
X292775000Y-344660000D01*
%TO.N,Net-(J26-Pin_1)*%
X276317500Y-343442500D02*
X277535000Y-344660000D01*
X276317500Y-319260000D02*
X276317500Y-343442500D01*
%TO.N,Net-(J26-Pin_2)*%
X268697500Y-340902500D02*
X272455000Y-344660000D01*
X268697500Y-319260000D02*
X268697500Y-340902500D01*
%TO.N,Net-(J26-Pin_3)*%
X265615000Y-311640000D02*
X264835000Y-312420000D01*
X264835000Y-312420000D02*
X264835000Y-342120000D01*
X268697500Y-311640000D02*
X265615000Y-311640000D01*
X264835000Y-342120000D02*
X267375000Y-344660000D01*
%TO.N,Net-(J27-Pin_1)*%
X250917500Y-343442500D02*
X252135000Y-344660000D01*
X250917500Y-319260000D02*
X250917500Y-343442500D01*
%TO.N,Net-(J27-Pin_2)*%
X243297500Y-340902500D02*
X247055000Y-344660000D01*
X243297500Y-319260000D02*
X243297500Y-340902500D01*
%TO.N,Net-(J27-Pin_3)*%
X239435000Y-342120000D02*
X241975000Y-344660000D01*
X239435000Y-312420000D02*
X239435000Y-342120000D01*
X240215000Y-311640000D02*
X239435000Y-312420000D01*
X243297500Y-311640000D02*
X240215000Y-311640000D01*
%TO.N,Net-(J28-Pin_1)*%
X222872500Y-343442500D02*
X224090000Y-344660000D01*
X222872500Y-319260000D02*
X222872500Y-343442500D01*
%TO.N,Net-(J28-Pin_2)*%
X215252500Y-319260000D02*
X215252500Y-340902500D01*
X215252500Y-340902500D02*
X219010000Y-344660000D01*
%TO.N,Net-(J28-Pin_3)*%
X211495000Y-342225000D02*
X213930000Y-344660000D01*
X211495000Y-312420000D02*
X211495000Y-342225000D01*
X212275000Y-311640000D02*
X211495000Y-312420000D01*
X215252500Y-311640000D02*
X212275000Y-311640000D01*
%TO.N,Net-(J29-Pin_1)*%
X197472500Y-343442500D02*
X198690000Y-344660000D01*
X197472500Y-319260000D02*
X197472500Y-343442500D01*
%TO.N,Net-(J29-Pin_2)*%
X189852500Y-340902500D02*
X193610000Y-344660000D01*
X189852500Y-319260000D02*
X189852500Y-340902500D01*
%TO.N,Net-(J29-Pin_3)*%
X186095000Y-312420000D02*
X186095000Y-342225000D01*
X186875000Y-311640000D02*
X186095000Y-312420000D01*
X189852500Y-311640000D02*
X186875000Y-311640000D01*
X186095000Y-342225000D02*
X188530000Y-344660000D01*
%TO.N,Net-(J30-Pin_1)*%
X172177500Y-343442500D02*
X173395000Y-344660000D01*
X172177500Y-319260000D02*
X172177500Y-343442500D01*
%TO.N,Net-(J30-Pin_2)*%
X164557500Y-340902500D02*
X168315000Y-344660000D01*
X164557500Y-319260000D02*
X164557500Y-340902500D01*
%TO.N,Net-(J30-Pin_3)*%
X158155000Y-312420000D02*
X158155000Y-339580000D01*
X158935000Y-311640000D02*
X158155000Y-312420000D01*
X158155000Y-339580000D02*
X163235000Y-344660000D01*
X164557500Y-311640000D02*
X158935000Y-311640000D01*
%TO.N,Net-(J31-Pin_1)*%
X149317500Y-343442500D02*
X150535000Y-344660000D01*
X149317500Y-319260000D02*
X149317500Y-343442500D01*
%TO.N,Net-(J31-Pin_2)*%
X141697500Y-340902500D02*
X145455000Y-344660000D01*
X141697500Y-319260000D02*
X141697500Y-340902500D01*
%TO.N,Net-(J31-Pin_3)*%
X135295000Y-312420000D02*
X135295000Y-339580000D01*
X136075000Y-311640000D02*
X135295000Y-312420000D01*
X135295000Y-339580000D02*
X140375000Y-344660000D01*
X141697500Y-311640000D02*
X136075000Y-311640000D01*
%TO.N,Net-(J32-Pin_1)*%
X120055000Y-343442500D02*
X121272500Y-344660000D01*
X120055000Y-319260000D02*
X120055000Y-343442500D01*
%TO.N,Net-(J32-Pin_2)*%
X112435000Y-340902500D02*
X116192500Y-344660000D01*
X112435000Y-319260000D02*
X112435000Y-340902500D01*
%TO.N,Net-(J32-Pin_3)*%
X109612500Y-343160000D02*
X111112500Y-344660000D01*
X109612500Y-314462500D02*
X109612500Y-343160000D01*
X112435000Y-311640000D02*
X109612500Y-314462500D01*
%TO.N,Net-(D8-A)*%
X186095000Y-152542500D02*
X186095000Y-165100000D01*
X187017500Y-151620000D02*
X186095000Y-152542500D01*
%TO.N,Net-(R7-Pad1)*%
X189557500Y-157965000D02*
X188282500Y-159240000D01*
X189557500Y-151620000D02*
X189557500Y-157965000D01*
%TO.N,Net-(D10-A)*%
X214175000Y-162420000D02*
X211495000Y-165100000D01*
X214175000Y-152180000D02*
X214175000Y-162420000D01*
%TO.N,Net-(R9-Pad1)*%
X216715000Y-158525000D02*
X215440000Y-159800000D01*
X216715000Y-152180000D02*
X216715000Y-158525000D01*
%TO.N,Net-(D12-A)*%
X239492500Y-162502500D02*
X236895000Y-165100000D01*
X239492500Y-151620000D02*
X239492500Y-162502500D01*
%TO.N,Net-(R11-Pad1)*%
X242032500Y-157965000D02*
X240757500Y-159240000D01*
X242032500Y-151620000D02*
X242032500Y-157965000D01*
%TO.N,Net-(D14-A)*%
X267437500Y-162497500D02*
X264835000Y-165100000D01*
X267437500Y-151620000D02*
X267437500Y-162497500D01*
%TO.N,Net-(R13-Pad1)*%
X269977500Y-151620000D02*
X269977500Y-157965000D01*
X269977500Y-157965000D02*
X268702500Y-159240000D01*
%TO.N,Net-(D16-A)*%
X292775000Y-152542500D02*
X292775000Y-165975500D01*
X293697500Y-151620000D02*
X292775000Y-152542500D01*
%TO.N,Net-(R15-Pad1)*%
X296237500Y-157965000D02*
X294962500Y-159240000D01*
X296237500Y-151620000D02*
X296237500Y-157965000D01*
%TO.N,Net-(D18-A)*%
X322095000Y-163720000D02*
X320715000Y-165100000D01*
X322095000Y-151620000D02*
X322095000Y-163720000D01*
%TO.N,Net-(R17-Pad1)*%
X324635000Y-151620000D02*
X324635000Y-157965000D01*
X324635000Y-157965000D02*
X323360000Y-159240000D01*
%TO.N,Net-(D20-A)*%
X346115000Y-153000000D02*
X346115000Y-165100000D01*
X347495000Y-151620000D02*
X346115000Y-153000000D01*
%TO.N,Net-(R19-Pad1)*%
X350035000Y-157965000D02*
X348760000Y-159240000D01*
X350035000Y-151620000D02*
X350035000Y-157965000D01*
%TO.N,Net-(D22-A)*%
X374055000Y-153000000D02*
X374055000Y-165975500D01*
X375435000Y-151620000D02*
X374055000Y-153000000D01*
%TO.N,Net-(R21-Pad1)*%
X377975000Y-158640000D02*
X376595000Y-160020000D01*
X377975000Y-151620000D02*
X377975000Y-158640000D01*
%TO.N,Net-(D24-A)*%
X399852521Y-152602479D02*
X399852521Y-166135500D01*
X400835000Y-151620000D02*
X399852521Y-152602479D01*
%TO.N,Net-(R23-Pad1)*%
X403375000Y-157965000D02*
X402100000Y-159240000D01*
X403375000Y-151620000D02*
X403375000Y-157965000D01*
%TO.N,Net-(R24-Pad2)*%
X407180000Y-136380000D02*
X407180000Y-137655000D01*
X407180000Y-137655000D02*
X400835000Y-144000000D01*
%TO.N,Net-(R22-Pad2)*%
X381780000Y-137655000D02*
X375435000Y-144000000D01*
X381780000Y-136380000D02*
X381780000Y-137655000D01*
%TO.N,Net-(R20-Pad2)*%
X353840000Y-137655000D02*
X347495000Y-144000000D01*
X353840000Y-136380000D02*
X353840000Y-137655000D01*
%TO.N,Net-(Q10-B)*%
X348760000Y-131300000D02*
X343680000Y-136380000D01*
X348760000Y-128760000D02*
X348760000Y-131300000D01*
%TO.N,Net-(R18-Pad2)*%
X328440000Y-137655000D02*
X322095000Y-144000000D01*
X328440000Y-136380000D02*
X328440000Y-137655000D01*
%TO.N,Net-(Q9-B)*%
X323360000Y-128760000D02*
X323360000Y-131300000D01*
X323360000Y-131300000D02*
X318280000Y-136380000D01*
%TO.N,Net-(D15-A)*%
X293692500Y-126960500D02*
X293692500Y-127235000D01*
X289882500Y-123150500D02*
X293692500Y-126960500D01*
X289882500Y-121140000D02*
X289882500Y-123150500D01*
X289882500Y-114737500D02*
X289882500Y-121140000D01*
X291100000Y-113520000D02*
X289882500Y-114737500D01*
%TO.N,Net-(R16-Pad2)*%
X294535000Y-144000000D02*
X293697500Y-144000000D01*
X300042500Y-136380000D02*
X300042500Y-138492500D01*
X300042500Y-138492500D02*
X294535000Y-144000000D01*
%TO.N,Net-(Q8-B)*%
X294962500Y-128760000D02*
X294962500Y-131300000D01*
X294962500Y-131300000D02*
X289882500Y-136380000D01*
%TO.N,Net-(R14-Pad2)*%
X273782500Y-136380000D02*
X273782500Y-137655000D01*
X273782500Y-137655000D02*
X267437500Y-144000000D01*
%TO.N,Net-(Q7-B)*%
X268702500Y-128760000D02*
X268702500Y-131300000D01*
X268702500Y-131300000D02*
X263622500Y-136380000D01*
%TO.N,Net-(Q6-B)*%
X238320500Y-127685000D02*
X236895000Y-129110500D01*
X240337500Y-127685000D02*
X238320500Y-127685000D01*
X240337500Y-128340000D02*
X240337500Y-127685000D01*
X240757500Y-128760000D02*
X240337500Y-128340000D01*
%TO.N,Net-(R12-Pad2)*%
X245837500Y-137655000D02*
X239492500Y-144000000D01*
X245837500Y-136380000D02*
X245837500Y-137655000D01*
%TO.N,Net-(R10-Pad2)*%
X220520000Y-138215000D02*
X214175000Y-144560000D01*
X220520000Y-136940000D02*
X220520000Y-138215000D01*
%TO.N,Net-(Q5-B)*%
X215440000Y-131860000D02*
X210360000Y-136940000D01*
X215440000Y-129320000D02*
X215440000Y-131860000D01*
%TO.N,Net-(R8-Pad2)*%
X193362500Y-137655000D02*
X187017500Y-144000000D01*
X193362500Y-136380000D02*
X193362500Y-137655000D01*
%TO.N,Net-(Q4-B)*%
X187177500Y-127000000D02*
X183555000Y-127000000D01*
X188282500Y-128105000D02*
X187177500Y-127000000D01*
X188282500Y-128760000D02*
X188282500Y-128105000D01*
%TO.N,Net-(D13-A)*%
X267375000Y-121840500D02*
X267375000Y-127235000D01*
X267375000Y-127235000D02*
X267432500Y-127235000D01*
%TO.N,Net-(D21-A)*%
X371620000Y-124355000D02*
X371620000Y-121140000D01*
X371515000Y-124460000D02*
X371620000Y-124355000D01*
%TO.N,Net-(D23-A)*%
X400830000Y-127235000D02*
X400830000Y-126960500D01*
X399455000Y-127235000D02*
X400830000Y-127235000D01*
X399455000Y-121840500D02*
X399455000Y-127235000D01*
%TO.N,Net-(D1-K)*%
X510435000Y-144000000D02*
X506192500Y-144000000D01*
X511215000Y-144780000D02*
X510435000Y-144000000D01*
%TO.N,GNDREF*%
X112435000Y-241500000D02*
X107355000Y-246580000D01*
X112435000Y-198120000D02*
X112435000Y-241500000D01*
X122595000Y-187960000D02*
X122595000Y-196360000D01*
X122595000Y-176450088D02*
X122595000Y-187960000D01*
X122595000Y-187960000D02*
X112435000Y-198120000D01*
X122595000Y-196360000D02*
X123855000Y-197620000D01*
X132345088Y-166700000D02*
X122595000Y-176450088D01*
X132755000Y-166700000D02*
X132345088Y-166700000D01*
X122595000Y-166700000D02*
X131537500Y-166700000D01*
X122595000Y-166700000D02*
X117515000Y-166700000D01*
X132755000Y-166700000D02*
X122595000Y-166700000D01*
X117515000Y-166700000D02*
X108955000Y-166700000D01*
X108955000Y-166700000D02*
X107355000Y-165100000D01*
X107355000Y-165100000D02*
X107167500Y-165100000D01*
X132755000Y-166700000D02*
X131537500Y-166700000D01*
X107167500Y-165100000D02*
X106137500Y-164070000D01*
X186095000Y-166700000D02*
X132755000Y-166700000D01*
X186095000Y-166700000D02*
X182337500Y-166700000D01*
X211335000Y-166700000D02*
X186095000Y-166700000D01*
X211495000Y-166860000D02*
X207737500Y-166860000D01*
X211495000Y-166860000D02*
X211335000Y-166700000D01*
X234195000Y-166860000D02*
X211495000Y-166860000D01*
X234355000Y-166700000D02*
X233137500Y-166700000D01*
X262135000Y-166700000D02*
X234355000Y-166700000D01*
X234355000Y-166700000D02*
X234195000Y-166860000D01*
X262295000Y-166860000D02*
X262135000Y-166700000D01*
X262295000Y-166860000D02*
X261077500Y-166860000D01*
X290075000Y-166860000D02*
X262295000Y-166860000D01*
X290235000Y-166700000D02*
X290075000Y-166860000D01*
X290235000Y-166700000D02*
X289017500Y-166700000D01*
X320555000Y-166700000D02*
X290235000Y-166700000D01*
X320715000Y-166860000D02*
X320555000Y-166700000D01*
X320715000Y-166860000D02*
X316957500Y-166860000D01*
X345955000Y-166860000D02*
X320715000Y-166860000D01*
X346115000Y-166700000D02*
X342357500Y-166700000D01*
X346115000Y-166700000D02*
X345955000Y-166860000D01*
X374055000Y-166700000D02*
X346115000Y-166700000D01*
X374055000Y-166700000D02*
X370297500Y-166700000D01*
X399295000Y-166700000D02*
X374055000Y-166700000D01*
X399455000Y-166860000D02*
X399295000Y-166700000D01*
X399455000Y-166860000D02*
X395697500Y-166860000D01*
X424695000Y-166860000D02*
X399455000Y-166860000D01*
X424855000Y-166700000D02*
X424695000Y-166860000D01*
X424855000Y-166700000D02*
X421097500Y-166700000D01*
X450095000Y-166700000D02*
X424855000Y-166700000D01*
X450255000Y-166860000D02*
X450095000Y-166700000D01*
X450255000Y-166860000D02*
X446497500Y-166860000D01*
X475495000Y-166860000D02*
X450255000Y-166860000D01*
X475655000Y-166700000D02*
X475495000Y-166860000D01*
X475655000Y-166700000D02*
X471897500Y-166700000D01*
X499455000Y-166700000D02*
X475655000Y-166700000D01*
X501055000Y-165100000D02*
X499455000Y-166700000D01*
X501055000Y-165100000D02*
X499295000Y-166860000D01*
X499295000Y-166860000D02*
X497297500Y-166860000D01*
X501055000Y-134049582D02*
X501055000Y-165100000D01*
X505767500Y-129337082D02*
X501055000Y-134049582D01*
X505767500Y-128115000D02*
X505767500Y-129337082D01*
X505337500Y-127685000D02*
X505767500Y-128115000D01*
X505337500Y-127685000D02*
X506187500Y-128535000D01*
X479937500Y-127685000D02*
X505337500Y-127685000D01*
X506187500Y-128535000D02*
X506187500Y-128760000D01*
X480787500Y-128535000D02*
X480787500Y-128760000D01*
X479937500Y-127685000D02*
X480787500Y-128535000D01*
X454537500Y-127685000D02*
X479937500Y-127685000D01*
X455387500Y-128535000D02*
X455387500Y-128760000D01*
X454537500Y-127685000D02*
X455387500Y-128535000D01*
X429137500Y-127685000D02*
X454537500Y-127685000D01*
X429137500Y-127685000D02*
X429987500Y-128535000D01*
X429987500Y-128535000D02*
X429987500Y-128760000D01*
X402520000Y-127685000D02*
X429137500Y-127685000D01*
X402520000Y-127685000D02*
X403370000Y-128535000D01*
X403370000Y-128535000D02*
X403370000Y-128760000D01*
X377120000Y-127685000D02*
X402520000Y-127685000D01*
X377970000Y-128535000D02*
X377970000Y-128760000D01*
X377120000Y-127685000D02*
X377970000Y-128535000D01*
X349180000Y-127685000D02*
X377120000Y-127685000D01*
X349180000Y-127685000D02*
X350030000Y-128535000D01*
X323780000Y-127685000D02*
X349180000Y-127685000D01*
X350030000Y-128535000D02*
X350030000Y-128760000D01*
X323780000Y-127685000D02*
X324630000Y-128535000D01*
X324630000Y-128535000D02*
X324630000Y-128760000D01*
X295382500Y-127685000D02*
X323780000Y-127685000D01*
X295382500Y-127685000D02*
X296232500Y-128535000D01*
X269122500Y-127685000D02*
X295382500Y-127685000D01*
X296232500Y-128535000D02*
X296232500Y-128760000D01*
X269972500Y-128535000D02*
X269972500Y-128760000D01*
X269122500Y-127685000D02*
X269972500Y-128535000D01*
X243830000Y-127685000D02*
X269122500Y-127685000D01*
X241680000Y-129835000D02*
X243830000Y-127685000D01*
X241680000Y-129835000D02*
X242027500Y-129487500D01*
X216870000Y-129835000D02*
X241680000Y-129835000D01*
X216575000Y-129540000D02*
X216870000Y-129835000D01*
X242027500Y-129487500D02*
X242027500Y-128760000D01*
X215792082Y-128245000D02*
X216575000Y-129027918D01*
X188816250Y-129721250D02*
X190292500Y-128245000D01*
X216575000Y-129027918D02*
X216575000Y-129540000D01*
X188816250Y-129721250D02*
X189552500Y-128985000D01*
X190292500Y-128245000D02*
X215792082Y-128245000D01*
X188702500Y-129835000D02*
X188816250Y-129721250D01*
X189552500Y-128985000D02*
X189552500Y-128760000D01*
X163760000Y-129835000D02*
X188702500Y-129835000D01*
X163760000Y-129835000D02*
X164610000Y-128985000D01*
X140005017Y-129835000D02*
X163760000Y-129835000D01*
X139650500Y-129480483D02*
X140005017Y-129835000D01*
X164610000Y-128985000D02*
X164610000Y-128760000D01*
%TD*%
M02*
