%TF.GenerationSoftware,KiCad,Pcbnew,7.0.7*%
%TF.CreationDate,2023-09-03T02:21:54+05:00*%
%TF.ProjectId,MCUPCB,4d435550-4342-42e6-9b69-6361645f7063,rev?*%
%TF.SameCoordinates,Original*%
%TF.FileFunction,Copper,L1,Top*%
%TF.FilePolarity,Positive*%
%FSLAX46Y46*%
G04 Gerber Fmt 4.6, Leading zero omitted, Abs format (unit mm)*
G04 Created by KiCad (PCBNEW 7.0.7) date 2023-09-03 02:21:54*
%MOMM*%
%LPD*%
G01*
G04 APERTURE LIST*
%TA.AperFunction,ComponentPad*%
%ADD10R,2.200000X2.200000*%
%TD*%
%TA.AperFunction,ComponentPad*%
%ADD11O,2.200000X2.200000*%
%TD*%
%TA.AperFunction,ComponentPad*%
%ADD12C,1.800000*%
%TD*%
%TA.AperFunction,ComponentPad*%
%ADD13R,1.800000X1.800000*%
%TD*%
%TA.AperFunction,ComponentPad*%
%ADD14C,2.200000*%
%TD*%
%TA.AperFunction,ComponentPad*%
%ADD15R,1.050000X1.500000*%
%TD*%
%TA.AperFunction,ComponentPad*%
%ADD16O,1.050000X1.500000*%
%TD*%
%TA.AperFunction,ComponentPad*%
%ADD17O,1.600000X1.600000*%
%TD*%
%TA.AperFunction,ComponentPad*%
%ADD18R,1.600000X1.600000*%
%TD*%
%TA.AperFunction,ComponentPad*%
%ADD19C,3.000000*%
%TD*%
%TA.AperFunction,ComponentPad*%
%ADD20R,3.000000X3.000000*%
%TD*%
%TA.AperFunction,ComponentPad*%
%ADD21C,1.600000*%
%TD*%
%TA.AperFunction,SMDPad,CuDef*%
%ADD22R,0.900000X1.500000*%
%TD*%
%TA.AperFunction,SMDPad,CuDef*%
%ADD23R,1.500000X0.900000*%
%TD*%
%TA.AperFunction,HeatsinkPad*%
%ADD24C,0.600000*%
%TD*%
%TA.AperFunction,SMDPad,CuDef*%
%ADD25R,1.050000X1.050000*%
%TD*%
%TA.AperFunction,SMDPad,CuDef*%
%ADD26R,4.200000X4.200000*%
%TD*%
%TA.AperFunction,ComponentPad*%
%ADD27C,2.000000*%
%TD*%
%TA.AperFunction,ComponentPad*%
%ADD28O,2.000000X2.000000*%
%TD*%
%TA.AperFunction,ComponentPad*%
%ADD29O,1.800000X1.800000*%
%TD*%
%TA.AperFunction,ComponentPad*%
%ADD30O,2.020000X5.020000*%
%TD*%
%TA.AperFunction,ComponentPad*%
%ADD31R,2.020000X5.020000*%
%TD*%
%TA.AperFunction,ComponentPad*%
%ADD32R,3.200000X3.200000*%
%TD*%
%TA.AperFunction,ComponentPad*%
%ADD33O,3.200000X3.200000*%
%TD*%
%TA.AperFunction,ComponentPad*%
%ADD34R,1.200000X1.200000*%
%TD*%
%TA.AperFunction,ComponentPad*%
%ADD35C,1.200000*%
%TD*%
%TA.AperFunction,ViaPad*%
%ADD36C,0.800000*%
%TD*%
%TA.AperFunction,Conductor*%
%ADD37C,0.250000*%
%TD*%
G04 APERTURE END LIST*
D10*
%TO.P,D21,1,K*%
%TO.N,Net-(D1-K)*%
X381780000Y-121140000D03*
D11*
%TO.P,D21,2,A*%
%TO.N,Net-(D21-A)*%
X371620000Y-121140000D03*
%TD*%
D12*
%TO.P,K12,A2*%
%TO.N,Net-(D23-A)*%
X398237500Y-113520000D03*
D13*
%TO.P,K12,A1*%
%TO.N,Net-(D1-K)*%
X405857500Y-113520000D03*
D14*
%TO.P,K12,14*%
%TO.N,Net-(J12-Pin_2)*%
X405857500Y-95740000D03*
%TO.P,K12,12*%
%TO.N,Net-(J12-Pin_1)*%
X398237500Y-95740000D03*
%TO.P,K12,11*%
%TO.N,Net-(J12-Pin_3)*%
X405857500Y-103360000D03*
%TD*%
D10*
%TO.P,D15,1,K*%
%TO.N,Net-(D1-K)*%
X300042500Y-121140000D03*
D11*
%TO.P,D15,2,A*%
%TO.N,Net-(D15-A)*%
X289882500Y-121140000D03*
%TD*%
D12*
%TO.P,K14,A2*%
%TO.N,Net-(D27-A)*%
X450255000Y-113520000D03*
D13*
%TO.P,K14,A1*%
%TO.N,Net-(D1-K)*%
X457875000Y-113520000D03*
D14*
%TO.P,K14,14*%
%TO.N,Net-(J14-Pin_2)*%
X457875000Y-95740000D03*
%TO.P,K14,12*%
%TO.N,Net-(J14-Pin_1)*%
X450255000Y-95740000D03*
%TO.P,K14,11*%
%TO.N,Net-(J14-Pin_3)*%
X457875000Y-103360000D03*
%TD*%
D15*
%TO.P,Q8,1,C*%
%TO.N,Net-(D15-A)*%
X293692500Y-128760000D03*
D16*
%TO.P,Q8,2,B*%
%TO.N,Net-(Q8-B)*%
X294962500Y-128760000D03*
%TO.P,Q8,3,E*%
%TO.N,GNDREF*%
X296232500Y-128760000D03*
%TD*%
D12*
%TO.P,K15,A2*%
%TO.N,Net-(D29-A)*%
X475655000Y-113520000D03*
D13*
%TO.P,K15,A1*%
%TO.N,Net-(D1-K)*%
X483275000Y-113520000D03*
D14*
%TO.P,K15,14*%
%TO.N,Net-(J15-Pin_2)*%
X483275000Y-95740000D03*
%TO.P,K15,12*%
%TO.N,Net-(J15-Pin_1)*%
X475655000Y-95740000D03*
%TO.P,K15,11*%
%TO.N,Net-(J15-Pin_3)*%
X483275000Y-103360000D03*
%TD*%
D12*
%TO.P,K16,A2*%
%TO.N,Net-(D31-A)*%
X501055000Y-113520000D03*
D13*
%TO.P,K16,A1*%
%TO.N,Net-(D1-K)*%
X508675000Y-113520000D03*
D14*
%TO.P,K16,14*%
%TO.N,Net-(J16-Pin_2)*%
X508675000Y-95740000D03*
%TO.P,K16,12*%
%TO.N,Net-(J16-Pin_1)*%
X501055000Y-95740000D03*
%TO.P,K16,11*%
%TO.N,Net-(J16-Pin_3)*%
X508675000Y-103360000D03*
%TD*%
D12*
%TO.P,K5,A2*%
%TO.N,Net-(D9-A)*%
X211577500Y-114080000D03*
D13*
%TO.P,K5,A1*%
%TO.N,Net-(D1-K)*%
X219197500Y-114080000D03*
D14*
%TO.P,K5,14*%
%TO.N,Net-(J5-Pin_2)*%
X219197500Y-96300000D03*
%TO.P,K5,12*%
%TO.N,Net-(J5-Pin_1)*%
X211577500Y-96300000D03*
%TO.P,K5,11*%
%TO.N,Net-(J5-Pin_3)*%
X219197500Y-103920000D03*
%TD*%
D17*
%TO.P,U16,4*%
%TO.N,Net-(D1-K)*%
X506192500Y-144000000D03*
%TO.P,U16,3*%
%TO.N,Net-(R32-Pad2)*%
X503652500Y-144000000D03*
%TO.P,U16,2*%
%TO.N,Net-(D32-A)*%
X503652500Y-151620000D03*
D18*
%TO.P,U16,1*%
%TO.N,Net-(R31-Pad1)*%
X506192500Y-151620000D03*
%TD*%
D19*
%TO.P,J14,3,Pin_3*%
%TO.N,Net-(J14-Pin_3)*%
X459197500Y-67800000D03*
%TO.P,J14,2,Pin_2*%
%TO.N,Net-(J14-Pin_2)*%
X454117500Y-67800000D03*
D20*
%TO.P,J14,1,Pin_1*%
%TO.N,Net-(J14-Pin_1)*%
X449037500Y-67800000D03*
%TD*%
D16*
%TO.P,Q10,3,E*%
%TO.N,GNDREF*%
X350030000Y-128760000D03*
%TO.P,Q10,2,B*%
%TO.N,Net-(Q10-B)*%
X348760000Y-128760000D03*
D15*
%TO.P,Q10,1,C*%
%TO.N,Net-(D19-A)*%
X347490000Y-128760000D03*
%TD*%
D14*
%TO.P,K10,11*%
%TO.N,Net-(J10-Pin_3)*%
X352517500Y-103360000D03*
%TO.P,K10,12*%
%TO.N,Net-(J10-Pin_1)*%
X344897500Y-95740000D03*
%TO.P,K10,14*%
%TO.N,Net-(J10-Pin_2)*%
X352517500Y-95740000D03*
D13*
%TO.P,K10,A1*%
%TO.N,Net-(D1-K)*%
X352517500Y-113520000D03*
D12*
%TO.P,K10,A2*%
%TO.N,Net-(D19-A)*%
X344897500Y-113520000D03*
%TD*%
D17*
%TO.P,R23,2*%
%TO.N,SW12*%
X402100000Y-169400000D03*
D21*
%TO.P,R23,1*%
%TO.N,Net-(R23-Pad1)*%
X402100000Y-159240000D03*
%TD*%
D11*
%TO.P,D23,2,A*%
%TO.N,Net-(D23-A)*%
X397020000Y-121140000D03*
D10*
%TO.P,D23,1,K*%
%TO.N,Net-(D1-K)*%
X407180000Y-121140000D03*
%TD*%
D12*
%TO.P,K11,A2*%
%TO.N,Net-(D21-A)*%
X372837500Y-113520000D03*
D13*
%TO.P,K11,A1*%
%TO.N,Net-(D1-K)*%
X380457500Y-113520000D03*
D14*
%TO.P,K11,14*%
%TO.N,Net-(J11-Pin_2)*%
X380457500Y-95740000D03*
%TO.P,K11,12*%
%TO.N,Net-(J11-Pin_1)*%
X372837500Y-95740000D03*
%TO.P,K11,11*%
%TO.N,Net-(J11-Pin_3)*%
X380457500Y-103360000D03*
%TD*%
D12*
%TO.P,D24,2,A*%
%TO.N,Net-(D24-A)*%
X395697500Y-169400000D03*
D13*
%TO.P,D24,1,K*%
%TO.N,GNDREF*%
X395697500Y-166860000D03*
%TD*%
D16*
%TO.P,Q16,3,E*%
%TO.N,GNDREF*%
X506187500Y-128760000D03*
%TO.P,Q16,2,B*%
%TO.N,Net-(Q16-B)*%
X504917500Y-128760000D03*
D15*
%TO.P,Q16,1,C*%
%TO.N,Net-(D31-A)*%
X503647500Y-128760000D03*
%TD*%
D12*
%TO.P,K13,A2*%
%TO.N,Net-(D25-A)*%
X424855000Y-113520000D03*
D13*
%TO.P,K13,A1*%
%TO.N,Net-(D1-K)*%
X432475000Y-113520000D03*
D14*
%TO.P,K13,14*%
%TO.N,Net-(J13-Pin_2)*%
X432475000Y-95740000D03*
%TO.P,K13,12*%
%TO.N,Net-(J13-Pin_1)*%
X424855000Y-95740000D03*
%TO.P,K13,11*%
%TO.N,Net-(J13-Pin_3)*%
X432475000Y-103360000D03*
%TD*%
D12*
%TO.P,D26,2,A*%
%TO.N,Net-(D26-A)*%
X421097500Y-169240000D03*
D13*
%TO.P,D26,1,K*%
%TO.N,GNDREF*%
X421097500Y-166700000D03*
%TD*%
D15*
%TO.P,Q11,1,C*%
%TO.N,Net-(D21-A)*%
X375430000Y-128760000D03*
D16*
%TO.P,Q11,2,B*%
%TO.N,Net-(Q11-B)*%
X376700000Y-128760000D03*
%TO.P,Q11,3,E*%
%TO.N,GNDREF*%
X377970000Y-128760000D03*
%TD*%
D17*
%TO.P,R29,2*%
%TO.N,SW15*%
X479517500Y-169400000D03*
D21*
%TO.P,R29,1*%
%TO.N,Net-(R29-Pad1)*%
X479517500Y-159240000D03*
%TD*%
D16*
%TO.P,Q13,3,E*%
%TO.N,GNDREF*%
X429987500Y-128760000D03*
%TO.P,Q13,2,B*%
%TO.N,Net-(Q13-B)*%
X428717500Y-128760000D03*
D15*
%TO.P,Q13,1,C*%
%TO.N,Net-(D25-A)*%
X427447500Y-128760000D03*
%TD*%
%TO.P,Q6,1,C*%
%TO.N,Net-(D11-A)*%
X239487500Y-128760000D03*
D16*
%TO.P,Q6,2,B*%
%TO.N,Net-(Q6-B)*%
X240757500Y-128760000D03*
%TO.P,Q6,3,E*%
%TO.N,GNDREF*%
X242027500Y-128760000D03*
%TD*%
D15*
%TO.P,Q4,1,C*%
%TO.N,Net-(D7-A)*%
X187012500Y-128760000D03*
D16*
%TO.P,Q4,2,B*%
%TO.N,Net-(Q4-B)*%
X188282500Y-128760000D03*
%TO.P,Q4,3,E*%
%TO.N,GNDREF*%
X189552500Y-128760000D03*
%TD*%
D15*
%TO.P,Q12,1,C*%
%TO.N,Net-(D23-A)*%
X400830000Y-128760000D03*
D16*
%TO.P,Q12,2,B*%
%TO.N,Net-(Q12-B)*%
X402100000Y-128760000D03*
%TO.P,Q12,3,E*%
%TO.N,GNDREF*%
X403370000Y-128760000D03*
%TD*%
D13*
%TO.P,D20,1,K*%
%TO.N,GNDREF*%
X342357500Y-166700000D03*
D12*
%TO.P,D20,2,A*%
%TO.N,Net-(D20-A)*%
X342357500Y-169240000D03*
%TD*%
D15*
%TO.P,Q3,1,C*%
%TO.N,Net-(D5-A)*%
X162070000Y-128760000D03*
D16*
%TO.P,Q3,2,B*%
%TO.N,Net-(Q3-B)*%
X163340000Y-128760000D03*
%TO.P,Q3,3,E*%
%TO.N,GNDREF*%
X164610000Y-128760000D03*
%TD*%
D17*
%TO.P,U9,4*%
%TO.N,Net-(D1-K)*%
X324635000Y-144000000D03*
%TO.P,U9,3*%
%TO.N,Net-(R18-Pad2)*%
X322095000Y-144000000D03*
%TO.P,U9,2*%
%TO.N,Net-(D18-A)*%
X322095000Y-151620000D03*
D18*
%TO.P,U9,1*%
%TO.N,Net-(R17-Pad1)*%
X324635000Y-151620000D03*
%TD*%
D16*
%TO.P,Q1,3,E*%
%TO.N,GNDREF*%
X113810000Y-128760000D03*
%TO.P,Q1,2,B*%
%TO.N,Net-(Q1-B)*%
X112540000Y-128760000D03*
D15*
%TO.P,Q1,1,C*%
%TO.N,Net-(D1-A)*%
X111270000Y-128760000D03*
%TD*%
%TO.P,Q5,1,C*%
%TO.N,Net-(D9-A)*%
X214170000Y-129320000D03*
D16*
%TO.P,Q5,2,B*%
%TO.N,Net-(Q5-B)*%
X215440000Y-129320000D03*
%TO.P,Q5,3,E*%
%TO.N,GNDREF*%
X216710000Y-129320000D03*
%TD*%
%TO.P,Q2,3,E*%
%TO.N,GNDREF*%
X139210000Y-128760000D03*
%TO.P,Q2,2,B*%
%TO.N,Net-(Q2-B)*%
X137940000Y-128760000D03*
D15*
%TO.P,Q2,1,C*%
%TO.N,Net-(D3-A)*%
X136670000Y-128760000D03*
%TD*%
D17*
%TO.P,R12,2*%
%TO.N,Net-(R12-Pad2)*%
X245837500Y-136380000D03*
D21*
%TO.P,R12,1*%
%TO.N,Net-(Q6-B)*%
X235677500Y-136380000D03*
%TD*%
D15*
%TO.P,Q9,1,C*%
%TO.N,Net-(D17-A)*%
X322090000Y-128760000D03*
D16*
%TO.P,Q9,2,B*%
%TO.N,Net-(Q9-B)*%
X323360000Y-128760000D03*
%TO.P,Q9,3,E*%
%TO.N,GNDREF*%
X324630000Y-128760000D03*
%TD*%
%TO.P,Q15,3,E*%
%TO.N,GNDREF*%
X480787500Y-128760000D03*
%TO.P,Q15,2,B*%
%TO.N,Net-(Q15-B)*%
X479517500Y-128760000D03*
D15*
%TO.P,Q15,1,C*%
%TO.N,Net-(D29-A)*%
X478247500Y-128760000D03*
%TD*%
D17*
%TO.P,R10,2*%
%TO.N,Net-(R10-Pad2)*%
X220520000Y-136940000D03*
D21*
%TO.P,R10,1*%
%TO.N,Net-(Q5-B)*%
X210360000Y-136940000D03*
%TD*%
D13*
%TO.P,D16,1,K*%
%TO.N,GNDREF*%
X289017500Y-166700000D03*
D12*
%TO.P,D16,2,A*%
%TO.N,Net-(D16-A)*%
X289017500Y-169240000D03*
%TD*%
D16*
%TO.P,Q7,3,E*%
%TO.N,GNDREF*%
X269972500Y-128760000D03*
%TO.P,Q7,2,B*%
%TO.N,Net-(Q7-B)*%
X268702500Y-128760000D03*
D15*
%TO.P,Q7,1,C*%
%TO.N,Net-(D13-A)*%
X267432500Y-128760000D03*
%TD*%
%TO.P,Q14,1,C*%
%TO.N,Net-(D27-A)*%
X452847500Y-128760000D03*
D16*
%TO.P,Q14,2,B*%
%TO.N,Net-(Q14-B)*%
X454117500Y-128760000D03*
%TO.P,Q14,3,E*%
%TO.N,GNDREF*%
X455387500Y-128760000D03*
%TD*%
D11*
%TO.P,D11,2,A*%
%TO.N,Net-(D11-A)*%
X235677500Y-121140000D03*
D10*
%TO.P,D11,1,K*%
%TO.N,Net-(D1-K)*%
X245837500Y-121140000D03*
%TD*%
D17*
%TO.P,R2,2*%
%TO.N,Net-(R2-Pad2)*%
X117620000Y-136380000D03*
D21*
%TO.P,R2,1*%
%TO.N,Net-(Q1-B)*%
X107460000Y-136380000D03*
%TD*%
D17*
%TO.P,R3,2*%
%TO.N,SW2*%
X137940000Y-169400000D03*
D21*
%TO.P,R3,1*%
%TO.N,Net-(R3-Pad1)*%
X137940000Y-159240000D03*
%TD*%
D17*
%TO.P,R4,2*%
%TO.N,Net-(R4-Pad2)*%
X143020000Y-136380000D03*
D21*
%TO.P,R4,1*%
%TO.N,Net-(Q2-B)*%
X132860000Y-136380000D03*
%TD*%
D13*
%TO.P,D32,1,K*%
%TO.N,GNDREF*%
X497297500Y-166860000D03*
D12*
%TO.P,D32,2,A*%
%TO.N,Net-(D32-A)*%
X497297500Y-169400000D03*
%TD*%
D17*
%TO.P,R5,2*%
%TO.N,SW3*%
X163340000Y-169400000D03*
D21*
%TO.P,R5,1*%
%TO.N,Net-(R5-Pad1)*%
X163340000Y-159240000D03*
%TD*%
D11*
%TO.P,D9,2,A*%
%TO.N,Net-(D9-A)*%
X210360000Y-121700000D03*
D10*
%TO.P,D9,1,K*%
%TO.N,Net-(D1-K)*%
X220520000Y-121700000D03*
%TD*%
D17*
%TO.P,R6,2*%
%TO.N,Net-(R6-Pad2)*%
X168420000Y-136380000D03*
D21*
%TO.P,R6,1*%
%TO.N,Net-(Q3-B)*%
X158260000Y-136380000D03*
%TD*%
D17*
%TO.P,R7,2*%
%TO.N,SW4*%
X188282500Y-169400000D03*
D21*
%TO.P,R7,1*%
%TO.N,Net-(R7-Pad1)*%
X188282500Y-159240000D03*
%TD*%
D17*
%TO.P,R8,2*%
%TO.N,Net-(R8-Pad2)*%
X193362500Y-136380000D03*
D21*
%TO.P,R8,1*%
%TO.N,Net-(Q4-B)*%
X183202500Y-136380000D03*
%TD*%
D19*
%TO.P,J15,3,Pin_3*%
%TO.N,Net-(J15-Pin_3)*%
X484597500Y-67800000D03*
%TO.P,J15,2,Pin_2*%
%TO.N,Net-(J15-Pin_2)*%
X479517500Y-67800000D03*
D20*
%TO.P,J15,1,Pin_1*%
%TO.N,Net-(J15-Pin_1)*%
X474437500Y-67800000D03*
%TD*%
D13*
%TO.P,D8,1,K*%
%TO.N,GNDREF*%
X182337500Y-166700000D03*
D12*
%TO.P,D8,2,A*%
%TO.N,Net-(D8-A)*%
X182337500Y-169240000D03*
%TD*%
D11*
%TO.P,D13,2,A*%
%TO.N,Net-(D13-A)*%
X263622500Y-121140000D03*
D10*
%TO.P,D13,1,K*%
%TO.N,Net-(D1-K)*%
X273782500Y-121140000D03*
%TD*%
D12*
%TO.P,D18,2,A*%
%TO.N,Net-(D18-A)*%
X316957500Y-169400000D03*
D13*
%TO.P,D18,1,K*%
%TO.N,GNDREF*%
X316957500Y-166860000D03*
%TD*%
D11*
%TO.P,D3,2,A*%
%TO.N,Net-(D3-A)*%
X132860000Y-121140000D03*
D10*
%TO.P,D3,1,K*%
%TO.N,Net-(D1-K)*%
X143020000Y-121140000D03*
%TD*%
D12*
%TO.P,D4,2,A*%
%TO.N,Net-(D4-A)*%
X131537500Y-169240000D03*
D13*
%TO.P,D4,1,K*%
%TO.N,GNDREF*%
X131537500Y-166700000D03*
%TD*%
D10*
%TO.P,D17,1,K*%
%TO.N,Net-(D1-K)*%
X328440000Y-121140000D03*
D11*
%TO.P,D17,2,A*%
%TO.N,Net-(D17-A)*%
X318280000Y-121140000D03*
%TD*%
%TO.P,D1,2,A*%
%TO.N,Net-(D1-A)*%
X107460000Y-121140000D03*
D10*
%TO.P,D1,1,K*%
%TO.N,Net-(D1-K)*%
X117620000Y-121140000D03*
%TD*%
D12*
%TO.P,D6,2,A*%
%TO.N,Net-(D6-A)*%
X156937500Y-169240000D03*
D13*
%TO.P,D6,1,K*%
%TO.N,GNDREF*%
X156937500Y-166700000D03*
%TD*%
D11*
%TO.P,D7,2,A*%
%TO.N,Net-(D7-A)*%
X183202500Y-121140000D03*
D10*
%TO.P,D7,1,K*%
%TO.N,Net-(D1-K)*%
X193362500Y-121140000D03*
%TD*%
D11*
%TO.P,D5,2,A*%
%TO.N,Net-(D5-A)*%
X158260000Y-121140000D03*
D10*
%TO.P,D5,1,K*%
%TO.N,Net-(D1-K)*%
X168420000Y-121140000D03*
%TD*%
D12*
%TO.P,D10,2,A*%
%TO.N,Net-(D10-A)*%
X207737500Y-169400000D03*
D13*
%TO.P,D10,1,K*%
%TO.N,GNDREF*%
X207737500Y-166860000D03*
%TD*%
D12*
%TO.P,D12,2,A*%
%TO.N,Net-(D12-A)*%
X233137500Y-169240000D03*
D13*
%TO.P,D12,1,K*%
%TO.N,GNDREF*%
X233137500Y-166700000D03*
%TD*%
D11*
%TO.P,D19,2,A*%
%TO.N,Net-(D19-A)*%
X343680000Y-121140000D03*
D10*
%TO.P,D19,1,K*%
%TO.N,Net-(D1-K)*%
X353840000Y-121140000D03*
%TD*%
D13*
%TO.P,D14,1,K*%
%TO.N,GNDREF*%
X261077500Y-166860000D03*
D12*
%TO.P,D14,2,A*%
%TO.N,Net-(D14-A)*%
X261077500Y-169400000D03*
%TD*%
D13*
%TO.P,D22,1,K*%
%TO.N,GNDREF*%
X370297500Y-166700000D03*
D12*
%TO.P,D22,2,A*%
%TO.N,Net-(D22-A)*%
X370297500Y-169240000D03*
%TD*%
D19*
%TO.P,J2,3,Pin_3*%
%TO.N,Net-(J2-Pin_3)*%
X143020000Y-67800000D03*
%TO.P,J2,2,Pin_2*%
%TO.N,Net-(J2-Pin_2)*%
X137940000Y-67800000D03*
D20*
%TO.P,J2,1,Pin_1*%
%TO.N,Net-(J2-Pin_1)*%
X132860000Y-67800000D03*
%TD*%
D11*
%TO.P,D31,2,A*%
%TO.N,Net-(D31-A)*%
X499837500Y-121140000D03*
D10*
%TO.P,D31,1,K*%
%TO.N,Net-(D1-K)*%
X509997500Y-121140000D03*
%TD*%
D12*
%TO.P,D28,2,A*%
%TO.N,Net-(D28-A)*%
X446497500Y-169400000D03*
D13*
%TO.P,D28,1,K*%
%TO.N,GNDREF*%
X446497500Y-166860000D03*
%TD*%
D11*
%TO.P,D29,2,A*%
%TO.N,Net-(D29-A)*%
X474437500Y-121140000D03*
D10*
%TO.P,D29,1,K*%
%TO.N,Net-(D1-K)*%
X484597500Y-121140000D03*
%TD*%
D11*
%TO.P,D27,2,A*%
%TO.N,Net-(D27-A)*%
X449037500Y-121140000D03*
D10*
%TO.P,D27,1,K*%
%TO.N,Net-(D1-K)*%
X459197500Y-121140000D03*
%TD*%
D12*
%TO.P,D30,2,A*%
%TO.N,Net-(D30-A)*%
X471897500Y-169240000D03*
D13*
%TO.P,D30,1,K*%
%TO.N,GNDREF*%
X471897500Y-166700000D03*
%TD*%
D10*
%TO.P,D25,1,K*%
%TO.N,Net-(D1-K)*%
X433797500Y-121140000D03*
D11*
%TO.P,D25,2,A*%
%TO.N,Net-(D25-A)*%
X423637500Y-121140000D03*
%TD*%
D19*
%TO.P,J12,3,Pin_3*%
%TO.N,Net-(J12-Pin_3)*%
X407180000Y-67800000D03*
%TO.P,J12,2,Pin_2*%
%TO.N,Net-(J12-Pin_2)*%
X402100000Y-67800000D03*
D20*
%TO.P,J12,1,Pin_1*%
%TO.N,Net-(J12-Pin_1)*%
X397020000Y-67800000D03*
%TD*%
D19*
%TO.P,J9,3,Pin_3*%
%TO.N,Net-(J9-Pin_3)*%
X328440000Y-67800000D03*
%TO.P,J9,2,Pin_2*%
%TO.N,Net-(J9-Pin_2)*%
X323360000Y-67800000D03*
D20*
%TO.P,J9,1,Pin_1*%
%TO.N,Net-(J9-Pin_1)*%
X318280000Y-67800000D03*
%TD*%
%TO.P,J7,1,Pin_1*%
%TO.N,Net-(J7-Pin_1)*%
X263622500Y-67800000D03*
D19*
%TO.P,J7,2,Pin_2*%
%TO.N,Net-(J7-Pin_2)*%
X268702500Y-67800000D03*
%TO.P,J7,3,Pin_3*%
%TO.N,Net-(J7-Pin_3)*%
X273782500Y-67800000D03*
%TD*%
%TO.P,J1,3,Pin_3*%
%TO.N,Net-(J1-Pin_3)*%
X117620000Y-67800000D03*
%TO.P,J1,2,Pin_2*%
%TO.N,Net-(J1-Pin_2)*%
X112540000Y-67800000D03*
D20*
%TO.P,J1,1,Pin_1*%
%TO.N,Net-(J1-Pin_1)*%
X107460000Y-67800000D03*
%TD*%
%TO.P,J3,1,Pin_1*%
%TO.N,Net-(J3-Pin_1)*%
X158260000Y-67800000D03*
D19*
%TO.P,J3,2,Pin_2*%
%TO.N,Net-(J3-Pin_2)*%
X163340000Y-67800000D03*
%TO.P,J3,3,Pin_3*%
%TO.N,Net-(J3-Pin_3)*%
X168420000Y-67800000D03*
%TD*%
%TO.P,J4,3,Pin_3*%
%TO.N,Net-(J4-Pin_3)*%
X193362500Y-67800000D03*
%TO.P,J4,2,Pin_2*%
%TO.N,Net-(J4-Pin_2)*%
X188282500Y-67800000D03*
D20*
%TO.P,J4,1,Pin_1*%
%TO.N,Net-(J4-Pin_1)*%
X183202500Y-67800000D03*
%TD*%
D19*
%TO.P,J11,3,Pin_3*%
%TO.N,Net-(J11-Pin_3)*%
X381780000Y-67800000D03*
%TO.P,J11,2,Pin_2*%
%TO.N,Net-(J11-Pin_2)*%
X376700000Y-67800000D03*
D20*
%TO.P,J11,1,Pin_1*%
%TO.N,Net-(J11-Pin_1)*%
X371620000Y-67800000D03*
%TD*%
D19*
%TO.P,J8,3,Pin_3*%
%TO.N,Net-(J8-Pin_3)*%
X300042500Y-67800000D03*
%TO.P,J8,2,Pin_2*%
%TO.N,Net-(J8-Pin_2)*%
X294962500Y-67800000D03*
D20*
%TO.P,J8,1,Pin_1*%
%TO.N,Net-(J8-Pin_1)*%
X289882500Y-67800000D03*
%TD*%
D19*
%TO.P,J6,3,Pin_3*%
%TO.N,Net-(J6-Pin_3)*%
X245837500Y-67800000D03*
%TO.P,J6,2,Pin_2*%
%TO.N,Net-(J6-Pin_2)*%
X240757500Y-67800000D03*
D20*
%TO.P,J6,1,Pin_1*%
%TO.N,Net-(J6-Pin_1)*%
X235677500Y-67800000D03*
%TD*%
%TO.P,J10,1,Pin_1*%
%TO.N,Net-(J10-Pin_1)*%
X343680000Y-67800000D03*
D19*
%TO.P,J10,2,Pin_2*%
%TO.N,Net-(J10-Pin_2)*%
X348760000Y-67800000D03*
%TO.P,J10,3,Pin_3*%
%TO.N,Net-(J10-Pin_3)*%
X353840000Y-67800000D03*
%TD*%
%TO.P,J5,3,Pin_3*%
%TO.N,Net-(J5-Pin_3)*%
X220520000Y-68360000D03*
%TO.P,J5,2,Pin_2*%
%TO.N,Net-(J5-Pin_2)*%
X215440000Y-68360000D03*
D20*
%TO.P,J5,1,Pin_1*%
%TO.N,Net-(J5-Pin_1)*%
X210360000Y-68360000D03*
%TD*%
%TO.P,J13,1,Pin_1*%
%TO.N,Net-(J13-Pin_1)*%
X423637500Y-67800000D03*
D19*
%TO.P,J13,2,Pin_2*%
%TO.N,Net-(J13-Pin_2)*%
X428717500Y-67800000D03*
%TO.P,J13,3,Pin_3*%
%TO.N,Net-(J13-Pin_3)*%
X433797500Y-67800000D03*
%TD*%
%TO.P,J16,3,Pin_3*%
%TO.N,Net-(J16-Pin_3)*%
X509997500Y-67800000D03*
%TO.P,J16,2,Pin_2*%
%TO.N,Net-(J16-Pin_2)*%
X504917500Y-67800000D03*
D20*
%TO.P,J16,1,Pin_1*%
%TO.N,Net-(J16-Pin_1)*%
X499837500Y-67800000D03*
%TD*%
D14*
%TO.P,K7,11*%
%TO.N,Net-(J7-Pin_3)*%
X272460000Y-103360000D03*
%TO.P,K7,12*%
%TO.N,Net-(J7-Pin_1)*%
X264840000Y-95740000D03*
%TO.P,K7,14*%
%TO.N,Net-(J7-Pin_2)*%
X272460000Y-95740000D03*
D13*
%TO.P,K7,A1*%
%TO.N,Net-(D1-K)*%
X272460000Y-113520000D03*
D12*
%TO.P,K7,A2*%
%TO.N,Net-(D13-A)*%
X264840000Y-113520000D03*
%TD*%
%TO.P,K8,A2*%
%TO.N,Net-(D15-A)*%
X291100000Y-113520000D03*
D13*
%TO.P,K8,A1*%
%TO.N,Net-(D1-K)*%
X298720000Y-113520000D03*
D14*
%TO.P,K8,14*%
%TO.N,Net-(J8-Pin_2)*%
X298720000Y-95740000D03*
%TO.P,K8,12*%
%TO.N,Net-(J8-Pin_1)*%
X291100000Y-95740000D03*
%TO.P,K8,11*%
%TO.N,Net-(J8-Pin_3)*%
X298720000Y-103360000D03*
%TD*%
D12*
%TO.P,K9,A2*%
%TO.N,Net-(D17-A)*%
X319497500Y-113520000D03*
D13*
%TO.P,K9,A1*%
%TO.N,Net-(D1-K)*%
X327117500Y-113520000D03*
D14*
%TO.P,K9,14*%
%TO.N,Net-(J9-Pin_2)*%
X327117500Y-95740000D03*
%TO.P,K9,12*%
%TO.N,Net-(J9-Pin_1)*%
X319497500Y-95740000D03*
%TO.P,K9,11*%
%TO.N,Net-(J9-Pin_3)*%
X327117500Y-103360000D03*
%TD*%
%TO.P,K1,11*%
%TO.N,Net-(J1-Pin_3)*%
X116297500Y-103360000D03*
%TO.P,K1,12*%
%TO.N,Net-(J1-Pin_1)*%
X108677500Y-95740000D03*
%TO.P,K1,14*%
%TO.N,Net-(J1-Pin_2)*%
X116297500Y-95740000D03*
D13*
%TO.P,K1,A1*%
%TO.N,Net-(D1-K)*%
X116297500Y-113520000D03*
D12*
%TO.P,K1,A2*%
%TO.N,Net-(D1-A)*%
X108677500Y-113520000D03*
%TD*%
%TO.P,K4,A2*%
%TO.N,Net-(D7-A)*%
X184420000Y-113520000D03*
D13*
%TO.P,K4,A1*%
%TO.N,Net-(D1-K)*%
X192040000Y-113520000D03*
D14*
%TO.P,K4,14*%
%TO.N,Net-(J4-Pin_2)*%
X192040000Y-95740000D03*
%TO.P,K4,12*%
%TO.N,Net-(J4-Pin_1)*%
X184420000Y-95740000D03*
%TO.P,K4,11*%
%TO.N,Net-(J4-Pin_3)*%
X192040000Y-103360000D03*
%TD*%
D12*
%TO.P,K3,A2*%
%TO.N,Net-(D5-A)*%
X159477500Y-113520000D03*
D13*
%TO.P,K3,A1*%
%TO.N,Net-(D1-K)*%
X167097500Y-113520000D03*
D14*
%TO.P,K3,14*%
%TO.N,Net-(J3-Pin_2)*%
X167097500Y-95740000D03*
%TO.P,K3,12*%
%TO.N,Net-(J3-Pin_1)*%
X159477500Y-95740000D03*
%TO.P,K3,11*%
%TO.N,Net-(J3-Pin_3)*%
X167097500Y-103360000D03*
%TD*%
D12*
%TO.P,K6,A2*%
%TO.N,Net-(D11-A)*%
X236895000Y-113520000D03*
D13*
%TO.P,K6,A1*%
%TO.N,Net-(D1-K)*%
X244515000Y-113520000D03*
D14*
%TO.P,K6,14*%
%TO.N,Net-(J6-Pin_2)*%
X244515000Y-95740000D03*
%TO.P,K6,12*%
%TO.N,Net-(J6-Pin_1)*%
X236895000Y-95740000D03*
%TO.P,K6,11*%
%TO.N,Net-(J6-Pin_3)*%
X244515000Y-103360000D03*
%TD*%
D12*
%TO.P,K2,A2*%
%TO.N,Net-(D3-A)*%
X134077500Y-113520000D03*
D13*
%TO.P,K2,A1*%
%TO.N,Net-(D1-K)*%
X141697500Y-113520000D03*
D14*
%TO.P,K2,14*%
%TO.N,Net-(J2-Pin_2)*%
X141697500Y-95740000D03*
%TO.P,K2,12*%
%TO.N,Net-(J2-Pin_1)*%
X134077500Y-95740000D03*
%TO.P,K2,11*%
%TO.N,Net-(J2-Pin_3)*%
X141697500Y-103360000D03*
%TD*%
D17*
%TO.P,R1,2*%
%TO.N,SW1*%
X112540000Y-169150000D03*
D21*
%TO.P,R1,1*%
%TO.N,Net-(R1-Pad1)*%
X112540000Y-158990000D03*
%TD*%
D12*
%TO.P,D2,2,A*%
%TO.N,Net-(D2-A)*%
X106137500Y-166610000D03*
D13*
%TO.P,D2,1,K*%
%TO.N,GNDREF*%
X106137500Y-164070000D03*
%TD*%
D21*
%TO.P,R13,1*%
%TO.N,Net-(R13-Pad1)*%
X268702500Y-159240000D03*
D17*
%TO.P,R13,2*%
%TO.N,SW7*%
X268702500Y-169400000D03*
%TD*%
D21*
%TO.P,R25,1*%
%TO.N,Net-(R25-Pad1)*%
X428717500Y-159240000D03*
D17*
%TO.P,R25,2*%
%TO.N,SW13*%
X428717500Y-169400000D03*
%TD*%
%TO.P,R16,2*%
%TO.N,Net-(R16-Pad2)*%
X300042500Y-136380000D03*
D21*
%TO.P,R16,1*%
%TO.N,Net-(Q8-B)*%
X289882500Y-136380000D03*
%TD*%
%TO.P,R20,1*%
%TO.N,Net-(Q10-B)*%
X343680000Y-136380000D03*
D17*
%TO.P,R20,2*%
%TO.N,Net-(R20-Pad2)*%
X353840000Y-136380000D03*
%TD*%
%TO.P,R32,2*%
%TO.N,Net-(R32-Pad2)*%
X509997500Y-136380000D03*
D21*
%TO.P,R32,1*%
%TO.N,Net-(Q16-B)*%
X499837500Y-136380000D03*
%TD*%
D17*
%TO.P,R9,2*%
%TO.N,SW5*%
X215440000Y-169960000D03*
D21*
%TO.P,R9,1*%
%TO.N,Net-(R9-Pad1)*%
X215440000Y-159800000D03*
%TD*%
D17*
%TO.P,R22,2*%
%TO.N,Net-(R22-Pad2)*%
X381780000Y-136380000D03*
D21*
%TO.P,R22,1*%
%TO.N,Net-(Q11-B)*%
X371620000Y-136380000D03*
%TD*%
D17*
%TO.P,R11,2*%
%TO.N,SW6*%
X240757500Y-169400000D03*
D21*
%TO.P,R11,1*%
%TO.N,Net-(R11-Pad1)*%
X240757500Y-159240000D03*
%TD*%
D17*
%TO.P,R21,2*%
%TO.N,SW11*%
X376700000Y-169400000D03*
D21*
%TO.P,R21,1*%
%TO.N,Net-(R21-Pad1)*%
X376700000Y-159240000D03*
%TD*%
D17*
%TO.P,R28,2*%
%TO.N,Net-(R28-Pad2)*%
X459197500Y-136380000D03*
D21*
%TO.P,R28,1*%
%TO.N,Net-(Q14-B)*%
X449037500Y-136380000D03*
%TD*%
D17*
%TO.P,R31,2*%
%TO.N,SW16*%
X504917500Y-169400000D03*
D21*
%TO.P,R31,1*%
%TO.N,Net-(R31-Pad1)*%
X504917500Y-159240000D03*
%TD*%
D17*
%TO.P,R15,2*%
%TO.N,SW8*%
X294962500Y-169400000D03*
D21*
%TO.P,R15,1*%
%TO.N,Net-(R15-Pad1)*%
X294962500Y-159240000D03*
%TD*%
D17*
%TO.P,R18,2*%
%TO.N,Net-(R18-Pad2)*%
X328440000Y-136380000D03*
D21*
%TO.P,R18,1*%
%TO.N,Net-(Q9-B)*%
X318280000Y-136380000D03*
%TD*%
%TO.P,R14,1*%
%TO.N,Net-(Q7-B)*%
X263622500Y-136380000D03*
D17*
%TO.P,R14,2*%
%TO.N,Net-(R14-Pad2)*%
X273782500Y-136380000D03*
%TD*%
%TO.P,R17,2*%
%TO.N,SW9*%
X323360000Y-169400000D03*
D21*
%TO.P,R17,1*%
%TO.N,Net-(R17-Pad1)*%
X323360000Y-159240000D03*
%TD*%
%TO.P,R19,1*%
%TO.N,Net-(R19-Pad1)*%
X348760000Y-159240000D03*
D17*
%TO.P,R19,2*%
%TO.N,SW10*%
X348760000Y-169400000D03*
%TD*%
%TO.P,R24,2*%
%TO.N,Net-(R24-Pad2)*%
X407180000Y-136380000D03*
D21*
%TO.P,R24,1*%
%TO.N,Net-(Q12-B)*%
X397020000Y-136380000D03*
%TD*%
%TO.P,R26,1*%
%TO.N,Net-(Q13-B)*%
X423637500Y-136380000D03*
D17*
%TO.P,R26,2*%
%TO.N,Net-(R26-Pad2)*%
X433797500Y-136380000D03*
%TD*%
%TO.P,R27,2*%
%TO.N,SW14*%
X454117500Y-169400000D03*
D21*
%TO.P,R27,1*%
%TO.N,Net-(R27-Pad1)*%
X454117500Y-159240000D03*
%TD*%
D17*
%TO.P,R30,2*%
%TO.N,Net-(R30-Pad2)*%
X484597500Y-136380000D03*
D21*
%TO.P,R30,1*%
%TO.N,Net-(Q15-B)*%
X474437500Y-136380000D03*
%TD*%
D17*
%TO.P,U1,4*%
%TO.N,Net-(D1-K)*%
X113815000Y-144000000D03*
%TO.P,U1,3*%
%TO.N,Net-(R2-Pad2)*%
X111275000Y-144000000D03*
%TO.P,U1,2*%
%TO.N,Net-(D2-A)*%
X111275000Y-151620000D03*
D18*
%TO.P,U1,1*%
%TO.N,Net-(R1-Pad1)*%
X113815000Y-151620000D03*
%TD*%
D17*
%TO.P,U3,4*%
%TO.N,Net-(D1-K)*%
X164615000Y-144000000D03*
%TO.P,U3,3*%
%TO.N,Net-(R6-Pad2)*%
X162075000Y-144000000D03*
%TO.P,U3,2*%
%TO.N,Net-(D6-A)*%
X162075000Y-151620000D03*
D18*
%TO.P,U3,1*%
%TO.N,Net-(R5-Pad1)*%
X164615000Y-151620000D03*
%TD*%
D17*
%TO.P,U4,4*%
%TO.N,Net-(D1-K)*%
X189557500Y-144000000D03*
%TO.P,U4,3*%
%TO.N,Net-(R8-Pad2)*%
X187017500Y-144000000D03*
%TO.P,U4,2*%
%TO.N,Net-(D8-A)*%
X187017500Y-151620000D03*
D18*
%TO.P,U4,1*%
%TO.N,Net-(R7-Pad1)*%
X189557500Y-151620000D03*
%TD*%
D17*
%TO.P,U5,4*%
%TO.N,Net-(D1-K)*%
X216715000Y-144560000D03*
%TO.P,U5,3*%
%TO.N,Net-(R10-Pad2)*%
X214175000Y-144560000D03*
%TO.P,U5,2*%
%TO.N,Net-(D10-A)*%
X214175000Y-152180000D03*
D18*
%TO.P,U5,1*%
%TO.N,Net-(R9-Pad1)*%
X216715000Y-152180000D03*
%TD*%
D17*
%TO.P,U6,4*%
%TO.N,Net-(D1-K)*%
X242032500Y-144000000D03*
%TO.P,U6,3*%
%TO.N,Net-(R12-Pad2)*%
X239492500Y-144000000D03*
%TO.P,U6,2*%
%TO.N,Net-(D12-A)*%
X239492500Y-151620000D03*
D18*
%TO.P,U6,1*%
%TO.N,Net-(R11-Pad1)*%
X242032500Y-151620000D03*
%TD*%
D17*
%TO.P,U2,4*%
%TO.N,Net-(D1-K)*%
X139215000Y-144000000D03*
%TO.P,U2,3*%
%TO.N,Net-(R4-Pad2)*%
X136675000Y-144000000D03*
%TO.P,U2,2*%
%TO.N,Net-(D4-A)*%
X136675000Y-151620000D03*
D18*
%TO.P,U2,1*%
%TO.N,Net-(R3-Pad1)*%
X139215000Y-151620000D03*
%TD*%
D17*
%TO.P,U8,4*%
%TO.N,Net-(D1-K)*%
X296237500Y-144000000D03*
%TO.P,U8,3*%
%TO.N,Net-(R16-Pad2)*%
X293697500Y-144000000D03*
%TO.P,U8,2*%
%TO.N,Net-(D16-A)*%
X293697500Y-151620000D03*
D18*
%TO.P,U8,1*%
%TO.N,Net-(R15-Pad1)*%
X296237500Y-151620000D03*
%TD*%
%TO.P,U7,1*%
%TO.N,Net-(R13-Pad1)*%
X269977500Y-151620000D03*
D17*
%TO.P,U7,2*%
%TO.N,Net-(D14-A)*%
X267437500Y-151620000D03*
%TO.P,U7,3*%
%TO.N,Net-(R14-Pad2)*%
X267437500Y-144000000D03*
%TO.P,U7,4*%
%TO.N,Net-(D1-K)*%
X269977500Y-144000000D03*
%TD*%
%TO.P,U11,4*%
%TO.N,Net-(D1-K)*%
X377975000Y-144000000D03*
%TO.P,U11,3*%
%TO.N,Net-(R22-Pad2)*%
X375435000Y-144000000D03*
%TO.P,U11,2*%
%TO.N,Net-(D22-A)*%
X375435000Y-151620000D03*
D18*
%TO.P,U11,1*%
%TO.N,Net-(R21-Pad1)*%
X377975000Y-151620000D03*
%TD*%
D17*
%TO.P,U12,4*%
%TO.N,Net-(D1-K)*%
X403375000Y-144000000D03*
%TO.P,U12,3*%
%TO.N,Net-(R24-Pad2)*%
X400835000Y-144000000D03*
%TO.P,U12,2*%
%TO.N,Net-(D24-A)*%
X400835000Y-151620000D03*
D18*
%TO.P,U12,1*%
%TO.N,Net-(R23-Pad1)*%
X403375000Y-151620000D03*
%TD*%
D17*
%TO.P,U15,4*%
%TO.N,Net-(D1-K)*%
X480792500Y-144000000D03*
%TO.P,U15,3*%
%TO.N,Net-(R30-Pad2)*%
X478252500Y-144000000D03*
%TO.P,U15,2*%
%TO.N,Net-(D30-A)*%
X478252500Y-151620000D03*
D18*
%TO.P,U15,1*%
%TO.N,Net-(R29-Pad1)*%
X480792500Y-151620000D03*
%TD*%
D17*
%TO.P,U14,4*%
%TO.N,Net-(D1-K)*%
X455392500Y-144000000D03*
%TO.P,U14,3*%
%TO.N,Net-(R28-Pad2)*%
X452852500Y-144000000D03*
%TO.P,U14,2*%
%TO.N,Net-(D28-A)*%
X452852500Y-151620000D03*
D18*
%TO.P,U14,1*%
%TO.N,Net-(R27-Pad1)*%
X455392500Y-151620000D03*
%TD*%
%TO.P,U13,1*%
%TO.N,Net-(R25-Pad1)*%
X429992500Y-151620000D03*
D17*
%TO.P,U13,2*%
%TO.N,Net-(D26-A)*%
X427452500Y-151620000D03*
%TO.P,U13,3*%
%TO.N,Net-(R26-Pad2)*%
X427452500Y-144000000D03*
%TO.P,U13,4*%
%TO.N,Net-(D1-K)*%
X429992500Y-144000000D03*
%TD*%
D18*
%TO.P,U10,1*%
%TO.N,Net-(R19-Pad1)*%
X350035000Y-151620000D03*
D17*
%TO.P,U10,2*%
%TO.N,Net-(D20-A)*%
X347495000Y-151620000D03*
%TO.P,U10,3*%
%TO.N,Net-(R20-Pad2)*%
X347495000Y-144000000D03*
%TO.P,U10,4*%
%TO.N,Net-(D1-K)*%
X350035000Y-144000000D03*
%TD*%
D22*
%TO.P,U33,1,GND*%
%TO.N,GNDREF*%
X123855000Y-215120000D03*
%TO.P,U33,2,VDD*%
%TO.N,Net-(U33-VDD)*%
X125125000Y-215120000D03*
%TO.P,U33,3,EN*%
%TO.N,unconnected-(U33-EN-Pad3)*%
X126395000Y-215120000D03*
%TO.P,U33,4,SENSOR_VP*%
%TO.N,unconnected-(U33-SENSOR_VP-Pad4)*%
X127665000Y-215120000D03*
%TO.P,U33,5,SENSOR_VN*%
%TO.N,unconnected-(U33-SENSOR_VN-Pad5)*%
X128935000Y-215120000D03*
%TO.P,U33,6,IO34*%
%TO.N,unconnected-(U33-IO34-Pad6)*%
X130205000Y-215120000D03*
%TO.P,U33,7,IO35*%
%TO.N,unconnected-(U33-IO35-Pad7)*%
X131475000Y-215120000D03*
%TO.P,U33,8,IO32*%
%TO.N,unconnected-(U33-IO32-Pad8)*%
X132745000Y-215120000D03*
%TO.P,U33,9,IO33*%
%TO.N,unconnected-(U33-IO33-Pad9)*%
X134015000Y-215120000D03*
%TO.P,U33,10,IO25*%
%TO.N,unconnected-(U33-IO25-Pad10)*%
X135285000Y-215120000D03*
%TO.P,U33,11,IO26*%
%TO.N,unconnected-(U33-IO26-Pad11)*%
X136555000Y-215120000D03*
%TO.P,U33,12,IO27*%
%TO.N,unconnected-(U33-IO27-Pad12)*%
X137825000Y-215120000D03*
%TO.P,U33,13,IO14*%
%TO.N,unconnected-(U33-IO14-Pad13)*%
X139095000Y-215120000D03*
%TO.P,U33,14,IO12*%
%TO.N,unconnected-(U33-IO12-Pad14)*%
X140365000Y-215120000D03*
D23*
%TO.P,U33,15,GND*%
%TO.N,GNDREF*%
X141615000Y-212080000D03*
%TO.P,U33,16,IO13*%
%TO.N,unconnected-(U33-IO13-Pad16)*%
X141615000Y-210810000D03*
%TO.P,U33,17,SHD/SD2*%
%TO.N,unconnected-(U33-SHD{slash}SD2-Pad17)*%
X141615000Y-209540000D03*
%TO.P,U33,18,SWP/SD3*%
%TO.N,unconnected-(U33-SWP{slash}SD3-Pad18)*%
X141615000Y-208270000D03*
%TO.P,U33,19,SCS/CMD*%
%TO.N,unconnected-(U33-SCS{slash}CMD-Pad19)*%
X141615000Y-207000000D03*
%TO.P,U33,20,SCK/CLK*%
%TO.N,unconnected-(U33-SCK{slash}CLK-Pad20)*%
X141615000Y-205730000D03*
%TO.P,U33,21,SDO/SD0*%
%TO.N,unconnected-(U33-SDO{slash}SD0-Pad21)*%
X141615000Y-204460000D03*
%TO.P,U33,22,SDI/SD1*%
%TO.N,unconnected-(U33-SDI{slash}SD1-Pad22)*%
X141615000Y-203190000D03*
%TO.P,U33,23,IO15*%
%TO.N,unconnected-(U33-IO15-Pad23)*%
X141615000Y-201920000D03*
%TO.P,U33,24,IO2*%
%TO.N,unconnected-(U33-IO2-Pad24)*%
X141615000Y-200650000D03*
D22*
%TO.P,U33,25,IO0*%
%TO.N,unconnected-(U33-IO0-Pad25)*%
X140365000Y-197620000D03*
%TO.P,U33,26,IO4*%
%TO.N,unconnected-(U33-IO4-Pad26)*%
X139095000Y-197620000D03*
%TO.P,U33,27,IO16*%
%TO.N,unconnected-(U33-IO16-Pad27)*%
X137825000Y-197620000D03*
%TO.P,U33,28,IO17*%
%TO.N,unconnected-(U33-IO17-Pad28)*%
X136555000Y-197620000D03*
%TO.P,U33,29,IO5*%
%TO.N,unconnected-(U33-IO5-Pad29)*%
X135285000Y-197620000D03*
%TO.P,U33,30,IO18*%
%TO.N,unconnected-(U33-IO18-Pad30)*%
X134015000Y-197620000D03*
%TO.P,U33,31,IO19*%
%TO.N,unconnected-(U33-IO19-Pad31)*%
X132745000Y-197620000D03*
%TO.P,U33,32,NC*%
%TO.N,unconnected-(U33-NC-Pad32)*%
X131475000Y-197620000D03*
%TO.P,U33,33,IO21*%
%TO.N,Net-(U33-IO21)*%
X130205000Y-197620000D03*
%TO.P,U33,34,RXD0/IO3*%
%TO.N,unconnected-(U33-RXD0{slash}IO3-Pad34)*%
X128935000Y-197620000D03*
%TO.P,U33,35,TXD0/IO1*%
%TO.N,unconnected-(U33-TXD0{slash}IO1-Pad35)*%
X127665000Y-197620000D03*
%TO.P,U33,36,IO22*%
%TO.N,Net-(U33-IO22)*%
X126395000Y-197620000D03*
%TO.P,U33,37,IO23*%
%TO.N,unconnected-(U33-IO23-Pad37)*%
X125125000Y-197620000D03*
%TO.P,U33,38,GND*%
%TO.N,GNDREF*%
X123855000Y-197620000D03*
D24*
%TO.P,U33,39,GND*%
X130432500Y-208575000D03*
X132720000Y-206287500D03*
D25*
X129670000Y-208575000D03*
D24*
X129670000Y-206287500D03*
X131957500Y-208575000D03*
D25*
X132720000Y-205525000D03*
X132720000Y-207050000D03*
D24*
X132720000Y-207812500D03*
X129670000Y-207812500D03*
X130432500Y-205525000D03*
X131957500Y-207050000D03*
D25*
X131195000Y-205525000D03*
X131195000Y-208575000D03*
X132720000Y-208575000D03*
X129670000Y-205525000D03*
D24*
X131195000Y-206287500D03*
D25*
X129670000Y-207050000D03*
D24*
X131195000Y-207812500D03*
D26*
X131195000Y-207050000D03*
D24*
X131957500Y-205525000D03*
D25*
X131195000Y-207050000D03*
D24*
X130432500Y-207050000D03*
%TD*%
D12*
%TO.P,D46,2,A*%
%TO.N,Net-(D46-A)*%
X341035000Y-249120000D03*
D13*
%TO.P,D46,1,K*%
%TO.N,GNDREF*%
X341035000Y-246580000D03*
%TD*%
D27*
%TO.P,L1,1,1*%
%TO.N,Net-(U33-VDD)*%
X441417500Y-184640000D03*
D28*
%TO.P,L1,2,2*%
%TO.N,Net-(D65-K)*%
X441417500Y-199880000D03*
%TD*%
D13*
%TO.P,U36,1,VIN*%
%TO.N,Net-(D1-K)*%
X456657500Y-198160000D03*
D29*
%TO.P,U36,2,OUT*%
%TO.N,Net-(D65-K)*%
X460357500Y-199860000D03*
%TO.P,U36,3,GND*%
%TO.N,GNDREF*%
X456657500Y-201560000D03*
%TO.P,U36,4,FB*%
%TO.N,Net-(U36-FB)*%
X460357500Y-203260000D03*
%TO.P,U36,5,~{ON}/OFF*%
%TO.N,GNDREF*%
X456657500Y-204960000D03*
%TD*%
D17*
%TO.P,U35,28,GPA7*%
%TO.N,SW32*%
X299177500Y-217660000D03*
%TO.P,U35,27,GPA6*%
%TO.N,SW31*%
X301717500Y-217660000D03*
%TO.P,U35,26,GPA5*%
%TO.N,SW30*%
X304257500Y-217660000D03*
%TO.P,U35,25,GPA4*%
%TO.N,SW29*%
X306797500Y-217660000D03*
%TO.P,U35,24,GPA3*%
%TO.N,SW28*%
X309337500Y-217660000D03*
%TO.P,U35,23,GPA2*%
%TO.N,SW27*%
X311877500Y-217660000D03*
%TO.P,U35,22,GPA1*%
%TO.N,SW26*%
X314417500Y-217660000D03*
%TO.P,U35,21,GPA0*%
%TO.N,SW25*%
X316957500Y-217660000D03*
%TO.P,U35,20,INTA*%
%TO.N,unconnected-(U35-INTA-Pad20)*%
X319497500Y-217660000D03*
%TO.P,U35,19,INTB*%
%TO.N,unconnected-(U35-INTB-Pad19)*%
X322037500Y-217660000D03*
%TO.P,U35,18,~{RESET}*%
%TO.N,unconnected-(U35-~{RESET}-Pad18)*%
X324577500Y-217660000D03*
%TO.P,U35,17,A2*%
%TO.N,GNDREF*%
X327117500Y-217660000D03*
%TO.P,U35,16,A1*%
X329657500Y-217660000D03*
%TO.P,U35,15,A0*%
X332197500Y-217660000D03*
%TO.P,U35,14,NC*%
%TO.N,unconnected-(U35-NC-Pad14)*%
X332197500Y-225280000D03*
%TO.P,U35,13,SDA*%
%TO.N,Net-(U33-IO21)*%
X329657500Y-225280000D03*
%TO.P,U35,12,SCK*%
%TO.N,Net-(U33-IO22)*%
X327117500Y-225280000D03*
%TO.P,U35,11,NC*%
%TO.N,unconnected-(U35-NC-Pad11)*%
X324577500Y-225280000D03*
%TO.P,U35,10,VSS*%
%TO.N,GNDREF*%
X322037500Y-225280000D03*
%TO.P,U35,9,VDD*%
%TO.N,Net-(U33-VDD)*%
X319497500Y-225280000D03*
%TO.P,U35,8,GPB7*%
%TO.N,SW24*%
X316957500Y-225280000D03*
%TO.P,U35,7,GPB6*%
%TO.N,SW23*%
X314417500Y-225280000D03*
%TO.P,U35,6,GPB5*%
%TO.N,SW22*%
X311877500Y-225280000D03*
%TO.P,U35,5,GPB4*%
%TO.N,SW21*%
X309337500Y-225280000D03*
%TO.P,U35,4,GPB3*%
%TO.N,SW20*%
X306797500Y-225280000D03*
%TO.P,U35,3,GPB2*%
%TO.N,SW19*%
X304257500Y-225280000D03*
%TO.P,U35,2,GPB1*%
%TO.N,SW18*%
X301717500Y-225280000D03*
D18*
%TO.P,U35,1,GPB0*%
%TO.N,SW17*%
X299177500Y-225280000D03*
%TD*%
D17*
%TO.P,U34,28,GPA7*%
%TO.N,SW16*%
X296637500Y-189720000D03*
%TO.P,U34,27,GPA6*%
%TO.N,SW15*%
X299177500Y-189720000D03*
%TO.P,U34,26,GPA5*%
%TO.N,SW14*%
X301717500Y-189720000D03*
%TO.P,U34,25,GPA4*%
%TO.N,SW13*%
X304257500Y-189720000D03*
%TO.P,U34,24,GPA3*%
%TO.N,SW12*%
X306797500Y-189720000D03*
%TO.P,U34,23,GPA2*%
%TO.N,SW11*%
X309337500Y-189720000D03*
%TO.P,U34,22,GPA1*%
%TO.N,SW10*%
X311877500Y-189720000D03*
%TO.P,U34,21,GPA0*%
%TO.N,SW9*%
X314417500Y-189720000D03*
%TO.P,U34,20,INTA*%
%TO.N,unconnected-(U34-INTA-Pad20)*%
X316957500Y-189720000D03*
%TO.P,U34,19,INTB*%
%TO.N,unconnected-(U34-INTB-Pad19)*%
X319497500Y-189720000D03*
%TO.P,U34,18,~{RESET}*%
%TO.N,unconnected-(U34-~{RESET}-Pad18)*%
X322037500Y-189720000D03*
%TO.P,U34,17,A2*%
%TO.N,GNDREF*%
X324577500Y-189720000D03*
%TO.P,U34,16,A1*%
X327117500Y-189720000D03*
%TO.P,U34,15,A0*%
X329657500Y-189720000D03*
%TO.P,U34,14,NC*%
%TO.N,unconnected-(U34-NC-Pad14)*%
X329657500Y-182100000D03*
%TO.P,U34,13,SDA*%
%TO.N,Net-(U33-IO21)*%
X327117500Y-182100000D03*
%TO.P,U34,12,SCK*%
%TO.N,Net-(U33-IO22)*%
X324577500Y-182100000D03*
%TO.P,U34,11,NC*%
%TO.N,unconnected-(U34-NC-Pad11)*%
X322037500Y-182100000D03*
%TO.P,U34,10,VSS*%
%TO.N,GNDREF*%
X319497500Y-182100000D03*
%TO.P,U34,9,VDD*%
%TO.N,Net-(U33-VDD)*%
X316957500Y-182100000D03*
%TO.P,U34,8,GPB7*%
%TO.N,SW8*%
X314417500Y-182100000D03*
%TO.P,U34,7,GPB6*%
%TO.N,SW7*%
X311877500Y-182100000D03*
%TO.P,U34,6,GPB5*%
%TO.N,SW6*%
X309337500Y-182100000D03*
%TO.P,U34,5,GPB4*%
%TO.N,SW5*%
X306797500Y-182100000D03*
%TO.P,U34,4,GPB3*%
%TO.N,SW4*%
X304257500Y-182100000D03*
%TO.P,U34,3,GPB2*%
%TO.N,SW3*%
X301717500Y-182100000D03*
%TO.P,U34,2,GPB1*%
%TO.N,SW2*%
X299177500Y-182100000D03*
D18*
%TO.P,U34,1,GPB0*%
%TO.N,SW1*%
X296637500Y-182100000D03*
%TD*%
D17*
%TO.P,U32,4*%
%TO.N,Net-(D33-K)*%
X117467500Y-267980000D03*
%TO.P,U32,3*%
%TO.N,Net-(R64-Pad2)*%
X114927500Y-267980000D03*
%TO.P,U32,2*%
%TO.N,Net-(D64-A)*%
X114927500Y-260360000D03*
D18*
%TO.P,U32,1*%
%TO.N,Net-(R63-Pad1)*%
X117467500Y-260360000D03*
%TD*%
D17*
%TO.P,U31,4*%
%TO.N,Net-(D33-K)*%
X146730000Y-267980000D03*
%TO.P,U31,3*%
%TO.N,Net-(R62-Pad2)*%
X144190000Y-267980000D03*
%TO.P,U31,2*%
%TO.N,Net-(D62-A)*%
X144190000Y-260360000D03*
D18*
%TO.P,U31,1*%
%TO.N,Net-(R61-Pad1)*%
X146730000Y-260360000D03*
%TD*%
D17*
%TO.P,U30,4*%
%TO.N,Net-(D33-K)*%
X169590000Y-267200000D03*
%TO.P,U30,3*%
%TO.N,Net-(R60-Pad2)*%
X167050000Y-267200000D03*
%TO.P,U30,2*%
%TO.N,Net-(D60-A)*%
X167050000Y-259580000D03*
D18*
%TO.P,U30,1*%
%TO.N,Net-(R59-Pad1)*%
X169590000Y-259580000D03*
%TD*%
%TO.P,U29,1*%
%TO.N,Net-(R57-Pad1)*%
X194885000Y-260360000D03*
D17*
%TO.P,U29,2*%
%TO.N,Net-(D58-A)*%
X192345000Y-260360000D03*
%TO.P,U29,3*%
%TO.N,Net-(R58-Pad2)*%
X192345000Y-267980000D03*
%TO.P,U29,4*%
%TO.N,Net-(D33-K)*%
X194885000Y-267980000D03*
%TD*%
D18*
%TO.P,U28,1*%
%TO.N,Net-(R55-Pad1)*%
X220285000Y-260360000D03*
D17*
%TO.P,U28,2*%
%TO.N,Net-(D56-A)*%
X217745000Y-260360000D03*
%TO.P,U28,3*%
%TO.N,Net-(R56-Pad2)*%
X217745000Y-267980000D03*
%TO.P,U28,4*%
%TO.N,Net-(D33-K)*%
X220285000Y-267980000D03*
%TD*%
%TO.P,U27,4*%
%TO.N,Net-(D33-K)*%
X248330000Y-267980000D03*
%TO.P,U27,3*%
%TO.N,Net-(R54-Pad2)*%
X245790000Y-267980000D03*
%TO.P,U27,2*%
%TO.N,Net-(D54-A)*%
X245790000Y-260360000D03*
D18*
%TO.P,U27,1*%
%TO.N,Net-(R53-Pad1)*%
X248330000Y-260360000D03*
%TD*%
D17*
%TO.P,U26,4*%
%TO.N,Net-(D33-K)*%
X273730000Y-267980000D03*
%TO.P,U26,3*%
%TO.N,Net-(R52-Pad2)*%
X271190000Y-267980000D03*
%TO.P,U26,2*%
%TO.N,Net-(D52-A)*%
X271190000Y-260360000D03*
D18*
%TO.P,U26,1*%
%TO.N,Net-(R51-Pad1)*%
X273730000Y-260360000D03*
%TD*%
D17*
%TO.P,U25,4*%
%TO.N,Net-(D33-K)*%
X299130000Y-267980000D03*
%TO.P,U25,3*%
%TO.N,Net-(R50-Pad2)*%
X296590000Y-267980000D03*
%TO.P,U25,2*%
%TO.N,Net-(D50-A)*%
X296590000Y-260360000D03*
D18*
%TO.P,U25,1*%
%TO.N,Net-(R49-Pad1)*%
X299130000Y-260360000D03*
%TD*%
D17*
%TO.P,U24,4*%
%TO.N,Net-(D33-K)*%
X327070000Y-267980000D03*
%TO.P,U24,3*%
%TO.N,Net-(R48-Pad2)*%
X324530000Y-267980000D03*
%TO.P,U24,2*%
%TO.N,Net-(D48-A)*%
X324530000Y-260360000D03*
D18*
%TO.P,U24,1*%
%TO.N,Net-(R47-Pad1)*%
X327070000Y-260360000D03*
%TD*%
D17*
%TO.P,U23,4*%
%TO.N,Net-(D33-K)*%
X352470000Y-267980000D03*
%TO.P,U23,3*%
%TO.N,Net-(R46-Pad2)*%
X349930000Y-267980000D03*
%TO.P,U23,2*%
%TO.N,Net-(D46-A)*%
X349930000Y-260360000D03*
D18*
%TO.P,U23,1*%
%TO.N,Net-(R45-Pad1)*%
X352470000Y-260360000D03*
%TD*%
D17*
%TO.P,U22,4*%
%TO.N,Net-(D33-K)*%
X380410000Y-267980000D03*
%TO.P,U22,3*%
%TO.N,Net-(R44-Pad2)*%
X377870000Y-267980000D03*
%TO.P,U22,2*%
%TO.N,Net-(D44-A)*%
X377870000Y-260360000D03*
D18*
%TO.P,U22,1*%
%TO.N,Net-(R43-Pad1)*%
X380410000Y-260360000D03*
%TD*%
D17*
%TO.P,U21,4*%
%TO.N,Net-(D33-K)*%
X405810000Y-267980000D03*
%TO.P,U21,3*%
%TO.N,Net-(R42-Pad2)*%
X403270000Y-267980000D03*
%TO.P,U21,2*%
%TO.N,Net-(D42-A)*%
X403270000Y-260360000D03*
D18*
%TO.P,U21,1*%
%TO.N,Net-(R41-Pad1)*%
X405810000Y-260360000D03*
%TD*%
%TO.P,U20,1*%
%TO.N,Net-(R39-Pad1)*%
X436290000Y-260360000D03*
D17*
%TO.P,U20,2*%
%TO.N,Net-(D40-A)*%
X433750000Y-260360000D03*
%TO.P,U20,3*%
%TO.N,Net-(R40-Pad2)*%
X433750000Y-267980000D03*
%TO.P,U20,4*%
%TO.N,Net-(D33-K)*%
X436290000Y-267980000D03*
%TD*%
%TO.P,U19,4*%
%TO.N,Net-(D33-K)*%
X460367500Y-267980000D03*
%TO.P,U19,3*%
%TO.N,Net-(R38-Pad2)*%
X457827500Y-267980000D03*
%TO.P,U19,2*%
%TO.N,Net-(D38-A)*%
X457827500Y-260360000D03*
D18*
%TO.P,U19,1*%
%TO.N,Net-(R37-Pad1)*%
X460367500Y-260360000D03*
%TD*%
D17*
%TO.P,U18,4*%
%TO.N,Net-(D33-K)*%
X485767500Y-267980000D03*
%TO.P,U18,3*%
%TO.N,Net-(R36-Pad2)*%
X483227500Y-267980000D03*
%TO.P,U18,2*%
%TO.N,Net-(D36-A)*%
X483227500Y-260360000D03*
D18*
%TO.P,U18,1*%
%TO.N,Net-(R35-Pad1)*%
X485767500Y-260360000D03*
%TD*%
%TO.P,U17,1*%
%TO.N,Net-(R33-Pad1)*%
X509950000Y-260360000D03*
D17*
%TO.P,U17,2*%
%TO.N,Net-(D34-A)*%
X507410000Y-260360000D03*
%TO.P,U17,3*%
%TO.N,Net-(R34-Pad2)*%
X507410000Y-267980000D03*
%TO.P,U17,4*%
%TO.N,Net-(D33-K)*%
X509950000Y-267980000D03*
%TD*%
%TO.P,R66,2*%
%TO.N,Net-(U36-FB)*%
X474437500Y-190990000D03*
D21*
%TO.P,R66,1*%
%TO.N,Net-(U33-VDD)*%
X474437500Y-183370000D03*
%TD*%
D17*
%TO.P,R65,2*%
%TO.N,GNDREF*%
X474437500Y-201150000D03*
D21*
%TO.P,R65,1*%
%TO.N,Net-(U36-FB)*%
X474437500Y-193530000D03*
%TD*%
D17*
%TO.P,R64,2*%
%TO.N,Net-(R64-Pad2)*%
X111112500Y-274996750D03*
D21*
%TO.P,R64,1*%
%TO.N,Net-(Q32-B)*%
X121272500Y-274996750D03*
%TD*%
D17*
%TO.P,R63,2*%
%TO.N,SW32*%
X117515000Y-241300000D03*
D21*
%TO.P,R63,1*%
%TO.N,Net-(R63-Pad1)*%
X117515000Y-251460000D03*
%TD*%
D17*
%TO.P,R62,2*%
%TO.N,Net-(R62-Pad2)*%
X140375000Y-274996750D03*
D21*
%TO.P,R62,1*%
%TO.N,Net-(Q31-B)*%
X150535000Y-274996750D03*
%TD*%
D17*
%TO.P,R61,2*%
%TO.N,SW31*%
X147995000Y-241300000D03*
D21*
%TO.P,R61,1*%
%TO.N,Net-(R61-Pad1)*%
X147995000Y-251460000D03*
%TD*%
D17*
%TO.P,R60,2*%
%TO.N,Net-(R60-Pad2)*%
X163235000Y-274216750D03*
D21*
%TO.P,R60,1*%
%TO.N,Net-(Q30-B)*%
X173395000Y-274216750D03*
%TD*%
%TO.P,R59,1*%
%TO.N,Net-(R59-Pad1)*%
X170855000Y-254000000D03*
D17*
%TO.P,R59,2*%
%TO.N,SW30*%
X170855000Y-243840000D03*
%TD*%
D21*
%TO.P,R58,1*%
%TO.N,Net-(Q29-B)*%
X198690000Y-274996750D03*
D17*
%TO.P,R58,2*%
%TO.N,Net-(R58-Pad2)*%
X188530000Y-274996750D03*
%TD*%
%TO.P,R57,2*%
%TO.N,SW29*%
X193715000Y-241300000D03*
D21*
%TO.P,R57,1*%
%TO.N,Net-(R57-Pad1)*%
X193715000Y-251460000D03*
%TD*%
D17*
%TO.P,R56,2*%
%TO.N,Net-(R56-Pad2)*%
X213930000Y-274996750D03*
D21*
%TO.P,R56,1*%
%TO.N,Net-(Q28-B)*%
X224090000Y-274996750D03*
%TD*%
D17*
%TO.P,R55,2*%
%TO.N,SW28*%
X219115000Y-241300000D03*
D21*
%TO.P,R55,1*%
%TO.N,Net-(R55-Pad1)*%
X219115000Y-251460000D03*
%TD*%
D17*
%TO.P,R54,2*%
%TO.N,Net-(R54-Pad2)*%
X241975000Y-274996750D03*
D21*
%TO.P,R54,1*%
%TO.N,Net-(Q27-B)*%
X252135000Y-274996750D03*
%TD*%
D17*
%TO.P,R53,2*%
%TO.N,SW27*%
X247055000Y-241300000D03*
D21*
%TO.P,R53,1*%
%TO.N,Net-(R53-Pad1)*%
X247055000Y-251460000D03*
%TD*%
D17*
%TO.P,R52,2*%
%TO.N,Net-(R52-Pad2)*%
X267375000Y-274996750D03*
D21*
%TO.P,R52,1*%
%TO.N,Net-(Q26-B)*%
X277535000Y-274996750D03*
%TD*%
D17*
%TO.P,R51,2*%
%TO.N,SW26*%
X272455000Y-241300000D03*
D21*
%TO.P,R51,1*%
%TO.N,Net-(R51-Pad1)*%
X272455000Y-251460000D03*
%TD*%
D17*
%TO.P,R50,2*%
%TO.N,Net-(R50-Pad2)*%
X292775000Y-274996750D03*
D21*
%TO.P,R50,1*%
%TO.N,Net-(Q25-B)*%
X302935000Y-274996750D03*
%TD*%
D17*
%TO.P,R49,2*%
%TO.N,SW25*%
X300395000Y-243840000D03*
D21*
%TO.P,R49,1*%
%TO.N,Net-(R49-Pad1)*%
X300395000Y-254000000D03*
%TD*%
D17*
%TO.P,R48,2*%
%TO.N,Net-(R48-Pad2)*%
X320715000Y-274996750D03*
D21*
%TO.P,R48,1*%
%TO.N,Net-(Q24-B)*%
X330875000Y-274996750D03*
%TD*%
D17*
%TO.P,R47,2*%
%TO.N,SW24*%
X328335000Y-243840000D03*
D21*
%TO.P,R47,1*%
%TO.N,Net-(R47-Pad1)*%
X328335000Y-254000000D03*
%TD*%
D17*
%TO.P,R46,2*%
%TO.N,Net-(R46-Pad2)*%
X346115000Y-274996750D03*
D21*
%TO.P,R46,1*%
%TO.N,Net-(Q23-B)*%
X356275000Y-274996750D03*
%TD*%
D17*
%TO.P,R45,2*%
%TO.N,SW23*%
X353735000Y-241300000D03*
D21*
%TO.P,R45,1*%
%TO.N,Net-(R45-Pad1)*%
X353735000Y-251460000D03*
%TD*%
D17*
%TO.P,R44,2*%
%TO.N,Net-(R44-Pad2)*%
X374055000Y-274996750D03*
D21*
%TO.P,R44,1*%
%TO.N,Net-(Q22-B)*%
X384215000Y-274996750D03*
%TD*%
%TO.P,R43,1*%
%TO.N,Net-(R43-Pad1)*%
X381675000Y-251460000D03*
D17*
%TO.P,R43,2*%
%TO.N,SW22*%
X381675000Y-241300000D03*
%TD*%
%TO.P,R42,2*%
%TO.N,Net-(R42-Pad2)*%
X399455000Y-274996750D03*
D21*
%TO.P,R42,1*%
%TO.N,Net-(Q21-B)*%
X409615000Y-274996750D03*
%TD*%
D17*
%TO.P,R41,2*%
%TO.N,SW21*%
X407075000Y-241300000D03*
D21*
%TO.P,R41,1*%
%TO.N,Net-(R41-Pad1)*%
X407075000Y-251460000D03*
%TD*%
%TO.P,R40,1*%
%TO.N,Net-(Q20-B)*%
X440095000Y-274996750D03*
D17*
%TO.P,R40,2*%
%TO.N,Net-(R40-Pad2)*%
X429935000Y-274996750D03*
%TD*%
D21*
%TO.P,R39,1*%
%TO.N,Net-(R39-Pad1)*%
X437555000Y-248920000D03*
D17*
%TO.P,R39,2*%
%TO.N,SW20*%
X437555000Y-238760000D03*
%TD*%
%TO.P,R38,2*%
%TO.N,Net-(R38-Pad2)*%
X454012500Y-274996750D03*
D21*
%TO.P,R38,1*%
%TO.N,Net-(Q19-B)*%
X464172500Y-274996750D03*
%TD*%
D17*
%TO.P,R37,2*%
%TO.N,SW19*%
X460415000Y-238760000D03*
D21*
%TO.P,R37,1*%
%TO.N,Net-(R37-Pad1)*%
X460415000Y-248920000D03*
%TD*%
D17*
%TO.P,R36,2*%
%TO.N,Net-(R36-Pad2)*%
X479412500Y-274996750D03*
D21*
%TO.P,R36,1*%
%TO.N,Net-(Q18-B)*%
X489572500Y-274996750D03*
%TD*%
%TO.P,R35,1*%
%TO.N,Net-(R35-Pad1)*%
X485815000Y-254000000D03*
D17*
%TO.P,R35,2*%
%TO.N,SW18*%
X485815000Y-243840000D03*
%TD*%
D21*
%TO.P,R34,1*%
%TO.N,Net-(Q17-B)*%
X513755000Y-274996750D03*
D17*
%TO.P,R34,2*%
%TO.N,Net-(R34-Pad2)*%
X503595000Y-274996750D03*
%TD*%
D21*
%TO.P,R33,1*%
%TO.N,Net-(R33-Pad1)*%
X511215000Y-254000000D03*
D17*
%TO.P,R33,2*%
%TO.N,SW17*%
X511215000Y-243840000D03*
%TD*%
D16*
%TO.P,Q32,3,E*%
%TO.N,GNDREF*%
X117462500Y-284480000D03*
%TO.P,Q32,2,B*%
%TO.N,Net-(Q32-B)*%
X116192500Y-284480000D03*
D15*
%TO.P,Q32,1,C*%
%TO.N,Net-(D63-A)*%
X114922500Y-284480000D03*
%TD*%
D16*
%TO.P,Q31,3,E*%
%TO.N,GNDREF*%
X146725000Y-284480000D03*
%TO.P,Q31,2,B*%
%TO.N,Net-(Q31-B)*%
X145455000Y-284480000D03*
D15*
%TO.P,Q31,1,C*%
%TO.N,Net-(D61-A)*%
X144185000Y-284480000D03*
%TD*%
D16*
%TO.P,Q30,3,E*%
%TO.N,GNDREF*%
X169585000Y-283700000D03*
%TO.P,Q30,2,B*%
%TO.N,Net-(Q30-B)*%
X168315000Y-283700000D03*
D15*
%TO.P,Q30,1,C*%
%TO.N,Net-(D59-A)*%
X167045000Y-283700000D03*
%TD*%
%TO.P,Q29,1,C*%
%TO.N,Net-(D57-A)*%
X192340000Y-284480000D03*
D16*
%TO.P,Q29,2,B*%
%TO.N,Net-(Q29-B)*%
X193610000Y-284480000D03*
%TO.P,Q29,3,E*%
%TO.N,GNDREF*%
X194880000Y-284480000D03*
%TD*%
%TO.P,Q28,3,E*%
%TO.N,GNDREF*%
X220280000Y-284480000D03*
%TO.P,Q28,2,B*%
%TO.N,Net-(Q28-B)*%
X219010000Y-284480000D03*
D15*
%TO.P,Q28,1,C*%
%TO.N,Net-(D55-A)*%
X217740000Y-284480000D03*
%TD*%
D16*
%TO.P,Q27,3,E*%
%TO.N,GNDREF*%
X248325000Y-284480000D03*
%TO.P,Q27,2,B*%
%TO.N,Net-(Q27-B)*%
X247055000Y-284480000D03*
D15*
%TO.P,Q27,1,C*%
%TO.N,Net-(D53-A)*%
X245785000Y-284480000D03*
%TD*%
D16*
%TO.P,Q26,3,E*%
%TO.N,GNDREF*%
X273725000Y-284480000D03*
%TO.P,Q26,2,B*%
%TO.N,Net-(Q26-B)*%
X272455000Y-284480000D03*
D15*
%TO.P,Q26,1,C*%
%TO.N,Net-(D51-A)*%
X271185000Y-284480000D03*
%TD*%
D16*
%TO.P,Q25,3,E*%
%TO.N,GNDREF*%
X299125000Y-284480000D03*
%TO.P,Q25,2,B*%
%TO.N,Net-(Q25-B)*%
X297855000Y-284480000D03*
D15*
%TO.P,Q25,1,C*%
%TO.N,Net-(D49-A)*%
X296585000Y-284480000D03*
%TD*%
D16*
%TO.P,Q24,3,E*%
%TO.N,GNDREF*%
X327065000Y-284480000D03*
%TO.P,Q24,2,B*%
%TO.N,Net-(Q24-B)*%
X325795000Y-284480000D03*
D15*
%TO.P,Q24,1,C*%
%TO.N,Net-(D47-A)*%
X324525000Y-284480000D03*
%TD*%
D16*
%TO.P,Q23,3,E*%
%TO.N,GNDREF*%
X352465000Y-284480000D03*
%TO.P,Q23,2,B*%
%TO.N,Net-(Q23-B)*%
X351195000Y-284480000D03*
D15*
%TO.P,Q23,1,C*%
%TO.N,Net-(D45-A)*%
X349925000Y-284480000D03*
%TD*%
D16*
%TO.P,Q22,3,E*%
%TO.N,GNDREF*%
X380405000Y-284480000D03*
%TO.P,Q22,2,B*%
%TO.N,Net-(Q22-B)*%
X379135000Y-284480000D03*
D15*
%TO.P,Q22,1,C*%
%TO.N,Net-(D43-A)*%
X377865000Y-284480000D03*
%TD*%
D16*
%TO.P,Q21,3,E*%
%TO.N,GNDREF*%
X405805000Y-284480000D03*
%TO.P,Q21,2,B*%
%TO.N,Net-(Q21-B)*%
X404535000Y-284480000D03*
D15*
%TO.P,Q21,1,C*%
%TO.N,Net-(D41-A)*%
X403265000Y-284480000D03*
%TD*%
%TO.P,Q20,1,C*%
%TO.N,Net-(D39-A)*%
X433745000Y-284480000D03*
D16*
%TO.P,Q20,2,B*%
%TO.N,Net-(Q20-B)*%
X435015000Y-284480000D03*
%TO.P,Q20,3,E*%
%TO.N,GNDREF*%
X436285000Y-284480000D03*
%TD*%
%TO.P,Q19,3,E*%
%TO.N,GNDREF*%
X460362500Y-284480000D03*
%TO.P,Q19,2,B*%
%TO.N,Net-(Q19-B)*%
X459092500Y-284480000D03*
D15*
%TO.P,Q19,1,C*%
%TO.N,Net-(D37-A)*%
X457822500Y-284480000D03*
%TD*%
D16*
%TO.P,Q18,3,E*%
%TO.N,GNDREF*%
X485762500Y-284480000D03*
%TO.P,Q18,2,B*%
%TO.N,Net-(Q18-B)*%
X484492500Y-284480000D03*
D15*
%TO.P,Q18,1,C*%
%TO.N,Net-(D35-A)*%
X483222500Y-284480000D03*
%TD*%
%TO.P,Q17,1,C*%
%TO.N,Net-(D33-A)*%
X507405000Y-284480000D03*
D16*
%TO.P,Q17,2,B*%
%TO.N,Net-(Q17-B)*%
X508675000Y-284480000D03*
%TO.P,Q17,3,E*%
%TO.N,GNDREF*%
X509945000Y-284480000D03*
%TD*%
D12*
%TO.P,K32,A2*%
%TO.N,Net-(D63-A)*%
X120055000Y-301480000D03*
D13*
%TO.P,K32,A1*%
%TO.N,Net-(D33-K)*%
X112435000Y-301480000D03*
D14*
%TO.P,K32,14*%
%TO.N,Net-(J32-Pin_2)*%
X112435000Y-319260000D03*
%TO.P,K32,12*%
%TO.N,Net-(J32-Pin_1)*%
X120055000Y-319260000D03*
%TO.P,K32,11*%
%TO.N,Net-(J32-Pin_3)*%
X112435000Y-311640000D03*
%TD*%
D12*
%TO.P,K31,A2*%
%TO.N,Net-(D61-A)*%
X149317500Y-301480000D03*
D13*
%TO.P,K31,A1*%
%TO.N,Net-(D33-K)*%
X141697500Y-301480000D03*
D14*
%TO.P,K31,14*%
%TO.N,Net-(J31-Pin_2)*%
X141697500Y-319260000D03*
%TO.P,K31,12*%
%TO.N,Net-(J31-Pin_1)*%
X149317500Y-319260000D03*
%TO.P,K31,11*%
%TO.N,Net-(J31-Pin_3)*%
X141697500Y-311640000D03*
%TD*%
D12*
%TO.P,K30,A2*%
%TO.N,Net-(D59-A)*%
X172177500Y-301480000D03*
D13*
%TO.P,K30,A1*%
%TO.N,Net-(D33-K)*%
X164557500Y-301480000D03*
D14*
%TO.P,K30,14*%
%TO.N,Net-(J30-Pin_2)*%
X164557500Y-319260000D03*
%TO.P,K30,12*%
%TO.N,Net-(J30-Pin_1)*%
X172177500Y-319260000D03*
%TO.P,K30,11*%
%TO.N,Net-(J30-Pin_3)*%
X164557500Y-311640000D03*
%TD*%
%TO.P,K29,11*%
%TO.N,Net-(J29-Pin_3)*%
X189852500Y-311640000D03*
%TO.P,K29,12*%
%TO.N,Net-(J29-Pin_1)*%
X197472500Y-319260000D03*
%TO.P,K29,14*%
%TO.N,Net-(J29-Pin_2)*%
X189852500Y-319260000D03*
D13*
%TO.P,K29,A1*%
%TO.N,Net-(D33-K)*%
X189852500Y-301480000D03*
D12*
%TO.P,K29,A2*%
%TO.N,Net-(D57-A)*%
X197472500Y-301480000D03*
%TD*%
%TO.P,K28,A2*%
%TO.N,Net-(D55-A)*%
X222872500Y-301480000D03*
D13*
%TO.P,K28,A1*%
%TO.N,Net-(D33-K)*%
X215252500Y-301480000D03*
D14*
%TO.P,K28,14*%
%TO.N,Net-(J28-Pin_2)*%
X215252500Y-319260000D03*
%TO.P,K28,12*%
%TO.N,Net-(J28-Pin_1)*%
X222872500Y-319260000D03*
%TO.P,K28,11*%
%TO.N,Net-(J28-Pin_3)*%
X215252500Y-311640000D03*
%TD*%
D12*
%TO.P,K27,A2*%
%TO.N,Net-(D53-A)*%
X250917500Y-301480000D03*
D13*
%TO.P,K27,A1*%
%TO.N,Net-(D33-K)*%
X243297500Y-301480000D03*
D14*
%TO.P,K27,14*%
%TO.N,Net-(J27-Pin_2)*%
X243297500Y-319260000D03*
%TO.P,K27,12*%
%TO.N,Net-(J27-Pin_1)*%
X250917500Y-319260000D03*
%TO.P,K27,11*%
%TO.N,Net-(J27-Pin_3)*%
X243297500Y-311640000D03*
%TD*%
D12*
%TO.P,K26,A2*%
%TO.N,Net-(D51-A)*%
X276317500Y-301480000D03*
D13*
%TO.P,K26,A1*%
%TO.N,Net-(D33-K)*%
X268697500Y-301480000D03*
D14*
%TO.P,K26,14*%
%TO.N,Net-(J26-Pin_2)*%
X268697500Y-319260000D03*
%TO.P,K26,12*%
%TO.N,Net-(J26-Pin_1)*%
X276317500Y-319260000D03*
%TO.P,K26,11*%
%TO.N,Net-(J26-Pin_3)*%
X268697500Y-311640000D03*
%TD*%
D12*
%TO.P,K25,A2*%
%TO.N,Net-(D49-A)*%
X301717500Y-301480000D03*
D13*
%TO.P,K25,A1*%
%TO.N,Net-(D33-K)*%
X294097500Y-301480000D03*
D14*
%TO.P,K25,14*%
%TO.N,Net-(J25-Pin_2)*%
X294097500Y-319260000D03*
%TO.P,K25,12*%
%TO.N,Net-(J25-Pin_1)*%
X301717500Y-319260000D03*
%TO.P,K25,11*%
%TO.N,Net-(J25-Pin_3)*%
X294097500Y-311640000D03*
%TD*%
D12*
%TO.P,K24,A2*%
%TO.N,Net-(D47-A)*%
X329657500Y-301480000D03*
D13*
%TO.P,K24,A1*%
%TO.N,Net-(D33-K)*%
X322037500Y-301480000D03*
D14*
%TO.P,K24,14*%
%TO.N,Net-(J24-Pin_2)*%
X322037500Y-319260000D03*
%TO.P,K24,12*%
%TO.N,Net-(J24-Pin_1)*%
X329657500Y-319260000D03*
%TO.P,K24,11*%
%TO.N,Net-(J24-Pin_3)*%
X322037500Y-311640000D03*
%TD*%
D12*
%TO.P,K23,A2*%
%TO.N,Net-(D45-A)*%
X355057500Y-301480000D03*
D13*
%TO.P,K23,A1*%
%TO.N,Net-(D33-K)*%
X347437500Y-301480000D03*
D14*
%TO.P,K23,14*%
%TO.N,Net-(J23-Pin_2)*%
X347437500Y-319260000D03*
%TO.P,K23,12*%
%TO.N,Net-(J23-Pin_1)*%
X355057500Y-319260000D03*
%TO.P,K23,11*%
%TO.N,Net-(J23-Pin_3)*%
X347437500Y-311640000D03*
%TD*%
D12*
%TO.P,K22,A2*%
%TO.N,Net-(D43-A)*%
X382997500Y-301480000D03*
D13*
%TO.P,K22,A1*%
%TO.N,Net-(D33-K)*%
X375377500Y-301480000D03*
D14*
%TO.P,K22,14*%
%TO.N,Net-(J22-Pin_2)*%
X375377500Y-319260000D03*
%TO.P,K22,12*%
%TO.N,Net-(J22-Pin_1)*%
X382997500Y-319260000D03*
%TO.P,K22,11*%
%TO.N,Net-(J22-Pin_3)*%
X375377500Y-311640000D03*
%TD*%
D12*
%TO.P,K21,A2*%
%TO.N,Net-(D41-A)*%
X408397500Y-301480000D03*
D13*
%TO.P,K21,A1*%
%TO.N,Net-(D33-K)*%
X400777500Y-301480000D03*
D14*
%TO.P,K21,14*%
%TO.N,Net-(J21-Pin_2)*%
X400777500Y-319260000D03*
%TO.P,K21,12*%
%TO.N,Net-(J21-Pin_1)*%
X408397500Y-319260000D03*
%TO.P,K21,11*%
%TO.N,Net-(J21-Pin_3)*%
X400777500Y-311640000D03*
%TD*%
%TO.P,K20,11*%
%TO.N,Net-(J20-Pin_3)*%
X431257500Y-311640000D03*
%TO.P,K20,12*%
%TO.N,Net-(J20-Pin_1)*%
X438877500Y-319260000D03*
%TO.P,K20,14*%
%TO.N,Net-(J20-Pin_2)*%
X431257500Y-319260000D03*
D13*
%TO.P,K20,A1*%
%TO.N,Net-(D33-K)*%
X431257500Y-301480000D03*
D12*
%TO.P,K20,A2*%
%TO.N,Net-(D39-A)*%
X438877500Y-301480000D03*
%TD*%
%TO.P,K19,A2*%
%TO.N,Net-(D37-A)*%
X462955000Y-301480000D03*
D13*
%TO.P,K19,A1*%
%TO.N,Net-(D33-K)*%
X455335000Y-301480000D03*
D14*
%TO.P,K19,14*%
%TO.N,Net-(J19-Pin_2)*%
X455335000Y-319260000D03*
%TO.P,K19,12*%
%TO.N,Net-(J19-Pin_1)*%
X462955000Y-319260000D03*
%TO.P,K19,11*%
%TO.N,Net-(J19-Pin_3)*%
X455335000Y-311640000D03*
%TD*%
D12*
%TO.P,K18,A2*%
%TO.N,Net-(D35-A)*%
X488355000Y-301480000D03*
D13*
%TO.P,K18,A1*%
%TO.N,Net-(D33-K)*%
X480735000Y-301480000D03*
D14*
%TO.P,K18,14*%
%TO.N,Net-(J18-Pin_2)*%
X480735000Y-319260000D03*
%TO.P,K18,12*%
%TO.N,Net-(J18-Pin_1)*%
X488355000Y-319260000D03*
%TO.P,K18,11*%
%TO.N,Net-(J18-Pin_3)*%
X480735000Y-311640000D03*
%TD*%
%TO.P,K17,11*%
%TO.N,Net-(J17-Pin_3)*%
X504917500Y-311640000D03*
%TO.P,K17,12*%
%TO.N,Net-(J17-Pin_1)*%
X512537500Y-319260000D03*
%TO.P,K17,14*%
%TO.N,Net-(J17-Pin_2)*%
X504917500Y-319260000D03*
D13*
%TO.P,K17,A1*%
%TO.N,Net-(D33-K)*%
X504917500Y-301480000D03*
D12*
%TO.P,K17,A2*%
%TO.N,Net-(D33-A)*%
X512537500Y-301480000D03*
%TD*%
D30*
%TO.P,J33,2*%
%TO.N,GNDREF*%
X510907500Y-192260000D03*
D31*
%TO.P,J33,1*%
%TO.N,Net-(D1-K)*%
X516087500Y-192260000D03*
%TD*%
D19*
%TO.P,J32,3,Pin_3*%
%TO.N,Net-(J32-Pin_3)*%
X111112500Y-344660000D03*
%TO.P,J32,2,Pin_2*%
%TO.N,Net-(J32-Pin_2)*%
X116192500Y-344660000D03*
D20*
%TO.P,J32,1,Pin_1*%
%TO.N,Net-(J32-Pin_1)*%
X121272500Y-344660000D03*
%TD*%
D19*
%TO.P,J31,3,Pin_3*%
%TO.N,Net-(J31-Pin_3)*%
X140375000Y-344660000D03*
%TO.P,J31,2,Pin_2*%
%TO.N,Net-(J31-Pin_2)*%
X145455000Y-344660000D03*
D20*
%TO.P,J31,1,Pin_1*%
%TO.N,Net-(J31-Pin_1)*%
X150535000Y-344660000D03*
%TD*%
D19*
%TO.P,J30,3,Pin_3*%
%TO.N,Net-(J30-Pin_3)*%
X163235000Y-344660000D03*
%TO.P,J30,2,Pin_2*%
%TO.N,Net-(J30-Pin_2)*%
X168315000Y-344660000D03*
D20*
%TO.P,J30,1,Pin_1*%
%TO.N,Net-(J30-Pin_1)*%
X173395000Y-344660000D03*
%TD*%
%TO.P,J29,1,Pin_1*%
%TO.N,Net-(J29-Pin_1)*%
X198690000Y-344660000D03*
D19*
%TO.P,J29,2,Pin_2*%
%TO.N,Net-(J29-Pin_2)*%
X193610000Y-344660000D03*
%TO.P,J29,3,Pin_3*%
%TO.N,Net-(J29-Pin_3)*%
X188530000Y-344660000D03*
%TD*%
%TO.P,J28,3,Pin_3*%
%TO.N,Net-(J28-Pin_3)*%
X213930000Y-344660000D03*
%TO.P,J28,2,Pin_2*%
%TO.N,Net-(J28-Pin_2)*%
X219010000Y-344660000D03*
D20*
%TO.P,J28,1,Pin_1*%
%TO.N,Net-(J28-Pin_1)*%
X224090000Y-344660000D03*
%TD*%
D19*
%TO.P,J27,3,Pin_3*%
%TO.N,Net-(J27-Pin_3)*%
X241975000Y-344660000D03*
%TO.P,J27,2,Pin_2*%
%TO.N,Net-(J27-Pin_2)*%
X247055000Y-344660000D03*
D20*
%TO.P,J27,1,Pin_1*%
%TO.N,Net-(J27-Pin_1)*%
X252135000Y-344660000D03*
%TD*%
D19*
%TO.P,J26,3,Pin_3*%
%TO.N,Net-(J26-Pin_3)*%
X267375000Y-344660000D03*
%TO.P,J26,2,Pin_2*%
%TO.N,Net-(J26-Pin_2)*%
X272455000Y-344660000D03*
D20*
%TO.P,J26,1,Pin_1*%
%TO.N,Net-(J26-Pin_1)*%
X277535000Y-344660000D03*
%TD*%
D19*
%TO.P,J25,3,Pin_3*%
%TO.N,Net-(J25-Pin_3)*%
X292775000Y-344660000D03*
%TO.P,J25,2,Pin_2*%
%TO.N,Net-(J25-Pin_2)*%
X297855000Y-344660000D03*
D20*
%TO.P,J25,1,Pin_1*%
%TO.N,Net-(J25-Pin_1)*%
X302935000Y-344660000D03*
%TD*%
D19*
%TO.P,J24,3,Pin_3*%
%TO.N,Net-(J24-Pin_3)*%
X320715000Y-344660000D03*
%TO.P,J24,2,Pin_2*%
%TO.N,Net-(J24-Pin_2)*%
X325795000Y-344660000D03*
D20*
%TO.P,J24,1,Pin_1*%
%TO.N,Net-(J24-Pin_1)*%
X330875000Y-344660000D03*
%TD*%
D19*
%TO.P,J23,3,Pin_3*%
%TO.N,Net-(J23-Pin_3)*%
X346115000Y-344660000D03*
%TO.P,J23,2,Pin_2*%
%TO.N,Net-(J23-Pin_2)*%
X351195000Y-344660000D03*
D20*
%TO.P,J23,1,Pin_1*%
%TO.N,Net-(J23-Pin_1)*%
X356275000Y-344660000D03*
%TD*%
D19*
%TO.P,J22,3,Pin_3*%
%TO.N,Net-(J22-Pin_3)*%
X374055000Y-344660000D03*
%TO.P,J22,2,Pin_2*%
%TO.N,Net-(J22-Pin_2)*%
X379135000Y-344660000D03*
D20*
%TO.P,J22,1,Pin_1*%
%TO.N,Net-(J22-Pin_1)*%
X384215000Y-344660000D03*
%TD*%
D19*
%TO.P,J21,3,Pin_3*%
%TO.N,Net-(J21-Pin_3)*%
X399455000Y-344660000D03*
%TO.P,J21,2,Pin_2*%
%TO.N,Net-(J21-Pin_2)*%
X404535000Y-344660000D03*
D20*
%TO.P,J21,1,Pin_1*%
%TO.N,Net-(J21-Pin_1)*%
X409615000Y-344660000D03*
%TD*%
%TO.P,J20,1,Pin_1*%
%TO.N,Net-(J20-Pin_1)*%
X440095000Y-344660000D03*
D19*
%TO.P,J20,2,Pin_2*%
%TO.N,Net-(J20-Pin_2)*%
X435015000Y-344660000D03*
%TO.P,J20,3,Pin_3*%
%TO.N,Net-(J20-Pin_3)*%
X429935000Y-344660000D03*
%TD*%
%TO.P,J19,3,Pin_3*%
%TO.N,Net-(J19-Pin_3)*%
X454012500Y-344660000D03*
%TO.P,J19,2,Pin_2*%
%TO.N,Net-(J19-Pin_2)*%
X459092500Y-344660000D03*
D20*
%TO.P,J19,1,Pin_1*%
%TO.N,Net-(J19-Pin_1)*%
X464172500Y-344660000D03*
%TD*%
D19*
%TO.P,J18,3,Pin_3*%
%TO.N,Net-(J18-Pin_3)*%
X479412500Y-344660000D03*
%TO.P,J18,2,Pin_2*%
%TO.N,Net-(J18-Pin_2)*%
X484492500Y-344660000D03*
D20*
%TO.P,J18,1,Pin_1*%
%TO.N,Net-(J18-Pin_1)*%
X489572500Y-344660000D03*
%TD*%
%TO.P,J17,1,Pin_1*%
%TO.N,Net-(J17-Pin_1)*%
X513755000Y-344660000D03*
D19*
%TO.P,J17,2,Pin_2*%
%TO.N,Net-(J17-Pin_2)*%
X508675000Y-344660000D03*
%TO.P,J17,3,Pin_3*%
%TO.N,Net-(J17-Pin_3)*%
X503595000Y-344660000D03*
%TD*%
D32*
%TO.P,D65,1,K*%
%TO.N,Net-(D65-K)*%
X438877500Y-207500000D03*
D33*
%TO.P,D65,2,A*%
%TO.N,GNDREF*%
X438877500Y-222740000D03*
%TD*%
D13*
%TO.P,D64,1,K*%
%TO.N,GNDREF*%
X107355000Y-246580000D03*
D12*
%TO.P,D64,2,A*%
%TO.N,Net-(D64-A)*%
X107355000Y-249120000D03*
%TD*%
D11*
%TO.P,D63,2,A*%
%TO.N,Net-(D63-A)*%
X121272500Y-292100000D03*
D10*
%TO.P,D63,1,K*%
%TO.N,Net-(D33-K)*%
X111112500Y-292100000D03*
%TD*%
D13*
%TO.P,D62,1,K*%
%TO.N,GNDREF*%
X135295000Y-246380000D03*
D12*
%TO.P,D62,2,A*%
%TO.N,Net-(D62-A)*%
X135295000Y-248920000D03*
%TD*%
D10*
%TO.P,D61,1,K*%
%TO.N,Net-(D33-K)*%
X140375000Y-292100000D03*
D11*
%TO.P,D61,2,A*%
%TO.N,Net-(D61-A)*%
X150535000Y-292100000D03*
%TD*%
D13*
%TO.P,D60,1,K*%
%TO.N,GNDREF*%
X160695000Y-245800000D03*
D12*
%TO.P,D60,2,A*%
%TO.N,Net-(D60-A)*%
X160695000Y-248340000D03*
%TD*%
D10*
%TO.P,D59,1,K*%
%TO.N,Net-(D33-K)*%
X163235000Y-291320000D03*
D11*
%TO.P,D59,2,A*%
%TO.N,Net-(D59-A)*%
X173395000Y-291320000D03*
%TD*%
D12*
%TO.P,D58,2,A*%
%TO.N,Net-(D58-A)*%
X186095000Y-249120000D03*
D13*
%TO.P,D58,1,K*%
%TO.N,GNDREF*%
X186095000Y-246580000D03*
%TD*%
D11*
%TO.P,D57,2,A*%
%TO.N,Net-(D57-A)*%
X198690000Y-292100000D03*
D10*
%TO.P,D57,1,K*%
%TO.N,Net-(D33-K)*%
X188530000Y-292100000D03*
%TD*%
D12*
%TO.P,D56,2,A*%
%TO.N,Net-(D56-A)*%
X208955000Y-248920000D03*
D13*
%TO.P,D56,1,K*%
%TO.N,GNDREF*%
X208955000Y-246380000D03*
%TD*%
D10*
%TO.P,D55,1,K*%
%TO.N,Net-(D33-K)*%
X213930000Y-292100000D03*
D11*
%TO.P,D55,2,A*%
%TO.N,Net-(D55-A)*%
X224090000Y-292100000D03*
%TD*%
D12*
%TO.P,D54,2,A*%
%TO.N,Net-(D54-A)*%
X236895000Y-249120000D03*
D13*
%TO.P,D54,1,K*%
%TO.N,GNDREF*%
X236895000Y-246580000D03*
%TD*%
D10*
%TO.P,D53,1,K*%
%TO.N,Net-(D33-K)*%
X241975000Y-292100000D03*
D11*
%TO.P,D53,2,A*%
%TO.N,Net-(D53-A)*%
X252135000Y-292100000D03*
%TD*%
D12*
%TO.P,D52,2,A*%
%TO.N,Net-(D52-A)*%
X262295000Y-248920000D03*
D13*
%TO.P,D52,1,K*%
%TO.N,GNDREF*%
X262295000Y-246380000D03*
%TD*%
D10*
%TO.P,D51,1,K*%
%TO.N,Net-(D33-K)*%
X267375000Y-292100000D03*
D11*
%TO.P,D51,2,A*%
%TO.N,Net-(D51-A)*%
X277535000Y-292100000D03*
%TD*%
D13*
%TO.P,D50,1,K*%
%TO.N,GNDREF*%
X285155000Y-246580000D03*
D12*
%TO.P,D50,2,A*%
%TO.N,Net-(D50-A)*%
X285155000Y-249120000D03*
%TD*%
D10*
%TO.P,D49,1,K*%
%TO.N,Net-(D33-K)*%
X292775000Y-292100000D03*
D11*
%TO.P,D49,2,A*%
%TO.N,Net-(D49-A)*%
X302935000Y-292100000D03*
%TD*%
D12*
%TO.P,D48,2,A*%
%TO.N,Net-(D48-A)*%
X315635000Y-248920000D03*
D13*
%TO.P,D48,1,K*%
%TO.N,GNDREF*%
X315635000Y-246380000D03*
%TD*%
D10*
%TO.P,D47,1,K*%
%TO.N,Net-(D33-K)*%
X320715000Y-292100000D03*
D11*
%TO.P,D47,2,A*%
%TO.N,Net-(D47-A)*%
X330875000Y-292100000D03*
%TD*%
D10*
%TO.P,D45,1,K*%
%TO.N,Net-(D33-K)*%
X346115000Y-292100000D03*
D11*
%TO.P,D45,2,A*%
%TO.N,Net-(D45-A)*%
X356275000Y-292100000D03*
%TD*%
D12*
%TO.P,D44,2,A*%
%TO.N,Net-(D44-A)*%
X368975000Y-248920000D03*
D13*
%TO.P,D44,1,K*%
%TO.N,GNDREF*%
X368975000Y-246380000D03*
%TD*%
D10*
%TO.P,D43,1,K*%
%TO.N,Net-(D33-K)*%
X374055000Y-292100000D03*
D11*
%TO.P,D43,2,A*%
%TO.N,Net-(D43-A)*%
X384215000Y-292100000D03*
%TD*%
D12*
%TO.P,D42,2,A*%
%TO.N,Net-(D42-A)*%
X396915000Y-248920000D03*
D13*
%TO.P,D42,1,K*%
%TO.N,GNDREF*%
X396915000Y-246380000D03*
%TD*%
D11*
%TO.P,D41,2,A*%
%TO.N,Net-(D41-A)*%
X409615000Y-292100000D03*
D10*
%TO.P,D41,1,K*%
%TO.N,Net-(D33-K)*%
X399455000Y-292100000D03*
%TD*%
D13*
%TO.P,D40,1,K*%
%TO.N,GNDREF*%
X427395000Y-246580000D03*
D12*
%TO.P,D40,2,A*%
%TO.N,Net-(D40-A)*%
X427395000Y-249120000D03*
%TD*%
D11*
%TO.P,D39,2,A*%
%TO.N,Net-(D39-A)*%
X440095000Y-292100000D03*
D10*
%TO.P,D39,1,K*%
%TO.N,Net-(D33-K)*%
X429935000Y-292100000D03*
%TD*%
D13*
%TO.P,D38,1,K*%
%TO.N,GNDREF*%
X450255000Y-246580000D03*
D12*
%TO.P,D38,2,A*%
%TO.N,Net-(D38-A)*%
X450255000Y-249120000D03*
%TD*%
D10*
%TO.P,D37,1,K*%
%TO.N,Net-(D33-K)*%
X454012500Y-292100000D03*
D11*
%TO.P,D37,2,A*%
%TO.N,Net-(D37-A)*%
X464172500Y-292100000D03*
%TD*%
D12*
%TO.P,D36,2,A*%
%TO.N,Net-(D36-A)*%
X475655000Y-249120000D03*
D13*
%TO.P,D36,1,K*%
%TO.N,GNDREF*%
X475655000Y-246580000D03*
%TD*%
D10*
%TO.P,D35,1,K*%
%TO.N,Net-(D33-K)*%
X479412500Y-292100000D03*
D11*
%TO.P,D35,2,A*%
%TO.N,Net-(D35-A)*%
X489572500Y-292100000D03*
%TD*%
D13*
%TO.P,D34,1,K*%
%TO.N,GNDREF*%
X498515000Y-246580000D03*
D12*
%TO.P,D34,2,A*%
%TO.N,Net-(D34-A)*%
X498515000Y-249120000D03*
%TD*%
D11*
%TO.P,D33,2,A*%
%TO.N,Net-(D33-A)*%
X513755000Y-292100000D03*
D10*
%TO.P,D33,1,K*%
%TO.N,Net-(D33-K)*%
X503595000Y-292100000D03*
%TD*%
D21*
%TO.P,C4,1*%
%TO.N,Net-(U33-VDD)*%
X461737500Y-184640000D03*
%TO.P,C4,2*%
%TO.N,Net-(U36-FB)*%
X461737500Y-187140000D03*
%TD*%
D34*
%TO.P,C2,1*%
%TO.N,Net-(D1-K)*%
X461737500Y-217660000D03*
D35*
%TO.P,C2,2*%
%TO.N,GNDREF*%
X461737500Y-219160000D03*
%TD*%
D34*
%TO.P,C1,1*%
%TO.N,Net-(U33-VDD)*%
X423637500Y-202420000D03*
D35*
%TO.P,C1,2*%
%TO.N,GNDREF*%
X423637500Y-203920000D03*
%TD*%
D36*
%TO.N,SW30*%
X276810500Y-220980000D03*
X292775000Y-220980000D03*
X272455000Y-220980000D03*
X274995000Y-223520000D03*
%TO.N,SW31*%
X290235000Y-231140000D03*
X249082700Y-225547700D03*
X272455000Y-228600000D03*
X252135000Y-220980000D03*
%TO.N,SW29*%
X292775000Y-231140000D03*
X244515000Y-233680000D03*
%TO.N,SW28*%
X300395000Y-233680000D03*
%TO.N,SW32*%
X290235000Y-218440000D03*
X274995000Y-218440000D03*
X254675000Y-215900000D03*
%TO.N,SW27*%
X287695000Y-215900000D03*
X267375000Y-215900000D03*
X274995000Y-215900000D03*
%TO.N,SW18*%
X315635000Y-223520000D03*
X455335000Y-231140000D03*
X305475000Y-223520000D03*
%TO.N,SW17*%
X282615000Y-208280000D03*
X447715000Y-226060000D03*
%TO.N,SW19*%
X292775000Y-210820000D03*
X447715000Y-228600000D03*
%TO.N,SW20*%
X384215000Y-238760000D03*
%TO.N,SW21*%
X379135000Y-236220000D03*
%TO.N,SW22*%
X323255000Y-233680000D03*
%TO.N,SW23*%
X318175000Y-231140000D03*
%TO.N,SW24*%
X318175000Y-233680000D03*
%TO.N,SW25*%
X313095000Y-231140000D03*
%TO.N,SW26*%
X277535000Y-226060000D03*
%TO.N,SW11*%
X335955000Y-193040000D03*
%TO.N,SW12*%
X335955000Y-195580000D03*
%TO.N,SW13*%
X335955000Y-198120000D03*
%TO.N,SW14*%
X335955000Y-200660000D03*
%TO.N,SW15*%
X422315000Y-193040000D03*
%TO.N,SW16*%
X424855000Y-195580000D03*
%TO.N,SW10*%
X318175000Y-175260000D03*
%TO.N,SW9*%
X308015000Y-172720000D03*
%TO.N,SW8*%
X313095000Y-175260000D03*
%TO.N,SW7*%
X274995000Y-184695500D03*
X269915000Y-182500500D03*
X269915000Y-171995500D03*
%TO.N,SW6*%
X244515000Y-182500500D03*
X244515000Y-170180000D03*
%TO.N,SW5*%
X221655000Y-170180000D03*
%TO.N,SW4*%
X302935000Y-167640000D03*
%TO.N,SW3*%
X300395000Y-172720000D03*
%TO.N,SW2*%
X297855000Y-175260000D03*
%TO.N,SW1*%
X295315000Y-175260000D03*
%TO.N,Net-(U33-VDD)*%
X321498550Y-226843550D03*
X320327998Y-228014102D03*
%TO.N,Net-(D1-K)*%
X457875000Y-183915500D03*
%TO.N,Net-(U36-FB)*%
X455335000Y-203200000D03*
X452795000Y-203200000D03*
%TO.N,Net-(D1-K)*%
X457875000Y-198120000D03*
%TO.N,Net-(D65-K)*%
X450255000Y-200660000D03*
%TO.N,Net-(U33-IO22)*%
X328367669Y-216935500D03*
%TO.N,Net-(D63-A)*%
X127675000Y-292100000D03*
%TO.N,Net-(D61-A)*%
X155615000Y-292800500D03*
%TO.N,Net-(D59-A)*%
X178475000Y-292020500D03*
%TO.N,Net-(D57-A)*%
X201335000Y-292800500D03*
%TO.N,Net-(D55-A)*%
X229275000Y-292800500D03*
%TO.N,Net-(D53-A)*%
X257215000Y-292100000D03*
%TO.N,Net-(D51-A)*%
X282615000Y-292800500D03*
%TO.N,Net-(D49-A)*%
X308015000Y-292800500D03*
%TO.N,Net-(D47-A)*%
X335955000Y-292800500D03*
%TO.N,Net-(D45-A)*%
X358815000Y-292800500D03*
%TO.N,Net-(D43-A)*%
X386755000Y-292800500D03*
%TO.N,Net-(D41-A)*%
X412155000Y-292800500D03*
%TO.N,Net-(D37-A)*%
X465495000Y-292800500D03*
%TO.N,Net-(D39-A)*%
X442635000Y-292100000D03*
%TO.N,Net-(D35-A)*%
X490895000Y-292800500D03*
%TO.N,Net-(D8-A)*%
X186095000Y-165100000D03*
%TO.N,Net-(D10-A)*%
X211495000Y-165100000D03*
%TO.N,Net-(D12-A)*%
X236895000Y-165100000D03*
%TO.N,Net-(D14-A)*%
X264835000Y-165100000D03*
%TO.N,Net-(D16-A)*%
X292775000Y-165975500D03*
%TO.N,Net-(D18-A)*%
X320715000Y-165100000D03*
%TO.N,Net-(D20-A)*%
X346115000Y-165100000D03*
%TO.N,Net-(D22-A)*%
X374055000Y-165975500D03*
%TO.N,Net-(D24-A)*%
X399852521Y-166135500D03*
%TO.N,Net-(D15-A)*%
X293692500Y-126960500D03*
%TO.N,Net-(Q6-B)*%
X236895000Y-129110500D03*
%TO.N,Net-(Q4-B)*%
X183555000Y-127000000D03*
%TO.N,Net-(D13-A)*%
X267375000Y-121840500D03*
%TO.N,Net-(D21-A)*%
X371515000Y-124460000D03*
%TO.N,Net-(D23-A)*%
X400830000Y-126960500D03*
X399455000Y-121840500D03*
%TO.N,Net-(D25-A)*%
X427447500Y-121840500D03*
%TO.N,Net-(D29-A)*%
X478247500Y-121840500D03*
%TO.N,Net-(D31-A)*%
X503647500Y-121840500D03*
%TO.N,Net-(D1-K)*%
X511215000Y-144780000D03*
%TO.N,GNDREF*%
X107355000Y-245480500D03*
X123855000Y-197620000D03*
X139650500Y-129480483D03*
%TD*%
D37*
%TO.N,SW30*%
X274995000Y-223520000D02*
X272455000Y-220980000D01*
X276810500Y-220980000D02*
X292775000Y-220980000D01*
%TO.N,SW31*%
X277608503Y-225108198D02*
X283640305Y-231140000D01*
X275946802Y-225108198D02*
X277608503Y-225108198D01*
X272455000Y-228600000D02*
X275946802Y-225108198D01*
X283640305Y-231140000D02*
X290235000Y-231140000D01*
X252135000Y-222495400D02*
X249082700Y-225547700D01*
X252135000Y-220980000D02*
X252135000Y-222495400D01*
%TO.N,SW29*%
X198795000Y-236220000D02*
X201335000Y-233680000D01*
X193715000Y-241300000D02*
X198795000Y-236220000D01*
X201335000Y-233680000D02*
X244515000Y-233680000D01*
%TO.N,SW28*%
X291650000Y-242425000D02*
X300395000Y-233680000D01*
X220240000Y-242425000D02*
X291650000Y-242425000D01*
X219115000Y-241300000D02*
X220240000Y-242425000D01*
%TO.N,SW32*%
X142915000Y-220980000D02*
X147995000Y-215900000D01*
X165775000Y-215900000D02*
X254675000Y-215900000D01*
X274995000Y-218440000D02*
X290235000Y-218440000D01*
X147995000Y-215900000D02*
X165775000Y-215900000D01*
X137835000Y-220980000D02*
X142915000Y-220980000D01*
X135295000Y-220980000D02*
X137835000Y-220980000D01*
X122595000Y-233680000D02*
X135295000Y-220980000D01*
X117515000Y-238760000D02*
X122595000Y-233680000D01*
X117515000Y-241300000D02*
X117515000Y-238760000D01*
%TO.N,SW27*%
X274995000Y-215900000D02*
X287695000Y-215900000D01*
X259755000Y-215900000D02*
X267375000Y-215900000D01*
X247055000Y-228600000D02*
X259755000Y-215900000D01*
X247055000Y-241300000D02*
X247055000Y-228600000D01*
%TO.N,*%
X316085000Y-232204695D02*
X316085000Y-241300000D01*
X317874695Y-230415000D02*
X316085000Y-232204695D01*
X322793604Y-230415000D02*
X317874695Y-230415000D01*
X346565000Y-230690000D02*
X323068604Y-230690000D01*
X351195000Y-226060000D02*
X346565000Y-230690000D01*
X323068604Y-230690000D02*
X322793604Y-230415000D01*
%TO.N,SW18*%
X315635000Y-223520000D02*
X305475000Y-223520000D01*
X468035000Y-243840000D02*
X455335000Y-231140000D01*
X485815000Y-243840000D02*
X468035000Y-243840000D01*
%TO.N,*%
X485815000Y-251460000D02*
X485815000Y-245705000D01*
%TO.N,SW17*%
X282615000Y-208717500D02*
X299177500Y-225280000D01*
X282615000Y-208280000D02*
X282615000Y-208717500D01*
X501055000Y-226060000D02*
X447715000Y-226060000D01*
X511215000Y-236220000D02*
X501055000Y-226060000D01*
X511215000Y-243840000D02*
X511215000Y-236220000D01*
%TO.N,SW19*%
X292775000Y-213797500D02*
X304257500Y-225280000D01*
X450255000Y-231140000D02*
X447715000Y-228600000D01*
X452795000Y-231140000D02*
X450255000Y-231140000D01*
X292775000Y-210820000D02*
X292775000Y-213797500D01*
X460415000Y-238760000D02*
X452795000Y-231140000D01*
%TO.N,SW20*%
X437555000Y-238760000D02*
X384215000Y-238760000D01*
%TO.N,SW21*%
X384215000Y-241300000D02*
X379135000Y-236220000D01*
X407075000Y-241300000D02*
X384215000Y-241300000D01*
%TO.N,SW22*%
X323255000Y-231140000D02*
X323255000Y-233680000D01*
X371515000Y-231140000D02*
X323255000Y-231140000D01*
X381675000Y-241300000D02*
X371515000Y-231140000D01*
%TO.N,SW23*%
X328335000Y-241300000D02*
X318175000Y-231140000D01*
X353735000Y-241300000D02*
X328335000Y-241300000D01*
%TO.N,SW24*%
X328335000Y-243840000D02*
X318175000Y-233680000D01*
%TO.N,SW25*%
X313095000Y-238760000D02*
X313095000Y-231140000D01*
X310555000Y-241300000D02*
X313095000Y-238760000D01*
X308015000Y-243840000D02*
X310555000Y-241300000D01*
X300395000Y-243840000D02*
X308015000Y-243840000D01*
%TO.N,SW26*%
X272455000Y-231140000D02*
X277535000Y-226060000D01*
X272455000Y-241300000D02*
X272455000Y-231140000D01*
%TO.N,*%
X300302500Y-226060000D02*
X300302500Y-225280000D01*
X300395000Y-226060000D02*
X300302500Y-226060000D01*
%TO.N,SW11*%
X376595000Y-193040000D02*
X335955000Y-193040000D01*
X376700000Y-192935000D02*
X376595000Y-193040000D01*
X376700000Y-169400000D02*
X376700000Y-192935000D01*
%TO.N,SW12*%
X394375000Y-195580000D02*
X389295000Y-195580000D01*
X389295000Y-195580000D02*
X335955000Y-195580000D01*
X402100000Y-169400000D02*
X402100000Y-187855000D01*
X402100000Y-187855000D02*
X401995000Y-187960000D01*
X401995000Y-187960000D02*
X394375000Y-195580000D01*
%TO.N,SW13*%
X412155000Y-198120000D02*
X335955000Y-198120000D01*
X424855000Y-185420000D02*
X412155000Y-198120000D01*
X428717500Y-181557500D02*
X424855000Y-185420000D01*
X428717500Y-169400000D02*
X428717500Y-181557500D01*
%TO.N,SW14*%
X407075000Y-200660000D02*
X335955000Y-200660000D01*
X412155000Y-200660000D02*
X407075000Y-200660000D01*
X437555000Y-175260000D02*
X419775000Y-193040000D01*
X450255000Y-172720000D02*
X442635000Y-172720000D01*
X440095000Y-175260000D02*
X437555000Y-175260000D01*
X450797500Y-172720000D02*
X450255000Y-172720000D01*
X442635000Y-172720000D02*
X440095000Y-175260000D01*
X419775000Y-193040000D02*
X412155000Y-200660000D01*
X454117500Y-169400000D02*
X450797500Y-172720000D01*
%TO.N,SW15*%
X424855000Y-193040000D02*
X422315000Y-193040000D01*
X442635000Y-175260000D02*
X424855000Y-193040000D01*
X478195000Y-175260000D02*
X442635000Y-175260000D01*
X479517500Y-173937500D02*
X478195000Y-175260000D01*
X479517500Y-169400000D02*
X479517500Y-173937500D01*
%TO.N,SW16*%
X443085000Y-177350000D02*
X424855000Y-195580000D01*
X496967500Y-177350000D02*
X443085000Y-177350000D01*
X504917500Y-169400000D02*
X496967500Y-177350000D01*
%TO.N,SW10*%
X342900000Y-175260000D02*
X318175000Y-175260000D01*
X348760000Y-169400000D02*
X342900000Y-175260000D01*
%TO.N,SW9*%
X310110000Y-170625000D02*
X308015000Y-172720000D01*
X322135000Y-170625000D02*
X310110000Y-170625000D01*
X323360000Y-169400000D02*
X322135000Y-170625000D01*
%TO.N,SW8*%
X300822500Y-175260000D02*
X313095000Y-175260000D01*
X294962500Y-169400000D02*
X300822500Y-175260000D01*
%TO.N,SW7*%
X272800000Y-182500500D02*
X274995000Y-184695500D01*
X269915000Y-182500500D02*
X272800000Y-182500500D01*
X269915000Y-182500500D02*
X269915000Y-182880000D01*
X268702500Y-170783000D02*
X269915000Y-171995500D01*
X268702500Y-169400000D02*
X268702500Y-170783000D01*
%TO.N,SW6*%
X306017500Y-185420000D02*
X309337500Y-182100000D01*
X244515000Y-185420000D02*
X306017500Y-185420000D01*
X244515000Y-182500500D02*
X244515000Y-185420000D01*
X243735000Y-169400000D02*
X244515000Y-170180000D01*
X240757500Y-169400000D02*
X243735000Y-169400000D01*
%TO.N,SW5*%
X221435000Y-169960000D02*
X221655000Y-170180000D01*
X215440000Y-169960000D02*
X221435000Y-169960000D01*
%TO.N,SW4*%
X168589009Y-162560000D02*
X297855000Y-162560000D01*
X162215000Y-168934009D02*
X168589009Y-162560000D01*
X162215000Y-169865991D02*
X162215000Y-168934009D01*
X162874009Y-170525000D02*
X162215000Y-169865991D01*
X187157500Y-170525000D02*
X162874009Y-170525000D01*
X297855000Y-162560000D02*
X302935000Y-167640000D01*
X188282500Y-169400000D02*
X187157500Y-170525000D01*
%TO.N,SW3*%
X300395000Y-170180000D02*
X300395000Y-172720000D01*
X294590000Y-164375000D02*
X300395000Y-170180000D01*
X168365000Y-164375000D02*
X294590000Y-164375000D01*
X163340000Y-169400000D02*
X168365000Y-164375000D01*
%TO.N,SW2*%
X295315000Y-172720000D02*
X297855000Y-175260000D01*
X137835000Y-172720000D02*
X295315000Y-172720000D01*
X137940000Y-169400000D02*
X137940000Y-172615000D01*
X137940000Y-172615000D02*
X137835000Y-172720000D01*
%TO.N,SW1*%
X287511509Y-175260000D02*
X295315000Y-175260000D01*
X142915000Y-175260000D02*
X287511509Y-175260000D01*
X118650000Y-175260000D02*
X142915000Y-175260000D01*
X112540000Y-169150000D02*
X118650000Y-175260000D01*
%TO.N,Net-(U33-VDD)*%
X320327998Y-228014102D02*
X321498550Y-226843550D01*
X319497500Y-227183604D02*
X319497500Y-225280000D01*
X320133896Y-227820000D02*
X320327998Y-228014102D01*
%TO.N,Net-(D1-K)*%
X460415000Y-177800000D02*
X457875000Y-180340000D01*
X516087500Y-185212500D02*
X508675000Y-177800000D01*
X508675000Y-177800000D02*
X460415000Y-177800000D01*
X457875000Y-180340000D02*
X457875000Y-183915500D01*
X516087500Y-192260000D02*
X516087500Y-185212500D01*
%TO.N,Net-(U36-FB)*%
X452795000Y-203200000D02*
X455335000Y-203200000D01*
X452795000Y-196082500D02*
X452795000Y-203200000D01*
%TO.N,Net-(D1-K)*%
X457835000Y-198160000D02*
X457875000Y-198120000D01*
X456657500Y-198160000D02*
X457835000Y-198160000D01*
%TO.N,Net-(D65-K)*%
X438877500Y-202420000D02*
X438877500Y-207500000D01*
X441417500Y-199880000D02*
X438877500Y-202420000D01*
X449475000Y-199880000D02*
X450255000Y-200660000D01*
X441417500Y-199880000D02*
X449475000Y-199880000D01*
%TO.N,Net-(U36-FB)*%
X461737500Y-187140000D02*
X452795000Y-196082500D01*
X470587500Y-187140000D02*
X474437500Y-190990000D01*
X461737500Y-187140000D02*
X470587500Y-187140000D01*
%TO.N,Net-(U33-VDD)*%
X463007500Y-183370000D02*
X461737500Y-184640000D01*
X474437500Y-183370000D02*
X463007500Y-183370000D01*
X461737500Y-184640000D02*
X441417500Y-184640000D01*
X441417500Y-184640000D02*
X423637500Y-202420000D01*
X339275000Y-227820000D02*
X320133896Y-227820000D01*
X364675000Y-202420000D02*
X339275000Y-227820000D01*
X423637500Y-202420000D02*
X364675000Y-202420000D01*
%TO.N,Net-(U33-IO22)*%
X327117500Y-219360169D02*
X328367669Y-218110000D01*
X327117500Y-225280000D02*
X327117500Y-219360169D01*
X330200000Y-216535000D02*
X328768169Y-216535000D01*
X324577500Y-182100000D02*
X330875000Y-188397500D01*
X330875000Y-188397500D02*
X330875000Y-217210000D01*
X330875000Y-217210000D02*
X330200000Y-216535000D01*
X328768169Y-216535000D02*
X328367669Y-216935500D01*
%TO.N,Net-(U33-IO21)*%
X333322500Y-221615000D02*
X329657500Y-225280000D01*
X333322500Y-188305000D02*
X333322500Y-221615000D01*
X327117500Y-182100000D02*
X333322500Y-188305000D01*
%TO.N,Net-(U33-VDD)*%
X315832500Y-183225000D02*
X316957500Y-182100000D01*
X315832500Y-221615000D02*
X315832500Y-183225000D01*
X319497500Y-225280000D02*
X315832500Y-221615000D01*
X318081104Y-228600000D02*
X319497500Y-227183604D01*
X282615000Y-228600000D02*
X318081104Y-228600000D01*
X267375000Y-213360000D02*
X282615000Y-228600000D01*
X125885000Y-213360000D02*
X267375000Y-213360000D01*
X125125000Y-214120000D02*
X125885000Y-213360000D01*
X125125000Y-215120000D02*
X125125000Y-214120000D01*
%TO.N,Net-(U33-IO22)*%
X126890000Y-198115000D02*
X126395000Y-197620000D01*
X126890000Y-198695000D02*
X126890000Y-198115000D01*
X323255000Y-180777500D02*
X324577500Y-182100000D01*
X323255000Y-180340000D02*
X323255000Y-180777500D01*
X159495000Y-180340000D02*
X323255000Y-180340000D01*
X141140000Y-198695000D02*
X159495000Y-180340000D01*
X126890000Y-198695000D02*
X141140000Y-198695000D01*
%TO.N,Net-(U33-IO21)*%
X323255000Y-177800000D02*
X323255000Y-178237500D01*
X323255000Y-178237500D02*
X327117500Y-182100000D01*
X149025000Y-177800000D02*
X323255000Y-177800000D01*
X130205000Y-196620000D02*
X149025000Y-177800000D01*
X130205000Y-197620000D02*
X130205000Y-196620000D01*
%TO.N,Net-(R59-Pad1)*%
X170855000Y-258315000D02*
X169590000Y-259580000D01*
X170855000Y-254000000D02*
X170855000Y-258315000D01*
%TO.N,Net-(R57-Pad1)*%
X193715000Y-259190000D02*
X194885000Y-260360000D01*
X193715000Y-251460000D02*
X193715000Y-259190000D01*
%TO.N,Net-(R55-Pad1)*%
X219115000Y-259190000D02*
X220285000Y-260360000D01*
X219115000Y-251460000D02*
X219115000Y-259190000D01*
%TO.N,Net-(R53-Pad1)*%
X247055000Y-259085000D02*
X248330000Y-260360000D01*
X247055000Y-254000000D02*
X247055000Y-259085000D01*
%TO.N,Net-(R51-Pad1)*%
X272455000Y-259085000D02*
X273730000Y-260360000D01*
X272455000Y-254000000D02*
X272455000Y-259085000D01*
%TO.N,Net-(R49-Pad1)*%
X300395000Y-259095000D02*
X299130000Y-260360000D01*
X300395000Y-254000000D02*
X300395000Y-259095000D01*
%TO.N,Net-(R47-Pad1)*%
X328335000Y-259095000D02*
X327070000Y-260360000D01*
X328335000Y-254000000D02*
X328335000Y-259095000D01*
%TO.N,Net-(D56-A)*%
X217745000Y-257710000D02*
X217745000Y-260360000D01*
X208955000Y-248920000D02*
X217745000Y-257710000D01*
%TO.N,Net-(D54-A)*%
X236895000Y-251465000D02*
X245790000Y-260360000D01*
X236895000Y-249120000D02*
X236895000Y-251465000D01*
%TO.N,Net-(D50-A)*%
X296395000Y-260360000D02*
X296590000Y-260360000D01*
X285155000Y-249120000D02*
X296395000Y-260360000D01*
%TO.N,Net-(D52-A)*%
X271190000Y-257815000D02*
X271190000Y-260360000D01*
X262295000Y-248920000D02*
X271190000Y-257815000D01*
%TO.N,Net-(D48-A)*%
X324530000Y-257815000D02*
X324530000Y-260360000D01*
X315635000Y-248920000D02*
X324530000Y-257815000D01*
%TO.N,Net-(D42-A)*%
X396915000Y-254005000D02*
X403270000Y-260360000D01*
X396915000Y-248920000D02*
X396915000Y-254005000D01*
%TO.N,Net-(D44-A)*%
X377870000Y-257815000D02*
X377870000Y-260360000D01*
X368975000Y-248920000D02*
X377870000Y-257815000D01*
%TO.N,Net-(D46-A)*%
X341035000Y-251465000D02*
X349930000Y-260360000D01*
X341035000Y-249120000D02*
X341035000Y-251465000D01*
%TO.N,Net-(R41-Pad1)*%
X407075000Y-259095000D02*
X405810000Y-260360000D01*
X407075000Y-256540000D02*
X407075000Y-259095000D01*
%TO.N,Net-(R43-Pad1)*%
X381675000Y-259095000D02*
X380410000Y-260360000D01*
X381675000Y-256540000D02*
X381675000Y-259095000D01*
%TO.N,Net-(R45-Pad1)*%
X352470000Y-260345000D02*
X352470000Y-260360000D01*
X353735000Y-259080000D02*
X352470000Y-260345000D01*
X353735000Y-256540000D02*
X353735000Y-259080000D01*
%TO.N,Net-(D63-A)*%
X120055000Y-299720000D02*
X120055000Y-301480000D01*
X127675000Y-292100000D02*
X120055000Y-299720000D01*
%TO.N,Net-(D61-A)*%
X155615000Y-292800500D02*
X155615000Y-295182500D01*
X155615000Y-295182500D02*
X149317500Y-301480000D01*
%TO.N,Net-(D59-A)*%
X178475000Y-295182500D02*
X172177500Y-301480000D01*
X178475000Y-292020500D02*
X178475000Y-295182500D01*
%TO.N,Net-(D57-A)*%
X201335000Y-297617500D02*
X197472500Y-301480000D01*
X201335000Y-292800500D02*
X201335000Y-297617500D01*
%TO.N,Net-(D55-A)*%
X229275000Y-295077500D02*
X222872500Y-301480000D01*
X229275000Y-292800500D02*
X229275000Y-295077500D01*
%TO.N,Net-(D53-A)*%
X257215000Y-295182500D02*
X250917500Y-301480000D01*
X257215000Y-292100000D02*
X257215000Y-295182500D01*
%TO.N,Net-(D51-A)*%
X282615000Y-295182500D02*
X276317500Y-301480000D01*
X282615000Y-292800500D02*
X282615000Y-295182500D01*
%TO.N,Net-(D49-A)*%
X308015000Y-292800500D02*
X308015000Y-295182500D01*
X308015000Y-295182500D02*
X301717500Y-301480000D01*
%TO.N,Net-(D47-A)*%
X335955000Y-295182500D02*
X329657500Y-301480000D01*
X335955000Y-292800500D02*
X335955000Y-295182500D01*
%TO.N,Net-(D45-A)*%
X358815000Y-292800500D02*
X358815000Y-297722500D01*
X358815000Y-297722500D02*
X355057500Y-301480000D01*
%TO.N,Net-(D43-A)*%
X386755000Y-297722500D02*
X382997500Y-301480000D01*
X386755000Y-292800500D02*
X386755000Y-297722500D01*
%TO.N,Net-(D41-A)*%
X412155000Y-292800500D02*
X412155000Y-297722500D01*
X412155000Y-297722500D02*
X408397500Y-301480000D01*
%TO.N,Net-(D37-A)*%
X465495000Y-292800500D02*
X465495000Y-298940000D01*
X465495000Y-298940000D02*
X462955000Y-301480000D01*
%TO.N,Net-(D39-A)*%
X442635000Y-297722500D02*
X438877500Y-301480000D01*
X442635000Y-292100000D02*
X442635000Y-297722500D01*
%TO.N,Net-(D35-A)*%
X490895000Y-298940000D02*
X488355000Y-301480000D01*
X490895000Y-292800500D02*
X490895000Y-298940000D01*
%TO.N,Net-(D8-A)*%
X186095000Y-165100000D02*
X186095000Y-165482500D01*
X186095000Y-165482500D02*
X182337500Y-169240000D01*
%TO.N,Net-(D10-A)*%
X211495000Y-165100000D02*
X211495000Y-165642500D01*
X211495000Y-165642500D02*
X207737500Y-169400000D01*
%TO.N,Net-(D12-A)*%
X236895000Y-165100000D02*
X236895000Y-165482500D01*
X236895000Y-165482500D02*
X233137500Y-169240000D01*
%TO.N,Net-(D14-A)*%
X264835000Y-165642500D02*
X261077500Y-169400000D01*
X264835000Y-165100000D02*
X264835000Y-165642500D01*
%TO.N,Net-(D16-A)*%
X292282000Y-165975500D02*
X289017500Y-169240000D01*
X292775000Y-165975500D02*
X292282000Y-165975500D01*
%TO.N,Net-(D18-A)*%
X320715000Y-165642500D02*
X316957500Y-169400000D01*
X320715000Y-165100000D02*
X320715000Y-165642500D01*
%TO.N,Net-(D20-A)*%
X346115000Y-165482500D02*
X342357500Y-169240000D01*
X346115000Y-165100000D02*
X346115000Y-165482500D01*
%TO.N,Net-(D22-A)*%
X374055000Y-165975500D02*
X373562000Y-165975500D01*
X373562000Y-165975500D02*
X370297500Y-169240000D01*
%TO.N,Net-(D24-A)*%
X398962000Y-166135500D02*
X395697500Y-169400000D01*
X399852521Y-166135500D02*
X398962000Y-166135500D01*
%TO.N,Net-(Q6-B)*%
X236895000Y-129110500D02*
X235677500Y-130328000D01*
X235677500Y-130328000D02*
X235677500Y-136380000D01*
%TO.N,Net-(Q4-B)*%
X183202500Y-127352500D02*
X183202500Y-136380000D01*
X183555000Y-127000000D02*
X183202500Y-127352500D01*
%TO.N,Net-(Q3-B)*%
X163340000Y-131300000D02*
X158260000Y-136380000D01*
X163340000Y-128760000D02*
X163340000Y-131300000D01*
%TO.N,Net-(D5-A)*%
X158260000Y-124950000D02*
X162070000Y-128760000D01*
X158260000Y-121140000D02*
X158260000Y-124950000D01*
X159477500Y-113520000D02*
X159477500Y-119922500D01*
X159477500Y-119922500D02*
X158260000Y-121140000D01*
%TO.N,Net-(D7-A)*%
X184420000Y-119922500D02*
X183202500Y-121140000D01*
X184420000Y-113520000D02*
X184420000Y-119922500D01*
X183202500Y-124950000D02*
X187012500Y-128760000D01*
X183202500Y-121140000D02*
X183202500Y-124950000D01*
%TO.N,Net-(D9-A)*%
X211577500Y-119380000D02*
X214170000Y-121972500D01*
X211577500Y-119380000D02*
X211577500Y-120482500D01*
X211577500Y-114080000D02*
X211577500Y-119380000D01*
X214170000Y-121972500D02*
X214170000Y-129320000D01*
X211577500Y-120482500D02*
X210360000Y-121700000D01*
%TO.N,Net-(D1-K)*%
X219197500Y-120377500D02*
X220520000Y-121700000D01*
X219197500Y-114080000D02*
X219197500Y-120377500D01*
X193757500Y-111802500D02*
X193800000Y-111760000D01*
X193757500Y-111802500D02*
X193362500Y-112197500D01*
X192040000Y-113520000D02*
X193757500Y-111802500D01*
X193362500Y-112197500D02*
X193362500Y-121140000D01*
X167097500Y-119817500D02*
X168420000Y-121140000D01*
X167097500Y-113520000D02*
X167097500Y-119817500D01*
X116297500Y-119817500D02*
X117620000Y-121140000D01*
X116297500Y-113520000D02*
X116297500Y-119817500D01*
X117515000Y-111845000D02*
X116297500Y-111845000D01*
X117515000Y-109220000D02*
X117515000Y-111845000D01*
X140375000Y-106680000D02*
X120055000Y-106680000D01*
X141697500Y-108002500D02*
X140375000Y-106680000D01*
X120055000Y-106680000D02*
X117515000Y-109220000D01*
X141697500Y-113520000D02*
X141697500Y-108002500D01*
X153855000Y-113520000D02*
X141697500Y-113520000D01*
X164015000Y-109220000D02*
X158155000Y-109220000D01*
X158155000Y-109220000D02*
X153855000Y-113520000D01*
X168315000Y-113520000D02*
X164015000Y-109220000D01*
X168315000Y-113520000D02*
X167097500Y-113520000D01*
X171635000Y-113520000D02*
X168315000Y-113520000D01*
X175935000Y-109220000D02*
X171635000Y-113520000D01*
X187740000Y-109220000D02*
X175935000Y-109220000D01*
X192040000Y-113520000D02*
X187740000Y-109220000D01*
X216877500Y-111760000D02*
X219197500Y-114080000D01*
X193800000Y-111760000D02*
X216877500Y-111760000D01*
X220982500Y-112295000D02*
X219197500Y-114080000D01*
X244515000Y-113520000D02*
X243290000Y-112295000D01*
X243290000Y-112295000D02*
X220982500Y-112295000D01*
%TO.N,Net-(D11-A)*%
X235677500Y-124950000D02*
X239487500Y-128760000D01*
X235677500Y-121140000D02*
X235677500Y-124950000D01*
X236895000Y-113520000D02*
X236895000Y-119922500D01*
X236895000Y-119922500D02*
X235677500Y-121140000D01*
%TO.N,Net-(D13-A)*%
X266674500Y-121140000D02*
X267375000Y-121840500D01*
X263622500Y-121140000D02*
X266674500Y-121140000D01*
X264840000Y-119922500D02*
X263622500Y-121140000D01*
X264840000Y-113520000D02*
X264840000Y-119922500D01*
%TO.N,Net-(D1-K)*%
X244515000Y-119817500D02*
X245837500Y-121140000D01*
X244515000Y-113520000D02*
X244515000Y-119817500D01*
X272357500Y-122565000D02*
X247262500Y-122565000D01*
X273782500Y-121140000D02*
X272357500Y-122565000D01*
X247262500Y-122565000D02*
X245837500Y-121140000D01*
X272460000Y-119817500D02*
X273782500Y-121140000D01*
X272460000Y-113520000D02*
X272460000Y-119817500D01*
X272460000Y-111765000D02*
X272460000Y-113520000D01*
X272455000Y-111760000D02*
X272460000Y-111765000D01*
X296960000Y-111760000D02*
X272455000Y-111760000D01*
X298720000Y-113520000D02*
X296960000Y-111760000D01*
X298720000Y-113520000D02*
X298720000Y-119817500D01*
X298720000Y-119817500D02*
X300042500Y-121140000D01*
X325892500Y-112295000D02*
X299945000Y-112295000D01*
X327117500Y-113520000D02*
X325892500Y-112295000D01*
X299945000Y-112295000D02*
X298720000Y-113520000D01*
X337285000Y-112295000D02*
X328440000Y-121140000D01*
X346345000Y-112295000D02*
X337285000Y-112295000D01*
X353840000Y-119790000D02*
X346345000Y-112295000D01*
X353840000Y-121140000D02*
X353840000Y-119790000D01*
X327117500Y-119817500D02*
X328440000Y-121140000D01*
X327117500Y-113520000D02*
X327117500Y-119817500D01*
%TO.N,Net-(D17-A)*%
X319497500Y-119922500D02*
X318280000Y-121140000D01*
X319497500Y-113520000D02*
X319497500Y-119922500D01*
X318280000Y-124950000D02*
X322090000Y-128760000D01*
X318280000Y-121140000D02*
X318280000Y-124950000D01*
%TO.N,Net-(D19-A)*%
X343680000Y-124950000D02*
X347490000Y-128760000D01*
X343680000Y-121140000D02*
X343680000Y-124950000D01*
X344897500Y-119922500D02*
X343680000Y-121140000D01*
X344897500Y-113520000D02*
X344897500Y-119922500D01*
%TO.N,Net-(D21-A)*%
X372837500Y-119922500D02*
X371620000Y-121140000D01*
X372837500Y-113520000D02*
X372837500Y-119922500D01*
X375430000Y-128375000D02*
X371515000Y-124460000D01*
X375430000Y-128760000D02*
X375430000Y-128375000D01*
%TO.N,Net-(Q11-B)*%
X376700000Y-131300000D02*
X371620000Y-136380000D01*
X376700000Y-128760000D02*
X376700000Y-131300000D01*
%TO.N,Net-(Q12-B)*%
X402100000Y-131300000D02*
X397020000Y-136380000D01*
X402100000Y-128760000D02*
X402100000Y-131300000D01*
%TO.N,Net-(D23-A)*%
X400830000Y-126960500D02*
X400830000Y-128760000D01*
X398754500Y-121140000D02*
X399455000Y-121840500D01*
X397020000Y-121140000D02*
X398754500Y-121140000D01*
X398237500Y-113520000D02*
X398237500Y-119922500D01*
X398237500Y-119922500D02*
X397020000Y-121140000D01*
%TO.N,Net-(Q13-B)*%
X428717500Y-131300000D02*
X423637500Y-136380000D01*
X428717500Y-128760000D02*
X428717500Y-131300000D01*
%TO.N,Net-(D25-A)*%
X427447500Y-128760000D02*
X427447500Y-123015000D01*
X427447500Y-121840500D02*
X427447500Y-122115000D01*
X426747000Y-121140000D02*
X427447500Y-121840500D01*
X423637500Y-121140000D02*
X426747000Y-121140000D01*
X424855000Y-113520000D02*
X424855000Y-119922500D01*
X424855000Y-119922500D02*
X423637500Y-121140000D01*
%TO.N,Net-(R26-Pad2)*%
X433797500Y-137655000D02*
X427452500Y-144000000D01*
X433797500Y-136380000D02*
X433797500Y-137655000D01*
%TO.N,Net-(D26-A)*%
X427452500Y-162885000D02*
X421097500Y-169240000D01*
X427452500Y-151620000D02*
X427452500Y-162885000D01*
%TO.N,Net-(R25-Pad1)*%
X429992500Y-157965000D02*
X428717500Y-159240000D01*
X429992500Y-151620000D02*
X429992500Y-157965000D01*
%TO.N,Net-(R28-Pad2)*%
X459197500Y-136380000D02*
X459197500Y-137655000D01*
X459197500Y-137655000D02*
X452852500Y-144000000D01*
%TO.N,Net-(D28-A)*%
X452852500Y-163045000D02*
X446497500Y-169400000D01*
X452852500Y-151620000D02*
X452852500Y-163045000D01*
%TO.N,Net-(R27-Pad1)*%
X455392500Y-157965000D02*
X454117500Y-159240000D01*
X455392500Y-151620000D02*
X455392500Y-157965000D01*
%TO.N,Net-(D30-A)*%
X478252500Y-162885000D02*
X471897500Y-169240000D01*
X478252500Y-151620000D02*
X478252500Y-162885000D01*
%TO.N,Net-(R29-Pad1)*%
X480792500Y-157965000D02*
X479517500Y-159240000D01*
X480792500Y-151620000D02*
X480792500Y-157965000D01*
%TO.N,Net-(D32-A)*%
X503652500Y-151620000D02*
X503652500Y-163045000D01*
X503652500Y-163045000D02*
X497297500Y-169400000D01*
%TO.N,*%
X496072500Y-168175000D02*
X496431294Y-168533794D01*
X496072500Y-165635000D02*
X496072500Y-168175000D01*
X497297500Y-165635000D02*
X496072500Y-165635000D01*
%TO.N,Net-(R31-Pad1)*%
X506192500Y-157965000D02*
X504917500Y-159240000D01*
X506192500Y-151620000D02*
X506192500Y-157965000D01*
%TO.N,Net-(R32-Pad2)*%
X504777500Y-145125000D02*
X503652500Y-144000000D01*
X506658491Y-145125000D02*
X504777500Y-145125000D01*
X509997500Y-136380000D02*
X509997500Y-141785991D01*
X509997500Y-141785991D02*
X506658491Y-145125000D01*
%TO.N,Net-(R30-Pad2)*%
X484597500Y-137655000D02*
X478252500Y-144000000D01*
X484597500Y-136380000D02*
X484597500Y-137655000D01*
%TO.N,Net-(Q15-B)*%
X479517500Y-131300000D02*
X474437500Y-136380000D01*
X479517500Y-128760000D02*
X479517500Y-131300000D01*
%TO.N,Net-(Q14-B)*%
X454117500Y-131300000D02*
X449037500Y-136380000D01*
X454117500Y-128760000D02*
X454117500Y-131300000D01*
%TO.N,Net-(D27-A)*%
X450255000Y-117712500D02*
X449037500Y-118930000D01*
X450255000Y-113520000D02*
X450255000Y-117712500D01*
X449037500Y-124950000D02*
X452847500Y-128760000D01*
X449037500Y-121140000D02*
X449037500Y-124950000D01*
%TO.N,Net-(D29-A)*%
X478247500Y-128760000D02*
X478247500Y-123015000D01*
X477547000Y-121140000D02*
X478247500Y-121840500D01*
X474437500Y-121140000D02*
X477547000Y-121140000D01*
%TO.N,Net-(D31-A)*%
X503647500Y-128760000D02*
X503647500Y-123015000D01*
X499837500Y-121140000D02*
X502947000Y-121140000D01*
X502947000Y-121140000D02*
X503647500Y-121840500D01*
X501055000Y-119922500D02*
X499837500Y-121140000D01*
X501055000Y-113520000D02*
X501055000Y-119922500D01*
%TO.N,Net-(D1-K)*%
X509997500Y-114842500D02*
X508675000Y-113520000D01*
X509997500Y-121140000D02*
X509997500Y-114842500D01*
X484597500Y-114842500D02*
X483275000Y-113520000D01*
X484597500Y-121140000D02*
X484597500Y-114842500D01*
X459197500Y-114842500D02*
X457875000Y-113520000D01*
X459197500Y-121140000D02*
X459197500Y-114842500D01*
X433797500Y-121140000D02*
X433797500Y-114842500D01*
X433797500Y-114842500D02*
X432475000Y-113520000D01*
X407180000Y-114842500D02*
X405857500Y-113520000D01*
X407180000Y-121140000D02*
X407180000Y-114842500D01*
X381780000Y-114842500D02*
X380457500Y-113520000D01*
X381780000Y-121140000D02*
X381780000Y-114842500D01*
X353840000Y-114842500D02*
X352517500Y-113520000D01*
X353840000Y-121140000D02*
X353840000Y-114842500D01*
X355265000Y-122565000D02*
X353840000Y-121140000D01*
X380355000Y-122565000D02*
X355265000Y-122565000D01*
X381780000Y-121140000D02*
X380355000Y-122565000D01*
X383205000Y-122565000D02*
X381780000Y-121140000D01*
X407180000Y-121140000D02*
X405755000Y-122565000D01*
X405755000Y-122565000D02*
X383205000Y-122565000D01*
X408605000Y-122565000D02*
X407180000Y-121140000D01*
X432372500Y-122565000D02*
X408605000Y-122565000D01*
X433797500Y-121140000D02*
X432372500Y-122565000D01*
X435015000Y-119922500D02*
X433797500Y-121140000D01*
X435015000Y-119380000D02*
X435015000Y-119922500D01*
X457437500Y-119380000D02*
X435015000Y-119380000D01*
X459197500Y-121140000D02*
X457437500Y-119380000D01*
%TO.N,Net-(R4-Pad2)*%
X143020000Y-137655000D02*
X136675000Y-144000000D01*
X143020000Y-136380000D02*
X143020000Y-137655000D01*
%TO.N,Net-(D1-K)*%
X114940000Y-145125000D02*
X113815000Y-144000000D01*
X140030000Y-145125000D02*
X114940000Y-145125000D01*
X139595000Y-144000000D02*
X140375000Y-144780000D01*
X139215000Y-144000000D02*
X139595000Y-144000000D01*
X140375000Y-144780000D02*
X140030000Y-145125000D01*
X140340000Y-145125000D02*
X139215000Y-144000000D01*
X163490000Y-145125000D02*
X140340000Y-145125000D01*
X164615000Y-144000000D02*
X163490000Y-145125000D01*
X165740000Y-145125000D02*
X164615000Y-144000000D01*
X189557500Y-144000000D02*
X188432500Y-145125000D01*
X188432500Y-145125000D02*
X165740000Y-145125000D01*
X191242500Y-145685000D02*
X189557500Y-144000000D01*
X215590000Y-145685000D02*
X191242500Y-145685000D01*
X216715000Y-144560000D02*
X215590000Y-145685000D01*
X240907500Y-145125000D02*
X217280000Y-145125000D01*
X217280000Y-145125000D02*
X216715000Y-144560000D01*
X242032500Y-144000000D02*
X240907500Y-145125000D01*
X242032500Y-144722500D02*
X242032500Y-144000000D01*
X241975000Y-144780000D02*
X242032500Y-144722500D01*
X242320000Y-145125000D02*
X241975000Y-144780000D01*
X268852500Y-145125000D02*
X242320000Y-145125000D01*
X269977500Y-144000000D02*
X268852500Y-145125000D01*
X295112500Y-145125000D02*
X271102500Y-145125000D01*
X296237500Y-144000000D02*
X295112500Y-145125000D01*
X271102500Y-145125000D02*
X269977500Y-144000000D01*
X323510000Y-145125000D02*
X297362500Y-145125000D01*
X324635000Y-144000000D02*
X323510000Y-145125000D01*
X297362500Y-145125000D02*
X296237500Y-144000000D01*
X325760000Y-145125000D02*
X324635000Y-144000000D01*
X348910000Y-145125000D02*
X325760000Y-145125000D01*
X350035000Y-144000000D02*
X348910000Y-145125000D01*
X351160000Y-145125000D02*
X350035000Y-144000000D01*
X377975000Y-144000000D02*
X376850000Y-145125000D01*
X376850000Y-145125000D02*
X351160000Y-145125000D01*
X379100000Y-145125000D02*
X377975000Y-144000000D01*
X402250000Y-145125000D02*
X379100000Y-145125000D01*
X403375000Y-144000000D02*
X402250000Y-145125000D01*
%TO.N,*%
X403900000Y-142875000D02*
X403375000Y-142875000D01*
X404535000Y-142240000D02*
X403900000Y-142875000D01*
%TO.N,Net-(D1-K)*%
X428867500Y-145125000D02*
X404500000Y-145125000D01*
X429992500Y-144000000D02*
X428867500Y-145125000D01*
X404500000Y-145125000D02*
X403375000Y-144000000D01*
X431117500Y-145125000D02*
X429992500Y-144000000D01*
X454267500Y-145125000D02*
X431117500Y-145125000D01*
X455392500Y-144000000D02*
X454267500Y-145125000D01*
X462955000Y-139700000D02*
X458655000Y-144000000D01*
X462955000Y-124897500D02*
X462955000Y-139700000D01*
X458655000Y-144000000D02*
X455392500Y-144000000D01*
X459197500Y-121140000D02*
X462955000Y-124897500D01*
X488355000Y-142240000D02*
X486595000Y-144000000D01*
X488355000Y-124897500D02*
X488355000Y-142240000D01*
X486595000Y-144000000D02*
X480792500Y-144000000D01*
X484597500Y-121140000D02*
X488355000Y-124897500D01*
X460622500Y-122565000D02*
X459197500Y-121140000D01*
X484597500Y-121140000D02*
X483172500Y-122565000D01*
X483172500Y-122565000D02*
X460622500Y-122565000D01*
X486022500Y-122565000D02*
X484597500Y-121140000D01*
X508572500Y-122565000D02*
X486022500Y-122565000D01*
X509997500Y-121140000D02*
X508572500Y-122565000D01*
X506192500Y-130182082D02*
X509997500Y-126377082D01*
X509997500Y-126377082D02*
X509997500Y-121140000D01*
X506192500Y-144000000D02*
X506192500Y-130182082D01*
X516087500Y-149652500D02*
X511215000Y-144780000D01*
X516087500Y-192260000D02*
X516087500Y-149652500D01*
%TO.N,GNDREF*%
X324577500Y-187180000D02*
X319497500Y-182100000D01*
X324577500Y-189720000D02*
X324577500Y-187180000D01*
X327117500Y-189720000D02*
X329657500Y-189720000D01*
X324577500Y-189720000D02*
X327117500Y-189720000D01*
X327117500Y-192260000D02*
X324577500Y-189720000D01*
X327117500Y-217660000D02*
X327117500Y-192260000D01*
X120055000Y-287020000D02*
X117515000Y-284480000D01*
X145455000Y-287020000D02*
X120055000Y-287020000D01*
X117515000Y-284480000D02*
X117462500Y-284480000D01*
X147995000Y-284480000D02*
X146725000Y-284480000D01*
X147995000Y-284480000D02*
X145455000Y-287020000D01*
X150535000Y-284480000D02*
X147995000Y-284480000D01*
X153075000Y-287020000D02*
X150535000Y-284480000D01*
X166490000Y-287020000D02*
X153075000Y-287020000D01*
X169585000Y-283925000D02*
X166490000Y-287020000D01*
X169585000Y-283700000D02*
X169585000Y-283925000D01*
X171440000Y-285555000D02*
X169585000Y-283700000D01*
X194030000Y-285555000D02*
X171440000Y-285555000D01*
X194880000Y-284705000D02*
X194030000Y-285555000D01*
X194880000Y-284480000D02*
X194880000Y-284705000D01*
X195955000Y-285555000D02*
X194880000Y-284480000D01*
X219430000Y-285555000D02*
X195955000Y-285555000D01*
X220280000Y-284480000D02*
X220280000Y-284705000D01*
X220280000Y-284705000D02*
X219430000Y-285555000D01*
X221355000Y-285555000D02*
X220280000Y-284480000D01*
X247475000Y-285555000D02*
X221355000Y-285555000D01*
X248325000Y-284705000D02*
X247475000Y-285555000D01*
X248325000Y-284480000D02*
X248325000Y-284705000D01*
X267375000Y-287020000D02*
X264835000Y-284480000D01*
X264835000Y-284480000D02*
X248325000Y-284480000D01*
X271410000Y-287020000D02*
X267375000Y-287020000D01*
X273725000Y-284705000D02*
X271410000Y-287020000D01*
X273725000Y-284480000D02*
X273725000Y-284705000D01*
X274800000Y-285555000D02*
X273725000Y-284480000D01*
X298275000Y-285555000D02*
X274800000Y-285555000D01*
X299125000Y-284705000D02*
X298275000Y-285555000D01*
X299125000Y-284480000D02*
X299125000Y-284705000D01*
X301665000Y-287020000D02*
X299125000Y-284480000D01*
X324750000Y-287020000D02*
X301665000Y-287020000D01*
X327065000Y-284480000D02*
X327065000Y-284705000D01*
X327065000Y-284705000D02*
X324750000Y-287020000D01*
X351615000Y-285555000D02*
X328140000Y-285555000D01*
X352465000Y-284705000D02*
X351615000Y-285555000D01*
X352465000Y-284480000D02*
X352465000Y-284705000D01*
X328140000Y-285555000D02*
X327065000Y-284480000D01*
X355005000Y-287020000D02*
X352465000Y-284480000D01*
X378090000Y-287020000D02*
X355005000Y-287020000D01*
X380405000Y-284480000D02*
X380405000Y-284705000D01*
X380405000Y-284705000D02*
X378090000Y-287020000D01*
X381480000Y-285555000D02*
X380405000Y-284480000D01*
X405805000Y-284705000D02*
X404955000Y-285555000D01*
X405805000Y-284480000D02*
X405805000Y-284705000D01*
X404955000Y-285555000D02*
X381480000Y-285555000D01*
X408150000Y-283405000D02*
X407075000Y-284480000D01*
X407075000Y-284480000D02*
X405805000Y-284480000D01*
X437360000Y-283405000D02*
X408150000Y-283405000D01*
X437360000Y-283405000D02*
X436285000Y-284480000D01*
X459512500Y-283405000D02*
X437360000Y-283405000D01*
X460362500Y-284255000D02*
X459512500Y-283405000D01*
X460362500Y-284480000D02*
X460362500Y-284255000D01*
X485815000Y-284480000D02*
X485815000Y-284584582D01*
X488355000Y-281940000D02*
X485815000Y-284480000D01*
X508675000Y-281940000D02*
X488355000Y-281940000D01*
X485815000Y-284584582D02*
X484844582Y-285555000D01*
X461437500Y-285555000D02*
X460362500Y-284480000D01*
X511215000Y-284480000D02*
X508675000Y-281940000D01*
X484844582Y-285555000D02*
X461437500Y-285555000D01*
X511215000Y-284480000D02*
X509945000Y-284480000D01*
X511215000Y-281940000D02*
X511215000Y-284480000D01*
X503595000Y-279400000D02*
X508675000Y-279400000D01*
X499740000Y-275545000D02*
X503595000Y-279400000D01*
X499740000Y-247805000D02*
X499740000Y-275545000D01*
X498515000Y-246580000D02*
X499740000Y-247805000D01*
X508675000Y-279400000D02*
X511215000Y-281940000D01*
X497190000Y-245255000D02*
X498515000Y-246580000D01*
X476980000Y-245255000D02*
X497190000Y-245255000D01*
X475655000Y-246580000D02*
X476980000Y-245255000D01*
X474330000Y-245255000D02*
X475655000Y-246580000D01*
X450255000Y-246580000D02*
X451580000Y-245255000D01*
X451580000Y-245255000D02*
X474330000Y-245255000D01*
X462662500Y-219083528D02*
X462586028Y-219160000D01*
X462662500Y-210965000D02*
X462662500Y-219083528D01*
X456657500Y-204960000D02*
X462662500Y-210965000D01*
X462586028Y-219160000D02*
X461737500Y-219160000D01*
X456657500Y-204960000D02*
X456657500Y-201560000D01*
X457067500Y-201150000D02*
X456657500Y-201560000D01*
X474437500Y-201150000D02*
X457067500Y-201150000D01*
X474672500Y-201385000D02*
X474437500Y-201150000D01*
X501782500Y-201385000D02*
X474672500Y-201385000D01*
X510907500Y-192260000D02*
X501782500Y-201385000D01*
X438877500Y-219160000D02*
X423637500Y-203920000D01*
X438877500Y-222740000D02*
X438877500Y-219160000D01*
X442457500Y-219160000D02*
X461737500Y-219160000D01*
X438877500Y-222740000D02*
X442457500Y-219160000D01*
X450255000Y-234117500D02*
X438877500Y-222740000D01*
X450255000Y-246580000D02*
X450255000Y-234117500D01*
X447715000Y-241300000D02*
X450255000Y-243840000D01*
X429935000Y-241300000D02*
X447715000Y-241300000D01*
X427395000Y-243840000D02*
X429935000Y-241300000D01*
X427395000Y-246580000D02*
X427395000Y-243840000D01*
X450255000Y-243840000D02*
X450255000Y-246580000D01*
X398040000Y-245255000D02*
X426070000Y-245255000D01*
X396915000Y-246380000D02*
X398040000Y-245255000D01*
X426070000Y-245255000D02*
X427395000Y-246580000D01*
X370100000Y-245255000D02*
X395790000Y-245255000D01*
X395790000Y-245255000D02*
X396915000Y-246380000D01*
X368975000Y-246380000D02*
X370100000Y-245255000D01*
X367850000Y-245255000D02*
X368975000Y-246380000D01*
X341035000Y-246580000D02*
X342360000Y-245255000D01*
X342360000Y-245255000D02*
X367850000Y-245255000D01*
X329657500Y-217660000D02*
X332197500Y-217660000D01*
X327117500Y-217660000D02*
X329657500Y-217660000D01*
X322037500Y-222740000D02*
X327117500Y-217660000D01*
X322037500Y-225280000D02*
X322037500Y-222740000D01*
X339710000Y-245255000D02*
X341035000Y-246580000D01*
X316760000Y-245255000D02*
X339710000Y-245255000D01*
X315635000Y-246380000D02*
X316760000Y-245255000D01*
X315635000Y-231682500D02*
X322037500Y-225280000D01*
X315635000Y-246380000D02*
X315635000Y-231682500D01*
X315435000Y-246580000D02*
X315635000Y-246380000D01*
X299530000Y-246580000D02*
X315435000Y-246580000D01*
X298605000Y-247505000D02*
X299530000Y-246580000D01*
X297389009Y-247505000D02*
X298605000Y-247505000D01*
%TO.N,Net-(R6-Pad2)*%
X168420000Y-137655000D02*
X162075000Y-144000000D01*
X168420000Y-136380000D02*
X168420000Y-137655000D01*
%TO.N,Net-(R5-Pad1)*%
X164615000Y-157965000D02*
X163340000Y-159240000D01*
X164615000Y-151620000D02*
X164615000Y-157965000D01*
%TO.N,Net-(D6-A)*%
X162075000Y-164102500D02*
X156937500Y-169240000D01*
X162075000Y-151620000D02*
X162075000Y-164102500D01*
%TO.N,Net-(R3-Pad1)*%
X139215000Y-157965000D02*
X137940000Y-159240000D01*
X139215000Y-151620000D02*
X139215000Y-157965000D01*
%TO.N,Net-(D4-A)*%
X136675000Y-164102500D02*
X131537500Y-169240000D01*
X136675000Y-151620000D02*
X136675000Y-164102500D01*
%TO.N,Net-(D3-A)*%
X132860000Y-124950000D02*
X136670000Y-128760000D01*
X132860000Y-121140000D02*
X132860000Y-124950000D01*
%TO.N,Net-(D1-K)*%
X141697500Y-119817500D02*
X143020000Y-121140000D01*
X141697500Y-113520000D02*
X141697500Y-119817500D01*
%TO.N,Net-(D3-A)*%
X132860000Y-114737500D02*
X132860000Y-121140000D01*
X134077500Y-113520000D02*
X132860000Y-114737500D01*
%TO.N,GNDREF*%
X206415000Y-272945000D02*
X194880000Y-284480000D01*
X206415000Y-248920000D02*
X206415000Y-272945000D01*
X208955000Y-246380000D02*
X206415000Y-248920000D01*
X295139009Y-245255000D02*
X297389009Y-247505000D01*
X263420000Y-245255000D02*
X295139009Y-245255000D01*
X262295000Y-246380000D02*
X263420000Y-245255000D01*
X238020000Y-245255000D02*
X261170000Y-245255000D01*
X236895000Y-246380000D02*
X238020000Y-245255000D01*
X235770000Y-245255000D02*
X236895000Y-246380000D01*
X210080000Y-245255000D02*
X235770000Y-245255000D01*
X261170000Y-245255000D02*
X262295000Y-246380000D01*
X208955000Y-246380000D02*
X210080000Y-245255000D01*
X187420000Y-245255000D02*
X207830000Y-245255000D01*
X207830000Y-245255000D02*
X208955000Y-246380000D01*
X186095000Y-246580000D02*
X187420000Y-245255000D01*
X185950000Y-246725000D02*
X186095000Y-246580000D01*
X161620000Y-246725000D02*
X185950000Y-246725000D01*
X160695000Y-245800000D02*
X161620000Y-246725000D01*
X160150000Y-245255000D02*
X160695000Y-245800000D01*
X136420000Y-245255000D02*
X160150000Y-245255000D01*
X135295000Y-246380000D02*
X136420000Y-245255000D01*
X134170000Y-245255000D02*
X135295000Y-246380000D01*
X108680000Y-245255000D02*
X134170000Y-245255000D01*
X107355000Y-246580000D02*
X108680000Y-245255000D01*
X123855000Y-230080000D02*
X107355000Y-246580000D01*
X123855000Y-215120000D02*
X123855000Y-230080000D01*
X129670000Y-208575000D02*
X133175000Y-212080000D01*
X133175000Y-212080000D02*
X141615000Y-212080000D01*
X123855000Y-214120000D02*
X129400000Y-208575000D01*
X129400000Y-208575000D02*
X132720000Y-208575000D01*
X123855000Y-215120000D02*
X123855000Y-214120000D01*
X123855000Y-197620000D02*
X123855000Y-215120000D01*
X139210000Y-129039983D02*
X139650500Y-129480483D01*
X139210000Y-128760000D02*
X139210000Y-129039983D01*
%TO.N,Net-(Q2-B)*%
X137940000Y-128535000D02*
X137940000Y-128760000D01*
X140375000Y-129996370D02*
X140375000Y-127000000D01*
X133991370Y-136380000D02*
X140375000Y-129996370D01*
X140375000Y-127000000D02*
X139475000Y-127000000D01*
X139475000Y-127000000D02*
X137940000Y-128535000D01*
X132860000Y-136380000D02*
X133991370Y-136380000D01*
%TO.N,GNDREF*%
X135820000Y-129835000D02*
X138360000Y-129835000D01*
X118280000Y-112295000D02*
X135820000Y-129835000D01*
X115072500Y-112295000D02*
X118280000Y-112295000D01*
X113810000Y-113557500D02*
X115072500Y-112295000D01*
X138360000Y-129835000D02*
X139210000Y-128985000D01*
X139210000Y-128985000D02*
X139210000Y-128760000D01*
X113810000Y-128760000D02*
X113810000Y-113557500D01*
%TO.N,Net-(D1-K)*%
X139215000Y-144000000D02*
X138090000Y-145125000D01*
%TO.N,Net-(R1-Pad1)*%
X113815000Y-157715000D02*
X112540000Y-158990000D01*
X113815000Y-151620000D02*
X113815000Y-157715000D01*
%TO.N,*%
X113005991Y-160115000D02*
X112435000Y-160115000D01*
%TO.N,Net-(D2-A)*%
X111275000Y-161472500D02*
X106137500Y-166610000D01*
X111275000Y-151620000D02*
X111275000Y-161472500D01*
%TO.N,GNDREF*%
X106137500Y-156157500D02*
X106137500Y-164070000D01*
X111444009Y-142240000D02*
X107355000Y-142240000D01*
X107355000Y-154940000D02*
X106137500Y-156157500D01*
X107355000Y-142240000D02*
X107355000Y-154940000D01*
X113810000Y-139874009D02*
X111444009Y-142240000D01*
X113810000Y-128760000D02*
X113810000Y-139874009D01*
%TO.N,Net-(D1-K)*%
X118745000Y-122265000D02*
X117620000Y-121140000D01*
%TO.N,Net-(R2-Pad2)*%
X117620000Y-137655000D02*
X111275000Y-144000000D01*
X117620000Y-136380000D02*
X117620000Y-137655000D01*
%TO.N,Net-(Q1-B)*%
X112540000Y-131300000D02*
X107460000Y-136380000D01*
X112540000Y-128760000D02*
X112540000Y-131300000D01*
%TO.N,Net-(D1-A)*%
X107460000Y-124950000D02*
X111270000Y-128760000D01*
X107460000Y-121140000D02*
X107460000Y-124950000D01*
X107460000Y-114737500D02*
X107460000Y-121140000D01*
X108677500Y-113520000D02*
X107460000Y-114737500D01*
%TO.N,Net-(J16-Pin_2)*%
X506135000Y-93980000D02*
X506915000Y-93980000D01*
X506915000Y-93980000D02*
X508675000Y-95740000D01*
X504917500Y-92762500D02*
X506135000Y-93980000D01*
X504917500Y-67800000D02*
X504917500Y-92762500D01*
%TO.N,Net-(J16-Pin_1)*%
X499837500Y-94522500D02*
X501055000Y-95740000D01*
X499837500Y-67800000D02*
X499837500Y-94522500D01*
%TO.N,Net-(J15-Pin_2)*%
X483275000Y-71557500D02*
X483275000Y-95740000D01*
X479517500Y-67800000D02*
X483275000Y-71557500D01*
%TO.N,Net-(J15-Pin_1)*%
X474437500Y-67800000D02*
X474437500Y-94522500D01*
X474437500Y-94522500D02*
X475655000Y-95740000D01*
%TO.N,Net-(J14-Pin_2)*%
X457875000Y-71557500D02*
X457875000Y-95740000D01*
X454117500Y-67800000D02*
X457875000Y-71557500D01*
%TO.N,Net-(J14-Pin_1)*%
X449037500Y-67800000D02*
X449037500Y-94522500D01*
X449037500Y-94522500D02*
X450255000Y-95740000D01*
%TO.N,Net-(J13-Pin_1)*%
X423637500Y-94522500D02*
X424855000Y-95740000D01*
X423637500Y-67800000D02*
X423637500Y-94522500D01*
%TO.N,Net-(J13-Pin_2)*%
X432475000Y-93980000D02*
X432475000Y-95740000D01*
X428717500Y-67800000D02*
X428717500Y-90222500D01*
X428717500Y-90222500D02*
X432475000Y-93980000D01*
%TO.N,Net-(J12-Pin_2)*%
X403755000Y-95740000D02*
X405857500Y-95740000D01*
X401995000Y-93980000D02*
X403755000Y-95740000D01*
X402100000Y-93875000D02*
X401995000Y-93980000D01*
X402100000Y-67800000D02*
X402100000Y-93875000D01*
%TO.N,Net-(J12-Pin_1)*%
X393595000Y-95740000D02*
X398237500Y-95740000D01*
X391835000Y-93980000D02*
X393595000Y-95740000D01*
X391835000Y-68580000D02*
X391835000Y-93980000D01*
X392615000Y-67800000D02*
X391835000Y-68580000D01*
X397020000Y-67800000D02*
X392615000Y-67800000D01*
%TO.N,Net-(J11-Pin_2)*%
X376595000Y-91877500D02*
X380457500Y-95740000D01*
X376595000Y-91440000D02*
X376595000Y-91877500D01*
X376700000Y-91335000D02*
X376595000Y-91440000D01*
X376700000Y-67800000D02*
X376700000Y-91335000D01*
%TO.N,Net-(J11-Pin_1)*%
X366435000Y-93980000D02*
X368975000Y-96520000D01*
X372057500Y-96520000D02*
X372837500Y-95740000D01*
X366435000Y-71120000D02*
X366435000Y-93980000D01*
X369755000Y-67800000D02*
X366435000Y-71120000D01*
X371620000Y-67800000D02*
X369755000Y-67800000D01*
X368975000Y-96520000D02*
X372057500Y-96520000D01*
%TO.N,Net-(J10-Pin_2)*%
X352517500Y-92762500D02*
X352517500Y-95740000D01*
X348655000Y-88900000D02*
X352517500Y-92762500D01*
X348760000Y-88795000D02*
X348655000Y-88900000D01*
X348760000Y-67800000D02*
X348760000Y-88795000D01*
%TO.N,Net-(J10-Pin_1)*%
X342795000Y-95740000D02*
X344897500Y-95740000D01*
X338495000Y-68580000D02*
X338495000Y-91440000D01*
X338495000Y-91440000D02*
X342795000Y-95740000D01*
X339275000Y-67800000D02*
X338495000Y-68580000D01*
X343680000Y-67800000D02*
X339275000Y-67800000D01*
%TO.N,Net-(J9-Pin_1)*%
X317395000Y-95740000D02*
X319497500Y-95740000D01*
X313095000Y-91440000D02*
X317395000Y-95740000D01*
X313095000Y-68580000D02*
X313095000Y-91440000D01*
X313875000Y-67800000D02*
X313095000Y-68580000D01*
X318280000Y-67800000D02*
X313875000Y-67800000D01*
%TO.N,Net-(J9-Pin_2)*%
X323255000Y-93980000D02*
X325015000Y-95740000D01*
X323255000Y-86360000D02*
X323255000Y-93980000D01*
X323360000Y-86255000D02*
X323255000Y-86360000D01*
X325015000Y-95740000D02*
X327117500Y-95740000D01*
X323360000Y-67800000D02*
X323360000Y-86255000D01*
%TO.N,Net-(J8-Pin_2)*%
X294962500Y-91982500D02*
X298720000Y-95740000D01*
X294962500Y-67800000D02*
X294962500Y-91982500D01*
%TO.N,Net-(J8-Pin_1)*%
X288475000Y-95740000D02*
X291100000Y-95740000D01*
X287695000Y-96520000D02*
X288475000Y-95740000D01*
X285155000Y-68580000D02*
X285155000Y-93980000D01*
X285155000Y-93980000D02*
X287695000Y-96520000D01*
X285935000Y-67800000D02*
X285155000Y-68580000D01*
X289882500Y-67800000D02*
X285935000Y-67800000D01*
%TO.N,Net-(J7-Pin_2)*%
X270700000Y-93980000D02*
X272460000Y-95740000D01*
X269915000Y-93980000D02*
X270700000Y-93980000D01*
X268702500Y-92767500D02*
X269915000Y-93980000D01*
X268702500Y-67800000D02*
X268702500Y-92767500D01*
%TO.N,Net-(J7-Pin_1)*%
X259755000Y-93980000D02*
X261515000Y-95740000D01*
X259755000Y-68580000D02*
X259755000Y-93980000D01*
X260535000Y-67800000D02*
X259755000Y-68580000D01*
X261515000Y-95740000D02*
X264840000Y-95740000D01*
X263622500Y-67800000D02*
X260535000Y-67800000D01*
%TO.N,Net-(J6-Pin_1)*%
X235135000Y-93980000D02*
X236895000Y-95740000D01*
X234355000Y-93980000D02*
X235135000Y-93980000D01*
X231815000Y-91440000D02*
X234355000Y-93980000D01*
X231815000Y-68580000D02*
X231815000Y-91440000D01*
X235677500Y-67800000D02*
X232595000Y-67800000D01*
X232595000Y-67800000D02*
X231815000Y-68580000D01*
%TO.N,Net-(J6-Pin_2)*%
X242755000Y-93980000D02*
X244515000Y-95740000D01*
X241975000Y-93980000D02*
X242755000Y-93980000D01*
X240757500Y-92762500D02*
X241975000Y-93980000D01*
X240757500Y-67800000D02*
X240757500Y-92762500D01*
%TO.N,Net-(J5-Pin_2)*%
X216795000Y-96300000D02*
X219197500Y-96300000D01*
X216575000Y-96520000D02*
X216795000Y-96300000D01*
X215440000Y-95385000D02*
X216575000Y-96520000D01*
X215440000Y-68360000D02*
X215440000Y-95385000D01*
%TO.N,Net-(J5-Pin_1)*%
X209257500Y-93980000D02*
X211577500Y-96300000D01*
X208955000Y-93980000D02*
X209257500Y-93980000D01*
X206415000Y-91440000D02*
X208955000Y-93980000D01*
X206635000Y-68360000D02*
X206415000Y-68580000D01*
X206415000Y-68580000D02*
X206415000Y-91440000D01*
X210360000Y-68360000D02*
X206635000Y-68360000D01*
%TO.N,Net-(J4-Pin_1)*%
X181795000Y-95740000D02*
X184420000Y-95740000D01*
X178475000Y-93980000D02*
X181015000Y-96520000D01*
X178475000Y-68580000D02*
X178475000Y-93980000D01*
X181015000Y-96520000D02*
X181795000Y-95740000D01*
X183202500Y-67800000D02*
X179255000Y-67800000D01*
X179255000Y-67800000D02*
X178475000Y-68580000D01*
%TO.N,Net-(J3-Pin_1)*%
X153075000Y-68580000D02*
X153075000Y-91440000D01*
X153855000Y-67800000D02*
X153075000Y-68580000D01*
X153075000Y-91440000D02*
X157375000Y-95740000D01*
X157375000Y-95740000D02*
X159477500Y-95740000D01*
X158260000Y-67800000D02*
X153855000Y-67800000D01*
%TO.N,Net-(J2-Pin_1)*%
X127675000Y-91440000D02*
X131975000Y-95740000D01*
X127675000Y-68580000D02*
X127675000Y-91440000D01*
X131975000Y-95740000D02*
X134077500Y-95740000D01*
X128455000Y-67800000D02*
X127675000Y-68580000D01*
X132860000Y-67800000D02*
X128455000Y-67800000D01*
%TO.N,Net-(J2-Pin_2)*%
X137835000Y-67905000D02*
X137835000Y-91440000D01*
X137730000Y-94085000D02*
X140270000Y-96625000D01*
X137730000Y-91545000D02*
X137730000Y-94085000D01*
%TO.N,Net-(J4-Pin_2)*%
X188635000Y-67905000D02*
X188635000Y-91440000D01*
X188530000Y-94085000D02*
X191070000Y-96625000D01*
X188530000Y-91545000D02*
X188530000Y-94085000D01*
%TO.N,Net-(J3-Pin_2)*%
X165775000Y-96520000D02*
X166555000Y-95740000D01*
X163235000Y-93980000D02*
X165775000Y-96520000D01*
X163235000Y-91440000D02*
X163235000Y-93980000D01*
X166555000Y-95740000D02*
X167097500Y-95740000D01*
X163340000Y-67800000D02*
X163340000Y-91335000D01*
X163340000Y-91335000D02*
X163235000Y-91440000D01*
%TO.N,Net-(J3-Pin_3)*%
X173395000Y-73660000D02*
X173395000Y-78740000D01*
X173395000Y-73660000D02*
X173395000Y-99060000D01*
X173395000Y-68580000D02*
X173395000Y-73660000D01*
%TO.N,Net-(J16-Pin_3)*%
X516295000Y-99060000D02*
X511995000Y-103360000D01*
X511320000Y-67800000D02*
X515515000Y-67800000D01*
X511995000Y-103360000D02*
X509997500Y-103360000D01*
X516295000Y-68580000D02*
X516295000Y-99060000D01*
X515515000Y-67800000D02*
X516295000Y-68580000D01*
%TO.N,Net-(J15-Pin_3)*%
X490895000Y-99060000D02*
X486595000Y-103360000D01*
X485920000Y-67800000D02*
X490115000Y-67800000D01*
X486595000Y-103360000D02*
X484597500Y-103360000D01*
X490895000Y-68580000D02*
X490895000Y-99060000D01*
X490115000Y-67800000D02*
X490895000Y-68580000D01*
%TO.N,Net-(J14-Pin_3)*%
X465495000Y-99060000D02*
X461195000Y-103360000D01*
X460520000Y-67800000D02*
X464715000Y-67800000D01*
X461195000Y-103360000D02*
X459197500Y-103360000D01*
X465495000Y-68580000D02*
X465495000Y-99060000D01*
X464715000Y-67800000D02*
X465495000Y-68580000D01*
%TO.N,Net-(J13-Pin_3)*%
X440095000Y-99060000D02*
X435795000Y-103360000D01*
X435120000Y-67800000D02*
X439315000Y-67800000D01*
X435795000Y-103360000D02*
X433797500Y-103360000D01*
X440095000Y-68580000D02*
X440095000Y-99060000D01*
X439315000Y-67800000D02*
X440095000Y-68580000D01*
%TO.N,Net-(J12-Pin_3)*%
X412155000Y-99060000D02*
X407855000Y-103360000D01*
X407180000Y-67800000D02*
X411375000Y-67800000D01*
X407855000Y-103360000D02*
X405857500Y-103360000D01*
X412155000Y-68580000D02*
X412155000Y-99060000D01*
X411375000Y-67800000D02*
X412155000Y-68580000D01*
%TO.N,Net-(J11-Pin_3)*%
X386755000Y-99060000D02*
X382455000Y-103360000D01*
X381780000Y-67800000D02*
X385975000Y-67800000D01*
X382455000Y-103360000D02*
X380457500Y-103360000D01*
X386755000Y-68580000D02*
X386755000Y-99060000D01*
X385975000Y-67800000D02*
X386755000Y-68580000D01*
%TO.N,Net-(J10-Pin_3)*%
X358815000Y-99060000D02*
X354515000Y-103360000D01*
X353840000Y-67800000D02*
X358035000Y-67800000D01*
X354515000Y-103360000D02*
X352517500Y-103360000D01*
X358815000Y-68580000D02*
X358815000Y-99060000D01*
X358035000Y-67800000D02*
X358815000Y-68580000D01*
%TO.N,Net-(J9-Pin_3)*%
X333415000Y-99060000D02*
X329115000Y-103360000D01*
X328440000Y-67800000D02*
X332635000Y-67800000D01*
X329115000Y-103360000D02*
X327117500Y-103360000D01*
X333415000Y-68580000D02*
X333415000Y-99060000D01*
X332635000Y-67800000D02*
X333415000Y-68580000D01*
%TO.N,Net-(J8-Pin_3)*%
X305475000Y-99060000D02*
X301175000Y-103360000D01*
X300500000Y-67800000D02*
X304695000Y-67800000D01*
X301175000Y-103360000D02*
X299177500Y-103360000D01*
X305475000Y-68580000D02*
X305475000Y-99060000D01*
X304695000Y-67800000D02*
X305475000Y-68580000D01*
%TO.N,Net-(J7-Pin_3)*%
X280075000Y-99060000D02*
X275775000Y-103360000D01*
X275100000Y-67800000D02*
X279295000Y-67800000D01*
X275775000Y-103360000D02*
X273777500Y-103360000D01*
X280075000Y-68580000D02*
X280075000Y-99060000D01*
X279295000Y-67800000D02*
X280075000Y-68580000D01*
%TO.N,Net-(J6-Pin_3)*%
X252135000Y-99060000D02*
X247835000Y-103360000D01*
X247160000Y-67800000D02*
X251355000Y-67800000D01*
X247835000Y-103360000D02*
X245837500Y-103360000D01*
X252135000Y-68580000D02*
X252135000Y-99060000D01*
X251355000Y-67800000D02*
X252135000Y-68580000D01*
%TO.N,Net-(J5-Pin_3)*%
X226735000Y-99060000D02*
X222435000Y-103360000D01*
X221760000Y-67800000D02*
X225955000Y-67800000D01*
X222435000Y-103360000D02*
X220437500Y-103360000D01*
X226735000Y-68580000D02*
X226735000Y-99060000D01*
X225955000Y-67800000D02*
X226735000Y-68580000D01*
%TO.N,Net-(J4-Pin_3)*%
X198795000Y-99060000D02*
X194495000Y-103360000D01*
X193820000Y-67800000D02*
X198015000Y-67800000D01*
X194495000Y-103360000D02*
X192497500Y-103360000D01*
X198795000Y-68580000D02*
X198795000Y-99060000D01*
X198015000Y-67800000D02*
X198795000Y-68580000D01*
%TO.N,Net-(J3-Pin_3)*%
X173395000Y-99060000D02*
X169095000Y-103360000D01*
X168420000Y-67800000D02*
X172615000Y-67800000D01*
X169095000Y-103360000D02*
X167097500Y-103360000D01*
X172615000Y-67800000D02*
X173395000Y-68580000D01*
%TO.N,Net-(J2-Pin_3)*%
X147995000Y-99060000D02*
X143695000Y-103360000D01*
X143020000Y-67800000D02*
X147215000Y-67800000D01*
X143695000Y-103360000D02*
X141697500Y-103360000D01*
X147995000Y-68580000D02*
X147995000Y-99060000D01*
X147215000Y-67800000D02*
X147995000Y-68580000D01*
%TO.N,Net-(J1-Pin_1)*%
X106575000Y-95740000D02*
X108677500Y-95740000D01*
X104815000Y-68580000D02*
X104815000Y-93980000D01*
X104815000Y-93980000D02*
X106575000Y-95740000D01*
X107460000Y-67800000D02*
X105595000Y-67800000D01*
X105595000Y-67800000D02*
X104815000Y-68580000D01*
%TO.N,Net-(J1-Pin_3)*%
X122595000Y-99060000D02*
X118295000Y-103360000D01*
X122595000Y-68580000D02*
X122595000Y-99060000D01*
X117620000Y-67800000D02*
X121815000Y-67800000D01*
X121815000Y-67800000D02*
X122595000Y-68580000D01*
X118295000Y-103360000D02*
X116297500Y-103360000D01*
%TO.N,Net-(J1-Pin_2)*%
X109895000Y-89337500D02*
X116297500Y-95740000D01*
X109895000Y-70445000D02*
X109895000Y-89337500D01*
X112540000Y-67800000D02*
X109895000Y-70445000D01*
%TD*%
M02*
