%TF.GenerationSoftware,KiCad,Pcbnew,7.0.7*%
%TF.CreationDate,2023-09-03T02:21:55+05:00*%
%TF.ProjectId,MCUPCB,4d435550-4342-42e6-9b69-6361645f7063,rev?*%
%TF.SameCoordinates,Original*%
%TF.FileFunction,Other,User*%
%FSLAX46Y46*%
G04 Gerber Fmt 4.6, Leading zero omitted, Abs format (unit mm)*
G04 Created by KiCad (PCBNEW 7.0.7) date 2023-09-03 02:21:55*
%MOMM*%
%LPD*%
G01*
G04 APERTURE LIST*
%ADD10C,0.050000*%
G04 APERTURE END LIST*
D10*
%TO.C,D21*%
X383130000Y-122740000D02*
X383130000Y-119540000D01*
X370270000Y-119540000D02*
X370270000Y-122740000D01*
X383130000Y-119540000D02*
X370270000Y-119540000D01*
X370270000Y-122740000D02*
X383130000Y-122740000D01*
%TO.C,K12*%
X396807500Y-94390000D02*
X396807500Y-115170000D01*
X396807500Y-94390000D02*
X407307500Y-94390000D01*
X407307500Y-115170000D02*
X396807500Y-115170000D01*
X407307500Y-115170000D02*
X407307500Y-94390000D01*
%TO.C,D15*%
X301392500Y-122740000D02*
X301392500Y-119540000D01*
X288532500Y-119540000D02*
X288532500Y-122740000D01*
X301392500Y-119540000D02*
X288532500Y-119540000D01*
X288532500Y-122740000D02*
X301392500Y-122740000D01*
%TO.C,K14*%
X448825000Y-94390000D02*
X448825000Y-115170000D01*
X448825000Y-94390000D02*
X459325000Y-94390000D01*
X459325000Y-115170000D02*
X448825000Y-115170000D01*
X459325000Y-115170000D02*
X459325000Y-94390000D01*
%TO.C,Q8*%
X297692500Y-130770000D02*
X292232500Y-130770000D01*
X292232500Y-126030000D02*
X292232500Y-130770000D01*
X297692500Y-130770000D02*
X297692500Y-126030000D01*
X292232500Y-126030000D02*
X297692500Y-126030000D01*
%TO.C,K15*%
X474225000Y-94390000D02*
X474225000Y-115170000D01*
X474225000Y-94390000D02*
X484725000Y-94390000D01*
X484725000Y-115170000D02*
X474225000Y-115170000D01*
X484725000Y-115170000D02*
X484725000Y-94390000D01*
%TO.C,K16*%
X499625000Y-94390000D02*
X499625000Y-115170000D01*
X499625000Y-94390000D02*
X510125000Y-94390000D01*
X510125000Y-115170000D02*
X499625000Y-115170000D01*
X510125000Y-115170000D02*
X510125000Y-94390000D01*
%TO.C,K5*%
X210147500Y-94950000D02*
X210147500Y-115730000D01*
X210147500Y-94950000D02*
X220647500Y-94950000D01*
X220647500Y-115730000D02*
X210147500Y-115730000D01*
X220647500Y-115730000D02*
X220647500Y-94950000D01*
%TO.C,J14*%
X461917500Y-71800000D02*
X446317500Y-71800000D01*
X446317500Y-63800000D02*
X446317500Y-71800000D01*
X446317500Y-63800000D02*
X461917500Y-63800000D01*
X461917500Y-71800000D02*
X461917500Y-63800000D01*
%TO.C,Q10*%
X346030000Y-126030000D02*
X351490000Y-126030000D01*
X351490000Y-130770000D02*
X351490000Y-126030000D01*
X346030000Y-126030000D02*
X346030000Y-130770000D01*
X351490000Y-130770000D02*
X346030000Y-130770000D01*
%TO.C,K10*%
X353967500Y-115170000D02*
X353967500Y-94390000D01*
X353967500Y-115170000D02*
X343467500Y-115170000D01*
X343467500Y-94390000D02*
X353967500Y-94390000D01*
X343467500Y-94390000D02*
X343467500Y-115170000D01*
%TO.C,R23*%
X403600000Y-158190000D02*
X400600000Y-158190000D01*
X400600000Y-158190000D02*
X400600000Y-170450000D01*
X403600000Y-170450000D02*
X403600000Y-158190000D01*
X400600000Y-170450000D02*
X403600000Y-170450000D01*
%TO.C,D23*%
X395670000Y-122740000D02*
X408530000Y-122740000D01*
X408530000Y-119540000D02*
X395670000Y-119540000D01*
X395670000Y-119540000D02*
X395670000Y-122740000D01*
X408530000Y-122740000D02*
X408530000Y-119540000D01*
%TO.C,K11*%
X371407500Y-94390000D02*
X371407500Y-115170000D01*
X371407500Y-94390000D02*
X381907500Y-94390000D01*
X381907500Y-115170000D02*
X371407500Y-115170000D01*
X381907500Y-115170000D02*
X381907500Y-94390000D01*
%TO.C,D24*%
X396947500Y-170610000D02*
X396947500Y-165610000D01*
X391097500Y-165610000D02*
X391097500Y-170610000D01*
X396947500Y-165610000D02*
X391097500Y-165610000D01*
X391097500Y-170610000D02*
X396947500Y-170610000D01*
%TO.C,Q16*%
X502187500Y-126030000D02*
X507647500Y-126030000D01*
X507647500Y-130770000D02*
X507647500Y-126030000D01*
X502187500Y-126030000D02*
X502187500Y-130770000D01*
X507647500Y-130770000D02*
X502187500Y-130770000D01*
%TO.C,K13*%
X423425000Y-94390000D02*
X423425000Y-115170000D01*
X423425000Y-94390000D02*
X433925000Y-94390000D01*
X433925000Y-115170000D02*
X423425000Y-115170000D01*
X433925000Y-115170000D02*
X433925000Y-94390000D01*
%TO.C,D26*%
X422347500Y-170450000D02*
X422347500Y-165450000D01*
X416497500Y-165450000D02*
X416497500Y-170450000D01*
X422347500Y-165450000D02*
X416497500Y-165450000D01*
X416497500Y-170450000D02*
X422347500Y-170450000D01*
%TO.C,Q11*%
X379430000Y-130770000D02*
X373970000Y-130770000D01*
X373970000Y-126030000D02*
X373970000Y-130770000D01*
X379430000Y-130770000D02*
X379430000Y-126030000D01*
X373970000Y-126030000D02*
X379430000Y-126030000D01*
%TO.C,R29*%
X481017500Y-158190000D02*
X478017500Y-158190000D01*
X478017500Y-158190000D02*
X478017500Y-170450000D01*
X481017500Y-170450000D02*
X481017500Y-158190000D01*
X478017500Y-170450000D02*
X481017500Y-170450000D01*
%TO.C,Q13*%
X425987500Y-126030000D02*
X431447500Y-126030000D01*
X431447500Y-130770000D02*
X431447500Y-126030000D01*
X425987500Y-126030000D02*
X425987500Y-130770000D01*
X431447500Y-130770000D02*
X425987500Y-130770000D01*
%TO.C,Q6*%
X243487500Y-130770000D02*
X238027500Y-130770000D01*
X238027500Y-126030000D02*
X238027500Y-130770000D01*
X243487500Y-130770000D02*
X243487500Y-126030000D01*
X238027500Y-126030000D02*
X243487500Y-126030000D01*
%TO.C,Q4*%
X191012500Y-130770000D02*
X185552500Y-130770000D01*
X185552500Y-126030000D02*
X185552500Y-130770000D01*
X191012500Y-130770000D02*
X191012500Y-126030000D01*
X185552500Y-126030000D02*
X191012500Y-126030000D01*
%TO.C,Q12*%
X404830000Y-130770000D02*
X399370000Y-130770000D01*
X399370000Y-126030000D02*
X399370000Y-130770000D01*
X404830000Y-130770000D02*
X404830000Y-126030000D01*
X399370000Y-126030000D02*
X404830000Y-126030000D01*
%TO.C,D20*%
X337757500Y-170450000D02*
X343607500Y-170450000D01*
X343607500Y-165450000D02*
X337757500Y-165450000D01*
X337757500Y-165450000D02*
X337757500Y-170450000D01*
X343607500Y-170450000D02*
X343607500Y-165450000D01*
%TO.C,Q3*%
X166070000Y-130770000D02*
X160610000Y-130770000D01*
X160610000Y-126030000D02*
X160610000Y-130770000D01*
X166070000Y-130770000D02*
X166070000Y-126030000D01*
X160610000Y-126030000D02*
X166070000Y-126030000D01*
%TO.C,Q1*%
X109810000Y-126030000D02*
X115270000Y-126030000D01*
X115270000Y-130770000D02*
X115270000Y-126030000D01*
X109810000Y-126030000D02*
X109810000Y-130770000D01*
X115270000Y-130770000D02*
X109810000Y-130770000D01*
%TO.C,Q5*%
X218170000Y-131330000D02*
X212710000Y-131330000D01*
X212710000Y-126590000D02*
X212710000Y-131330000D01*
X218170000Y-131330000D02*
X218170000Y-126590000D01*
X212710000Y-126590000D02*
X218170000Y-126590000D01*
%TO.C,Q2*%
X135210000Y-126030000D02*
X140670000Y-126030000D01*
X140670000Y-130770000D02*
X140670000Y-126030000D01*
X135210000Y-126030000D02*
X135210000Y-130770000D01*
X140670000Y-130770000D02*
X135210000Y-130770000D01*
%TO.C,R12*%
X234627500Y-134880000D02*
X234627500Y-137880000D01*
X234627500Y-137880000D02*
X246887500Y-137880000D01*
X246887500Y-134880000D02*
X234627500Y-134880000D01*
X246887500Y-137880000D02*
X246887500Y-134880000D01*
%TO.C,Q9*%
X326090000Y-130770000D02*
X320630000Y-130770000D01*
X320630000Y-126030000D02*
X320630000Y-130770000D01*
X326090000Y-130770000D02*
X326090000Y-126030000D01*
X320630000Y-126030000D02*
X326090000Y-126030000D01*
%TO.C,Q15*%
X476787500Y-126030000D02*
X482247500Y-126030000D01*
X482247500Y-130770000D02*
X482247500Y-126030000D01*
X476787500Y-126030000D02*
X476787500Y-130770000D01*
X482247500Y-130770000D02*
X476787500Y-130770000D01*
%TO.C,R10*%
X209310000Y-135440000D02*
X209310000Y-138440000D01*
X209310000Y-138440000D02*
X221570000Y-138440000D01*
X221570000Y-135440000D02*
X209310000Y-135440000D01*
X221570000Y-138440000D02*
X221570000Y-135440000D01*
%TO.C,D16*%
X284417500Y-170450000D02*
X290267500Y-170450000D01*
X290267500Y-165450000D02*
X284417500Y-165450000D01*
X284417500Y-165450000D02*
X284417500Y-170450000D01*
X290267500Y-170450000D02*
X290267500Y-165450000D01*
%TO.C,Q7*%
X265972500Y-126030000D02*
X271432500Y-126030000D01*
X271432500Y-130770000D02*
X271432500Y-126030000D01*
X265972500Y-126030000D02*
X265972500Y-130770000D01*
X271432500Y-130770000D02*
X265972500Y-130770000D01*
%TO.C,Q14*%
X456847500Y-130770000D02*
X451387500Y-130770000D01*
X451387500Y-126030000D02*
X451387500Y-130770000D01*
X456847500Y-130770000D02*
X456847500Y-126030000D01*
X451387500Y-126030000D02*
X456847500Y-126030000D01*
%TO.C,D11*%
X234327500Y-122740000D02*
X247187500Y-122740000D01*
X247187500Y-119540000D02*
X234327500Y-119540000D01*
X234327500Y-119540000D02*
X234327500Y-122740000D01*
X247187500Y-122740000D02*
X247187500Y-119540000D01*
%TO.C,R2*%
X106410000Y-134880000D02*
X106410000Y-137880000D01*
X106410000Y-137880000D02*
X118670000Y-137880000D01*
X118670000Y-134880000D02*
X106410000Y-134880000D01*
X118670000Y-137880000D02*
X118670000Y-134880000D01*
%TO.C,R3*%
X139440000Y-158190000D02*
X136440000Y-158190000D01*
X136440000Y-158190000D02*
X136440000Y-170450000D01*
X139440000Y-170450000D02*
X139440000Y-158190000D01*
X136440000Y-170450000D02*
X139440000Y-170450000D01*
%TO.C,R4*%
X131810000Y-134880000D02*
X131810000Y-137880000D01*
X131810000Y-137880000D02*
X144070000Y-137880000D01*
X144070000Y-134880000D02*
X131810000Y-134880000D01*
X144070000Y-137880000D02*
X144070000Y-134880000D01*
%TO.C,D32*%
X492697500Y-170610000D02*
X498547500Y-170610000D01*
X498547500Y-165610000D02*
X492697500Y-165610000D01*
X492697500Y-165610000D02*
X492697500Y-170610000D01*
X498547500Y-170610000D02*
X498547500Y-165610000D01*
%TO.C,R5*%
X164840000Y-158190000D02*
X161840000Y-158190000D01*
X161840000Y-158190000D02*
X161840000Y-170450000D01*
X164840000Y-170450000D02*
X164840000Y-158190000D01*
X161840000Y-170450000D02*
X164840000Y-170450000D01*
%TO.C,D9*%
X209010000Y-123300000D02*
X221870000Y-123300000D01*
X221870000Y-120100000D02*
X209010000Y-120100000D01*
X209010000Y-120100000D02*
X209010000Y-123300000D01*
X221870000Y-123300000D02*
X221870000Y-120100000D01*
%TO.C,R6*%
X157210000Y-134880000D02*
X157210000Y-137880000D01*
X157210000Y-137880000D02*
X169470000Y-137880000D01*
X169470000Y-134880000D02*
X157210000Y-134880000D01*
X169470000Y-137880000D02*
X169470000Y-134880000D01*
%TO.C,R7*%
X189782500Y-158190000D02*
X186782500Y-158190000D01*
X186782500Y-158190000D02*
X186782500Y-170450000D01*
X189782500Y-170450000D02*
X189782500Y-158190000D01*
X186782500Y-170450000D02*
X189782500Y-170450000D01*
%TO.C,R8*%
X182152500Y-134880000D02*
X182152500Y-137880000D01*
X182152500Y-137880000D02*
X194412500Y-137880000D01*
X194412500Y-134880000D02*
X182152500Y-134880000D01*
X194412500Y-137880000D02*
X194412500Y-134880000D01*
%TO.C,J15*%
X487317500Y-71800000D02*
X471717500Y-71800000D01*
X471717500Y-63800000D02*
X471717500Y-71800000D01*
X471717500Y-63800000D02*
X487317500Y-63800000D01*
X487317500Y-71800000D02*
X487317500Y-63800000D01*
%TO.C,D8*%
X177737500Y-170450000D02*
X183587500Y-170450000D01*
X183587500Y-165450000D02*
X177737500Y-165450000D01*
X177737500Y-165450000D02*
X177737500Y-170450000D01*
X183587500Y-170450000D02*
X183587500Y-165450000D01*
%TO.C,D13*%
X262272500Y-122740000D02*
X275132500Y-122740000D01*
X275132500Y-119540000D02*
X262272500Y-119540000D01*
X262272500Y-119540000D02*
X262272500Y-122740000D01*
X275132500Y-122740000D02*
X275132500Y-119540000D01*
%TO.C,D18*%
X318207500Y-170610000D02*
X318207500Y-165610000D01*
X312357500Y-165610000D02*
X312357500Y-170610000D01*
X318207500Y-165610000D02*
X312357500Y-165610000D01*
X312357500Y-170610000D02*
X318207500Y-170610000D01*
%TO.C,D3*%
X131510000Y-122740000D02*
X144370000Y-122740000D01*
X144370000Y-119540000D02*
X131510000Y-119540000D01*
X131510000Y-119540000D02*
X131510000Y-122740000D01*
X144370000Y-122740000D02*
X144370000Y-119540000D01*
%TO.C,D4*%
X132787500Y-170450000D02*
X132787500Y-165450000D01*
X126937500Y-165450000D02*
X126937500Y-170450000D01*
X132787500Y-165450000D02*
X126937500Y-165450000D01*
X126937500Y-170450000D02*
X132787500Y-170450000D01*
%TO.C,D17*%
X329790000Y-122740000D02*
X329790000Y-119540000D01*
X316930000Y-119540000D02*
X316930000Y-122740000D01*
X329790000Y-119540000D02*
X316930000Y-119540000D01*
X316930000Y-122740000D02*
X329790000Y-122740000D01*
%TO.C,D1*%
X106110000Y-122740000D02*
X118970000Y-122740000D01*
X118970000Y-119540000D02*
X106110000Y-119540000D01*
X106110000Y-119540000D02*
X106110000Y-122740000D01*
X118970000Y-122740000D02*
X118970000Y-119540000D01*
%TO.C,D6*%
X158187500Y-170450000D02*
X158187500Y-165450000D01*
X152337500Y-165450000D02*
X152337500Y-170450000D01*
X158187500Y-165450000D02*
X152337500Y-165450000D01*
X152337500Y-170450000D02*
X158187500Y-170450000D01*
%TO.C,D7*%
X181852500Y-122740000D02*
X194712500Y-122740000D01*
X194712500Y-119540000D02*
X181852500Y-119540000D01*
X181852500Y-119540000D02*
X181852500Y-122740000D01*
X194712500Y-122740000D02*
X194712500Y-119540000D01*
%TO.C,D5*%
X156910000Y-122740000D02*
X169770000Y-122740000D01*
X169770000Y-119540000D02*
X156910000Y-119540000D01*
X156910000Y-119540000D02*
X156910000Y-122740000D01*
X169770000Y-122740000D02*
X169770000Y-119540000D01*
%TO.C,D10*%
X208987500Y-170610000D02*
X208987500Y-165610000D01*
X203137500Y-165610000D02*
X203137500Y-170610000D01*
X208987500Y-165610000D02*
X203137500Y-165610000D01*
X203137500Y-170610000D02*
X208987500Y-170610000D01*
%TO.C,D12*%
X234387500Y-170450000D02*
X234387500Y-165450000D01*
X228537500Y-165450000D02*
X228537500Y-170450000D01*
X234387500Y-165450000D02*
X228537500Y-165450000D01*
X228537500Y-170450000D02*
X234387500Y-170450000D01*
%TO.C,D19*%
X342330000Y-122740000D02*
X355190000Y-122740000D01*
X355190000Y-119540000D02*
X342330000Y-119540000D01*
X342330000Y-119540000D02*
X342330000Y-122740000D01*
X355190000Y-122740000D02*
X355190000Y-119540000D01*
%TO.C,D14*%
X256477500Y-170610000D02*
X262327500Y-170610000D01*
X262327500Y-165610000D02*
X256477500Y-165610000D01*
X256477500Y-165610000D02*
X256477500Y-170610000D01*
X262327500Y-170610000D02*
X262327500Y-165610000D01*
%TO.C,D22*%
X365697500Y-170450000D02*
X371547500Y-170450000D01*
X371547500Y-165450000D02*
X365697500Y-165450000D01*
X365697500Y-165450000D02*
X365697500Y-170450000D01*
X371547500Y-170450000D02*
X371547500Y-165450000D01*
%TO.C,J2*%
X145740000Y-71800000D02*
X130140000Y-71800000D01*
X130140000Y-63800000D02*
X130140000Y-71800000D01*
X130140000Y-63800000D02*
X145740000Y-63800000D01*
X145740000Y-71800000D02*
X145740000Y-63800000D01*
%TO.C,D31*%
X498487500Y-122740000D02*
X511347500Y-122740000D01*
X511347500Y-119540000D02*
X498487500Y-119540000D01*
X498487500Y-119540000D02*
X498487500Y-122740000D01*
X511347500Y-122740000D02*
X511347500Y-119540000D01*
%TO.C,D28*%
X447747500Y-170610000D02*
X447747500Y-165610000D01*
X441897500Y-165610000D02*
X441897500Y-170610000D01*
X447747500Y-165610000D02*
X441897500Y-165610000D01*
X441897500Y-170610000D02*
X447747500Y-170610000D01*
%TO.C,D29*%
X473087500Y-122740000D02*
X485947500Y-122740000D01*
X485947500Y-119540000D02*
X473087500Y-119540000D01*
X473087500Y-119540000D02*
X473087500Y-122740000D01*
X485947500Y-122740000D02*
X485947500Y-119540000D01*
%TO.C,D27*%
X447687500Y-122740000D02*
X460547500Y-122740000D01*
X460547500Y-119540000D02*
X447687500Y-119540000D01*
X447687500Y-119540000D02*
X447687500Y-122740000D01*
X460547500Y-122740000D02*
X460547500Y-119540000D01*
%TO.C,D30*%
X473147500Y-170450000D02*
X473147500Y-165450000D01*
X467297500Y-165450000D02*
X467297500Y-170450000D01*
X473147500Y-165450000D02*
X467297500Y-165450000D01*
X467297500Y-170450000D02*
X473147500Y-170450000D01*
%TO.C,D25*%
X435147500Y-122740000D02*
X435147500Y-119540000D01*
X422287500Y-119540000D02*
X422287500Y-122740000D01*
X435147500Y-119540000D02*
X422287500Y-119540000D01*
X422287500Y-122740000D02*
X435147500Y-122740000D01*
%TO.C,J12*%
X409900000Y-71800000D02*
X394300000Y-71800000D01*
X394300000Y-63800000D02*
X394300000Y-71800000D01*
X394300000Y-63800000D02*
X409900000Y-63800000D01*
X409900000Y-71800000D02*
X409900000Y-63800000D01*
%TO.C,J9*%
X331160000Y-71800000D02*
X315560000Y-71800000D01*
X315560000Y-63800000D02*
X315560000Y-71800000D01*
X315560000Y-63800000D02*
X331160000Y-63800000D01*
X331160000Y-71800000D02*
X331160000Y-63800000D01*
%TO.C,J7*%
X276502500Y-71800000D02*
X276502500Y-63800000D01*
X260902500Y-63800000D02*
X276502500Y-63800000D01*
X260902500Y-63800000D02*
X260902500Y-71800000D01*
X276502500Y-71800000D02*
X260902500Y-71800000D01*
%TO.C,J1*%
X120340000Y-71800000D02*
X104740000Y-71800000D01*
X104740000Y-63800000D02*
X104740000Y-71800000D01*
X104740000Y-63800000D02*
X120340000Y-63800000D01*
X120340000Y-71800000D02*
X120340000Y-63800000D01*
%TO.C,J3*%
X171140000Y-71800000D02*
X171140000Y-63800000D01*
X155540000Y-63800000D02*
X171140000Y-63800000D01*
X155540000Y-63800000D02*
X155540000Y-71800000D01*
X171140000Y-71800000D02*
X155540000Y-71800000D01*
%TO.C,J4*%
X196082500Y-71800000D02*
X180482500Y-71800000D01*
X180482500Y-63800000D02*
X180482500Y-71800000D01*
X180482500Y-63800000D02*
X196082500Y-63800000D01*
X196082500Y-71800000D02*
X196082500Y-63800000D01*
%TO.C,J11*%
X384500000Y-71800000D02*
X368900000Y-71800000D01*
X368900000Y-63800000D02*
X368900000Y-71800000D01*
X368900000Y-63800000D02*
X384500000Y-63800000D01*
X384500000Y-71800000D02*
X384500000Y-63800000D01*
%TO.C,J8*%
X302762500Y-71800000D02*
X287162500Y-71800000D01*
X287162500Y-63800000D02*
X287162500Y-71800000D01*
X287162500Y-63800000D02*
X302762500Y-63800000D01*
X302762500Y-71800000D02*
X302762500Y-63800000D01*
%TO.C,J6*%
X248557500Y-71800000D02*
X232957500Y-71800000D01*
X232957500Y-63800000D02*
X232957500Y-71800000D01*
X232957500Y-63800000D02*
X248557500Y-63800000D01*
X248557500Y-71800000D02*
X248557500Y-63800000D01*
%TO.C,J10*%
X356560000Y-71800000D02*
X356560000Y-63800000D01*
X340960000Y-63800000D02*
X356560000Y-63800000D01*
X340960000Y-63800000D02*
X340960000Y-71800000D01*
X356560000Y-71800000D02*
X340960000Y-71800000D01*
%TO.C,J5*%
X223240000Y-72360000D02*
X207640000Y-72360000D01*
X207640000Y-64360000D02*
X207640000Y-72360000D01*
X207640000Y-64360000D02*
X223240000Y-64360000D01*
X223240000Y-72360000D02*
X223240000Y-64360000D01*
%TO.C,J13*%
X436517500Y-71800000D02*
X436517500Y-63800000D01*
X420917500Y-63800000D02*
X436517500Y-63800000D01*
X420917500Y-63800000D02*
X420917500Y-71800000D01*
X436517500Y-71800000D02*
X420917500Y-71800000D01*
%TO.C,J16*%
X512717500Y-71800000D02*
X497117500Y-71800000D01*
X497117500Y-63800000D02*
X497117500Y-71800000D01*
X497117500Y-63800000D02*
X512717500Y-63800000D01*
X512717500Y-71800000D02*
X512717500Y-63800000D01*
%TO.C,K7*%
X273910000Y-115170000D02*
X273910000Y-94390000D01*
X273910000Y-115170000D02*
X263410000Y-115170000D01*
X263410000Y-94390000D02*
X273910000Y-94390000D01*
X263410000Y-94390000D02*
X263410000Y-115170000D01*
%TO.C,K8*%
X289670000Y-94390000D02*
X289670000Y-115170000D01*
X289670000Y-94390000D02*
X300170000Y-94390000D01*
X300170000Y-115170000D02*
X289670000Y-115170000D01*
X300170000Y-115170000D02*
X300170000Y-94390000D01*
%TO.C,K9*%
X318067500Y-94390000D02*
X318067500Y-115170000D01*
X318067500Y-94390000D02*
X328567500Y-94390000D01*
X328567500Y-115170000D02*
X318067500Y-115170000D01*
X328567500Y-115170000D02*
X328567500Y-94390000D01*
%TO.C,K1*%
X117747500Y-115170000D02*
X117747500Y-94390000D01*
X117747500Y-115170000D02*
X107247500Y-115170000D01*
X107247500Y-94390000D02*
X117747500Y-94390000D01*
X107247500Y-94390000D02*
X107247500Y-115170000D01*
%TO.C,K4*%
X182990000Y-94390000D02*
X182990000Y-115170000D01*
X182990000Y-94390000D02*
X193490000Y-94390000D01*
X193490000Y-115170000D02*
X182990000Y-115170000D01*
X193490000Y-115170000D02*
X193490000Y-94390000D01*
%TO.C,K3*%
X158047500Y-94390000D02*
X158047500Y-115170000D01*
X158047500Y-94390000D02*
X168547500Y-94390000D01*
X168547500Y-115170000D02*
X158047500Y-115170000D01*
X168547500Y-115170000D02*
X168547500Y-94390000D01*
%TO.C,K6*%
X235465000Y-94390000D02*
X235465000Y-115170000D01*
X235465000Y-94390000D02*
X245965000Y-94390000D01*
X245965000Y-115170000D02*
X235465000Y-115170000D01*
X245965000Y-115170000D02*
X245965000Y-94390000D01*
%TO.C,K2*%
X132647500Y-94390000D02*
X132647500Y-115170000D01*
X132647500Y-94390000D02*
X143147500Y-94390000D01*
X143147500Y-115170000D02*
X132647500Y-115170000D01*
X143147500Y-115170000D02*
X143147500Y-94390000D01*
%TO.C,R1*%
X114040000Y-157940000D02*
X111040000Y-157940000D01*
X111040000Y-157940000D02*
X111040000Y-170200000D01*
X114040000Y-170200000D02*
X114040000Y-157940000D01*
X111040000Y-170200000D02*
X114040000Y-170200000D01*
%TO.C,D2*%
X107387500Y-167820000D02*
X107387500Y-162820000D01*
X101537500Y-162820000D02*
X101537500Y-167820000D01*
X107387500Y-162820000D02*
X101537500Y-162820000D01*
X101537500Y-167820000D02*
X107387500Y-167820000D01*
%TO.C,R13*%
X267202500Y-170450000D02*
X270202500Y-170450000D01*
X270202500Y-170450000D02*
X270202500Y-158190000D01*
X267202500Y-158190000D02*
X267202500Y-170450000D01*
X270202500Y-158190000D02*
X267202500Y-158190000D01*
%TO.C,R25*%
X427217500Y-170450000D02*
X430217500Y-170450000D01*
X430217500Y-170450000D02*
X430217500Y-158190000D01*
X427217500Y-158190000D02*
X427217500Y-170450000D01*
X430217500Y-158190000D02*
X427217500Y-158190000D01*
%TO.C,R16*%
X288832500Y-134880000D02*
X288832500Y-137880000D01*
X288832500Y-137880000D02*
X301092500Y-137880000D01*
X301092500Y-134880000D02*
X288832500Y-134880000D01*
X301092500Y-137880000D02*
X301092500Y-134880000D01*
%TO.C,R20*%
X354890000Y-137880000D02*
X354890000Y-134880000D01*
X354890000Y-134880000D02*
X342630000Y-134880000D01*
X342630000Y-137880000D02*
X354890000Y-137880000D01*
X342630000Y-134880000D02*
X342630000Y-137880000D01*
%TO.C,R32*%
X498787500Y-134880000D02*
X498787500Y-137880000D01*
X498787500Y-137880000D02*
X511047500Y-137880000D01*
X511047500Y-134880000D02*
X498787500Y-134880000D01*
X511047500Y-137880000D02*
X511047500Y-134880000D01*
%TO.C,R9*%
X216940000Y-158750000D02*
X213940000Y-158750000D01*
X213940000Y-158750000D02*
X213940000Y-171010000D01*
X216940000Y-171010000D02*
X216940000Y-158750000D01*
X213940000Y-171010000D02*
X216940000Y-171010000D01*
%TO.C,R22*%
X370570000Y-134880000D02*
X370570000Y-137880000D01*
X370570000Y-137880000D02*
X382830000Y-137880000D01*
X382830000Y-134880000D02*
X370570000Y-134880000D01*
X382830000Y-137880000D02*
X382830000Y-134880000D01*
%TO.C,R11*%
X242257500Y-158190000D02*
X239257500Y-158190000D01*
X239257500Y-158190000D02*
X239257500Y-170450000D01*
X242257500Y-170450000D02*
X242257500Y-158190000D01*
X239257500Y-170450000D02*
X242257500Y-170450000D01*
%TO.C,R21*%
X378200000Y-158190000D02*
X375200000Y-158190000D01*
X375200000Y-158190000D02*
X375200000Y-170450000D01*
X378200000Y-170450000D02*
X378200000Y-158190000D01*
X375200000Y-170450000D02*
X378200000Y-170450000D01*
%TO.C,R28*%
X447987500Y-134880000D02*
X447987500Y-137880000D01*
X447987500Y-137880000D02*
X460247500Y-137880000D01*
X460247500Y-134880000D02*
X447987500Y-134880000D01*
X460247500Y-137880000D02*
X460247500Y-134880000D01*
%TO.C,R31*%
X506417500Y-158190000D02*
X503417500Y-158190000D01*
X503417500Y-158190000D02*
X503417500Y-170450000D01*
X506417500Y-170450000D02*
X506417500Y-158190000D01*
X503417500Y-170450000D02*
X506417500Y-170450000D01*
%TO.C,R15*%
X296462500Y-158190000D02*
X293462500Y-158190000D01*
X293462500Y-158190000D02*
X293462500Y-170450000D01*
X296462500Y-170450000D02*
X296462500Y-158190000D01*
X293462500Y-170450000D02*
X296462500Y-170450000D01*
%TO.C,R18*%
X317230000Y-134880000D02*
X317230000Y-137880000D01*
X317230000Y-137880000D02*
X329490000Y-137880000D01*
X329490000Y-134880000D02*
X317230000Y-134880000D01*
X329490000Y-137880000D02*
X329490000Y-134880000D01*
%TO.C,R14*%
X274832500Y-137880000D02*
X274832500Y-134880000D01*
X274832500Y-134880000D02*
X262572500Y-134880000D01*
X262572500Y-137880000D02*
X274832500Y-137880000D01*
X262572500Y-134880000D02*
X262572500Y-137880000D01*
%TO.C,R17*%
X324860000Y-158190000D02*
X321860000Y-158190000D01*
X321860000Y-158190000D02*
X321860000Y-170450000D01*
X324860000Y-170450000D02*
X324860000Y-158190000D01*
X321860000Y-170450000D02*
X324860000Y-170450000D01*
%TO.C,R19*%
X347260000Y-170450000D02*
X350260000Y-170450000D01*
X350260000Y-170450000D02*
X350260000Y-158190000D01*
X347260000Y-158190000D02*
X347260000Y-170450000D01*
X350260000Y-158190000D02*
X347260000Y-158190000D01*
%TO.C,R24*%
X395970000Y-134880000D02*
X395970000Y-137880000D01*
X395970000Y-137880000D02*
X408230000Y-137880000D01*
X408230000Y-134880000D02*
X395970000Y-134880000D01*
X408230000Y-137880000D02*
X408230000Y-134880000D01*
%TO.C,R26*%
X434847500Y-137880000D02*
X434847500Y-134880000D01*
X434847500Y-134880000D02*
X422587500Y-134880000D01*
X422587500Y-137880000D02*
X434847500Y-137880000D01*
X422587500Y-134880000D02*
X422587500Y-137880000D01*
%TO.C,R27*%
X455617500Y-158190000D02*
X452617500Y-158190000D01*
X452617500Y-158190000D02*
X452617500Y-170450000D01*
X455617500Y-170450000D02*
X455617500Y-158190000D01*
X452617500Y-170450000D02*
X455617500Y-170450000D01*
%TO.C,R30*%
X473387500Y-134880000D02*
X473387500Y-137880000D01*
X473387500Y-137880000D02*
X485647500Y-137880000D01*
X485647500Y-134880000D02*
X473387500Y-134880000D01*
X485647500Y-137880000D02*
X485647500Y-134880000D01*
%TO.C,U33*%
X122305000Y-230370000D02*
X122305000Y-216120000D01*
X122305000Y-182370000D02*
X101365000Y-182370000D01*
X142615000Y-216120000D02*
X142615000Y-196620000D01*
X101365000Y-230370000D02*
X122305000Y-230370000D01*
X142615000Y-216120000D02*
X122305000Y-216120000D01*
X122305000Y-196620000D02*
X122305000Y-182370000D01*
X101365000Y-182370000D02*
X101365000Y-230370000D01*
X122305000Y-196620000D02*
X142615000Y-196620000D01*
%TO.C,D46*%
X342285000Y-250330000D02*
X342285000Y-245330000D01*
X336435000Y-245330000D02*
X336435000Y-250330000D01*
X342285000Y-245330000D02*
X336435000Y-245330000D01*
X336435000Y-250330000D02*
X342285000Y-250330000D01*
%TO.C,L1*%
X439167500Y-201140000D02*
X443667500Y-201140000D01*
X443667500Y-183390000D02*
X439167500Y-183390000D01*
X439167500Y-183390000D02*
X439167500Y-201140000D01*
X443667500Y-201140000D02*
X443667500Y-183390000D01*
%TO.C,U36*%
X455507500Y-206810000D02*
X465107500Y-206810000D01*
X455507500Y-196310000D02*
X455507500Y-206810000D01*
X465107500Y-196310000D02*
X455507500Y-196310000D01*
X465107500Y-206810000D02*
X465107500Y-196310000D01*
%TO.C,U35*%
X297627500Y-216580000D02*
X297627500Y-226380000D01*
X297627500Y-226380000D02*
X333727500Y-226380000D01*
X333727500Y-226380000D02*
X333727500Y-216580000D01*
X333727500Y-216580000D02*
X297627500Y-216580000D01*
%TO.C,U32*%
X113367500Y-259260000D02*
X113367500Y-269060000D01*
X113367500Y-269060000D02*
X119017500Y-269060000D01*
X119017500Y-269060000D02*
X119017500Y-259260000D01*
X119017500Y-259260000D02*
X113367500Y-259260000D01*
%TO.C,U31*%
X142630000Y-259260000D02*
X142630000Y-269060000D01*
X142630000Y-269060000D02*
X148280000Y-269060000D01*
X148280000Y-269060000D02*
X148280000Y-259260000D01*
X148280000Y-259260000D02*
X142630000Y-259260000D01*
%TO.C,U30*%
X165490000Y-258480000D02*
X165490000Y-268280000D01*
X165490000Y-268280000D02*
X171140000Y-268280000D01*
X171140000Y-268280000D02*
X171140000Y-258480000D01*
X171140000Y-258480000D02*
X165490000Y-258480000D01*
%TO.C,U29*%
X196435000Y-259260000D02*
X190785000Y-259260000D01*
X196435000Y-269060000D02*
X196435000Y-259260000D01*
X190785000Y-269060000D02*
X196435000Y-269060000D01*
X190785000Y-259260000D02*
X190785000Y-269060000D01*
%TO.C,U28*%
X221835000Y-259260000D02*
X216185000Y-259260000D01*
X221835000Y-269060000D02*
X221835000Y-259260000D01*
X216185000Y-269060000D02*
X221835000Y-269060000D01*
X216185000Y-259260000D02*
X216185000Y-269060000D01*
%TO.C,U27*%
X244230000Y-259260000D02*
X244230000Y-269060000D01*
X244230000Y-269060000D02*
X249880000Y-269060000D01*
X249880000Y-269060000D02*
X249880000Y-259260000D01*
X249880000Y-259260000D02*
X244230000Y-259260000D01*
%TO.C,U26*%
X269630000Y-259260000D02*
X269630000Y-269060000D01*
X269630000Y-269060000D02*
X275280000Y-269060000D01*
X275280000Y-269060000D02*
X275280000Y-259260000D01*
X275280000Y-259260000D02*
X269630000Y-259260000D01*
%TO.C,U25*%
X295030000Y-259260000D02*
X295030000Y-269060000D01*
X295030000Y-269060000D02*
X300680000Y-269060000D01*
X300680000Y-269060000D02*
X300680000Y-259260000D01*
X300680000Y-259260000D02*
X295030000Y-259260000D01*
%TO.C,U24*%
X322970000Y-259260000D02*
X322970000Y-269060000D01*
X322970000Y-269060000D02*
X328620000Y-269060000D01*
X328620000Y-269060000D02*
X328620000Y-259260000D01*
X328620000Y-259260000D02*
X322970000Y-259260000D01*
%TO.C,U23*%
X348370000Y-259260000D02*
X348370000Y-269060000D01*
X348370000Y-269060000D02*
X354020000Y-269060000D01*
X354020000Y-269060000D02*
X354020000Y-259260000D01*
X354020000Y-259260000D02*
X348370000Y-259260000D01*
%TO.C,U22*%
X376310000Y-259260000D02*
X376310000Y-269060000D01*
X376310000Y-269060000D02*
X381960000Y-269060000D01*
X381960000Y-269060000D02*
X381960000Y-259260000D01*
X381960000Y-259260000D02*
X376310000Y-259260000D01*
%TO.C,U21*%
X401710000Y-259260000D02*
X401710000Y-269060000D01*
X401710000Y-269060000D02*
X407360000Y-269060000D01*
X407360000Y-269060000D02*
X407360000Y-259260000D01*
X407360000Y-259260000D02*
X401710000Y-259260000D01*
%TO.C,U20*%
X437840000Y-259260000D02*
X432190000Y-259260000D01*
X437840000Y-269060000D02*
X437840000Y-259260000D01*
X432190000Y-269060000D02*
X437840000Y-269060000D01*
X432190000Y-259260000D02*
X432190000Y-269060000D01*
%TO.C,U19*%
X456267500Y-259260000D02*
X456267500Y-269060000D01*
X456267500Y-269060000D02*
X461917500Y-269060000D01*
X461917500Y-269060000D02*
X461917500Y-259260000D01*
X461917500Y-259260000D02*
X456267500Y-259260000D01*
%TO.C,U18*%
X481667500Y-259260000D02*
X481667500Y-269060000D01*
X481667500Y-269060000D02*
X487317500Y-269060000D01*
X487317500Y-269060000D02*
X487317500Y-259260000D01*
X487317500Y-259260000D02*
X481667500Y-259260000D01*
%TO.C,U17*%
X511500000Y-259260000D02*
X505850000Y-259260000D01*
X511500000Y-269060000D02*
X511500000Y-259260000D01*
X505850000Y-269060000D02*
X511500000Y-269060000D01*
X505850000Y-259260000D02*
X505850000Y-269060000D01*
%TO.C,R66*%
X472937500Y-192040000D02*
X475937500Y-192040000D01*
X475937500Y-182320000D02*
X472937500Y-182320000D01*
X475937500Y-192040000D02*
X475937500Y-182320000D01*
X472937500Y-182320000D02*
X472937500Y-192040000D01*
%TO.C,R65*%
X472937500Y-202200000D02*
X475937500Y-202200000D01*
X475937500Y-192480000D02*
X472937500Y-192480000D01*
X475937500Y-202200000D02*
X475937500Y-192480000D01*
X472937500Y-192480000D02*
X472937500Y-202200000D01*
%TO.C,R64*%
X122322500Y-276496750D02*
X122322500Y-273496750D01*
X122322500Y-273496750D02*
X110062500Y-273496750D01*
X110062500Y-276496750D02*
X122322500Y-276496750D01*
X110062500Y-273496750D02*
X110062500Y-276496750D01*
%TO.C,R63*%
X116015000Y-252510000D02*
X119015000Y-252510000D01*
X119015000Y-252510000D02*
X119015000Y-240250000D01*
X116015000Y-240250000D02*
X116015000Y-252510000D01*
X119015000Y-240250000D02*
X116015000Y-240250000D01*
%TO.C,R62*%
X151585000Y-276496750D02*
X151585000Y-273496750D01*
X151585000Y-273496750D02*
X139325000Y-273496750D01*
X139325000Y-276496750D02*
X151585000Y-276496750D01*
X139325000Y-273496750D02*
X139325000Y-276496750D01*
%TO.C,R61*%
X146495000Y-252510000D02*
X149495000Y-252510000D01*
X149495000Y-252510000D02*
X149495000Y-240250000D01*
X146495000Y-240250000D02*
X146495000Y-252510000D01*
X149495000Y-240250000D02*
X146495000Y-240250000D01*
%TO.C,R60*%
X174445000Y-275716750D02*
X174445000Y-272716750D01*
X174445000Y-272716750D02*
X162185000Y-272716750D01*
X162185000Y-275716750D02*
X174445000Y-275716750D01*
X162185000Y-272716750D02*
X162185000Y-275716750D01*
%TO.C,R59*%
X172355000Y-242790000D02*
X169355000Y-242790000D01*
X169355000Y-242790000D02*
X169355000Y-255050000D01*
X172355000Y-255050000D02*
X172355000Y-242790000D01*
X169355000Y-255050000D02*
X172355000Y-255050000D01*
%TO.C,R58*%
X187480000Y-273496750D02*
X187480000Y-276496750D01*
X187480000Y-276496750D02*
X199740000Y-276496750D01*
X199740000Y-273496750D02*
X187480000Y-273496750D01*
X199740000Y-276496750D02*
X199740000Y-273496750D01*
%TO.C,R57*%
X192215000Y-252510000D02*
X195215000Y-252510000D01*
X195215000Y-252510000D02*
X195215000Y-240250000D01*
X192215000Y-240250000D02*
X192215000Y-252510000D01*
X195215000Y-240250000D02*
X192215000Y-240250000D01*
%TO.C,R56*%
X225140000Y-276496750D02*
X225140000Y-273496750D01*
X225140000Y-273496750D02*
X212880000Y-273496750D01*
X212880000Y-276496750D02*
X225140000Y-276496750D01*
X212880000Y-273496750D02*
X212880000Y-276496750D01*
%TO.C,R55*%
X217615000Y-252510000D02*
X220615000Y-252510000D01*
X220615000Y-252510000D02*
X220615000Y-240250000D01*
X217615000Y-240250000D02*
X217615000Y-252510000D01*
X220615000Y-240250000D02*
X217615000Y-240250000D01*
%TO.C,R54*%
X253185000Y-276496750D02*
X253185000Y-273496750D01*
X253185000Y-273496750D02*
X240925000Y-273496750D01*
X240925000Y-276496750D02*
X253185000Y-276496750D01*
X240925000Y-273496750D02*
X240925000Y-276496750D01*
%TO.C,R53*%
X245555000Y-252510000D02*
X248555000Y-252510000D01*
X248555000Y-252510000D02*
X248555000Y-240250000D01*
X245555000Y-240250000D02*
X245555000Y-252510000D01*
X248555000Y-240250000D02*
X245555000Y-240250000D01*
%TO.C,R52*%
X278585000Y-276496750D02*
X278585000Y-273496750D01*
X278585000Y-273496750D02*
X266325000Y-273496750D01*
X266325000Y-276496750D02*
X278585000Y-276496750D01*
X266325000Y-273496750D02*
X266325000Y-276496750D01*
%TO.C,R51*%
X270955000Y-252510000D02*
X273955000Y-252510000D01*
X273955000Y-252510000D02*
X273955000Y-240250000D01*
X270955000Y-240250000D02*
X270955000Y-252510000D01*
X273955000Y-240250000D02*
X270955000Y-240250000D01*
%TO.C,R50*%
X303985000Y-276496750D02*
X303985000Y-273496750D01*
X303985000Y-273496750D02*
X291725000Y-273496750D01*
X291725000Y-276496750D02*
X303985000Y-276496750D01*
X291725000Y-273496750D02*
X291725000Y-276496750D01*
%TO.C,R49*%
X298895000Y-255050000D02*
X301895000Y-255050000D01*
X301895000Y-255050000D02*
X301895000Y-242790000D01*
X298895000Y-242790000D02*
X298895000Y-255050000D01*
X301895000Y-242790000D02*
X298895000Y-242790000D01*
%TO.C,R48*%
X331925000Y-276496750D02*
X331925000Y-273496750D01*
X331925000Y-273496750D02*
X319665000Y-273496750D01*
X319665000Y-276496750D02*
X331925000Y-276496750D01*
X319665000Y-273496750D02*
X319665000Y-276496750D01*
%TO.C,R47*%
X326835000Y-255050000D02*
X329835000Y-255050000D01*
X329835000Y-255050000D02*
X329835000Y-242790000D01*
X326835000Y-242790000D02*
X326835000Y-255050000D01*
X329835000Y-242790000D02*
X326835000Y-242790000D01*
%TO.C,R46*%
X357325000Y-276496750D02*
X357325000Y-273496750D01*
X357325000Y-273496750D02*
X345065000Y-273496750D01*
X345065000Y-276496750D02*
X357325000Y-276496750D01*
X345065000Y-273496750D02*
X345065000Y-276496750D01*
%TO.C,R45*%
X352235000Y-252510000D02*
X355235000Y-252510000D01*
X355235000Y-252510000D02*
X355235000Y-240250000D01*
X352235000Y-240250000D02*
X352235000Y-252510000D01*
X355235000Y-240250000D02*
X352235000Y-240250000D01*
%TO.C,R44*%
X385265000Y-276496750D02*
X385265000Y-273496750D01*
X385265000Y-273496750D02*
X373005000Y-273496750D01*
X373005000Y-276496750D02*
X385265000Y-276496750D01*
X373005000Y-273496750D02*
X373005000Y-276496750D01*
%TO.C,R43*%
X383175000Y-240250000D02*
X380175000Y-240250000D01*
X380175000Y-240250000D02*
X380175000Y-252510000D01*
X383175000Y-252510000D02*
X383175000Y-240250000D01*
X380175000Y-252510000D02*
X383175000Y-252510000D01*
%TO.C,R42*%
X410665000Y-276496750D02*
X410665000Y-273496750D01*
X410665000Y-273496750D02*
X398405000Y-273496750D01*
X398405000Y-276496750D02*
X410665000Y-276496750D01*
X398405000Y-273496750D02*
X398405000Y-276496750D01*
%TO.C,R41*%
X405575000Y-252510000D02*
X408575000Y-252510000D01*
X408575000Y-252510000D02*
X408575000Y-240250000D01*
X405575000Y-240250000D02*
X405575000Y-252510000D01*
X408575000Y-240250000D02*
X405575000Y-240250000D01*
%TO.C,R40*%
X428885000Y-273496750D02*
X428885000Y-276496750D01*
X428885000Y-276496750D02*
X441145000Y-276496750D01*
X441145000Y-273496750D02*
X428885000Y-273496750D01*
X441145000Y-276496750D02*
X441145000Y-273496750D01*
%TO.C,R39*%
X439055000Y-237710000D02*
X436055000Y-237710000D01*
X436055000Y-237710000D02*
X436055000Y-249970000D01*
X439055000Y-249970000D02*
X439055000Y-237710000D01*
X436055000Y-249970000D02*
X439055000Y-249970000D01*
%TO.C,R38*%
X465222500Y-276496750D02*
X465222500Y-273496750D01*
X465222500Y-273496750D02*
X452962500Y-273496750D01*
X452962500Y-276496750D02*
X465222500Y-276496750D01*
X452962500Y-273496750D02*
X452962500Y-276496750D01*
%TO.C,R37*%
X458915000Y-249970000D02*
X461915000Y-249970000D01*
X461915000Y-249970000D02*
X461915000Y-237710000D01*
X458915000Y-237710000D02*
X458915000Y-249970000D01*
X461915000Y-237710000D02*
X458915000Y-237710000D01*
%TO.C,R36*%
X490622500Y-276496750D02*
X490622500Y-273496750D01*
X490622500Y-273496750D02*
X478362500Y-273496750D01*
X478362500Y-276496750D02*
X490622500Y-276496750D01*
X478362500Y-273496750D02*
X478362500Y-276496750D01*
%TO.C,R35*%
X487315000Y-242790000D02*
X484315000Y-242790000D01*
X484315000Y-242790000D02*
X484315000Y-255050000D01*
X487315000Y-255050000D02*
X487315000Y-242790000D01*
X484315000Y-255050000D02*
X487315000Y-255050000D01*
%TO.C,R34*%
X502545000Y-273496750D02*
X502545000Y-276496750D01*
X502545000Y-276496750D02*
X514805000Y-276496750D01*
X514805000Y-273496750D02*
X502545000Y-273496750D01*
X514805000Y-276496750D02*
X514805000Y-273496750D01*
%TO.C,R33*%
X512715000Y-242790000D02*
X509715000Y-242790000D01*
X509715000Y-242790000D02*
X509715000Y-255050000D01*
X512715000Y-255050000D02*
X512715000Y-242790000D01*
X509715000Y-255050000D02*
X512715000Y-255050000D01*
%TO.C,Q32*%
X113462500Y-281750000D02*
X118922500Y-281750000D01*
X118922500Y-286490000D02*
X118922500Y-281750000D01*
X113462500Y-281750000D02*
X113462500Y-286490000D01*
X118922500Y-286490000D02*
X113462500Y-286490000D01*
%TO.C,Q31*%
X142725000Y-281750000D02*
X148185000Y-281750000D01*
X148185000Y-286490000D02*
X148185000Y-281750000D01*
X142725000Y-281750000D02*
X142725000Y-286490000D01*
X148185000Y-286490000D02*
X142725000Y-286490000D01*
%TO.C,Q30*%
X165585000Y-280970000D02*
X171045000Y-280970000D01*
X171045000Y-285710000D02*
X171045000Y-280970000D01*
X165585000Y-280970000D02*
X165585000Y-285710000D01*
X171045000Y-285710000D02*
X165585000Y-285710000D01*
%TO.C,Q29*%
X196340000Y-286490000D02*
X190880000Y-286490000D01*
X190880000Y-281750000D02*
X190880000Y-286490000D01*
X196340000Y-286490000D02*
X196340000Y-281750000D01*
X190880000Y-281750000D02*
X196340000Y-281750000D01*
%TO.C,Q28*%
X216280000Y-281750000D02*
X221740000Y-281750000D01*
X221740000Y-286490000D02*
X221740000Y-281750000D01*
X216280000Y-281750000D02*
X216280000Y-286490000D01*
X221740000Y-286490000D02*
X216280000Y-286490000D01*
%TO.C,Q27*%
X244325000Y-281750000D02*
X249785000Y-281750000D01*
X249785000Y-286490000D02*
X249785000Y-281750000D01*
X244325000Y-281750000D02*
X244325000Y-286490000D01*
X249785000Y-286490000D02*
X244325000Y-286490000D01*
%TO.C,Q26*%
X269725000Y-281750000D02*
X275185000Y-281750000D01*
X275185000Y-286490000D02*
X275185000Y-281750000D01*
X269725000Y-281750000D02*
X269725000Y-286490000D01*
X275185000Y-286490000D02*
X269725000Y-286490000D01*
%TO.C,Q25*%
X295125000Y-281750000D02*
X300585000Y-281750000D01*
X300585000Y-286490000D02*
X300585000Y-281750000D01*
X295125000Y-281750000D02*
X295125000Y-286490000D01*
X300585000Y-286490000D02*
X295125000Y-286490000D01*
%TO.C,Q24*%
X323065000Y-281750000D02*
X328525000Y-281750000D01*
X328525000Y-286490000D02*
X328525000Y-281750000D01*
X323065000Y-281750000D02*
X323065000Y-286490000D01*
X328525000Y-286490000D02*
X323065000Y-286490000D01*
%TO.C,Q23*%
X348465000Y-281750000D02*
X353925000Y-281750000D01*
X353925000Y-286490000D02*
X353925000Y-281750000D01*
X348465000Y-281750000D02*
X348465000Y-286490000D01*
X353925000Y-286490000D02*
X348465000Y-286490000D01*
%TO.C,Q22*%
X376405000Y-281750000D02*
X381865000Y-281750000D01*
X381865000Y-286490000D02*
X381865000Y-281750000D01*
X376405000Y-281750000D02*
X376405000Y-286490000D01*
X381865000Y-286490000D02*
X376405000Y-286490000D01*
%TO.C,Q21*%
X401805000Y-281750000D02*
X407265000Y-281750000D01*
X407265000Y-286490000D02*
X407265000Y-281750000D01*
X401805000Y-281750000D02*
X401805000Y-286490000D01*
X407265000Y-286490000D02*
X401805000Y-286490000D01*
%TO.C,Q20*%
X437745000Y-286490000D02*
X432285000Y-286490000D01*
X432285000Y-281750000D02*
X432285000Y-286490000D01*
X437745000Y-286490000D02*
X437745000Y-281750000D01*
X432285000Y-281750000D02*
X437745000Y-281750000D01*
%TO.C,Q19*%
X456362500Y-281750000D02*
X461822500Y-281750000D01*
X461822500Y-286490000D02*
X461822500Y-281750000D01*
X456362500Y-281750000D02*
X456362500Y-286490000D01*
X461822500Y-286490000D02*
X456362500Y-286490000D01*
%TO.C,Q18*%
X481762500Y-281750000D02*
X487222500Y-281750000D01*
X487222500Y-286490000D02*
X487222500Y-281750000D01*
X481762500Y-281750000D02*
X481762500Y-286490000D01*
X487222500Y-286490000D02*
X481762500Y-286490000D01*
%TO.C,Q17*%
X511405000Y-286490000D02*
X505945000Y-286490000D01*
X505945000Y-281750000D02*
X505945000Y-286490000D01*
X511405000Y-286490000D02*
X511405000Y-281750000D01*
X505945000Y-281750000D02*
X511405000Y-281750000D01*
%TO.C,K32*%
X121485000Y-320610000D02*
X121485000Y-299830000D01*
X121485000Y-320610000D02*
X110985000Y-320610000D01*
X110985000Y-299830000D02*
X121485000Y-299830000D01*
X110985000Y-299830000D02*
X110985000Y-320610000D01*
%TO.C,K31*%
X150747500Y-320610000D02*
X150747500Y-299830000D01*
X150747500Y-320610000D02*
X140247500Y-320610000D01*
X140247500Y-299830000D02*
X150747500Y-299830000D01*
X140247500Y-299830000D02*
X140247500Y-320610000D01*
%TO.C,K30*%
X173607500Y-320610000D02*
X173607500Y-299830000D01*
X173607500Y-320610000D02*
X163107500Y-320610000D01*
X163107500Y-299830000D02*
X173607500Y-299830000D01*
X163107500Y-299830000D02*
X163107500Y-320610000D01*
%TO.C,K29*%
X188402500Y-299830000D02*
X188402500Y-320610000D01*
X188402500Y-299830000D02*
X198902500Y-299830000D01*
X198902500Y-320610000D02*
X188402500Y-320610000D01*
X198902500Y-320610000D02*
X198902500Y-299830000D01*
%TO.C,K28*%
X224302500Y-320610000D02*
X224302500Y-299830000D01*
X224302500Y-320610000D02*
X213802500Y-320610000D01*
X213802500Y-299830000D02*
X224302500Y-299830000D01*
X213802500Y-299830000D02*
X213802500Y-320610000D01*
%TO.C,K27*%
X252347500Y-320610000D02*
X252347500Y-299830000D01*
X252347500Y-320610000D02*
X241847500Y-320610000D01*
X241847500Y-299830000D02*
X252347500Y-299830000D01*
X241847500Y-299830000D02*
X241847500Y-320610000D01*
%TO.C,K26*%
X277747500Y-320610000D02*
X277747500Y-299830000D01*
X277747500Y-320610000D02*
X267247500Y-320610000D01*
X267247500Y-299830000D02*
X277747500Y-299830000D01*
X267247500Y-299830000D02*
X267247500Y-320610000D01*
%TO.C,K25*%
X303147500Y-320610000D02*
X303147500Y-299830000D01*
X303147500Y-320610000D02*
X292647500Y-320610000D01*
X292647500Y-299830000D02*
X303147500Y-299830000D01*
X292647500Y-299830000D02*
X292647500Y-320610000D01*
%TO.C,K24*%
X331087500Y-320610000D02*
X331087500Y-299830000D01*
X331087500Y-320610000D02*
X320587500Y-320610000D01*
X320587500Y-299830000D02*
X331087500Y-299830000D01*
X320587500Y-299830000D02*
X320587500Y-320610000D01*
%TO.C,K23*%
X356487500Y-320610000D02*
X356487500Y-299830000D01*
X356487500Y-320610000D02*
X345987500Y-320610000D01*
X345987500Y-299830000D02*
X356487500Y-299830000D01*
X345987500Y-299830000D02*
X345987500Y-320610000D01*
%TO.C,K22*%
X384427500Y-320610000D02*
X384427500Y-299830000D01*
X384427500Y-320610000D02*
X373927500Y-320610000D01*
X373927500Y-299830000D02*
X384427500Y-299830000D01*
X373927500Y-299830000D02*
X373927500Y-320610000D01*
%TO.C,K21*%
X409827500Y-320610000D02*
X409827500Y-299830000D01*
X409827500Y-320610000D02*
X399327500Y-320610000D01*
X399327500Y-299830000D02*
X409827500Y-299830000D01*
X399327500Y-299830000D02*
X399327500Y-320610000D01*
%TO.C,K20*%
X429807500Y-299830000D02*
X429807500Y-320610000D01*
X429807500Y-299830000D02*
X440307500Y-299830000D01*
X440307500Y-320610000D02*
X429807500Y-320610000D01*
X440307500Y-320610000D02*
X440307500Y-299830000D01*
%TO.C,K19*%
X464385000Y-320610000D02*
X464385000Y-299830000D01*
X464385000Y-320610000D02*
X453885000Y-320610000D01*
X453885000Y-299830000D02*
X464385000Y-299830000D01*
X453885000Y-299830000D02*
X453885000Y-320610000D01*
%TO.C,K18*%
X489785000Y-320610000D02*
X489785000Y-299830000D01*
X489785000Y-320610000D02*
X479285000Y-320610000D01*
X479285000Y-299830000D02*
X489785000Y-299830000D01*
X479285000Y-299830000D02*
X479285000Y-320610000D01*
%TO.C,K17*%
X503467500Y-299830000D02*
X503467500Y-320610000D01*
X503467500Y-299830000D02*
X513967500Y-299830000D01*
X513967500Y-320610000D02*
X503467500Y-320610000D01*
X513967500Y-320610000D02*
X513967500Y-299830000D01*
%TO.C,J33*%
X517597500Y-185790000D02*
X517597500Y-198730000D01*
X487157500Y-198730000D02*
X487157500Y-185790000D01*
X517597500Y-198730000D02*
X487157500Y-198730000D01*
X487157500Y-185790000D02*
X517597500Y-185790000D01*
%TO.C,J32*%
X108392500Y-340660000D02*
X123992500Y-340660000D01*
X123992500Y-348660000D02*
X123992500Y-340660000D01*
X123992500Y-348660000D02*
X108392500Y-348660000D01*
X108392500Y-340660000D02*
X108392500Y-348660000D01*
%TO.C,J31*%
X137655000Y-340660000D02*
X153255000Y-340660000D01*
X153255000Y-348660000D02*
X153255000Y-340660000D01*
X153255000Y-348660000D02*
X137655000Y-348660000D01*
X137655000Y-340660000D02*
X137655000Y-348660000D01*
%TO.C,J30*%
X160515000Y-340660000D02*
X176115000Y-340660000D01*
X176115000Y-348660000D02*
X176115000Y-340660000D01*
X176115000Y-348660000D02*
X160515000Y-348660000D01*
X160515000Y-340660000D02*
X160515000Y-348660000D01*
%TO.C,J29*%
X185810000Y-340660000D02*
X185810000Y-348660000D01*
X201410000Y-348660000D02*
X185810000Y-348660000D01*
X201410000Y-348660000D02*
X201410000Y-340660000D01*
X185810000Y-340660000D02*
X201410000Y-340660000D01*
%TO.C,J28*%
X211210000Y-340660000D02*
X226810000Y-340660000D01*
X226810000Y-348660000D02*
X226810000Y-340660000D01*
X226810000Y-348660000D02*
X211210000Y-348660000D01*
X211210000Y-340660000D02*
X211210000Y-348660000D01*
%TO.C,J27*%
X239255000Y-340660000D02*
X254855000Y-340660000D01*
X254855000Y-348660000D02*
X254855000Y-340660000D01*
X254855000Y-348660000D02*
X239255000Y-348660000D01*
X239255000Y-340660000D02*
X239255000Y-348660000D01*
%TO.C,J26*%
X264655000Y-340660000D02*
X280255000Y-340660000D01*
X280255000Y-348660000D02*
X280255000Y-340660000D01*
X280255000Y-348660000D02*
X264655000Y-348660000D01*
X264655000Y-340660000D02*
X264655000Y-348660000D01*
%TO.C,J25*%
X290055000Y-340660000D02*
X305655000Y-340660000D01*
X305655000Y-348660000D02*
X305655000Y-340660000D01*
X305655000Y-348660000D02*
X290055000Y-348660000D01*
X290055000Y-340660000D02*
X290055000Y-348660000D01*
%TO.C,J24*%
X317995000Y-340660000D02*
X333595000Y-340660000D01*
X333595000Y-348660000D02*
X333595000Y-340660000D01*
X333595000Y-348660000D02*
X317995000Y-348660000D01*
X317995000Y-340660000D02*
X317995000Y-348660000D01*
%TO.C,J23*%
X343395000Y-340660000D02*
X358995000Y-340660000D01*
X358995000Y-348660000D02*
X358995000Y-340660000D01*
X358995000Y-348660000D02*
X343395000Y-348660000D01*
X343395000Y-340660000D02*
X343395000Y-348660000D01*
%TO.C,J22*%
X371335000Y-340660000D02*
X386935000Y-340660000D01*
X386935000Y-348660000D02*
X386935000Y-340660000D01*
X386935000Y-348660000D02*
X371335000Y-348660000D01*
X371335000Y-340660000D02*
X371335000Y-348660000D01*
%TO.C,J21*%
X396735000Y-340660000D02*
X412335000Y-340660000D01*
X412335000Y-348660000D02*
X412335000Y-340660000D01*
X412335000Y-348660000D02*
X396735000Y-348660000D01*
X396735000Y-340660000D02*
X396735000Y-348660000D01*
%TO.C,J20*%
X427215000Y-340660000D02*
X427215000Y-348660000D01*
X442815000Y-348660000D02*
X427215000Y-348660000D01*
X442815000Y-348660000D02*
X442815000Y-340660000D01*
X427215000Y-340660000D02*
X442815000Y-340660000D01*
%TO.C,J19*%
X451292500Y-340660000D02*
X466892500Y-340660000D01*
X466892500Y-348660000D02*
X466892500Y-340660000D01*
X466892500Y-348660000D02*
X451292500Y-348660000D01*
X451292500Y-340660000D02*
X451292500Y-348660000D01*
%TO.C,J18*%
X476692500Y-340660000D02*
X492292500Y-340660000D01*
X492292500Y-348660000D02*
X492292500Y-340660000D01*
X492292500Y-348660000D02*
X476692500Y-348660000D01*
X476692500Y-340660000D02*
X476692500Y-348660000D01*
%TO.C,J17*%
X500875000Y-340660000D02*
X500875000Y-348660000D01*
X516475000Y-348660000D02*
X500875000Y-348660000D01*
X516475000Y-348660000D02*
X516475000Y-340660000D01*
X500875000Y-340660000D02*
X516475000Y-340660000D01*
%TO.C,D65*%
X441727500Y-205650000D02*
X436027500Y-205650000D01*
X436027500Y-224590000D02*
X441727500Y-224590000D01*
X436027500Y-205650000D02*
X436027500Y-224590000D01*
X441727500Y-224590000D02*
X441727500Y-205650000D01*
%TO.C,D64*%
X102755000Y-250330000D02*
X108605000Y-250330000D01*
X108605000Y-245330000D02*
X102755000Y-245330000D01*
X102755000Y-245330000D02*
X102755000Y-250330000D01*
X108605000Y-250330000D02*
X108605000Y-245330000D01*
%TO.C,D63*%
X122622500Y-290500000D02*
X109762500Y-290500000D01*
X109762500Y-293700000D02*
X122622500Y-293700000D01*
X122622500Y-293700000D02*
X122622500Y-290500000D01*
X109762500Y-290500000D02*
X109762500Y-293700000D01*
%TO.C,D62*%
X130695000Y-250130000D02*
X136545000Y-250130000D01*
X136545000Y-245130000D02*
X130695000Y-245130000D01*
X130695000Y-245130000D02*
X130695000Y-250130000D01*
X136545000Y-250130000D02*
X136545000Y-245130000D01*
%TO.C,D61*%
X139025000Y-290500000D02*
X139025000Y-293700000D01*
X151885000Y-293700000D02*
X151885000Y-290500000D01*
X139025000Y-293700000D02*
X151885000Y-293700000D01*
X151885000Y-290500000D02*
X139025000Y-290500000D01*
%TO.C,D60*%
X156095000Y-249550000D02*
X161945000Y-249550000D01*
X161945000Y-244550000D02*
X156095000Y-244550000D01*
X156095000Y-244550000D02*
X156095000Y-249550000D01*
X161945000Y-249550000D02*
X161945000Y-244550000D01*
%TO.C,D59*%
X161885000Y-289720000D02*
X161885000Y-292920000D01*
X174745000Y-292920000D02*
X174745000Y-289720000D01*
X161885000Y-292920000D02*
X174745000Y-292920000D01*
X174745000Y-289720000D02*
X161885000Y-289720000D01*
%TO.C,D58*%
X187345000Y-250330000D02*
X187345000Y-245330000D01*
X181495000Y-245330000D02*
X181495000Y-250330000D01*
X187345000Y-245330000D02*
X181495000Y-245330000D01*
X181495000Y-250330000D02*
X187345000Y-250330000D01*
%TO.C,D57*%
X200040000Y-290500000D02*
X187180000Y-290500000D01*
X187180000Y-293700000D02*
X200040000Y-293700000D01*
X200040000Y-293700000D02*
X200040000Y-290500000D01*
X187180000Y-290500000D02*
X187180000Y-293700000D01*
%TO.C,D56*%
X210205000Y-250130000D02*
X210205000Y-245130000D01*
X204355000Y-245130000D02*
X204355000Y-250130000D01*
X210205000Y-245130000D02*
X204355000Y-245130000D01*
X204355000Y-250130000D02*
X210205000Y-250130000D01*
%TO.C,D55*%
X212580000Y-290500000D02*
X212580000Y-293700000D01*
X225440000Y-293700000D02*
X225440000Y-290500000D01*
X212580000Y-293700000D02*
X225440000Y-293700000D01*
X225440000Y-290500000D02*
X212580000Y-290500000D01*
%TO.C,D54*%
X238145000Y-250330000D02*
X238145000Y-245330000D01*
X232295000Y-245330000D02*
X232295000Y-250330000D01*
X238145000Y-245330000D02*
X232295000Y-245330000D01*
X232295000Y-250330000D02*
X238145000Y-250330000D01*
%TO.C,D53*%
X240625000Y-290500000D02*
X240625000Y-293700000D01*
X253485000Y-293700000D02*
X253485000Y-290500000D01*
X240625000Y-293700000D02*
X253485000Y-293700000D01*
X253485000Y-290500000D02*
X240625000Y-290500000D01*
%TO.C,D52*%
X263545000Y-250130000D02*
X263545000Y-245130000D01*
X257695000Y-245130000D02*
X257695000Y-250130000D01*
X263545000Y-245130000D02*
X257695000Y-245130000D01*
X257695000Y-250130000D02*
X263545000Y-250130000D01*
%TO.C,D51*%
X266025000Y-290500000D02*
X266025000Y-293700000D01*
X278885000Y-293700000D02*
X278885000Y-290500000D01*
X266025000Y-293700000D02*
X278885000Y-293700000D01*
X278885000Y-290500000D02*
X266025000Y-290500000D01*
%TO.C,D50*%
X280555000Y-250330000D02*
X286405000Y-250330000D01*
X286405000Y-245330000D02*
X280555000Y-245330000D01*
X280555000Y-245330000D02*
X280555000Y-250330000D01*
X286405000Y-250330000D02*
X286405000Y-245330000D01*
%TO.C,D49*%
X291425000Y-290500000D02*
X291425000Y-293700000D01*
X304285000Y-293700000D02*
X304285000Y-290500000D01*
X291425000Y-293700000D02*
X304285000Y-293700000D01*
X304285000Y-290500000D02*
X291425000Y-290500000D01*
%TO.C,D48*%
X316885000Y-250130000D02*
X316885000Y-245130000D01*
X311035000Y-245130000D02*
X311035000Y-250130000D01*
X316885000Y-245130000D02*
X311035000Y-245130000D01*
X311035000Y-250130000D02*
X316885000Y-250130000D01*
%TO.C,D47*%
X319365000Y-290500000D02*
X319365000Y-293700000D01*
X332225000Y-293700000D02*
X332225000Y-290500000D01*
X319365000Y-293700000D02*
X332225000Y-293700000D01*
X332225000Y-290500000D02*
X319365000Y-290500000D01*
%TO.C,D45*%
X344765000Y-290500000D02*
X344765000Y-293700000D01*
X357625000Y-293700000D02*
X357625000Y-290500000D01*
X344765000Y-293700000D02*
X357625000Y-293700000D01*
X357625000Y-290500000D02*
X344765000Y-290500000D01*
%TO.C,D44*%
X370225000Y-250130000D02*
X370225000Y-245130000D01*
X364375000Y-245130000D02*
X364375000Y-250130000D01*
X370225000Y-245130000D02*
X364375000Y-245130000D01*
X364375000Y-250130000D02*
X370225000Y-250130000D01*
%TO.C,D43*%
X372705000Y-290500000D02*
X372705000Y-293700000D01*
X385565000Y-293700000D02*
X385565000Y-290500000D01*
X372705000Y-293700000D02*
X385565000Y-293700000D01*
X385565000Y-290500000D02*
X372705000Y-290500000D01*
%TO.C,D42*%
X398165000Y-250130000D02*
X398165000Y-245130000D01*
X392315000Y-245130000D02*
X392315000Y-250130000D01*
X398165000Y-245130000D02*
X392315000Y-245130000D01*
X392315000Y-250130000D02*
X398165000Y-250130000D01*
%TO.C,D41*%
X410965000Y-290500000D02*
X398105000Y-290500000D01*
X398105000Y-293700000D02*
X410965000Y-293700000D01*
X410965000Y-293700000D02*
X410965000Y-290500000D01*
X398105000Y-290500000D02*
X398105000Y-293700000D01*
%TO.C,D40*%
X422795000Y-250330000D02*
X428645000Y-250330000D01*
X428645000Y-245330000D02*
X422795000Y-245330000D01*
X422795000Y-245330000D02*
X422795000Y-250330000D01*
X428645000Y-250330000D02*
X428645000Y-245330000D01*
%TO.C,D39*%
X441445000Y-290500000D02*
X428585000Y-290500000D01*
X428585000Y-293700000D02*
X441445000Y-293700000D01*
X441445000Y-293700000D02*
X441445000Y-290500000D01*
X428585000Y-290500000D02*
X428585000Y-293700000D01*
%TO.C,D38*%
X445655000Y-250330000D02*
X451505000Y-250330000D01*
X451505000Y-245330000D02*
X445655000Y-245330000D01*
X445655000Y-245330000D02*
X445655000Y-250330000D01*
X451505000Y-250330000D02*
X451505000Y-245330000D01*
%TO.C,D37*%
X452662500Y-290500000D02*
X452662500Y-293700000D01*
X465522500Y-293700000D02*
X465522500Y-290500000D01*
X452662500Y-293700000D02*
X465522500Y-293700000D01*
X465522500Y-290500000D02*
X452662500Y-290500000D01*
%TO.C,D36*%
X476905000Y-250330000D02*
X476905000Y-245330000D01*
X471055000Y-245330000D02*
X471055000Y-250330000D01*
X476905000Y-245330000D02*
X471055000Y-245330000D01*
X471055000Y-250330000D02*
X476905000Y-250330000D01*
%TO.C,D35*%
X478062500Y-290500000D02*
X478062500Y-293700000D01*
X490922500Y-293700000D02*
X490922500Y-290500000D01*
X478062500Y-293700000D02*
X490922500Y-293700000D01*
X490922500Y-290500000D02*
X478062500Y-290500000D01*
%TO.C,D34*%
X493915000Y-250330000D02*
X499765000Y-250330000D01*
X499765000Y-245330000D02*
X493915000Y-245330000D01*
X493915000Y-245330000D02*
X493915000Y-250330000D01*
X499765000Y-250330000D02*
X499765000Y-245330000D01*
%TO.C,D33*%
X515105000Y-290500000D02*
X502245000Y-290500000D01*
X502245000Y-293700000D02*
X515105000Y-293700000D01*
X515105000Y-293700000D02*
X515105000Y-290500000D01*
X502245000Y-290500000D02*
X502245000Y-293700000D01*
%TO.C,C4*%
X460687500Y-188190000D02*
X462787500Y-188190000D01*
X460687500Y-183590000D02*
X460687500Y-188190000D01*
X462787500Y-188190000D02*
X462787500Y-183590000D01*
X462787500Y-183590000D02*
X460687500Y-183590000D01*
%TO.C,C2*%
X463987500Y-218410000D02*
G75*
G03*
X463987500Y-218410000I-2250000J0D01*
G01*
%TO.C,C1*%
X425887500Y-203170000D02*
G75*
G03*
X425887500Y-203170000I-2250000J0D01*
G01*
%TD*%
M02*
