%TF.GenerationSoftware,KiCad,Pcbnew,7.0.7*%
%TF.CreationDate,2023-09-03T02:21:55+05:00*%
%TF.ProjectId,MCUPCB,4d435550-4342-42e6-9b69-6361645f7063,rev?*%
%TF.SameCoordinates,Original*%
%TF.FileFunction,Other,Comment*%
%FSLAX46Y46*%
G04 Gerber Fmt 4.6, Leading zero omitted, Abs format (unit mm)*
G04 Created by KiCad (PCBNEW 7.0.7) date 2023-09-03 02:21:55*
%MOMM*%
%LPD*%
G01*
G04 APERTURE LIST*
%ADD10C,0.150000*%
G04 APERTURE END LIST*
D10*
X110542438Y-218462857D02*
X108542438Y-218462857D01*
X110542438Y-217320000D02*
X109399580Y-218177143D01*
X108542438Y-217320000D02*
X109685295Y-218462857D01*
X109494819Y-216462857D02*
X109494819Y-215796190D01*
X110542438Y-215510476D02*
X110542438Y-216462857D01*
X110542438Y-216462857D02*
X108542438Y-216462857D01*
X108542438Y-216462857D02*
X108542438Y-215510476D01*
X109494819Y-214653333D02*
X109494819Y-213986666D01*
X110542438Y-213700952D02*
X110542438Y-214653333D01*
X110542438Y-214653333D02*
X108542438Y-214653333D01*
X108542438Y-214653333D02*
X108542438Y-213700952D01*
X110542438Y-212843809D02*
X108542438Y-212843809D01*
X108542438Y-212843809D02*
X108542438Y-212081904D01*
X108542438Y-212081904D02*
X108637676Y-211891428D01*
X108637676Y-211891428D02*
X108732914Y-211796190D01*
X108732914Y-211796190D02*
X108923390Y-211700952D01*
X108923390Y-211700952D02*
X109209104Y-211700952D01*
X109209104Y-211700952D02*
X109399580Y-211796190D01*
X109399580Y-211796190D02*
X109494819Y-211891428D01*
X109494819Y-211891428D02*
X109590057Y-212081904D01*
X109590057Y-212081904D02*
X109590057Y-212843809D01*
X109780533Y-210843809D02*
X109780533Y-209320000D01*
X108542438Y-207986667D02*
X108542438Y-207605714D01*
X108542438Y-207605714D02*
X108637676Y-207415238D01*
X108637676Y-207415238D02*
X108828152Y-207224762D01*
X108828152Y-207224762D02*
X109209104Y-207129524D01*
X109209104Y-207129524D02*
X109875771Y-207129524D01*
X109875771Y-207129524D02*
X110256723Y-207224762D01*
X110256723Y-207224762D02*
X110447200Y-207415238D01*
X110447200Y-207415238D02*
X110542438Y-207605714D01*
X110542438Y-207605714D02*
X110542438Y-207986667D01*
X110542438Y-207986667D02*
X110447200Y-208177143D01*
X110447200Y-208177143D02*
X110256723Y-208367619D01*
X110256723Y-208367619D02*
X109875771Y-208462857D01*
X109875771Y-208462857D02*
X109209104Y-208462857D01*
X109209104Y-208462857D02*
X108828152Y-208367619D01*
X108828152Y-208367619D02*
X108637676Y-208177143D01*
X108637676Y-208177143D02*
X108542438Y-207986667D01*
X108542438Y-206272381D02*
X110161485Y-206272381D01*
X110161485Y-206272381D02*
X110351961Y-206177143D01*
X110351961Y-206177143D02*
X110447200Y-206081905D01*
X110447200Y-206081905D02*
X110542438Y-205891429D01*
X110542438Y-205891429D02*
X110542438Y-205510476D01*
X110542438Y-205510476D02*
X110447200Y-205320000D01*
X110447200Y-205320000D02*
X110351961Y-205224762D01*
X110351961Y-205224762D02*
X110161485Y-205129524D01*
X110161485Y-205129524D02*
X108542438Y-205129524D01*
X108542438Y-204462857D02*
X108542438Y-203320000D01*
X110542438Y-203891429D02*
X108542438Y-203891429D01*
X108542438Y-201319999D02*
X108542438Y-199986666D01*
X108542438Y-199986666D02*
X110542438Y-201319999D01*
X110542438Y-201319999D02*
X110542438Y-199986666D01*
X108542438Y-198843809D02*
X108542438Y-198462856D01*
X108542438Y-198462856D02*
X108637676Y-198272380D01*
X108637676Y-198272380D02*
X108828152Y-198081904D01*
X108828152Y-198081904D02*
X109209104Y-197986666D01*
X109209104Y-197986666D02*
X109875771Y-197986666D01*
X109875771Y-197986666D02*
X110256723Y-198081904D01*
X110256723Y-198081904D02*
X110447200Y-198272380D01*
X110447200Y-198272380D02*
X110542438Y-198462856D01*
X110542438Y-198462856D02*
X110542438Y-198843809D01*
X110542438Y-198843809D02*
X110447200Y-199034285D01*
X110447200Y-199034285D02*
X110256723Y-199224761D01*
X110256723Y-199224761D02*
X109875771Y-199319999D01*
X109875771Y-199319999D02*
X109209104Y-199319999D01*
X109209104Y-199319999D02*
X108828152Y-199224761D01*
X108828152Y-199224761D02*
X108637676Y-199034285D01*
X108637676Y-199034285D02*
X108542438Y-198843809D01*
X110542438Y-197129523D02*
X108542438Y-197129523D01*
X108542438Y-197129523D02*
X110542438Y-195986666D01*
X110542438Y-195986666D02*
X108542438Y-195986666D01*
X109494819Y-195034285D02*
X109494819Y-194367618D01*
X110542438Y-194081904D02*
X110542438Y-195034285D01*
X110542438Y-195034285D02*
X108542438Y-195034285D01*
X108542438Y-195034285D02*
X108542438Y-194081904D01*
X119274104Y-209131904D02*
X119274104Y-208655714D01*
X119559819Y-209227142D02*
X118559819Y-208893809D01*
X118559819Y-208893809D02*
X119559819Y-208560476D01*
X118893152Y-208227142D02*
X119559819Y-208227142D01*
X118988390Y-208227142D02*
X118940771Y-208179523D01*
X118940771Y-208179523D02*
X118893152Y-208084285D01*
X118893152Y-208084285D02*
X118893152Y-207941428D01*
X118893152Y-207941428D02*
X118940771Y-207846190D01*
X118940771Y-207846190D02*
X119036009Y-207798571D01*
X119036009Y-207798571D02*
X119559819Y-207798571D01*
X118893152Y-207465237D02*
X118893152Y-207084285D01*
X118559819Y-207322380D02*
X119416961Y-207322380D01*
X119416961Y-207322380D02*
X119512200Y-207274761D01*
X119512200Y-207274761D02*
X119559819Y-207179523D01*
X119559819Y-207179523D02*
X119559819Y-207084285D01*
X119512200Y-206369999D02*
X119559819Y-206465237D01*
X119559819Y-206465237D02*
X119559819Y-206655713D01*
X119559819Y-206655713D02*
X119512200Y-206750951D01*
X119512200Y-206750951D02*
X119416961Y-206798570D01*
X119416961Y-206798570D02*
X119036009Y-206798570D01*
X119036009Y-206798570D02*
X118940771Y-206750951D01*
X118940771Y-206750951D02*
X118893152Y-206655713D01*
X118893152Y-206655713D02*
X118893152Y-206465237D01*
X118893152Y-206465237D02*
X118940771Y-206369999D01*
X118940771Y-206369999D02*
X119036009Y-206322380D01*
X119036009Y-206322380D02*
X119131247Y-206322380D01*
X119131247Y-206322380D02*
X119226485Y-206798570D01*
X118893152Y-205893808D02*
X119559819Y-205893808D01*
X118988390Y-205893808D02*
X118940771Y-205846189D01*
X118940771Y-205846189D02*
X118893152Y-205750951D01*
X118893152Y-205750951D02*
X118893152Y-205608094D01*
X118893152Y-205608094D02*
X118940771Y-205512856D01*
X118940771Y-205512856D02*
X119036009Y-205465237D01*
X119036009Y-205465237D02*
X119559819Y-205465237D01*
X118893152Y-204989046D02*
X119559819Y-204989046D01*
X118988390Y-204989046D02*
X118940771Y-204941427D01*
X118940771Y-204941427D02*
X118893152Y-204846189D01*
X118893152Y-204846189D02*
X118893152Y-204703332D01*
X118893152Y-204703332D02*
X118940771Y-204608094D01*
X118940771Y-204608094D02*
X119036009Y-204560475D01*
X119036009Y-204560475D02*
X119559819Y-204560475D01*
X119559819Y-203655713D02*
X119036009Y-203655713D01*
X119036009Y-203655713D02*
X118940771Y-203703332D01*
X118940771Y-203703332D02*
X118893152Y-203798570D01*
X118893152Y-203798570D02*
X118893152Y-203989046D01*
X118893152Y-203989046D02*
X118940771Y-204084284D01*
X119512200Y-203655713D02*
X119559819Y-203750951D01*
X119559819Y-203750951D02*
X119559819Y-203989046D01*
X119559819Y-203989046D02*
X119512200Y-204084284D01*
X119512200Y-204084284D02*
X119416961Y-204131903D01*
X119416961Y-204131903D02*
X119321723Y-204131903D01*
X119321723Y-204131903D02*
X119226485Y-204084284D01*
X119226485Y-204084284D02*
X119178866Y-203989046D01*
X119178866Y-203989046D02*
X119178866Y-203750951D01*
X119178866Y-203750951D02*
X119131247Y-203655713D01*
M02*
